<?xml version="1.0" encoding="UTF-8"?>
<svg xmlns="http://www.w3.org/2000/svg" xmlns:xlink="http://www.w3.org/1999/xlink" width="1018pt" height="210pt" viewBox="0 0 1018 210" version="1.1">
<g id="surface1">
<path style=" stroke:none;fill-rule:nonzero;fill:rgb(13.729858%,12.159729%,12.548828%);fill-opacity:1;" d="M 909.867188 104.664062 L 914.042969 105.722656 C 913.171875 109.144531 911.589844 111.757812 909.324219 113.5625 C 907.046875 115.363281 904.269531 116.257812 900.980469 116.257812 C 897.582031 116.257812 894.820312 115.566406 892.691406 114.1875 C 890.5625 112.800781 888.941406 110.796875 887.832031 108.175781 C 886.722656 105.546875 886.164062 102.726562 886.164062 99.714844 C 886.164062 96.433594 886.789062 93.570312 888.042969 91.125 C 889.300781 88.679688 891.085938 86.824219 893.402344 85.550781 C 895.71875 84.28125 898.265625 83.648438 901.046875 83.648438 C 904.203125 83.648438 906.855469 84.449219 909.007812 86.058594 C 911.15625 87.667969 912.65625 89.921875 913.5 92.835938 L 909.394531 93.804688 C 908.660156 91.507812 907.605469 89.839844 906.210938 88.789062 C 904.820312 87.738281 903.074219 87.21875 900.960938 87.21875 C 898.535156 87.21875 896.515625 87.800781 894.886719 88.960938 C 893.257812 90.128906 892.113281 91.683594 891.460938 93.644531 C 890.796875 95.597656 890.46875 97.617188 890.46875 99.695312 C 890.46875 102.382812 890.855469 104.714844 891.636719 106.722656 C 892.421875 108.71875 893.632812 110.214844 895.285156 111.207031 C 896.9375 112.199219 898.71875 112.691406 900.644531 112.691406 C 902.980469 112.691406 904.953125 112.015625 906.578125 110.671875 C 908.199219 109.320312 909.292969 107.316406 909.867188 104.664062 "/>
<path style=" stroke:none;fill-rule:nonzero;fill:rgb(13.729858%,12.159729%,12.548828%);fill-opacity:1;" d="M 926.820312 110.625 L 926.820312 101.976562 L 918.234375 101.976562 L 918.234375 98.363281 L 926.820312 98.363281 L 926.820312 89.78125 L 930.476562 89.78125 L 930.476562 98.363281 L 939.058594 98.363281 L 939.058594 101.976562 L 930.476562 101.976562 L 930.476562 110.625 L 926.820312 110.625 "/>
<path style=" stroke:none;fill-rule:nonzero;fill:rgb(13.729858%,12.159729%,12.548828%);fill-opacity:1;" d="M 952.546875 110.625 L 952.546875 101.976562 L 943.964844 101.976562 L 943.964844 98.363281 L 952.546875 98.363281 L 952.546875 89.78125 L 956.203125 89.78125 L 956.203125 98.363281 L 964.789062 98.363281 L 964.789062 101.976562 L 956.203125 101.976562 L 956.203125 110.625 L 952.546875 110.625 "/>
<path style=" stroke:none;fill-rule:nonzero;fill:rgb(13.729858%,12.159729%,12.548828%);fill-opacity:1;" d="M 901.78125 156.566406 L 905.585938 157.066406 C 905.175781 159.6875 904.109375 161.746094 902.390625 163.226562 C 900.679688 164.710938 898.574219 165.453125 896.078125 165.453125 C 892.957031 165.453125 890.4375 164.433594 888.542969 162.390625 C 886.640625 160.347656 885.6875 157.417969 885.6875 153.601562 C 885.6875 151.136719 886.097656 148.976562 886.914062 147.125 C 887.734375 145.277344 888.976562 143.886719 890.652344 142.960938 C 892.316406 142.039062 894.136719 141.574219 896.097656 141.574219 C 898.578125 141.574219 900.613281 142.207031 902.1875 143.460938 C 903.765625 144.71875 904.777344 146.496094 905.226562 148.808594 L 901.460938 149.386719 C 901.097656 147.851562 900.46875 146.699219 899.558594 145.921875 C 898.644531 145.152344 897.546875 144.761719 896.253906 144.761719 C 894.300781 144.761719 892.714844 145.460938 891.496094 146.859375 C 890.277344 148.257812 889.667969 150.464844 889.667969 153.492188 C 889.667969 156.5625 890.253906 158.792969 891.4375 160.1875 C 892.609375 161.574219 894.144531 162.273438 896.039062 162.273438 C 897.558594 162.273438 898.824219 161.804688 899.84375 160.871094 C 900.863281 159.9375 901.511719 158.507812 901.78125 156.566406 "/>
<path style=" stroke:none;fill-rule:nonzero;fill:rgb(13.729858%,12.159729%,12.548828%);fill-opacity:1;" d="M 908.816406 164.9375 L 908.816406 133.402344 L 912.6875 133.402344 L 912.6875 164.9375 L 908.816406 164.9375 "/>
<path style=" stroke:none;fill-rule:nonzero;fill:rgb(13.729858%,12.159729%,12.548828%);fill-opacity:1;" d="M 933.597656 162.117188 C 932.15625 163.339844 930.777344 164.195312 929.453125 164.703125 C 928.128906 165.203125 926.703125 165.453125 925.183594 165.453125 C 922.671875 165.453125 920.746094 164.84375 919.394531 163.617188 C 918.054688 162.390625 917.378906 160.820312 917.378906 158.917969 C 917.378906 157.792969 917.628906 156.773438 918.140625 155.847656 C 918.648438 154.921875 919.316406 154.183594 920.136719 153.625 C 920.96875 153.066406 921.894531 152.640625 922.929688 152.351562 C 923.683594 152.15625 924.828125 151.957031 926.363281 151.773438 C 929.492188 151.398438 931.796875 150.957031 933.273438 150.4375 C 933.289062 149.910156 933.296875 149.570312 933.296875 149.429688 C 933.296875 147.851562 932.929688 146.738281 932.195312 146.097656 C 931.210938 145.21875 929.734375 144.785156 927.789062 144.785156 C 925.96875 144.785156 924.625 145.097656 923.75 145.738281 C 922.882812 146.375 922.246094 147.507812 921.828125 149.128906 L 918.046875 148.609375 C 918.390625 146.992188 918.957031 145.679688 919.742188 144.6875 C 920.527344 143.691406 921.671875 142.917969 923.164062 142.382812 C 924.652344 141.847656 926.378906 141.574219 928.347656 141.574219 C 930.300781 141.574219 931.878906 141.808594 933.097656 142.265625 C 934.316406 142.726562 935.210938 143.300781 935.792969 143.996094 C 936.363281 144.695312 936.761719 145.570312 936.996094 146.632812 C 937.121094 147.292969 937.1875 148.484375 937.1875 150.203125 L 937.1875 155.363281 C 937.1875 158.96875 937.269531 161.246094 937.4375 162.191406 C 937.597656 163.148438 937.929688 164.066406 938.414062 164.9375 L 934.367188 164.9375 C 933.972656 164.136719 933.707031 163.199219 933.597656 162.117188 Z M 933.273438 153.46875 C 931.863281 154.050781 929.757812 154.535156 926.953125 154.9375 C 925.359375 155.164062 924.226562 155.421875 923.574219 155.710938 C 922.914062 155.996094 922.398438 156.414062 922.046875 156.972656 C 921.6875 157.523438 921.503906 158.132812 921.503906 158.808594 C 921.503906 159.84375 921.898438 160.703125 922.679688 161.390625 C 923.457031 162.074219 924.601562 162.417969 926.105469 162.417969 C 927.597656 162.417969 928.925781 162.097656 930.085938 161.445312 C 931.246094 160.789062 932.105469 159.894531 932.648438 158.765625 C 933.066406 157.890625 933.273438 156.597656 933.273438 154.894531 L 933.273438 153.46875 "/>
<path style=" stroke:none;fill-rule:nonzero;fill:rgb(13.729858%,12.159729%,12.548828%);fill-opacity:1;" d="M 941.644531 158.117188 L 945.46875 157.515625 C 945.683594 159.050781 946.285156 160.226562 947.269531 161.046875 C 948.246094 161.863281 949.617188 162.273438 951.386719 162.273438 C 953.164062 162.273438 954.484375 161.90625 955.34375 161.1875 C 956.203125 160.460938 956.636719 159.609375 956.636719 158.640625 C 956.636719 157.757812 956.257812 157.074219 955.492188 156.566406 C 954.964844 156.222656 953.640625 155.789062 951.535156 155.261719 C 948.699219 154.542969 946.726562 153.925781 945.632812 153.394531 C 944.535156 152.875 943.699219 152.148438 943.136719 151.222656 C 942.570312 150.296875 942.28125 149.277344 942.28125 148.160156 C 942.28125 147.140625 942.519531 146.199219 942.988281 145.335938 C 943.449219 144.460938 944.089844 143.742188 944.890625 143.167969 C 945.492188 142.726562 946.3125 142.34375 947.347656 142.039062 C 948.390625 141.730469 949.507812 141.574219 950.699219 141.574219 C 952.488281 141.574219 954.058594 141.839844 955.417969 142.351562 C 956.777344 142.867188 957.777344 143.566406 958.421875 144.445312 C 959.066406 145.335938 959.507812 146.507812 959.75 147.984375 L 955.96875 148.507812 C 955.792969 147.332031 955.292969 146.414062 954.472656 145.753906 C 953.648438 145.09375 952.480469 144.761719 950.976562 144.761719 C 949.199219 144.761719 947.929688 145.054688 947.171875 145.644531 C 946.410156 146.230469 946.027344 146.921875 946.027344 147.707031 C 946.027344 148.210938 946.1875 148.660156 946.503906 149.0625 C 946.820312 149.484375 947.3125 149.820312 947.988281 150.097656 C 948.378906 150.238281 949.515625 150.570312 951.410156 151.082031 C 954.148438 151.816406 956.058594 152.410156 957.136719 152.882812 C 958.222656 153.34375 959.074219 154.027344 959.691406 154.914062 C 960.308594 155.804688 960.617188 156.90625 960.617188 158.226562 C 960.617188 159.519531 960.234375 160.730469 959.484375 161.878906 C 958.730469 163.015625 957.644531 163.894531 956.226562 164.519531 C 954.808594 165.144531 953.199219 165.453125 951.410156 165.453125 C 948.4375 165.453125 946.175781 164.835938 944.617188 163.601562 C 943.0625 162.367188 942.070312 160.539062 941.644531 158.117188 "/>
<path style=" stroke:none;fill-rule:nonzero;fill:rgb(13.729858%,12.159729%,12.548828%);fill-opacity:1;" d="M 963.671875 158.117188 L 967.496094 157.515625 C 967.710938 159.050781 968.3125 160.226562 969.296875 161.046875 C 970.273438 161.863281 971.644531 162.273438 973.414062 162.273438 C 975.191406 162.273438 976.515625 161.90625 977.371094 161.1875 C 978.230469 160.460938 978.664062 159.609375 978.664062 158.640625 C 978.664062 157.757812 978.28125 157.074219 977.519531 156.566406 C 976.992188 156.222656 975.671875 155.789062 973.5625 155.261719 C 970.726562 154.542969 968.753906 153.925781 967.660156 153.394531 C 966.566406 152.875 965.726562 152.148438 965.160156 151.222656 C 964.597656 150.296875 964.3125 149.277344 964.3125 148.160156 C 964.3125 147.140625 964.546875 146.199219 965.015625 145.335938 C 965.476562 144.460938 966.117188 143.742188 966.917969 143.167969 C 967.519531 142.726562 968.339844 142.34375 969.378906 142.039062 C 970.417969 141.730469 971.535156 141.574219 972.726562 141.574219 C 974.515625 141.574219 976.089844 141.839844 977.445312 142.351562 C 978.804688 142.867188 979.804688 143.566406 980.449219 144.445312 C 981.09375 145.335938 981.535156 146.507812 981.777344 147.984375 L 977.996094 148.507812 C 977.820312 147.332031 977.320312 146.414062 976.5 145.753906 C 975.675781 145.09375 974.507812 144.761719 973.003906 144.761719 C 971.226562 144.761719 969.957031 145.054688 969.199219 145.644531 C 968.4375 146.230469 968.054688 146.921875 968.054688 147.707031 C 968.054688 148.210938 968.21875 148.660156 968.53125 149.0625 C 968.847656 149.484375 969.339844 149.820312 970.015625 150.097656 C 970.40625 150.238281 971.542969 150.570312 973.4375 151.082031 C 976.175781 151.816406 978.085938 152.410156 979.164062 152.882812 C 980.25 153.34375 981.101562 154.027344 981.71875 154.914062 C 982.335938 155.804688 982.644531 156.90625 982.644531 158.226562 C 982.644531 159.519531 982.261719 160.730469 981.515625 161.878906 C 980.757812 163.015625 979.671875 163.894531 978.253906 164.519531 C 976.835938 165.144531 975.230469 165.453125 973.4375 165.453125 C 970.464844 165.453125 968.203125 164.835938 966.644531 163.601562 C 965.089844 162.367188 964.097656 160.539062 963.671875 158.117188 "/>
<path style="fill:none;stroke-width:39.9997;stroke-linecap:butt;stroke-linejoin:miter;stroke:rgb(13.729858%,12.159729%,12.548828%);stroke-opacity:1;stroke-miterlimit:22.9256;" d="M 8459.960938 1602.304688 L 10158.789062 1602.304688 L 10158.789062 143.359375 L 8459.960938 143.359375 Z M 8459.960938 1602.304688 " transform="matrix(0.1,0,0,-0.1,0,210)"/>
<path style=" stroke:none;fill-rule:nonzero;fill:rgb(13.729858%,12.159729%,12.548828%);fill-opacity:1;" d="M 527.160156 104.664062 L 531.339844 105.722656 C 530.464844 109.144531 528.886719 111.757812 526.617188 113.5625 C 524.339844 115.363281 521.566406 116.257812 518.277344 116.257812 C 514.878906 116.257812 512.117188 115.566406 509.988281 114.1875 C 507.855469 112.800781 506.234375 110.796875 505.125 108.175781 C 504.015625 105.546875 503.460938 102.726562 503.460938 99.714844 C 503.460938 96.433594 504.085938 93.570312 505.339844 91.125 C 506.59375 88.679688 508.378906 86.824219 510.699219 85.550781 C 513.011719 84.28125 515.558594 83.648438 518.34375 83.648438 C 521.5 83.648438 524.148438 84.449219 526.300781 86.058594 C 528.453125 87.667969 529.949219 89.921875 530.796875 92.835938 L 526.691406 93.804688 C 525.957031 91.507812 524.898438 89.839844 523.503906 88.789062 C 522.117188 87.738281 520.367188 87.21875 518.253906 87.21875 C 515.832031 87.21875 513.8125 87.800781 512.183594 88.960938 C 510.550781 90.128906 509.40625 91.683594 508.753906 93.644531 C 508.09375 95.597656 507.761719 97.617188 507.761719 99.695312 C 507.761719 102.382812 508.152344 104.714844 508.929688 106.722656 C 509.714844 108.71875 510.925781 110.214844 512.578125 111.207031 C 514.230469 112.199219 516.015625 112.691406 517.9375 112.691406 C 520.273438 112.691406 522.246094 112.015625 523.871094 110.671875 C 525.492188 109.320312 526.589844 107.316406 527.160156 104.664062 "/>
<path style=" stroke:none;fill-rule:nonzero;fill:rgb(13.729858%,12.159729%,12.548828%);fill-opacity:1;" d="M 544.113281 110.625 L 544.113281 101.976562 L 535.53125 101.976562 L 535.53125 98.363281 L 544.113281 98.363281 L 544.113281 89.78125 L 547.769531 89.78125 L 547.769531 98.363281 L 556.355469 98.363281 L 556.355469 101.976562 L 547.769531 101.976562 L 547.769531 110.625 L 544.113281 110.625 "/>
<path style=" stroke:none;fill-rule:nonzero;fill:rgb(13.729858%,12.159729%,12.548828%);fill-opacity:1;" d="M 569.84375 110.625 L 569.84375 101.976562 L 561.257812 101.976562 L 561.257812 98.363281 L 569.84375 98.363281 L 569.84375 89.78125 L 573.5 89.78125 L 573.5 98.363281 L 582.082031 98.363281 L 582.082031 101.976562 L 573.5 101.976562 L 573.5 110.625 L 569.84375 110.625 "/>
<path style=" stroke:none;fill-rule:nonzero;fill:rgb(13.729858%,12.159729%,12.548828%);fill-opacity:1;" d="M 519.078125 156.566406 L 522.878906 157.066406 C 522.46875 159.6875 521.402344 161.746094 519.6875 163.226562 C 517.976562 164.710938 515.867188 165.453125 513.371094 165.453125 C 510.25 165.453125 507.730469 164.433594 505.839844 162.390625 C 503.9375 160.347656 502.980469 157.417969 502.980469 153.601562 C 502.980469 151.136719 503.394531 148.976562 504.207031 147.125 C 505.03125 145.277344 506.269531 143.886719 507.945312 142.960938 C 509.613281 142.039062 511.433594 141.574219 513.394531 141.574219 C 515.875 141.574219 517.910156 142.207031 519.480469 143.460938 C 521.058594 144.71875 522.074219 146.496094 522.519531 148.808594 L 518.753906 149.386719 C 518.394531 147.851562 517.761719 146.699219 516.851562 145.921875 C 515.941406 145.152344 514.839844 144.761719 513.546875 144.761719 C 511.59375 144.761719 510.007812 145.460938 508.789062 146.859375 C 507.570312 148.257812 506.960938 150.464844 506.960938 153.492188 C 506.960938 156.5625 507.550781 158.792969 508.730469 160.1875 C 509.90625 161.574219 511.441406 162.273438 513.335938 162.273438 C 514.855469 162.273438 516.117188 161.804688 517.136719 160.871094 C 518.160156 159.9375 518.804688 158.507812 519.078125 156.566406 "/>
<path style=" stroke:none;fill-rule:nonzero;fill:rgb(13.729858%,12.159729%,12.548828%);fill-opacity:1;" d="M 526.109375 164.9375 L 526.109375 133.402344 L 529.980469 133.402344 L 529.980469 164.9375 L 526.109375 164.9375 "/>
<path style=" stroke:none;fill-rule:nonzero;fill:rgb(13.729858%,12.159729%,12.548828%);fill-opacity:1;" d="M 550.890625 162.117188 C 549.453125 163.339844 548.070312 164.195312 546.75 164.703125 C 545.421875 165.203125 543.996094 165.453125 542.476562 165.453125 C 539.964844 165.453125 538.042969 164.84375 536.691406 163.617188 C 535.347656 162.390625 534.671875 160.820312 534.671875 158.917969 C 534.671875 157.792969 534.921875 156.773438 535.4375 155.847656 C 535.941406 154.921875 536.609375 154.183594 537.433594 153.625 C 538.261719 153.066406 539.1875 152.640625 540.222656 152.351562 C 540.980469 152.15625 542.125 151.957031 543.660156 151.773438 C 546.785156 151.398438 549.09375 150.957031 550.570312 150.4375 C 550.582031 149.910156 550.589844 149.570312 550.589844 149.429688 C 550.589844 147.851562 550.222656 146.738281 549.488281 146.097656 C 548.503906 145.21875 547.03125 144.785156 545.085938 144.785156 C 543.261719 144.785156 541.917969 145.097656 541.046875 145.738281 C 540.179688 146.375 539.539062 147.507812 539.121094 149.128906 L 535.339844 148.609375 C 535.683594 146.992188 536.25 145.679688 537.035156 144.6875 C 537.820312 143.691406 538.96875 142.917969 540.457031 142.382812 C 541.949219 141.847656 543.675781 141.574219 545.640625 141.574219 C 547.59375 141.574219 549.171875 141.808594 550.390625 142.265625 C 551.609375 142.726562 552.507812 143.300781 553.085938 143.996094 C 553.660156 144.695312 554.054688 145.570312 554.289062 146.632812 C 554.414062 147.292969 554.480469 148.484375 554.480469 150.203125 L 554.480469 155.363281 C 554.480469 158.96875 554.5625 161.246094 554.730469 162.191406 C 554.894531 163.148438 555.222656 164.066406 555.707031 164.9375 L 551.664062 164.9375 C 551.265625 164.136719 551.003906 163.199219 550.890625 162.117188 Z M 550.570312 153.46875 C 549.160156 154.050781 547.050781 154.535156 544.246094 154.9375 C 542.652344 155.164062 541.523438 155.421875 540.867188 155.710938 C 540.207031 155.996094 539.695312 156.414062 539.34375 156.972656 C 538.980469 157.523438 538.796875 158.132812 538.796875 158.808594 C 538.796875 159.84375 539.195312 160.703125 539.972656 161.390625 C 540.753906 162.074219 541.898438 162.417969 543.402344 162.417969 C 544.894531 162.417969 546.222656 162.097656 547.382812 161.445312 C 548.542969 160.789062 549.402344 159.894531 549.945312 158.765625 C 550.363281 157.890625 550.570312 156.597656 550.570312 154.894531 L 550.570312 153.46875 "/>
<path style=" stroke:none;fill-rule:nonzero;fill:rgb(13.729858%,12.159729%,12.548828%);fill-opacity:1;" d="M 558.9375 158.117188 L 562.765625 157.515625 C 562.976562 159.050781 563.578125 160.226562 564.5625 161.046875 C 565.539062 161.863281 566.914062 162.273438 568.683594 162.273438 C 570.460938 162.273438 571.78125 161.90625 572.640625 161.1875 C 573.5 160.460938 573.933594 159.609375 573.933594 158.640625 C 573.933594 157.757812 573.550781 157.074219 572.785156 156.566406 C 572.257812 156.222656 570.9375 155.789062 568.828125 155.261719 C 565.996094 154.542969 564.019531 153.925781 562.925781 153.394531 C 561.832031 152.875 560.996094 152.148438 560.429688 151.222656 C 559.863281 150.296875 559.578125 149.277344 559.578125 148.160156 C 559.578125 147.140625 559.8125 146.199219 560.28125 145.335938 C 560.746094 144.460938 561.382812 143.742188 562.183594 143.167969 C 562.785156 142.726562 563.609375 142.34375 564.644531 142.039062 C 565.6875 141.730469 566.804688 141.574219 567.992188 141.574219 C 569.785156 141.574219 571.355469 141.839844 572.714844 142.351562 C 574.070312 142.867188 575.070312 143.566406 575.714844 144.445312 C 576.363281 145.335938 576.804688 146.507812 577.046875 147.984375 L 573.265625 148.507812 C 573.089844 147.332031 572.589844 146.414062 571.765625 145.753906 C 570.945312 145.09375 569.777344 144.761719 568.269531 144.761719 C 566.496094 144.761719 565.222656 145.054688 564.46875 145.644531 C 563.703125 146.230469 563.324219 146.921875 563.324219 147.707031 C 563.324219 148.210938 563.484375 148.660156 563.800781 149.0625 C 564.113281 149.484375 564.605469 149.820312 565.28125 150.097656 C 565.671875 150.238281 566.808594 150.570312 568.703125 151.082031 C 571.441406 151.816406 573.351562 152.410156 574.433594 152.882812 C 575.519531 153.34375 576.371094 154.027344 576.988281 154.914062 C 577.605469 155.804688 577.910156 156.90625 577.910156 158.226562 C 577.910156 159.519531 577.53125 160.730469 576.78125 161.878906 C 576.023438 163.015625 574.9375 163.894531 573.519531 164.519531 C 572.105469 165.144531 570.496094 165.453125 568.703125 165.453125 C 565.730469 165.453125 563.46875 164.835938 561.914062 163.601562 C 560.355469 162.367188 559.363281 160.539062 558.9375 158.117188 "/>
<path style=" stroke:none;fill-rule:nonzero;fill:rgb(13.729858%,12.159729%,12.548828%);fill-opacity:1;" d="M 580.964844 158.117188 L 584.792969 157.515625 C 585.003906 159.050781 585.605469 160.226562 586.589844 161.046875 C 587.566406 161.863281 588.941406 162.273438 590.710938 162.273438 C 592.488281 162.273438 593.808594 161.90625 594.667969 161.1875 C 595.527344 160.460938 595.960938 159.609375 595.960938 158.640625 C 595.960938 157.757812 595.578125 157.074219 594.8125 156.566406 C 594.285156 156.222656 592.964844 155.789062 590.855469 155.261719 C 588.023438 154.542969 586.046875 153.925781 584.953125 153.394531 C 583.859375 152.875 583.023438 152.148438 582.457031 151.222656 C 581.890625 150.296875 581.605469 149.277344 581.605469 148.160156 C 581.605469 147.140625 581.839844 146.199219 582.308594 145.335938 C 582.773438 144.460938 583.410156 143.742188 584.210938 143.167969 C 584.8125 142.726562 585.636719 142.34375 586.671875 142.039062 C 587.714844 141.730469 588.828125 141.574219 590.019531 141.574219 C 591.8125 141.574219 593.382812 141.839844 594.742188 142.351562 C 596.097656 142.867188 597.097656 143.566406 597.742188 144.445312 C 598.390625 145.335938 598.832031 146.507812 599.074219 147.984375 L 595.292969 148.507812 C 595.113281 147.332031 594.617188 146.414062 593.792969 145.753906 C 592.972656 145.09375 591.804688 144.761719 590.300781 144.761719 C 588.523438 144.761719 587.253906 145.054688 586.496094 145.644531 C 585.730469 146.230469 585.351562 146.921875 585.351562 147.707031 C 585.351562 148.210938 585.511719 148.660156 585.828125 149.0625 C 586.144531 149.484375 586.636719 149.820312 587.3125 150.097656 C 587.699219 150.238281 588.839844 150.570312 590.730469 151.082031 C 593.472656 151.816406 595.378906 152.410156 596.460938 152.882812 C 597.546875 153.34375 598.398438 154.027344 599.015625 154.914062 C 599.632812 155.804688 599.9375 156.90625 599.9375 158.226562 C 599.9375 159.519531 599.558594 160.730469 598.808594 161.878906 C 598.050781 163.015625 596.964844 163.894531 595.546875 164.519531 C 594.132812 165.144531 592.523438 165.453125 590.730469 165.453125 C 587.757812 165.453125 585.496094 164.835938 583.941406 163.601562 C 582.382812 162.367188 581.390625 160.539062 580.964844 158.117188 "/>
<path style="fill:none;stroke-width:39.9997;stroke-linecap:butt;stroke-linejoin:miter;stroke:rgb(13.729858%,12.159729%,12.548828%);stroke-opacity:1;stroke-miterlimit:22.9256;" d="M 4632.890625 1602.304688 L 6331.71875 1602.304688 L 6331.71875 143.359375 L 4632.890625 143.359375 Z M 4632.890625 1602.304688 " transform="matrix(0.1,0,0,-0.1,0,210)"/>
<path style="fill:none;stroke-width:79.9994;stroke-linecap:butt;stroke-linejoin:miter;stroke:rgb(13.729858%,12.159729%,12.548828%);stroke-opacity:1;stroke-miterlimit:22.9256;" d="M 6353.203125 1188.554688 L 8001.289062 1188.554688 " transform="matrix(0.1,0,0,-0.1,0,210)"/>
<path style=" stroke:none;fill-rule:evenodd;fill:rgb(13.729858%,12.159729%,12.548828%);fill-opacity:1;" d="M 846.542969 91.144531 L 797.566406 66.664062 L 797.566406 115.636719 Z M 846.542969 91.144531 "/>
<path style="fill:none;stroke-width:79.9994;stroke-linecap:butt;stroke-linejoin:miter;stroke:rgb(13.729858%,12.159729%,12.548828%);stroke-opacity:1;stroke-miterlimit:22.9256;" d="M 2640.429688 1188.554688 L 4157.890625 1188.554688 " transform="matrix(0.1,0,0,-0.1,0,210)"/>
<path style=" stroke:none;fill-rule:evenodd;fill:rgb(13.729858%,12.159729%,12.548828%);fill-opacity:1;" d="M 462.203125 91.144531 L 413.230469 66.664062 L 413.230469 115.636719 Z M 462.203125 91.144531 "/>
<path style="fill:none;stroke-width:79.9994;stroke-linecap:butt;stroke-linejoin:miter;stroke:rgb(13.729858%,12.159729%,12.548828%);stroke-opacity:1;stroke-miterlimit:22.9256;" d="M 8453.789062 600.625 L 6817.226562 600.625 " transform="matrix(0.1,0,0,-0.1,0,210)"/>
<path style=" stroke:none;fill-rule:evenodd;fill:rgb(13.729858%,12.159729%,12.548828%);fill-opacity:1;" d="M 635.308594 149.9375 L 684.28125 174.417969 L 684.28125 125.441406 Z M 635.308594 149.9375 "/>
<path style="fill:none;stroke-width:79.9994;stroke-linecap:butt;stroke-linejoin:miter;stroke:rgb(13.729858%,12.159729%,12.548828%);stroke-opacity:1;stroke-miterlimit:22.9256;" d="M 4622.03125 600.625 L 3115.390625 600.625 " transform="matrix(0.1,0,0,-0.1,0,210)"/>
<path style=" stroke:none;fill-rule:evenodd;fill:rgb(13.729858%,12.159729%,12.548828%);fill-opacity:1;" d="M 265.121094 149.9375 L 314.097656 174.417969 L 314.097656 125.441406 Z M 265.121094 149.9375 "/>
<path style=" stroke:none;fill-rule:nonzero;fill:rgb(13.729858%,12.159729%,12.548828%);fill-opacity:1;" d="M 649.492188 203.15625 L 652.621094 202.664062 C 652.796875 203.917969 653.285156 204.878906 654.089844 205.550781 C 654.886719 206.21875 656.011719 206.554688 657.457031 206.554688 C 658.90625 206.554688 659.988281 206.253906 660.691406 205.664062 C 661.390625 205.070312 661.746094 204.375 661.746094 203.582031 C 661.746094 202.863281 661.433594 202.304688 660.808594 201.890625 C 660.378906 201.609375 659.296875 201.253906 657.574219 200.824219 C 655.261719 200.234375 653.644531 199.730469 652.753906 199.300781 C 651.859375 198.875 651.175781 198.28125 650.714844 197.523438 C 650.25 196.769531 650.015625 195.933594 650.015625 195.023438 C 650.015625 194.1875 650.207031 193.417969 650.59375 192.710938 C 650.96875 191.996094 651.492188 191.410156 652.144531 190.941406 C 652.636719 190.582031 653.308594 190.269531 654.15625 190.019531 C 655.007812 189.765625 655.921875 189.640625 656.890625 189.640625 C 658.355469 189.640625 659.640625 189.855469 660.75 190.277344 C 661.859375 190.695312 662.675781 191.265625 663.203125 191.984375 C 663.730469 192.710938 664.09375 193.671875 664.289062 194.878906 L 661.199219 195.304688 C 661.054688 194.34375 660.648438 193.59375 659.976562 193.054688 C 659.304688 192.511719 658.351562 192.242188 657.121094 192.242188 C 655.667969 192.242188 654.628906 192.484375 654.011719 192.964844 C 653.386719 193.445312 653.074219 194.007812 653.074219 194.648438 C 653.074219 195.0625 653.207031 195.429688 653.464844 195.761719 C 653.722656 196.101562 654.128906 196.378906 654.679688 196.605469 C 654.996094 196.71875 655.925781 196.988281 657.476562 197.410156 C 659.714844 198.007812 661.273438 198.496094 662.152344 198.878906 C 663.042969 199.257812 663.738281 199.816406 664.242188 200.542969 C 664.746094 201.269531 664.996094 202.167969 664.996094 203.246094 C 664.996094 204.304688 664.6875 205.292969 664.074219 206.230469 C 663.457031 207.160156 662.566406 207.878906 661.410156 208.390625 C 660.253906 208.898438 658.9375 209.152344 657.476562 209.152344 C 655.042969 209.152344 653.195312 208.648438 651.925781 207.640625 C 650.652344 206.632812 649.84375 205.136719 649.492188 203.15625 "/>
<path style=" stroke:none;fill-rule:nonzero;fill:rgb(13.729858%,12.159729%,12.548828%);fill-opacity:1;" d="M 681.535156 202.71875 L 684.804688 203.121094 C 684.289062 205.035156 683.335938 206.519531 681.941406 207.574219 C 680.542969 208.625 678.761719 209.152344 676.597656 209.152344 C 673.867188 209.152344 671.699219 208.3125 670.105469 206.632812 C 668.503906 204.953125 667.703125 202.59375 667.703125 199.558594 C 667.703125 196.414062 668.515625 193.976562 670.128906 192.242188 C 671.746094 190.511719 673.84375 189.640625 676.421875 189.640625 C 678.917969 189.640625 680.957031 190.492188 682.535156 192.191406 C 684.121094 193.886719 684.914062 196.28125 684.914062 199.359375 C 684.914062 199.550781 684.90625 199.832031 684.894531 200.207031 L 670.976562 200.207031 C 671.089844 202.257812 671.671875 203.828125 672.714844 204.914062 C 673.757812 206.007812 675.054688 206.554688 676.613281 206.554688 C 677.773438 206.554688 678.761719 206.246094 679.585938 205.636719 C 680.40625 205.03125 681.054688 204.058594 681.535156 202.71875 Z M 671.148438 197.601562 L 681.570312 197.601562 C 681.433594 196.035156 681.03125 194.851562 680.378906 194.074219 C 679.367188 192.855469 678.058594 192.242188 676.457031 192.242188 C 675.007812 192.242188 673.78125 192.730469 672.792969 193.703125 C 671.800781 194.671875 671.257812 195.976562 671.148438 197.601562 "/>
<path style=" stroke:none;fill-rule:nonzero;fill:rgb(13.729858%,12.159729%,12.548828%);fill-opacity:1;" d="M 695.6875 205.898438 L 696.144531 208.695312 C 695.257812 208.882812 694.457031 208.976562 693.757812 208.976562 C 692.605469 208.976562 691.714844 208.796875 691.078125 208.429688 C 690.449219 208.070312 690.007812 207.589844 689.746094 206.996094 C 689.488281 206.410156 689.359375 205.160156 689.359375 203.265625 L 689.359375 192.527344 L 687.035156 192.527344 L 687.035156 190.066406 L 689.359375 190.066406 L 689.359375 185.441406 L 692.507812 183.542969 L 692.507812 190.066406 L 695.6875 190.066406 L 695.6875 192.527344 L 692.507812 192.527344 L 692.507812 203.4375 C 692.507812 204.34375 692.5625 204.921875 692.671875 205.179688 C 692.785156 205.4375 692.964844 205.640625 693.214844 205.796875 C 693.46875 205.949219 693.828125 206.027344 694.296875 206.027344 C 694.648438 206.027344 695.113281 205.984375 695.6875 205.898438 "/>
<path style=" stroke:none;fill-rule:nonzero;fill:rgb(13.729858%,12.159729%,12.548828%);fill-opacity:1;" d="M 705.691406 205.898438 L 706.144531 208.695312 C 705.257812 208.882812 704.460938 208.976562 703.757812 208.976562 C 702.605469 208.976562 701.71875 208.796875 701.082031 208.429688 C 700.453125 208.070312 700.007812 207.589844 699.75 206.996094 C 699.492188 206.410156 699.359375 205.160156 699.359375 203.265625 L 699.359375 192.527344 L 697.039062 192.527344 L 697.039062 190.066406 L 699.359375 190.066406 L 699.359375 185.441406 L 702.511719 183.542969 L 702.511719 190.066406 L 705.691406 190.066406 L 705.691406 192.527344 L 702.511719 192.527344 L 702.511719 203.4375 C 702.511719 204.34375 702.5625 204.921875 702.671875 205.179688 C 702.785156 205.4375 702.964844 205.640625 703.21875 205.796875 C 703.46875 205.949219 703.828125 206.027344 704.296875 206.027344 C 704.652344 206.027344 705.113281 205.984375 705.691406 205.898438 "/>
<path style=" stroke:none;fill-rule:nonzero;fill:rgb(13.729858%,12.159729%,12.548828%);fill-opacity:1;" d="M 721.5625 202.71875 L 724.828125 203.121094 C 724.3125 205.035156 723.359375 206.519531 721.96875 207.574219 C 720.570312 208.625 718.789062 209.152344 716.621094 209.152344 C 713.890625 209.152344 711.726562 208.3125 710.128906 206.632812 C 708.527344 204.953125 707.730469 202.59375 707.730469 199.558594 C 707.730469 196.414062 708.539062 193.976562 710.152344 192.242188 C 711.773438 190.511719 713.867188 189.640625 716.449219 189.640625 C 718.945312 189.640625 720.984375 190.492188 722.5625 192.191406 C 724.144531 193.886719 724.9375 196.28125 724.9375 199.359375 C 724.9375 199.550781 724.933594 199.832031 724.921875 200.207031 L 711 200.207031 C 711.113281 202.257812 711.695312 203.828125 712.738281 204.914062 C 713.785156 206.007812 715.078125 206.554688 716.640625 206.554688 C 717.796875 206.554688 718.789062 206.246094 719.609375 205.636719 C 720.433594 205.03125 721.078125 204.058594 721.5625 202.71875 Z M 711.175781 197.601562 L 721.597656 197.601562 C 721.457031 196.035156 721.054688 194.851562 720.402344 194.074219 C 719.394531 192.855469 718.085938 192.242188 716.484375 192.242188 C 715.03125 192.242188 713.808594 192.730469 712.816406 193.703125 C 711.828125 194.671875 711.28125 195.976562 711.175781 197.601562 "/>
<path style=" stroke:none;fill-rule:nonzero;fill:rgb(13.729858%,12.159729%,12.548828%);fill-opacity:1;" d="M 728.773438 208.730469 L 728.773438 190.066406 L 731.617188 190.066406 L 731.617188 192.890625 C 732.34375 191.570312 733.015625 190.695312 733.632812 190.277344 C 734.242188 189.855469 734.921875 189.640625 735.660156 189.640625 C 736.726562 189.640625 737.808594 189.980469 738.914062 190.660156 L 737.820312 193.597656 C 737.050781 193.136719 736.277344 192.910156 735.503906 192.910156 C 734.808594 192.910156 734.191406 193.121094 733.636719 193.535156 C 733.085938 193.953125 732.695312 194.53125 732.464844 195.269531 C 732.109375 196.390625 731.933594 197.621094 731.933594 198.957031 L 731.933594 208.730469 L 728.773438 208.730469 "/>
<path style=" stroke:none;fill-rule:nonzero;fill:rgb(13.729858%,12.159729%,12.548828%);fill-opacity:1;" d="M 739.53125 203.15625 L 742.65625 202.664062 C 742.828125 203.917969 743.320312 204.878906 744.128906 205.550781 C 744.925781 206.21875 746.046875 206.554688 747.492188 206.554688 C 748.945312 206.554688 750.023438 206.253906 750.726562 205.664062 C 751.429688 205.070312 751.78125 204.375 751.78125 203.582031 C 751.78125 202.863281 751.46875 202.304688 750.847656 201.890625 C 750.414062 201.609375 749.335938 201.253906 747.613281 200.824219 C 745.296875 200.234375 743.683594 199.730469 742.789062 199.300781 C 741.894531 198.875 741.210938 198.28125 740.746094 197.523438 C 740.285156 196.769531 740.050781 195.933594 740.050781 195.023438 C 740.050781 194.1875 740.246094 193.417969 740.628906 192.710938 C 741.007812 191.996094 741.527344 191.410156 742.183594 190.941406 C 742.675781 190.582031 743.347656 190.269531 744.191406 190.019531 C 745.042969 189.765625 745.957031 189.640625 746.929688 189.640625 C 748.390625 189.640625 749.675781 189.855469 750.785156 190.277344 C 751.894531 190.695312 752.714844 191.265625 753.238281 191.984375 C 753.769531 192.710938 754.128906 193.671875 754.324219 194.878906 L 751.234375 195.304688 C 751.09375 194.34375 750.683594 193.59375 750.011719 193.054688 C 749.339844 192.511719 748.386719 192.242188 747.15625 192.242188 C 745.703125 192.242188 744.664062 192.484375 744.046875 192.964844 C 743.425781 193.445312 743.113281 194.007812 743.113281 194.648438 C 743.113281 195.0625 743.242188 195.429688 743.503906 195.761719 C 743.761719 196.101562 744.164062 196.378906 744.714844 196.605469 C 745.03125 196.71875 745.964844 196.988281 747.511719 197.410156 C 749.746094 198.007812 751.308594 198.496094 752.191406 198.878906 C 753.078125 199.257812 753.773438 199.816406 754.277344 200.542969 C 754.78125 201.269531 755.035156 202.167969 755.035156 203.246094 C 755.035156 204.304688 754.722656 205.292969 754.109375 206.230469 C 753.492188 207.160156 752.605469 207.878906 751.445312 208.390625 C 750.289062 208.898438 748.972656 209.152344 747.511719 209.152344 C 745.078125 209.152344 743.230469 208.648438 741.960938 207.640625 C 740.6875 206.632812 739.878906 205.136719 739.53125 203.15625 "/>
<path style=" stroke:none;fill-rule:nonzero;fill:rgb(13.729858%,12.159729%,12.548828%);fill-opacity:1;" d="M 658.257812 72.011719 L 661.363281 72.417969 C 661.027344 74.5625 660.160156 76.238281 658.753906 77.453125 C 657.355469 78.664062 655.636719 79.269531 653.59375 79.269531 C 651.046875 79.269531 648.988281 78.4375 647.4375 76.769531 C 645.886719 75.101562 645.105469 72.707031 645.105469 69.585938 C 645.105469 67.570312 645.441406 65.804688 646.105469 64.296875 C 646.777344 62.78125 647.792969 61.648438 649.160156 60.890625 C 650.523438 60.136719 652.011719 59.757812 653.613281 59.757812 C 655.640625 59.757812 657.304688 60.273438 658.585938 61.300781 C 659.878906 62.324219 660.703125 63.777344 661.070312 65.667969 L 657.992188 66.140625 C 657.699219 64.886719 657.183594 63.945312 656.4375 63.308594 C 655.695312 62.679688 654.796875 62.363281 653.738281 62.363281 C 652.144531 62.363281 650.847656 62.933594 649.851562 64.078125 C 648.855469 65.21875 648.355469 67.023438 648.355469 69.496094 C 648.355469 72.003906 648.835938 73.828125 649.804688 74.96875 C 650.761719 76.101562 652.015625 76.671875 653.5625 76.671875 C 654.808594 76.671875 655.839844 76.289062 656.671875 75.527344 C 657.507812 74.765625 658.035156 73.59375 658.257812 72.011719 "/>
<path style=" stroke:none;fill-rule:nonzero;fill:rgb(13.729858%,12.159729%,12.548828%);fill-opacity:1;" d="M 676.257812 76.546875 C 675.082031 77.542969 673.953125 78.242188 672.871094 78.660156 C 671.785156 79.066406 670.621094 79.269531 669.378906 79.269531 C 667.328125 79.269531 665.757812 78.773438 664.652344 77.769531 C 663.554688 76.769531 663.003906 75.484375 663.003906 73.929688 C 663.003906 73.011719 663.207031 72.179688 663.628906 71.421875 C 664.039062 70.664062 664.585938 70.0625 665.257812 69.605469 C 665.9375 69.148438 666.691406 68.800781 667.539062 68.566406 C 668.15625 68.402344 669.09375 68.242188 670.347656 68.09375 C 672.902344 67.785156 674.785156 67.425781 675.992188 67 C 676.003906 66.566406 676.011719 66.292969 676.011719 66.179688 C 676.011719 64.886719 675.710938 63.976562 675.109375 63.453125 C 674.308594 62.734375 673.101562 62.378906 671.511719 62.378906 C 670.023438 62.378906 668.925781 62.636719 668.210938 63.160156 C 667.503906 63.683594 666.980469 64.605469 666.640625 65.933594 L 663.546875 65.507812 C 663.828125 64.1875 664.292969 63.113281 664.933594 62.300781 C 665.578125 61.484375 666.511719 60.855469 667.730469 60.417969 C 668.949219 59.980469 670.359375 59.757812 671.964844 59.757812 C 673.5625 59.757812 674.851562 59.949219 675.847656 60.320312 C 676.84375 60.699219 677.578125 61.167969 678.050781 61.738281 C 678.519531 62.308594 678.84375 63.023438 679.035156 63.890625 C 679.136719 64.433594 679.191406 65.402344 679.191406 66.808594 L 679.191406 71.027344 C 679.191406 73.972656 679.257812 75.832031 679.394531 76.605469 C 679.527344 77.386719 679.796875 78.136719 680.191406 78.851562 L 676.886719 78.851562 C 676.5625 78.195312 676.347656 77.429688 676.257812 76.546875 Z M 675.992188 69.480469 C 674.839844 69.953125 673.117188 70.347656 670.828125 70.679688 C 669.523438 70.863281 668.601562 71.074219 668.066406 71.308594 C 667.527344 71.542969 667.105469 71.882812 666.816406 72.339844 C 666.523438 72.789062 666.375 73.289062 666.375 73.839844 C 666.375 74.6875 666.699219 75.386719 667.335938 75.953125 C 667.972656 76.511719 668.90625 76.792969 670.136719 76.792969 C 671.355469 76.792969 672.441406 76.527344 673.390625 75.996094 C 674.335938 75.460938 675.039062 74.726562 675.484375 73.804688 C 675.824219 73.089844 675.992188 72.035156 675.992188 70.640625 L 675.992188 69.480469 "/>
<path style=" stroke:none;fill-rule:nonzero;fill:rgb(13.729858%,12.159729%,12.548828%);fill-opacity:1;" d="M 684.027344 78.851562 L 684.027344 53.078125 L 687.1875 53.078125 L 687.1875 78.851562 L 684.027344 78.851562 "/>
<path style=" stroke:none;fill-rule:nonzero;fill:rgb(13.729858%,12.159729%,12.548828%);fill-opacity:1;" d="M 692.023438 78.851562 L 692.023438 53.078125 L 695.1875 53.078125 L 695.1875 78.851562 L 692.023438 78.851562 "/>
<path style=" stroke:none;fill-rule:nonzero;fill:rgb(13.729858%,12.159729%,12.548828%);fill-opacity:1;" d="M 703.011719 78.851562 L 700.078125 78.851562 L 700.078125 53.078125 L 703.238281 53.078125 L 703.238281 62.273438 C 704.578125 60.597656 706.28125 59.757812 708.351562 59.757812 C 709.503906 59.757812 710.589844 59.992188 711.613281 60.453125 C 712.640625 60.914062 713.480469 61.570312 714.144531 62.402344 C 714.808594 63.242188 715.328125 64.253906 715.699219 65.441406 C 716.078125 66.621094 716.265625 67.886719 716.265625 69.230469 C 716.265625 72.4375 715.472656 74.90625 713.886719 76.652344 C 712.308594 78.398438 710.410156 79.269531 708.195312 79.269531 C 705.992188 79.269531 704.265625 78.351562 703.011719 76.511719 Z M 702.976562 69.378906 C 702.976562 71.613281 703.28125 73.230469 703.886719 74.222656 C 704.882812 75.855469 706.230469 76.671875 707.929688 76.671875 C 709.316406 76.671875 710.511719 76.070312 711.519531 74.867188 C 712.527344 73.664062 713.03125 71.878906 713.03125 69.496094 C 713.03125 67.058594 712.546875 65.261719 711.578125 64.101562 C 710.613281 62.945312 709.441406 62.363281 708.074219 62.363281 C 706.6875 62.363281 705.496094 62.960938 704.484375 64.160156 C 703.480469 65.363281 702.976562 67.101562 702.976562 69.378906 "/>
<path style=" stroke:none;fill-rule:nonzero;fill:rgb(13.729858%,12.159729%,12.548828%);fill-opacity:1;" d="M 732.296875 76.546875 C 731.121094 77.542969 729.992188 78.242188 728.914062 78.660156 C 727.828125 79.066406 726.664062 79.269531 725.421875 79.269531 C 723.367188 79.269531 721.796875 78.773438 720.691406 77.769531 C 719.59375 76.769531 719.042969 75.484375 719.042969 73.929688 C 719.042969 73.011719 719.246094 72.179688 719.664062 71.421875 C 720.078125 70.664062 720.628906 70.0625 721.296875 69.605469 C 721.976562 69.148438 722.730469 68.800781 723.578125 68.566406 C 724.195312 68.402344 725.132812 68.242188 726.386719 68.09375 C 728.941406 67.785156 730.828125 67.425781 732.03125 67 C 732.042969 66.566406 732.050781 66.292969 732.050781 66.179688 C 732.050781 64.886719 731.75 63.976562 731.148438 63.453125 C 730.347656 62.734375 729.140625 62.378906 727.550781 62.378906 C 726.0625 62.378906 724.964844 62.636719 724.25 63.160156 C 723.542969 63.683594 723.019531 64.605469 722.679688 65.933594 L 719.589844 65.507812 C 719.871094 64.1875 720.332031 63.113281 720.976562 62.300781 C 721.617188 61.484375 722.550781 60.855469 723.769531 60.417969 C 724.988281 59.980469 726.398438 59.757812 728.007812 59.757812 C 729.601562 59.757812 730.890625 59.949219 731.886719 60.320312 C 732.882812 60.699219 733.617188 61.167969 734.089844 61.738281 C 734.558594 62.308594 734.882812 63.023438 735.074219 63.890625 C 735.175781 64.433594 735.230469 65.402344 735.230469 66.808594 L 735.230469 71.027344 C 735.230469 73.972656 735.296875 75.832031 735.433594 76.605469 C 735.566406 77.386719 735.835938 78.136719 736.230469 78.851562 L 732.925781 78.851562 C 732.601562 78.195312 732.386719 77.429688 732.296875 76.546875 Z M 732.03125 69.480469 C 730.878906 69.953125 729.15625 70.347656 726.867188 70.679688 C 725.5625 70.863281 724.640625 71.074219 724.105469 71.308594 C 723.566406 71.542969 723.144531 71.882812 722.859375 72.339844 C 722.5625 72.789062 722.414062 73.289062 722.414062 73.839844 C 722.414062 74.6875 722.738281 75.386719 723.375 75.953125 C 724.011719 76.511719 724.945312 76.792969 726.175781 76.792969 C 727.394531 76.792969 728.480469 76.527344 729.429688 75.996094 C 730.378906 75.460938 731.078125 74.726562 731.523438 73.804688 C 731.863281 73.089844 732.03125 72.035156 732.03125 70.640625 L 732.03125 69.480469 "/>
<path style=" stroke:none;fill-rule:nonzero;fill:rgb(13.729858%,12.159729%,12.548828%);fill-opacity:1;" d="M 752.316406 72.011719 L 755.425781 72.417969 C 755.089844 74.5625 754.21875 76.238281 752.816406 77.453125 C 751.417969 78.664062 749.695312 79.269531 747.65625 79.269531 C 745.105469 79.269531 743.046875 78.4375 741.5 76.769531 C 739.945312 75.101562 739.164062 72.707031 739.164062 69.585938 C 739.164062 67.570312 739.503906 65.804688 740.167969 64.296875 C 740.839844 62.78125 741.855469 61.648438 743.222656 60.890625 C 744.585938 60.136719 746.070312 59.757812 747.675781 59.757812 C 749.703125 59.757812 751.363281 60.273438 752.648438 61.300781 C 753.9375 62.324219 754.765625 63.777344 755.132812 65.667969 L 752.054688 66.140625 C 751.761719 64.886719 751.246094 63.945312 750.5 63.308594 C 749.757812 62.679688 748.855469 62.363281 747.800781 62.363281 C 746.203125 62.363281 744.910156 62.933594 743.914062 64.078125 C 742.914062 65.21875 742.417969 67.023438 742.417969 69.496094 C 742.417969 72.003906 742.898438 73.828125 743.863281 74.96875 C 744.824219 76.101562 746.078125 76.671875 747.628906 76.671875 C 748.867188 76.671875 749.898438 76.289062 750.734375 75.527344 C 751.566406 74.765625 752.097656 73.59375 752.316406 72.011719 "/>
<path style=" stroke:none;fill-rule:nonzero;fill:rgb(13.729858%,12.159729%,12.548828%);fill-opacity:1;" d="M 758.148438 78.851562 L 758.148438 53.078125 L 761.316406 53.078125 L 761.316406 67.773438 L 768.804688 60.183594 L 772.898438 60.183594 L 765.765625 67.109375 L 773.625 78.851562 L 769.71875 78.851562 L 763.550781 69.304688 L 761.316406 71.453125 L 761.316406 78.851562 L 758.148438 78.851562 "/>
<path style=" stroke:none;fill-rule:nonzero;fill:rgb(13.729858%,12.159729%,12.548828%);fill-opacity:1;" d="M 774.871094 73.277344 L 777.996094 72.785156 C 778.171875 74.039062 778.664062 74.996094 779.46875 75.671875 C 780.265625 76.335938 781.386719 76.671875 782.835938 76.671875 C 784.285156 76.671875 785.367188 76.371094 786.066406 75.785156 C 786.769531 75.191406 787.125 74.496094 787.125 73.703125 C 787.125 72.980469 786.8125 72.425781 786.1875 72.011719 C 785.757812 71.726562 784.675781 71.375 782.953125 70.941406 C 780.636719 70.355469 779.023438 69.851562 778.128906 69.417969 C 777.234375 68.992188 776.550781 68.398438 776.089844 67.644531 C 775.628906 66.886719 775.394531 66.050781 775.394531 65.140625 C 775.394531 64.304688 775.585938 63.539062 775.96875 62.828125 C 776.347656 62.117188 776.871094 61.527344 777.523438 61.0625 C 778.015625 60.699219 778.6875 60.386719 779.535156 60.136719 C 780.386719 59.882812 781.296875 59.757812 782.269531 59.757812 C 783.734375 59.757812 785.019531 59.976562 786.128906 60.394531 C 787.238281 60.8125 788.054688 61.382812 788.582031 62.105469 C 789.109375 62.828125 789.46875 63.789062 789.667969 64.996094 L 786.578125 65.421875 C 786.433594 64.460938 786.027344 63.710938 785.355469 63.171875 C 784.683594 62.632812 783.730469 62.363281 782.496094 62.363281 C 781.046875 62.363281 780.007812 62.601562 779.390625 63.082031 C 778.765625 63.5625 778.453125 64.125 778.453125 64.769531 C 778.453125 65.183594 778.585938 65.546875 778.84375 65.878906 C 779.101562 66.21875 779.503906 66.496094 780.054688 66.722656 C 780.375 66.839844 781.304688 67.109375 782.851562 67.527344 C 785.089844 68.128906 786.648438 68.613281 787.53125 68.996094 C 788.421875 69.378906 789.117188 69.933594 789.621094 70.660156 C 790.125 71.386719 790.378906 72.285156 790.378906 73.367188 C 790.378906 74.421875 790.0625 75.410156 789.453125 76.347656 C 788.835938 77.277344 787.945312 77.996094 786.789062 78.507812 C 785.628906 79.019531 784.316406 79.269531 782.851562 79.269531 C 780.421875 79.269531 778.574219 78.765625 777.300781 77.757812 C 776.03125 76.75 775.21875 75.257812 774.871094 73.277344 "/>
<path style=" stroke:none;fill-rule:nonzero;fill:rgb(13.729858%,12.159729%,12.548828%);fill-opacity:1;" d="M 651.265625 36.847656 L 654.34375 37.304688 C 654.472656 38.25 654.832031 38.941406 655.414062 39.378906 C 656.199219 39.960938 657.273438 40.253906 658.628906 40.253906 C 660.097656 40.253906 661.226562 39.960938 662.023438 39.378906 C 662.824219 38.789062 663.355469 37.96875 663.640625 36.917969 C 663.808594 36.269531 663.878906 34.921875 663.867188 32.855469 C 662.488281 34.484375 660.765625 35.300781 658.699219 35.300781 C 656.132812 35.300781 654.148438 34.375 652.742188 32.519531 C 651.339844 30.671875 650.632812 28.445312 650.632812 25.859375 C 650.632812 24.078125 650.953125 22.433594 651.597656 20.929688 C 652.246094 19.421875 653.179688 18.257812 654.40625 17.4375 C 655.628906 16.621094 657.070312 16.207031 658.71875 16.207031 C 660.921875 16.207031 662.738281 17.101562 664.167969 18.882812 L 664.167969 16.632812 L 667.089844 16.632812 L 667.089844 32.765625 C 667.089844 35.671875 666.789062 37.734375 666.199219 38.945312 C 665.605469 40.160156 664.671875 41.117188 663.386719 41.820312 C 662.101562 42.523438 660.523438 42.878906 658.648438 42.878906 C 656.421875 42.878906 654.621094 42.371094 653.253906 41.371094 C 651.878906 40.367188 651.21875 38.863281 651.265625 36.847656 Z M 653.882812 25.632812 C 653.882812 28.082031 654.367188 29.867188 655.347656 30.992188 C 656.320312 32.117188 657.535156 32.675781 659 32.675781 C 660.453125 32.675781 661.671875 32.117188 662.65625 31.003906 C 663.640625 29.882812 664.132812 28.128906 664.132812 25.734375 C 664.132812 23.449219 663.628906 21.726562 662.613281 20.570312 C 661.597656 19.410156 660.375 18.828125 658.945312 18.828125 C 657.542969 18.828125 656.347656 19.398438 655.359375 20.546875 C 654.375 21.683594 653.882812 23.382812 653.882812 25.632812 "/>
<path style=" stroke:none;fill-rule:nonzero;fill:rgb(13.729858%,12.159729%,12.548828%);fill-opacity:1;" d="M 684.644531 29.285156 L 687.914062 29.6875 C 687.398438 31.601562 686.445312 33.085938 685.054688 34.140625 C 683.65625 35.191406 681.871094 35.71875 679.707031 35.71875 C 676.976562 35.71875 674.8125 34.878906 673.214844 33.199219 C 671.613281 31.519531 670.816406 29.160156 670.816406 26.125 C 670.816406 22.980469 671.625 20.546875 673.238281 18.8125 C 674.859375 17.078125 676.953125 16.207031 679.53125 16.207031 C 682.027344 16.207031 684.070312 17.058594 685.648438 18.757812 C 687.230469 20.453125 688.023438 22.847656 688.023438 25.925781 C 688.023438 26.117188 688.015625 26.402344 688.003906 26.773438 L 674.085938 26.773438 C 674.199219 28.824219 674.78125 30.398438 675.824219 31.484375 C 676.867188 32.574219 678.164062 33.121094 679.726562 33.121094 C 680.882812 33.121094 681.871094 32.816406 682.695312 32.203125 C 683.515625 31.597656 684.164062 30.625 684.644531 29.285156 Z M 674.257812 24.167969 L 684.679688 24.167969 C 684.542969 22.601562 684.140625 21.421875 683.488281 20.640625 C 682.480469 19.421875 681.171875 18.8125 679.570312 18.8125 C 678.117188 18.8125 676.894531 19.296875 675.902344 20.269531 C 674.914062 21.242188 674.367188 22.542969 674.257812 24.167969 "/>
<path style=" stroke:none;fill-rule:nonzero;fill:rgb(13.729858%,12.159729%,12.548828%);fill-opacity:1;" d="M 698.800781 32.46875 L 699.253906 35.261719 C 698.367188 35.449219 697.570312 35.546875 696.867188 35.546875 C 695.714844 35.546875 694.828125 35.363281 694.191406 35 C 693.5625 34.640625 693.117188 34.160156 692.859375 33.566406 C 692.601562 32.976562 692.46875 31.730469 692.46875 29.832031 L 692.46875 19.09375 L 690.148438 19.09375 L 690.148438 16.632812 L 692.46875 16.632812 L 692.46875 12.007812 L 695.617188 10.109375 L 695.617188 16.632812 L 698.800781 16.632812 L 698.800781 19.09375 L 695.617188 19.09375 L 695.617188 30.007812 C 695.617188 30.914062 695.671875 31.488281 695.78125 31.746094 C 695.894531 32.003906 696.074219 32.210938 696.328125 32.363281 C 696.578125 32.515625 696.9375 32.59375 697.40625 32.59375 C 697.761719 32.59375 698.222656 32.550781 698.800781 32.46875 "/>
<path style=" stroke:none;fill-rule:nonzero;fill:rgb(13.729858%,12.159729%,12.548828%);fill-opacity:1;" d="M 708.800781 32.46875 L 709.257812 35.261719 C 708.367188 35.449219 707.570312 35.546875 706.867188 35.546875 C 705.71875 35.546875 704.828125 35.363281 704.191406 35 C 703.5625 34.640625 703.117188 34.160156 702.859375 33.566406 C 702.601562 32.976562 702.472656 31.730469 702.472656 29.832031 L 702.472656 19.09375 L 700.148438 19.09375 L 700.148438 16.632812 L 702.472656 16.632812 L 702.472656 12.007812 L 705.621094 10.109375 L 705.621094 16.632812 L 708.800781 16.632812 L 708.800781 19.09375 L 705.621094 19.09375 L 705.621094 30.007812 C 705.621094 30.914062 705.675781 31.488281 705.78125 31.746094 C 705.898438 32.003906 706.078125 32.210938 706.328125 32.363281 C 706.582031 32.515625 706.941406 32.59375 707.410156 32.59375 C 707.761719 32.59375 708.226562 32.550781 708.800781 32.46875 "/>
<path style=" stroke:none;fill-rule:nonzero;fill:rgb(13.729858%,12.159729%,12.548828%);fill-opacity:1;" d="M 724.671875 29.285156 L 727.941406 29.6875 C 727.425781 31.601562 726.472656 33.085938 725.078125 34.140625 C 723.679688 35.191406 721.898438 35.71875 719.734375 35.71875 C 717.003906 35.71875 714.835938 34.878906 713.242188 33.199219 C 711.640625 31.519531 710.839844 29.160156 710.839844 26.125 C 710.839844 22.980469 711.652344 20.546875 713.265625 18.8125 C 714.886719 17.078125 716.980469 16.207031 719.558594 16.207031 C 722.054688 16.207031 724.09375 17.058594 725.671875 18.757812 C 727.257812 20.453125 728.050781 22.847656 728.050781 25.925781 C 728.050781 26.117188 728.042969 26.402344 728.03125 26.773438 L 714.109375 26.773438 C 714.226562 28.824219 714.808594 30.398438 715.851562 31.484375 C 716.894531 32.574219 718.191406 33.121094 719.75 33.121094 C 720.910156 33.121094 721.898438 32.816406 722.722656 32.203125 C 723.542969 31.597656 724.191406 30.625 724.671875 29.285156 Z M 714.285156 24.167969 L 724.707031 24.167969 C 724.570312 22.601562 724.167969 21.421875 723.511719 20.640625 C 722.503906 19.421875 721.195312 18.8125 719.59375 18.8125 C 718.144531 18.8125 716.917969 19.296875 715.929688 20.269531 C 714.9375 21.242188 714.394531 22.542969 714.285156 24.167969 "/>
<path style=" stroke:none;fill-rule:nonzero;fill:rgb(13.729858%,12.159729%,12.548828%);fill-opacity:1;" d="M 731.882812 35.300781 L 731.882812 16.632812 L 734.726562 16.632812 L 734.726562 19.460938 C 735.453125 18.140625 736.125 17.261719 736.742188 16.84375 C 737.355469 16.421875 738.03125 16.207031 738.769531 16.207031 C 739.839844 16.207031 740.917969 16.550781 742.023438 17.226562 L 740.929688 20.167969 C 740.164062 19.703125 739.390625 19.476562 738.613281 19.476562 C 737.917969 19.476562 737.300781 19.6875 736.75 20.101562 C 736.195312 20.519531 735.808594 21.097656 735.574219 21.835938 C 735.21875 22.957031 735.046875 24.1875 735.046875 25.523438 L 735.046875 35.300781 L 731.882812 35.300781 "/>
<path style=" stroke:none;fill-rule:nonzero;fill:rgb(13.729858%,12.159729%,12.548828%);fill-opacity:1;" d="M 742.640625 29.726562 L 745.765625 29.234375 C 745.941406 30.488281 746.433594 31.445312 747.238281 32.117188 C 748.035156 32.785156 749.15625 33.121094 750.601562 33.121094 C 752.054688 33.121094 753.136719 32.820312 753.835938 32.234375 C 754.539062 31.640625 754.894531 30.941406 754.894531 30.152344 C 754.894531 29.429688 754.582031 28.871094 753.957031 28.460938 C 753.523438 28.175781 752.445312 27.824219 750.722656 27.390625 C 748.40625 26.804688 746.792969 26.300781 745.898438 25.867188 C 745.003906 25.441406 744.320312 24.847656 743.859375 24.089844 C 743.398438 23.335938 743.164062 22.5 743.164062 21.589844 C 743.164062 20.753906 743.355469 19.988281 743.738281 19.277344 C 744.117188 18.566406 744.640625 17.976562 745.292969 17.507812 C 745.785156 17.148438 746.457031 16.835938 747.304688 16.585938 C 748.15625 16.332031 749.066406 16.207031 750.039062 16.207031 C 751.503906 16.207031 752.785156 16.421875 753.898438 16.84375 C 755.007812 17.261719 755.824219 17.832031 756.351562 18.554688 C 756.878906 19.277344 757.238281 20.238281 757.4375 21.445312 L 754.347656 21.871094 C 754.203125 20.910156 753.796875 20.160156 753.121094 19.621094 C 752.449219 19.082031 751.496094 18.8125 750.265625 18.8125 C 748.816406 18.8125 747.777344 19.050781 747.160156 19.53125 C 746.535156 20.011719 746.222656 20.574219 746.222656 21.21875 C 746.222656 21.632812 746.355469 21.996094 746.613281 22.328125 C 746.871094 22.667969 747.273438 22.945312 747.824219 23.171875 C 748.144531 23.285156 749.074219 23.558594 750.621094 23.976562 C 752.859375 24.578125 754.417969 25.0625 755.300781 25.445312 C 756.1875 25.824219 756.886719 26.382812 757.390625 27.109375 C 757.894531 27.835938 758.144531 28.734375 758.144531 29.816406 C 758.144531 30.871094 757.832031 31.859375 757.222656 32.796875 C 756.601562 33.726562 755.714844 34.445312 754.558594 34.957031 C 753.398438 35.46875 752.085938 35.71875 750.621094 35.71875 C 748.191406 35.71875 746.34375 35.214844 745.070312 34.207031 C 743.800781 33.199219 742.988281 31.703125 742.640625 29.726562 "/>
<path style="fill:none;stroke-width:39.9997;stroke-linecap:butt;stroke-linejoin:miter;stroke:rgb(13.729858%,12.159729%,12.548828%);stroke-opacity:1;stroke-miterlimit:22.9256;" d="M 6155.390625 1943.007812 L 7625.273438 1627.265625 " transform="matrix(0.1,0,0,-0.1,0,210)"/>
<path style="fill:none;stroke-width:39.9997;stroke-linecap:butt;stroke-linejoin:miter;stroke:rgb(13.729858%,12.159729%,12.548828%);stroke-opacity:1;stroke-miterlimit:22.9256;" d="M 7625.273438 2073.632812 L 6525.585938 1561.914062 " transform="matrix(0.1,0,0,-0.1,0,210)"/>
<path style=" stroke:none;fill-rule:nonzero;fill:rgb(13.729858%,12.159729%,12.548828%);fill-opacity:1;" d="M 8.972656 108.90625 C 7.226562 106.703125 5.75 104.125 4.546875 101.171875 C 3.339844 98.214844 2.734375 95.160156 2.734375 91.992188 C 2.734375 89.203125 3.183594 86.53125 4.089844 83.976562 C 5.144531 81.011719 6.773438 78.058594 8.972656 75.121094 L 11.242188 75.121094 C 9.824219 77.554688 8.890625 79.296875 8.433594 80.339844 C 7.714844 81.953125 7.15625 83.644531 6.742188 85.402344 C 6.238281 87.59375 5.984375 89.796875 5.984375 92.011719 C 5.984375 97.648438 7.738281 103.277344 11.242188 108.90625 L 8.972656 108.90625 "/>
<path style=" stroke:none;fill-rule:nonzero;fill:rgb(13.729858%,12.159729%,12.548828%);fill-opacity:1;" d="M 13.652344 95.753906 L 16.78125 95.261719 C 16.953125 96.515625 17.445312 97.476562 18.25 98.148438 C 19.046875 98.8125 20.167969 99.148438 21.617188 99.148438 C 23.066406 99.148438 24.148438 98.851562 24.847656 98.261719 C 25.550781 97.667969 25.90625 96.972656 25.90625 96.179688 C 25.90625 95.460938 25.59375 94.902344 24.96875 94.488281 C 24.539062 94.207031 23.457031 93.851562 21.734375 93.421875 C 19.417969 92.832031 17.804688 92.328125 16.910156 91.894531 C 16.019531 91.46875 15.335938 90.875 14.871094 90.121094 C 14.410156 89.363281 14.175781 88.53125 14.175781 87.617188 C 14.175781 86.785156 14.367188 86.015625 14.75 85.308594 C 15.128906 84.59375 15.652344 84.007812 16.304688 83.539062 C 16.796875 83.179688 17.46875 82.867188 18.316406 82.613281 C 19.167969 82.363281 20.078125 82.234375 21.050781 82.234375 C 22.515625 82.234375 23.800781 82.453125 24.910156 82.871094 C 26.019531 83.292969 26.835938 83.863281 27.363281 84.582031 C 27.890625 85.308594 28.25 86.269531 28.449219 87.472656 L 25.359375 87.898438 C 25.214844 86.941406 24.808594 86.191406 24.136719 85.648438 C 23.464844 85.109375 22.511719 84.839844 21.28125 84.839844 C 19.828125 84.839844 18.789062 85.078125 18.171875 85.558594 C 17.546875 86.039062 17.234375 86.605469 17.234375 87.246094 C 17.234375 87.660156 17.367188 88.027344 17.625 88.355469 C 17.882812 88.699219 18.285156 88.972656 18.839844 89.203125 C 19.15625 89.316406 20.085938 89.585938 21.632812 90.007812 C 23.871094 90.605469 25.429688 91.09375 26.3125 91.476562 C 27.203125 91.855469 27.898438 92.410156 28.402344 93.136719 C 28.90625 93.863281 29.15625 94.765625 29.15625 95.84375 C 29.15625 96.898438 28.84375 97.890625 28.234375 98.824219 C 27.617188 99.757812 26.726562 100.476562 25.570312 100.984375 C 24.410156 101.496094 23.097656 101.746094 21.632812 101.746094 C 19.203125 101.746094 17.355469 101.246094 16.082031 100.234375 C 14.8125 99.230469 14.003906 97.734375 13.652344 95.753906 "/>
<path style=" stroke:none;fill-rule:nonzero;fill:rgb(13.729858%,12.159729%,12.548828%);fill-opacity:1;" d="M 45.695312 95.316406 L 48.964844 95.71875 C 48.449219 97.632812 47.492188 99.113281 46.101562 100.171875 C 44.703125 101.21875 42.921875 101.746094 40.757812 101.746094 C 38.027344 101.746094 35.859375 100.90625 34.265625 99.230469 C 32.660156 97.546875 31.863281 95.191406 31.863281 92.152344 C 31.863281 89.011719 32.671875 86.574219 34.289062 84.839844 C 35.90625 83.105469 38 82.234375 40.582031 82.234375 C 43.078125 82.234375 45.117188 83.089844 46.695312 84.785156 C 48.28125 86.484375 49.070312 88.878906 49.070312 91.957031 C 49.070312 92.148438 49.066406 92.429688 49.054688 92.800781 L 35.132812 92.800781 C 35.246094 94.855469 35.828125 96.425781 36.875 97.511719 C 37.917969 98.605469 39.214844 99.148438 40.773438 99.148438 C 41.929688 99.148438 42.921875 98.84375 43.742188 98.230469 C 44.566406 97.625 45.214844 96.652344 45.695312 95.316406 Z M 35.308594 90.199219 L 45.730469 90.199219 C 45.59375 88.632812 45.191406 87.449219 44.535156 86.671875 C 43.527344 85.453125 42.21875 84.839844 40.617188 84.839844 C 39.164062 84.839844 37.941406 85.324219 36.953125 86.296875 C 35.960938 87.269531 35.414062 88.570312 35.308594 90.199219 "/>
<path style=" stroke:none;fill-rule:nonzero;fill:rgb(13.729858%,12.159729%,12.548828%);fill-opacity:1;" d="M 52.941406 101.328125 L 52.941406 82.660156 L 55.785156 82.660156 L 55.785156 85.3125 C 57.160156 83.261719 59.140625 82.234375 61.726562 82.234375 C 62.851562 82.234375 63.886719 82.441406 64.828125 82.84375 C 65.777344 83.25 66.476562 83.777344 66.945312 84.4375 C 67.417969 85.09375 67.742188 85.871094 67.9375 86.773438 C 68.050781 87.359375 68.109375 88.386719 68.109375 89.851562 L 68.109375 101.328125 L 64.941406 101.328125 L 64.941406 89.96875 C 64.941406 88.6875 64.820312 87.71875 64.574219 87.078125 C 64.328125 86.441406 63.890625 85.933594 63.269531 85.554688 C 62.636719 85.171875 61.90625 84.976562 61.058594 84.976562 C 59.710938 84.976562 58.550781 85.410156 57.566406 86.261719 C 56.589844 87.121094 56.105469 88.738281 56.105469 91.132812 L 56.105469 101.328125 L 52.941406 101.328125 "/>
<path style=" stroke:none;fill-rule:nonzero;fill:rgb(13.729858%,12.159729%,12.548828%);fill-opacity:1;" d="M 71.699219 95.753906 L 74.824219 95.261719 C 74.996094 96.515625 75.488281 97.476562 76.292969 98.148438 C 77.09375 98.8125 78.214844 99.148438 79.660156 99.148438 C 81.113281 99.148438 82.191406 98.851562 82.894531 98.261719 C 83.59375 97.667969 83.949219 96.972656 83.949219 96.179688 C 83.949219 95.460938 83.636719 94.902344 83.015625 94.488281 C 82.582031 94.207031 81.5 93.851562 79.78125 93.421875 C 77.464844 92.832031 75.847656 92.328125 74.957031 91.894531 C 74.0625 91.46875 73.378906 90.875 72.914062 90.121094 C 72.453125 89.363281 72.21875 88.53125 72.21875 87.617188 C 72.21875 86.785156 72.410156 86.015625 72.796875 85.308594 C 73.171875 84.59375 73.695312 84.007812 74.347656 83.539062 C 74.84375 83.179688 75.515625 82.867188 76.359375 82.613281 C 77.210938 82.363281 78.125 82.234375 79.09375 82.234375 C 80.558594 82.234375 81.84375 82.453125 82.953125 82.871094 C 84.0625 83.292969 84.878906 83.863281 85.40625 84.582031 C 85.933594 85.308594 86.296875 86.269531 86.492188 87.472656 L 83.402344 87.898438 C 83.261719 86.941406 82.851562 86.191406 82.179688 85.648438 C 81.507812 85.109375 80.554688 84.839844 79.324219 84.839844 C 77.871094 84.839844 76.835938 85.078125 76.214844 85.558594 C 75.59375 86.039062 75.28125 86.605469 75.28125 87.246094 C 75.28125 87.660156 75.410156 88.027344 75.667969 88.355469 C 75.925781 88.699219 76.328125 88.972656 76.882812 89.203125 C 77.199219 89.316406 78.128906 89.585938 79.675781 90.007812 C 81.914062 90.605469 83.476562 91.09375 84.359375 91.476562 C 85.246094 91.855469 85.941406 92.410156 86.445312 93.136719 C 86.949219 93.863281 87.203125 94.765625 87.203125 95.84375 C 87.203125 96.898438 86.890625 97.890625 86.277344 98.824219 C 85.660156 99.757812 84.773438 100.476562 83.613281 100.984375 C 82.457031 101.496094 81.140625 101.746094 79.675781 101.746094 C 77.246094 101.746094 75.398438 101.246094 74.128906 100.234375 C 72.855469 99.230469 72.046875 97.734375 71.699219 95.753906 "/>
<path style=" stroke:none;fill-rule:nonzero;fill:rgb(13.729858%,12.159729%,12.548828%);fill-opacity:1;" d="M 89.78125 91.992188 C 89.78125 88.535156 90.742188 85.972656 92.667969 84.3125 C 94.269531 82.933594 96.226562 82.234375 98.535156 82.234375 C 101.105469 82.234375 103.203125 83.074219 104.828125 84.761719 C 106.460938 86.441406 107.269531 88.765625 107.269531 91.726562 C 107.269531 94.132812 106.910156 96.023438 106.191406 97.398438 C 105.472656 98.777344 104.421875 99.847656 103.046875 100.609375 C 101.667969 101.371094 100.167969 101.746094 98.535156 101.746094 C 95.925781 101.746094 93.8125 100.914062 92.199219 99.234375 C 90.585938 97.558594 89.78125 95.148438 89.78125 91.992188 Z M 93.035156 91.992188 C 93.035156 94.386719 93.554688 96.175781 94.597656 97.363281 C 95.644531 98.554688 96.957031 99.148438 98.535156 99.148438 C 100.109375 99.148438 101.414062 98.550781 102.460938 97.355469 C 103.496094 96.160156 104.019531 94.339844 104.019531 91.890625 C 104.019531 89.578125 103.496094 87.828125 102.449219 86.640625 C 101.398438 85.453125 100.097656 84.859375 98.535156 84.859375 C 96.957031 84.859375 95.644531 85.453125 94.597656 86.632812 C 93.554688 87.816406 93.035156 89.605469 93.035156 91.992188 "/>
<path style=" stroke:none;fill-rule:nonzero;fill:rgb(13.729858%,12.159729%,12.548828%);fill-opacity:1;" d="M 110.949219 101.328125 L 110.949219 82.660156 L 113.792969 82.660156 L 113.792969 85.488281 C 114.519531 84.167969 115.191406 83.292969 115.808594 82.871094 C 116.421875 82.453125 117.101562 82.234375 117.839844 82.234375 C 118.90625 82.234375 119.984375 82.578125 121.089844 83.257812 L 119.996094 86.195312 C 119.230469 85.734375 118.457031 85.507812 117.683594 85.507812 C 116.984375 85.507812 116.367188 85.714844 115.816406 86.128906 C 115.265625 86.550781 114.871094 87.125 114.640625 87.863281 C 114.285156 88.984375 114.113281 90.214844 114.113281 91.554688 L 114.113281 101.328125 L 110.949219 101.328125 "/>
<path style=" stroke:none;fill-rule:nonzero;fill:rgb(13.729858%,12.159729%,12.548828%);fill-opacity:1;" d="M 125.042969 108.90625 L 122.777344 108.90625 C 126.28125 103.277344 128.03125 97.648438 128.03125 92.011719 C 128.03125 89.808594 127.78125 87.625 127.277344 85.453125 C 126.878906 83.699219 126.320312 82.007812 125.605469 80.394531 C 125.152344 79.339844 124.210938 77.578125 122.777344 75.121094 L 125.042969 75.121094 C 127.246094 78.058594 128.878906 81.011719 129.933594 83.976562 C 130.835938 86.53125 131.285156 89.203125 131.285156 91.992188 C 131.285156 95.160156 130.679688 98.214844 129.464844 101.171875 C 128.253906 104.125 126.777344 106.703125 125.042969 108.90625 "/>
<path style=" stroke:none;fill-rule:nonzero;fill:rgb(13.729858%,12.159729%,12.548828%);fill-opacity:1;" d="M 157.738281 95.316406 L 161.007812 95.71875 C 160.492188 97.632812 159.539062 99.113281 158.144531 100.171875 C 156.746094 101.21875 154.964844 101.746094 152.800781 101.746094 C 150.070312 101.746094 147.902344 100.90625 146.308594 99.230469 C 144.707031 97.546875 143.90625 95.191406 143.90625 92.152344 C 143.90625 89.011719 144.71875 86.574219 146.332031 84.839844 C 147.953125 83.105469 150.046875 82.234375 152.625 82.234375 C 155.121094 82.234375 157.160156 83.089844 158.738281 84.785156 C 160.324219 86.484375 161.117188 88.878906 161.117188 91.957031 C 161.117188 92.148438 161.109375 92.429688 161.097656 92.800781 L 147.179688 92.800781 C 147.292969 94.855469 147.875 96.425781 148.917969 97.511719 C 149.960938 98.605469 151.257812 99.148438 152.816406 99.148438 C 153.976562 99.148438 154.964844 98.84375 155.789062 98.230469 C 156.609375 97.625 157.257812 96.652344 157.738281 95.316406 Z M 147.351562 90.199219 L 157.773438 90.199219 C 157.636719 88.632812 157.234375 87.449219 156.578125 86.671875 C 155.570312 85.453125 154.265625 84.839844 152.660156 84.839844 C 151.210938 84.839844 149.984375 85.324219 148.996094 86.296875 C 148.007812 87.269531 147.460938 88.570312 147.351562 90.199219 "/>
<path style=" stroke:none;fill-rule:nonzero;fill:rgb(13.729858%,12.159729%,12.548828%);fill-opacity:1;" d="M 170.171875 101.328125 L 163.066406 82.660156 L 166.40625 82.660156 L 170.414062 93.839844 C 170.847656 95.046875 171.242188 96.300781 171.609375 97.601562 C 171.890625 96.617188 172.28125 95.4375 172.785156 94.050781 L 176.9375 82.660156 L 180.1875 82.660156 L 173.121094 101.328125 L 170.171875 101.328125 "/>
<path style=" stroke:none;fill-rule:nonzero;fill:rgb(13.729858%,12.159729%,12.548828%);fill-opacity:1;" d="M 195.761719 95.316406 L 199.03125 95.71875 C 198.515625 97.632812 197.558594 99.113281 196.167969 100.171875 C 194.769531 101.21875 192.988281 101.746094 190.820312 101.746094 C 188.09375 101.746094 185.925781 100.90625 184.328125 99.230469 C 182.726562 97.546875 181.929688 95.191406 181.929688 92.152344 C 181.929688 89.011719 182.738281 86.574219 184.355469 84.839844 C 185.972656 83.105469 188.066406 82.234375 190.648438 82.234375 C 193.144531 82.234375 195.183594 83.089844 196.761719 84.785156 C 198.347656 86.484375 199.136719 88.878906 199.136719 91.957031 C 199.136719 92.148438 199.132812 92.429688 199.121094 92.800781 L 185.199219 92.800781 C 185.3125 94.855469 185.894531 96.425781 186.941406 97.511719 C 187.984375 98.605469 189.28125 99.148438 190.839844 99.148438 C 191.996094 99.148438 192.988281 98.84375 193.808594 98.230469 C 194.632812 97.625 195.28125 96.652344 195.761719 95.316406 Z M 185.371094 90.199219 L 195.796875 90.199219 C 195.65625 88.632812 195.253906 87.449219 194.601562 86.671875 C 193.59375 85.453125 192.285156 84.839844 190.683594 84.839844 C 189.230469 84.839844 188.007812 85.324219 187.019531 86.296875 C 186.027344 87.269531 185.480469 88.570312 185.371094 90.199219 "/>
<path style=" stroke:none;fill-rule:nonzero;fill:rgb(13.729858%,12.159729%,12.548828%);fill-opacity:1;" d="M 203.007812 101.328125 L 203.007812 82.660156 L 205.851562 82.660156 L 205.851562 85.3125 C 207.226562 83.261719 209.203125 82.234375 211.789062 82.234375 C 212.921875 82.234375 213.953125 82.441406 214.894531 82.84375 C 215.84375 83.25 216.542969 83.777344 217.011719 84.4375 C 217.484375 85.09375 217.808594 85.871094 218.003906 86.773438 C 218.117188 87.359375 218.175781 88.386719 218.175781 89.851562 L 218.175781 101.328125 L 215.007812 101.328125 L 215.007812 89.96875 C 215.007812 88.6875 214.886719 87.71875 214.640625 87.078125 C 214.394531 86.441406 213.957031 85.933594 213.335938 85.554688 C 212.703125 85.171875 211.972656 84.976562 211.125 84.976562 C 209.773438 84.976562 208.617188 85.410156 207.632812 86.261719 C 206.65625 87.121094 206.171875 88.738281 206.171875 91.132812 L 206.171875 101.328125 L 203.007812 101.328125 "/>
<path style=" stroke:none;fill-rule:nonzero;fill:rgb(13.729858%,12.159729%,12.548828%);fill-opacity:1;" d="M 229.9375 98.496094 L 230.390625 101.292969 C 229.503906 101.476562 228.703125 101.574219 228.003906 101.574219 C 226.851562 101.574219 225.964844 101.394531 225.328125 101.027344 C 224.695312 100.667969 224.253906 100.1875 223.996094 99.59375 C 223.738281 99.007812 223.605469 97.757812 223.605469 95.863281 L 223.605469 85.121094 L 221.285156 85.121094 L 221.285156 82.660156 L 223.605469 82.660156 L 223.605469 78.035156 L 226.757812 76.140625 L 226.757812 82.660156 L 229.9375 82.660156 L 229.9375 85.121094 L 226.757812 85.121094 L 226.757812 96.035156 C 226.757812 96.941406 226.808594 97.519531 226.917969 97.777344 C 227.03125 98.035156 227.210938 98.238281 227.464844 98.394531 C 227.714844 98.542969 228.074219 98.621094 228.542969 98.621094 C 228.898438 98.621094 229.359375 98.578125 229.9375 98.496094 "/>
<path style=" stroke:none;fill-rule:nonzero;fill:rgb(13.729858%,12.159729%,12.548828%);fill-opacity:1;" d="M 231.765625 95.753906 L 234.890625 95.261719 C 235.066406 96.515625 235.558594 97.476562 236.363281 98.148438 C 237.160156 98.8125 238.28125 99.148438 239.726562 99.148438 C 241.179688 99.148438 242.257812 98.851562 242.960938 98.261719 C 243.664062 97.667969 244.019531 96.972656 244.019531 96.179688 C 244.019531 95.460938 243.707031 94.902344 243.082031 94.488281 C 242.648438 94.207031 241.570312 93.851562 239.847656 93.421875 C 237.53125 92.832031 235.917969 92.328125 235.023438 91.894531 C 234.128906 91.46875 233.445312 90.875 232.984375 90.121094 C 232.519531 89.363281 232.289062 88.53125 232.289062 87.617188 C 232.289062 86.785156 232.480469 86.015625 232.863281 85.308594 C 233.242188 84.59375 233.761719 84.007812 234.417969 83.539062 C 234.910156 83.179688 235.582031 82.867188 236.425781 82.613281 C 237.28125 82.363281 238.191406 82.234375 239.164062 82.234375 C 240.628906 82.234375 241.910156 82.453125 243.023438 82.871094 C 244.132812 83.292969 244.949219 83.863281 245.476562 84.582031 C 246.003906 85.308594 246.363281 86.269531 246.5625 87.472656 L 243.472656 87.898438 C 243.328125 86.941406 242.921875 86.191406 242.246094 85.648438 C 241.574219 85.109375 240.621094 84.839844 239.390625 84.839844 C 237.9375 84.839844 236.902344 85.078125 236.285156 85.558594 C 235.660156 86.039062 235.347656 86.605469 235.347656 87.246094 C 235.347656 87.660156 235.480469 88.027344 235.738281 88.355469 C 235.996094 88.699219 236.398438 88.972656 236.949219 89.203125 C 237.269531 89.316406 238.199219 89.585938 239.746094 90.007812 C 241.984375 90.605469 243.542969 91.09375 244.425781 91.476562 C 245.3125 91.855469 246.011719 92.410156 246.515625 93.136719 C 247.019531 93.863281 247.269531 94.765625 247.269531 95.84375 C 247.269531 96.898438 246.957031 97.890625 246.347656 98.824219 C 245.726562 99.757812 244.839844 100.476562 243.683594 100.984375 C 242.523438 101.496094 241.210938 101.746094 239.746094 101.746094 C 237.316406 101.746094 235.46875 101.246094 234.195312 100.234375 C 232.921875 99.230469 232.113281 97.734375 231.765625 95.753906 "/>
<path style=" stroke:none;fill-rule:nonzero;fill:rgb(13.729858%,12.159729%,12.548828%);fill-opacity:1;" d="M 8.972656 166.226562 C 7.226562 164.023438 5.75 161.445312 4.546875 158.492188 C 3.339844 155.53125 2.734375 152.480469 2.734375 149.3125 C 2.734375 146.519531 3.183594 143.851562 4.089844 141.296875 C 5.144531 138.332031 6.773438 135.378906 8.972656 132.441406 L 11.242188 132.441406 C 9.824219 134.875 8.890625 136.613281 8.433594 137.660156 C 7.714844 139.273438 7.15625 140.964844 6.742188 142.722656 C 6.238281 144.914062 5.984375 147.113281 5.984375 149.328125 C 5.984375 154.96875 7.738281 160.597656 11.242188 166.226562 L 8.972656 166.226562 "/>
<path style=" stroke:none;fill-rule:nonzero;fill:rgb(13.729858%,12.159729%,12.548828%);fill-opacity:1;" d="M 27.097656 151.808594 L 30.207031 152.214844 C 29.871094 154.355469 29 156.035156 27.597656 157.25 C 26.199219 158.460938 24.476562 159.066406 22.4375 159.066406 C 19.886719 159.066406 17.828125 158.234375 16.28125 156.566406 C 14.726562 154.898438 13.949219 152.503906 13.949219 149.382812 C 13.949219 147.367188 14.285156 145.601562 14.949219 144.089844 C 15.621094 142.578125 16.636719 141.445312 18.003906 140.691406 C 19.367188 139.933594 20.855469 139.554688 22.457031 139.554688 C 24.484375 139.554688 26.144531 140.070312 27.429688 141.097656 C 28.71875 142.125 29.546875 143.574219 29.914062 145.464844 L 26.835938 145.941406 C 26.542969 144.683594 26.027344 143.742188 25.28125 143.105469 C 24.539062 142.476562 23.636719 142.160156 22.582031 142.160156 C 20.984375 142.160156 19.691406 142.730469 18.695312 143.875 C 17.699219 145.015625 17.199219 146.820312 17.199219 149.292969 C 17.199219 151.800781 17.679688 153.625 18.644531 154.765625 C 19.605469 155.898438 20.859375 156.46875 22.40625 156.46875 C 23.648438 156.46875 24.679688 156.085938 25.515625 155.324219 C 26.351562 154.5625 26.878906 153.390625 27.097656 151.808594 "/>
<path style=" stroke:none;fill-rule:nonzero;fill:rgb(13.729858%,12.159729%,12.548828%);fill-opacity:1;" d="M 31.738281 149.3125 C 31.738281 145.855469 32.699219 143.292969 34.625 141.632812 C 36.226562 140.25 38.179688 139.554688 40.492188 139.554688 C 43.058594 139.554688 45.160156 140.394531 46.785156 142.082031 C 48.417969 143.761719 49.226562 146.082031 49.226562 149.046875 C 49.226562 151.453125 48.867188 153.34375 48.148438 154.71875 C 47.425781 156.097656 46.378906 157.164062 45.003906 157.925781 C 43.625 158.691406 42.125 159.066406 40.492188 159.066406 C 37.882812 159.066406 35.769531 158.234375 34.15625 156.554688 C 32.542969 154.878906 31.738281 152.46875 31.738281 149.3125 Z M 34.988281 149.3125 C 34.988281 151.707031 35.511719 153.492188 36.554688 154.679688 C 37.597656 155.875 38.914062 156.46875 40.492188 156.46875 C 42.0625 156.46875 43.371094 155.871094 44.414062 154.675781 C 45.453125 153.480469 45.976562 151.65625 45.976562 149.210938 C 45.976562 146.898438 45.453125 145.148438 44.402344 143.960938 C 43.355469 142.773438 42.050781 142.175781 40.492188 142.175781 C 38.914062 142.175781 37.597656 142.773438 36.554688 143.953125 C 35.511719 145.136719 34.988281 146.921875 34.988281 149.3125 "/>
<path style=" stroke:none;fill-rule:nonzero;fill:rgb(13.729858%,12.159729%,12.548828%);fill-opacity:1;" d="M 52.941406 158.648438 L 52.941406 139.980469 L 55.785156 139.980469 L 55.785156 142.632812 C 57.160156 140.582031 59.140625 139.554688 61.726562 139.554688 C 62.851562 139.554688 63.886719 139.757812 64.828125 140.160156 C 65.777344 140.570312 66.476562 141.097656 66.945312 141.757812 C 67.417969 142.410156 67.742188 143.191406 67.9375 144.089844 C 68.050781 144.679688 68.109375 145.707031 68.109375 147.167969 L 68.109375 158.648438 L 64.941406 158.648438 L 64.941406 147.289062 C 64.941406 146.003906 64.820312 145.039062 64.574219 144.398438 C 64.328125 143.761719 63.890625 143.25 63.269531 142.875 C 62.636719 142.488281 61.90625 142.296875 61.058594 142.296875 C 59.710938 142.296875 58.550781 142.730469 57.566406 143.582031 C 56.589844 144.4375 56.105469 146.058594 56.105469 148.453125 L 56.105469 158.648438 L 52.941406 158.648438 "/>
<path style=" stroke:none;fill-rule:nonzero;fill:rgb(13.729858%,12.159729%,12.548828%);fill-opacity:1;" d="M 79.871094 155.816406 L 80.324219 158.609375 C 79.4375 158.796875 78.640625 158.894531 77.9375 158.894531 C 76.785156 158.894531 75.898438 158.714844 75.261719 158.347656 C 74.632812 157.988281 74.1875 157.507812 73.929688 156.914062 C 73.671875 156.324219 73.539062 155.078125 73.539062 153.179688 L 73.539062 142.441406 L 71.21875 142.441406 L 71.21875 139.980469 L 73.539062 139.980469 L 73.539062 135.355469 L 76.691406 133.460938 L 76.691406 139.980469 L 79.871094 139.980469 L 79.871094 142.441406 L 76.691406 142.441406 L 76.691406 153.355469 C 76.691406 154.261719 76.742188 154.835938 76.851562 155.09375 C 76.964844 155.351562 77.144531 155.558594 77.398438 155.714844 C 77.648438 155.863281 78.011719 155.941406 78.476562 155.941406 C 78.832031 155.941406 79.292969 155.898438 79.871094 155.816406 "/>
<path style=" stroke:none;fill-rule:nonzero;fill:rgb(13.729858%,12.159729%,12.548828%);fill-opacity:1;" d="M 82.929688 158.648438 L 82.929688 139.980469 L 85.773438 139.980469 L 85.773438 142.808594 C 86.5 141.488281 87.171875 140.609375 87.789062 140.191406 C 88.402344 139.773438 89.078125 139.554688 89.816406 139.554688 C 90.886719 139.554688 91.964844 139.898438 93.070312 140.574219 L 91.976562 143.515625 C 91.210938 143.054688 90.4375 142.824219 89.660156 142.824219 C 88.964844 142.824219 88.347656 143.035156 87.796875 143.449219 C 87.242188 143.867188 86.851562 144.445312 86.621094 145.183594 C 86.265625 146.304688 86.09375 147.535156 86.09375 148.871094 L 86.09375 158.648438 L 82.929688 158.648438 "/>
<path style=" stroke:none;fill-rule:nonzero;fill:rgb(13.729858%,12.159729%,12.548828%);fill-opacity:1;" d="M 93.773438 149.3125 C 93.773438 145.855469 94.730469 143.292969 96.65625 141.632812 C 98.261719 140.25 100.214844 139.554688 102.527344 139.554688 C 105.09375 139.554688 107.195312 140.394531 108.820312 142.082031 C 110.453125 143.761719 111.261719 146.082031 111.261719 149.046875 C 111.261719 151.453125 110.902344 153.34375 110.183594 154.71875 C 109.460938 156.097656 108.410156 157.164062 107.039062 157.925781 C 105.65625 158.691406 104.15625 159.066406 102.527344 159.066406 C 99.914062 159.066406 97.804688 158.234375 96.191406 156.554688 C 94.574219 154.878906 93.773438 152.46875 93.773438 149.3125 Z M 97.023438 149.3125 C 97.023438 151.707031 97.546875 153.492188 98.589844 154.679688 C 99.632812 155.875 100.949219 156.46875 102.527344 156.46875 C 104.097656 156.46875 105.40625 155.871094 106.449219 154.675781 C 107.488281 153.480469 108.011719 151.65625 108.011719 149.210938 C 108.011719 146.898438 107.488281 145.148438 106.4375 143.960938 C 105.386719 142.773438 104.085938 142.175781 102.527344 142.175781 C 100.949219 142.175781 99.632812 142.773438 98.589844 143.953125 C 97.546875 145.136719 97.023438 146.921875 97.023438 149.3125 "/>
<path style=" stroke:none;fill-rule:nonzero;fill:rgb(13.729858%,12.159729%,12.548828%);fill-opacity:1;" d="M 114.902344 158.648438 L 114.902344 132.878906 L 118.066406 132.878906 L 118.066406 158.648438 L 114.902344 158.648438 "/>
<path style=" stroke:none;fill-rule:nonzero;fill:rgb(13.729858%,12.159729%,12.548828%);fill-opacity:1;" d="M 125.042969 166.226562 L 122.777344 166.226562 C 126.28125 160.597656 128.03125 154.96875 128.03125 149.328125 C 128.03125 147.128906 127.78125 144.945312 127.277344 142.773438 C 126.878906 141.019531 126.320312 139.328125 125.605469 137.714844 C 125.152344 136.65625 124.210938 134.898438 122.777344 132.441406 L 125.042969 132.441406 C 127.246094 135.378906 128.878906 138.332031 129.933594 141.296875 C 130.835938 143.851562 131.285156 146.519531 131.285156 149.3125 C 131.285156 152.480469 130.679688 155.53125 129.464844 158.492188 C 128.253906 161.445312 126.777344 164.023438 125.042969 166.226562 "/>
<path style=" stroke:none;fill-rule:nonzero;fill:rgb(13.729858%,12.159729%,12.548828%);fill-opacity:1;" d="M 143.78125 149.3125 C 143.78125 145.855469 144.742188 143.292969 146.667969 141.632812 C 148.269531 140.25 150.226562 139.554688 152.535156 139.554688 C 155.105469 139.554688 157.203125 140.394531 158.828125 142.082031 C 160.460938 143.761719 161.269531 146.082031 161.269531 149.046875 C 161.269531 151.453125 160.910156 153.34375 160.191406 154.71875 C 159.472656 156.097656 158.421875 157.164062 157.046875 157.925781 C 155.667969 158.691406 154.167969 159.066406 152.535156 159.066406 C 149.925781 159.066406 147.8125 158.234375 146.199219 156.554688 C 144.585938 154.878906 143.78125 152.46875 143.78125 149.3125 Z M 147.035156 149.3125 C 147.035156 151.707031 147.554688 153.492188 148.601562 154.679688 C 149.644531 155.875 150.957031 156.46875 152.535156 156.46875 C 154.109375 156.46875 155.414062 155.871094 156.460938 154.675781 C 157.496094 153.480469 158.019531 151.65625 158.019531 149.210938 C 158.019531 146.898438 157.496094 145.148438 156.449219 143.960938 C 155.398438 142.773438 154.097656 142.175781 152.535156 142.175781 C 150.957031 142.175781 149.644531 142.773438 148.601562 143.953125 C 147.554688 145.136719 147.035156 146.921875 147.035156 149.3125 "/>
<path style=" stroke:none;fill-rule:nonzero;fill:rgb(13.729858%,12.159729%,12.548828%);fill-opacity:1;" d="M 177.21875 158.648438 L 177.21875 155.90625 C 175.761719 158.015625 173.789062 159.066406 171.289062 159.066406 C 170.195312 159.066406 169.160156 158.855469 168.207031 158.4375 C 167.253906 158.015625 166.546875 157.484375 166.085938 156.847656 C 165.617188 156.207031 165.292969 155.425781 165.105469 154.5 C 164.980469 153.878906 164.914062 152.894531 164.914062 151.542969 L 164.914062 139.980469 L 168.074219 139.980469 L 168.074219 150.332031 C 168.074219 151.988281 168.140625 153.097656 168.269531 153.671875 C 168.472656 154.507812 168.890625 155.15625 169.535156 155.636719 C 170.183594 156.109375 170.980469 156.34375 171.929688 156.34375 C 172.875 156.34375 173.765625 156.101562 174.597656 155.617188 C 175.433594 155.132812 176.019531 154.464844 176.363281 153.632812 C 176.710938 152.792969 176.882812 151.574219 176.882812 149.984375 L 176.882812 139.980469 L 180.046875 139.980469 L 180.046875 158.648438 L 177.21875 158.648438 "/>
<path style=" stroke:none;fill-rule:nonzero;fill:rgb(13.729858%,12.159729%,12.548828%);fill-opacity:1;" d="M 191.914062 155.816406 L 192.371094 158.609375 C 191.480469 158.796875 190.683594 158.894531 189.980469 158.894531 C 188.828125 158.894531 187.941406 158.714844 187.304688 158.347656 C 186.675781 157.988281 186.230469 157.507812 185.972656 156.914062 C 185.714844 156.324219 185.585938 155.078125 185.585938 153.179688 L 185.585938 142.441406 L 183.261719 142.441406 L 183.261719 139.980469 L 185.585938 139.980469 L 185.585938 135.355469 L 188.734375 133.460938 L 188.734375 139.980469 L 191.914062 139.980469 L 191.914062 142.441406 L 188.734375 142.441406 L 188.734375 153.355469 C 188.734375 154.261719 188.789062 154.835938 188.894531 155.09375 C 189.007812 155.351562 189.1875 155.558594 189.441406 155.714844 C 189.691406 155.863281 190.054688 155.941406 190.519531 155.941406 C 190.875 155.941406 191.339844 155.898438 191.914062 155.816406 "/>
<path style=" stroke:none;fill-rule:nonzero;fill:rgb(13.729858%,12.159729%,12.548828%);fill-opacity:1;" d="M 195.011719 165.800781 L 195.011719 139.980469 L 197.890625 139.980469 L 197.890625 142.40625 C 198.566406 141.457031 199.335938 140.742188 200.195312 140.269531 C 201.046875 139.796875 202.085938 139.554688 203.300781 139.554688 C 204.898438 139.554688 206.300781 139.96875 207.519531 140.785156 C 208.742188 141.605469 209.660156 142.765625 210.28125 144.257812 C 210.902344 145.753906 211.214844 147.390625 211.214844 149.171875 C 211.214844 151.082031 210.875 152.804688 210.183594 154.332031 C 209.5 155.863281 208.503906 157.03125 207.195312 157.847656 C 205.886719 158.660156 204.515625 159.066406 203.074219 159.066406 C 202.019531 159.066406 201.074219 158.84375 200.234375 158.402344 C 199.394531 157.957031 198.710938 157.394531 198.171875 156.714844 L 198.171875 165.800781 Z M 197.871094 149.417969 C 197.871094 151.820312 198.359375 153.59375 199.328125 154.746094 C 200.300781 155.894531 201.484375 156.46875 202.863281 156.46875 C 204.269531 156.46875 205.472656 155.875 206.476562 154.679688 C 207.476562 153.492188 207.980469 151.652344 207.980469 149.15625 C 207.980469 146.773438 207.488281 144.996094 206.511719 143.808594 C 205.535156 142.628906 204.363281 142.03125 203.007812 142.03125 C 201.65625 142.03125 200.464844 142.664062 199.425781 143.921875 C 198.386719 145.183594 197.871094 147.019531 197.871094 149.417969 "/>
<path style=" stroke:none;fill-rule:nonzero;fill:rgb(13.729858%,12.159729%,12.548828%);fill-opacity:1;" d="M 227.265625 158.648438 L 227.265625 155.90625 C 225.808594 158.015625 223.835938 159.066406 221.339844 159.066406 C 220.238281 159.066406 219.207031 158.855469 218.253906 158.4375 C 217.300781 158.015625 216.589844 157.484375 216.128906 156.847656 C 215.660156 156.207031 215.339844 155.425781 215.152344 154.5 C 215.027344 153.878906 214.960938 152.894531 214.960938 151.542969 L 214.960938 139.980469 L 218.121094 139.980469 L 218.121094 150.332031 C 218.121094 151.988281 218.1875 153.097656 218.3125 153.671875 C 218.519531 154.507812 218.9375 155.15625 219.578125 155.636719 C 220.226562 156.109375 221.027344 156.34375 221.972656 156.34375 C 222.921875 156.34375 223.808594 156.101562 224.644531 155.617188 C 225.476562 155.132812 226.066406 154.464844 226.40625 153.632812 C 226.757812 152.792969 226.929688 151.574219 226.929688 149.984375 L 226.929688 139.980469 L 230.089844 139.980469 L 230.089844 158.648438 L 227.265625 158.648438 "/>
<path style=" stroke:none;fill-rule:nonzero;fill:rgb(13.729858%,12.159729%,12.548828%);fill-opacity:1;" d="M 241.960938 155.816406 L 242.414062 158.609375 C 241.527344 158.796875 240.730469 158.894531 240.027344 158.894531 C 238.875 158.894531 237.988281 158.714844 237.351562 158.347656 C 236.722656 157.988281 236.277344 157.507812 236.019531 156.914062 C 235.761719 156.324219 235.628906 155.078125 235.628906 153.179688 L 235.628906 142.441406 L 233.308594 142.441406 L 233.308594 139.980469 L 235.628906 139.980469 L 235.628906 135.355469 L 238.78125 133.460938 L 238.78125 139.980469 L 241.960938 139.980469 L 241.960938 142.441406 L 238.78125 142.441406 L 238.78125 153.355469 C 238.78125 154.261719 238.835938 154.835938 238.941406 155.09375 C 239.054688 155.351562 239.234375 155.558594 239.488281 155.714844 C 239.738281 155.863281 240.101562 155.941406 240.566406 155.941406 C 240.921875 155.941406 241.382812 155.898438 241.960938 155.816406 "/>
<path style=" stroke:none;fill-rule:nonzero;fill:rgb(13.729858%,12.159729%,12.548828%);fill-opacity:1;" d="M 243.789062 153.074219 L 246.914062 152.582031 C 247.089844 153.835938 247.582031 154.796875 248.386719 155.46875 C 249.183594 156.132812 250.304688 156.46875 251.753906 156.46875 C 253.203125 156.46875 254.285156 156.167969 254.984375 155.582031 C 255.6875 154.988281 256.039062 154.292969 256.039062 153.5 C 256.039062 152.78125 255.730469 152.222656 255.105469 151.808594 C 254.671875 151.527344 253.59375 151.171875 251.871094 150.738281 C 249.554688 150.152344 247.941406 149.648438 247.046875 149.214844 C 246.152344 148.789062 245.46875 148.195312 245.007812 147.441406 C 244.546875 146.683594 244.3125 145.847656 244.3125 144.9375 C 244.3125 144.101562 244.503906 143.335938 244.886719 142.628906 C 245.265625 141.914062 245.789062 141.324219 246.441406 140.855469 C 246.933594 140.496094 247.605469 140.183594 248.453125 139.933594 C 249.304688 139.679688 250.214844 139.554688 251.1875 139.554688 C 252.652344 139.554688 253.9375 139.773438 255.046875 140.191406 C 256.15625 140.609375 256.972656 141.179688 257.5 141.902344 C 258.027344 142.628906 258.386719 143.585938 258.585938 144.792969 L 255.496094 145.21875 C 255.351562 144.257812 254.945312 143.507812 254.269531 142.96875 C 253.601562 142.429688 252.644531 142.160156 251.414062 142.160156 C 249.964844 142.160156 248.925781 142.398438 248.308594 142.878906 C 247.683594 143.359375 247.371094 143.921875 247.371094 144.566406 C 247.371094 144.980469 247.503906 145.34375 247.761719 145.675781 C 248.019531 146.015625 248.421875 146.292969 248.972656 146.519531 C 249.292969 146.636719 250.222656 146.90625 251.769531 147.324219 C 254.007812 147.925781 255.566406 148.410156 256.449219 148.796875 C 257.339844 149.171875 258.035156 149.730469 258.539062 150.457031 C 259.042969 151.183594 259.292969 152.082031 259.292969 153.164062 C 259.292969 154.21875 258.980469 155.210938 258.371094 156.144531 C 257.753906 157.074219 256.863281 157.796875 255.703125 158.304688 C 254.546875 158.816406 253.234375 159.066406 251.769531 159.066406 C 249.339844 159.066406 247.492188 158.5625 246.21875 157.554688 C 244.949219 156.546875 244.136719 155.054688 243.789062 153.074219 "/>
</g>
</svg>
