<?xml version="1.0" encoding="UTF-8"?>
<svg xmlns="http://www.w3.org/2000/svg" xmlns:xlink="http://www.w3.org/1999/xlink" width="348.696pt" height="79.533pt" viewBox="0 0 348.696 79.533" version="1.2">
<defs>
<clipPath id="clip1">
  <path d="M 231 0.5 L 234 0.5 L 234 10 L 231 10 Z M 231 0.5 "/>
</clipPath>
<clipPath id="clip2">
  <path d="M 234 0.5 L 236 0.5 L 236 10 L 234 10 Z M 234 0.5 "/>
</clipPath>
<clipPath id="clip3">
  <path d="M 237 0.5 L 244 0.5 L 244 10 L 237 10 Z M 237 0.5 "/>
</clipPath>
<clipPath id="clip4">
  <path d="M 257 0.5 L 263 0.5 L 263 10 L 257 10 Z M 257 0.5 "/>
</clipPath>
<clipPath id="clip5">
  <path d="M 168 0.5 L 309 0.5 L 309 75 L 168 75 Z M 168 0.5 "/>
</clipPath>
<clipPath id="clip6">
  <path d="M 181 0.5 L 309 0.5 L 309 77 L 181 77 Z M 181 0.5 "/>
</clipPath>
</defs>
<g id="surface1">
<path style=" stroke:none;fill-rule:nonzero;fill:rgb(13.729858%,12.159729%,12.548828%);fill-opacity:1;" d="M 310.570312 42.589844 L 312.015625 42.957031 C 311.714844 44.140625 311.167969 45.046875 310.382812 45.667969 C 309.59375 46.292969 308.632812 46.601562 307.496094 46.601562 C 306.320312 46.601562 305.363281 46.363281 304.628906 45.886719 C 303.890625 45.40625 303.332031 44.710938 302.945312 43.804688 C 302.5625 42.894531 302.371094 41.921875 302.371094 40.878906 C 302.371094 39.742188 302.585938 38.753906 303.019531 37.90625 C 303.453125 37.0625 304.074219 36.417969 304.875 35.980469 C 305.675781 35.539062 306.554688 35.320312 307.519531 35.320312 C 308.609375 35.320312 309.527344 35.597656 310.273438 36.15625 C 311.015625 36.710938 311.535156 37.492188 311.828125 38.5 L 310.40625 38.835938 C 310.152344 38.039062 309.789062 37.460938 309.304688 37.097656 C 308.824219 36.734375 308.21875 36.554688 307.488281 36.554688 C 306.648438 36.554688 305.953125 36.757812 305.386719 37.15625 C 304.824219 37.5625 304.429688 38.101562 304.203125 38.777344 C 303.972656 39.453125 303.859375 40.152344 303.859375 40.871094 C 303.859375 41.800781 303.992188 42.609375 304.261719 43.300781 C 304.535156 43.992188 304.953125 44.511719 305.523438 44.855469 C 306.097656 45.199219 306.714844 45.367188 307.378906 45.367188 C 308.1875 45.367188 308.871094 45.132812 309.433594 44.667969 C 309.992188 44.203125 310.371094 43.507812 310.570312 42.589844 "/>
<path style=" stroke:none;fill-rule:nonzero;fill:rgb(13.729858%,12.159729%,12.548828%);fill-opacity:1;" d="M 316.433594 44.652344 L 316.433594 41.660156 L 313.464844 41.660156 L 313.464844 40.410156 L 316.433594 40.410156 L 316.433594 37.441406 L 317.699219 37.441406 L 317.699219 40.410156 L 320.671875 40.410156 L 320.671875 41.660156 L 317.699219 41.660156 L 317.699219 44.652344 L 316.433594 44.652344 "/>
<path style=" stroke:none;fill-rule:nonzero;fill:rgb(13.729858%,12.159729%,12.548828%);fill-opacity:1;" d="M 325.335938 44.652344 L 325.335938 41.660156 L 322.367188 41.660156 L 322.367188 40.410156 L 325.335938 40.410156 L 325.335938 37.441406 L 326.601562 37.441406 L 326.601562 40.410156 L 329.570312 40.410156 L 329.570312 41.660156 L 326.601562 41.660156 L 326.601562 44.652344 L 325.335938 44.652344 "/>
<path style=" stroke:none;fill-rule:nonzero;fill:rgb(13.729858%,12.159729%,12.548828%);fill-opacity:1;" d="M 307.773438 60.546875 L 309.089844 60.71875 C 308.945312 61.628906 308.578125 62.339844 307.984375 62.851562 C 307.390625 63.363281 306.664062 63.621094 305.800781 63.621094 C 304.71875 63.621094 303.847656 63.269531 303.191406 62.5625 C 302.535156 61.855469 302.207031 60.84375 302.207031 59.523438 C 302.207031 58.667969 302.347656 57.921875 302.628906 57.28125 C 302.914062 56.640625 303.34375 56.160156 303.921875 55.839844 C 304.5 55.519531 305.128906 55.359375 305.808594 55.359375 C 306.664062 55.359375 307.371094 55.578125 307.914062 56.011719 C 308.460938 56.449219 308.808594 57.0625 308.964844 57.863281 L 307.660156 58.0625 C 307.535156 57.53125 307.320312 57.132812 307.003906 56.863281 C 306.6875 56.597656 306.308594 56.464844 305.859375 56.464844 C 305.183594 56.464844 304.636719 56.703125 304.214844 57.191406 C 303.792969 57.671875 303.582031 58.4375 303.582031 59.484375 C 303.582031 60.546875 303.785156 61.316406 304.195312 61.800781 C 304.601562 62.28125 305.132812 62.519531 305.785156 62.519531 C 306.3125 62.519531 306.75 62.359375 307.101562 62.035156 C 307.457031 61.714844 307.679688 61.21875 307.773438 60.546875 "/>
<path style=" stroke:none;fill-rule:nonzero;fill:rgb(13.729858%,12.159729%,12.548828%);fill-opacity:1;" d="M 310.207031 63.445312 L 310.207031 52.535156 L 311.546875 52.535156 L 311.546875 63.445312 L 310.207031 63.445312 "/>
<path style=" stroke:none;fill-rule:nonzero;fill:rgb(13.729858%,12.159729%,12.548828%);fill-opacity:1;" d="M 318.78125 62.46875 C 318.28125 62.890625 317.804688 63.1875 317.347656 63.363281 C 316.886719 63.535156 316.394531 63.621094 315.867188 63.621094 C 315 63.621094 314.335938 63.410156 313.867188 62.988281 C 313.402344 62.5625 313.167969 62.019531 313.167969 61.359375 C 313.167969 60.972656 313.253906 60.617188 313.433594 60.300781 C 313.609375 59.980469 313.839844 59.722656 314.125 59.527344 C 314.410156 59.335938 314.730469 59.1875 315.089844 59.089844 C 315.351562 59.019531 315.746094 58.953125 316.277344 58.890625 C 317.359375 58.757812 318.15625 58.605469 318.667969 58.425781 C 318.671875 58.242188 318.675781 58.125 318.675781 58.078125 C 318.675781 57.53125 318.546875 57.144531 318.292969 56.925781 C 317.953125 56.621094 317.445312 56.472656 316.769531 56.472656 C 316.140625 56.472656 315.675781 56.578125 315.375 56.800781 C 315.074219 57.023438 314.851562 57.414062 314.707031 57.972656 L 313.398438 57.792969 C 313.519531 57.234375 313.714844 56.78125 313.988281 56.4375 C 314.257812 56.09375 314.65625 55.824219 315.171875 55.640625 C 315.6875 55.453125 316.28125 55.359375 316.964844 55.359375 C 317.640625 55.359375 318.183594 55.441406 318.605469 55.597656 C 319.027344 55.757812 319.339844 55.957031 319.539062 56.199219 C 319.738281 56.441406 319.875 56.742188 319.957031 57.109375 C 320 57.339844 320.023438 57.75 320.023438 58.34375 L 320.023438 60.132812 C 320.023438 61.378906 320.050781 62.164062 320.109375 62.492188 C 320.164062 62.824219 320.277344 63.140625 320.445312 63.445312 L 319.046875 63.445312 C 318.910156 63.167969 318.816406 62.839844 318.78125 62.46875 Z M 318.667969 59.476562 C 318.179688 59.675781 317.453125 59.84375 316.480469 59.984375 C 315.929688 60.0625 315.539062 60.152344 315.3125 60.25 C 315.082031 60.351562 314.90625 60.496094 314.785156 60.6875 C 314.660156 60.878906 314.597656 61.089844 314.597656 61.324219 C 314.597656 61.679688 314.734375 61.976562 315.003906 62.214844 C 315.273438 62.453125 315.667969 62.570312 316.1875 62.570312 C 316.703125 62.570312 317.164062 62.460938 317.566406 62.234375 C 317.96875 62.007812 318.265625 61.699219 318.453125 61.308594 C 318.597656 61.003906 318.667969 60.558594 318.667969 59.96875 L 318.667969 59.476562 "/>
<path style=" stroke:none;fill-rule:nonzero;fill:rgb(13.729858%,12.159729%,12.548828%);fill-opacity:1;" d="M 321.5625 61.082031 L 322.886719 60.875 C 322.960938 61.40625 323.167969 61.8125 323.507812 62.097656 C 323.847656 62.378906 324.324219 62.519531 324.933594 62.519531 C 325.550781 62.519531 326.007812 62.394531 326.304688 62.144531 C 326.601562 61.894531 326.75 61.597656 326.75 61.265625 C 326.75 60.960938 326.621094 60.722656 326.355469 60.546875 C 326.171875 60.429688 325.714844 60.277344 324.984375 60.09375 C 324.003906 59.847656 323.320312 59.632812 322.945312 59.449219 C 322.566406 59.269531 322.273438 59.019531 322.078125 58.699219 C 321.882812 58.378906 321.785156 58.023438 321.785156 57.640625 C 321.785156 57.285156 321.867188 56.960938 322.027344 56.660156 C 322.1875 56.359375 322.410156 56.109375 322.6875 55.910156 C 322.894531 55.757812 323.179688 55.628906 323.539062 55.519531 C 323.898438 55.414062 324.285156 55.359375 324.695312 55.359375 C 325.316406 55.359375 325.859375 55.453125 326.328125 55.628906 C 326.800781 55.808594 327.144531 56.050781 327.367188 56.355469 C 327.59375 56.660156 327.746094 57.066406 327.828125 57.578125 L 326.519531 57.757812 C 326.460938 57.351562 326.285156 57.035156 326 56.804688 C 325.71875 56.578125 325.3125 56.464844 324.792969 56.464844 C 324.179688 56.464844 323.738281 56.566406 323.476562 56.769531 C 323.210938 56.972656 323.082031 57.210938 323.082031 57.480469 C 323.082031 57.65625 323.136719 57.8125 323.246094 57.953125 C 323.355469 58.097656 323.523438 58.214844 323.757812 58.308594 C 323.894531 58.359375 324.285156 58.472656 324.941406 58.648438 C 325.890625 58.902344 326.550781 59.109375 326.921875 59.273438 C 327.300781 59.433594 327.59375 59.667969 327.808594 59.976562 C 328.019531 60.285156 328.128906 60.664062 328.128906 61.121094 C 328.128906 61.570312 327.996094 61.988281 327.738281 62.382812 C 327.476562 62.777344 327.097656 63.082031 326.609375 63.300781 C 326.117188 63.515625 325.5625 63.621094 324.941406 63.621094 C 323.914062 63.621094 323.132812 63.40625 322.59375 62.980469 C 322.054688 62.554688 321.710938 61.921875 321.5625 61.082031 "/>
<path style=" stroke:none;fill-rule:nonzero;fill:rgb(13.729858%,12.159729%,12.548828%);fill-opacity:1;" d="M 329.183594 61.082031 L 330.507812 60.875 C 330.582031 61.40625 330.789062 61.8125 331.128906 62.097656 C 331.46875 62.378906 331.941406 62.519531 332.554688 62.519531 C 333.171875 62.519531 333.628906 62.394531 333.925781 62.144531 C 334.222656 61.894531 334.371094 61.597656 334.371094 61.265625 C 334.371094 60.960938 334.238281 60.722656 333.976562 60.546875 C 333.792969 60.429688 333.335938 60.277344 332.605469 60.09375 C 331.625 59.847656 330.941406 59.632812 330.5625 59.449219 C 330.1875 59.269531 329.894531 59.019531 329.699219 58.699219 C 329.503906 58.378906 329.40625 58.023438 329.40625 57.640625 C 329.40625 57.285156 329.488281 56.960938 329.648438 56.660156 C 329.808594 56.359375 330.03125 56.109375 330.308594 55.910156 C 330.515625 55.757812 330.800781 55.628906 331.15625 55.519531 C 331.519531 55.414062 331.90625 55.359375 332.316406 55.359375 C 332.9375 55.359375 333.480469 55.453125 333.949219 55.628906 C 334.417969 55.808594 334.765625 56.050781 334.988281 56.355469 C 335.210938 56.660156 335.363281 57.066406 335.449219 57.578125 L 334.140625 57.757812 C 334.078125 57.351562 333.90625 57.035156 333.621094 56.804688 C 333.335938 56.578125 332.933594 56.464844 332.414062 56.464844 C 331.796875 56.464844 331.359375 56.566406 331.097656 56.769531 C 330.832031 56.972656 330.703125 57.210938 330.703125 57.480469 C 330.703125 57.65625 330.757812 57.8125 330.867188 57.953125 C 330.976562 58.097656 331.144531 58.214844 331.378906 58.308594 C 331.515625 58.359375 331.90625 58.472656 332.5625 58.648438 C 333.511719 58.902344 334.171875 59.109375 334.542969 59.273438 C 334.921875 59.433594 335.214844 59.667969 335.429688 59.976562 C 335.640625 60.285156 335.75 60.664062 335.75 61.121094 C 335.75 61.570312 335.617188 61.988281 335.355469 62.382812 C 335.09375 62.777344 334.71875 63.082031 334.230469 63.300781 C 333.738281 63.515625 333.183594 63.621094 332.5625 63.621094 C 331.535156 63.621094 330.753906 63.40625 330.214844 62.980469 C 329.675781 62.554688 329.332031 61.921875 329.183594 61.082031 "/>
<path style="fill:none;stroke-width:39.9997;stroke-linecap:butt;stroke-linejoin:miter;stroke:rgb(13.729858%,12.159729%,12.548828%);stroke-opacity:1;stroke-miterlimit:22.9256;" d="M 8323.871437 1602.362809 L 10022.722099 1602.362809 L 10022.722099 143.333948 L 8323.871437 143.333948 Z M 8323.871437 1602.362809 " transform="matrix(0.034596,0,0,-0.034596,0.5,79.033)"/>
<path style=" stroke:none;fill-rule:nonzero;fill:rgb(13.729858%,12.159729%,12.548828%);fill-opacity:1;" d="M 182.875 42.589844 L 184.320312 42.957031 C 184.019531 44.140625 183.472656 45.046875 182.6875 45.667969 C 181.902344 46.292969 180.941406 46.601562 179.804688 46.601562 C 178.625 46.601562 177.671875 46.363281 176.933594 45.886719 C 176.199219 45.40625 175.636719 44.710938 175.253906 43.804688 C 174.871094 42.894531 174.675781 41.921875 174.675781 40.878906 C 174.675781 39.742188 174.894531 38.753906 175.328125 37.90625 C 175.761719 37.0625 176.378906 36.417969 177.179688 35.980469 C 177.980469 35.539062 178.863281 35.320312 179.824219 35.320312 C 180.917969 35.320312 181.835938 35.597656 182.578125 36.15625 C 183.324219 36.710938 183.84375 37.492188 184.132812 38.5 L 182.714844 38.835938 C 182.460938 38.039062 182.09375 37.460938 181.613281 37.097656 C 181.132812 36.734375 180.527344 36.554688 179.796875 36.554688 C 178.957031 36.554688 178.257812 36.757812 177.695312 37.15625 C 177.128906 37.5625 176.734375 38.101562 176.507812 38.777344 C 176.28125 39.453125 176.164062 40.152344 176.164062 40.871094 C 176.164062 41.800781 176.300781 42.609375 176.570312 43.300781 C 176.839844 43.992188 177.261719 44.511719 177.832031 44.855469 C 178.402344 45.199219 179.019531 45.367188 179.6875 45.367188 C 180.492188 45.367188 181.175781 45.132812 181.738281 44.667969 C 182.300781 44.203125 182.679688 43.507812 182.875 42.589844 "/>
<path style=" stroke:none;fill-rule:nonzero;fill:rgb(13.729858%,12.159729%,12.548828%);fill-opacity:1;" d="M 188.742188 44.652344 L 188.742188 41.660156 L 185.773438 41.660156 L 185.773438 40.410156 L 188.742188 40.410156 L 188.742188 37.441406 L 190.007812 37.441406 L 190.007812 40.410156 L 192.976562 40.410156 L 192.976562 41.660156 L 190.007812 41.660156 L 190.007812 44.652344 L 188.742188 44.652344 "/>
<path style=" stroke:none;fill-rule:nonzero;fill:rgb(13.729858%,12.159729%,12.548828%);fill-opacity:1;" d="M 197.640625 44.652344 L 197.640625 41.660156 L 194.671875 41.660156 L 194.671875 40.410156 L 197.640625 40.410156 L 197.640625 37.441406 L 198.90625 37.441406 L 198.90625 40.410156 L 201.878906 40.410156 L 201.878906 41.660156 L 198.90625 41.660156 L 198.90625 44.652344 L 197.640625 44.652344 "/>
<path style=" stroke:none;fill-rule:nonzero;fill:rgb(13.729858%,12.159729%,12.548828%);fill-opacity:1;" d="M 180.078125 60.546875 L 181.394531 60.71875 C 181.253906 61.628906 180.886719 62.339844 180.289062 62.851562 C 179.699219 63.363281 178.96875 63.621094 178.105469 63.621094 C 177.027344 63.621094 176.15625 63.269531 175.5 62.5625 C 174.84375 61.855469 174.511719 60.84375 174.511719 59.523438 C 174.511719 58.667969 174.652344 57.921875 174.9375 57.28125 C 175.21875 56.640625 175.648438 56.160156 176.230469 55.839844 C 176.804688 55.519531 177.433594 55.359375 178.113281 55.359375 C 178.972656 55.359375 179.675781 55.578125 180.21875 56.011719 C 180.765625 56.449219 181.117188 57.0625 181.269531 57.863281 L 179.96875 58.0625 C 179.84375 57.53125 179.625 57.132812 179.308594 56.863281 C 178.996094 56.597656 178.613281 56.464844 178.167969 56.464844 C 177.492188 56.464844 176.941406 56.703125 176.519531 57.191406 C 176.097656 57.671875 175.886719 58.4375 175.886719 59.484375 C 175.886719 60.546875 176.089844 61.316406 176.5 61.800781 C 176.90625 62.28125 177.4375 62.519531 178.09375 62.519531 C 178.621094 62.519531 179.054688 62.359375 179.410156 62.035156 C 179.761719 61.714844 179.984375 61.21875 180.078125 60.546875 "/>
<path style=" stroke:none;fill-rule:nonzero;fill:rgb(13.729858%,12.159729%,12.548828%);fill-opacity:1;" d="M 182.511719 63.445312 L 182.511719 52.535156 L 183.851562 52.535156 L 183.851562 63.445312 L 182.511719 63.445312 "/>
<path style=" stroke:none;fill-rule:nonzero;fill:rgb(13.729858%,12.159729%,12.548828%);fill-opacity:1;" d="M 191.085938 62.46875 C 190.589844 62.890625 190.109375 63.1875 189.652344 63.363281 C 189.195312 63.535156 188.703125 63.621094 188.175781 63.621094 C 187.304688 63.621094 186.640625 63.410156 186.171875 62.988281 C 185.710938 62.5625 185.476562 62.019531 185.476562 61.359375 C 185.476562 60.972656 185.5625 60.617188 185.738281 60.300781 C 185.914062 59.980469 186.144531 59.722656 186.429688 59.527344 C 186.71875 59.335938 187.039062 59.1875 187.394531 59.089844 C 187.65625 59.019531 188.054688 58.953125 188.585938 58.890625 C 189.667969 58.757812 190.464844 58.605469 190.976562 58.425781 C 190.980469 58.242188 190.980469 58.125 190.980469 58.078125 C 190.980469 57.53125 190.855469 57.144531 190.601562 56.925781 C 190.261719 56.621094 189.75 56.472656 189.078125 56.472656 C 188.449219 56.472656 187.980469 56.578125 187.679688 56.800781 C 187.378906 57.023438 187.160156 57.414062 187.015625 57.972656 L 185.707031 57.792969 C 185.824219 57.234375 186.019531 56.78125 186.292969 56.4375 C 186.566406 56.09375 186.960938 55.824219 187.476562 55.640625 C 187.992188 55.453125 188.589844 55.359375 189.269531 55.359375 C 189.945312 55.359375 190.492188 55.441406 190.914062 55.597656 C 191.335938 55.757812 191.644531 55.957031 191.847656 56.199219 C 192.042969 56.441406 192.179688 56.742188 192.261719 57.109375 C 192.304688 57.339844 192.328125 57.75 192.328125 58.34375 L 192.328125 60.132812 C 192.328125 61.378906 192.355469 62.164062 192.414062 62.492188 C 192.472656 62.824219 192.585938 63.140625 192.753906 63.445312 L 191.351562 63.445312 C 191.214844 63.167969 191.125 62.839844 191.085938 62.46875 Z M 190.976562 59.476562 C 190.488281 59.675781 189.757812 59.84375 188.789062 59.984375 C 188.238281 60.0625 187.84375 60.152344 187.617188 60.25 C 187.390625 60.351562 187.210938 60.496094 187.089844 60.6875 C 186.964844 60.878906 186.902344 61.089844 186.902344 61.324219 C 186.902344 61.679688 187.039062 61.976562 187.308594 62.214844 C 187.578125 62.453125 187.976562 62.570312 188.496094 62.570312 C 189.011719 62.570312 189.472656 62.460938 189.871094 62.234375 C 190.273438 62.007812 190.570312 61.699219 190.757812 61.308594 C 190.902344 61.003906 190.976562 60.558594 190.976562 59.96875 L 190.976562 59.476562 "/>
<path style=" stroke:none;fill-rule:nonzero;fill:rgb(13.729858%,12.159729%,12.548828%);fill-opacity:1;" d="M 193.871094 61.082031 L 195.195312 60.875 C 195.265625 61.40625 195.476562 61.8125 195.816406 62.097656 C 196.152344 62.378906 196.628906 62.519531 197.242188 62.519531 C 197.855469 62.519531 198.3125 62.394531 198.609375 62.144531 C 198.90625 61.894531 199.058594 61.597656 199.058594 61.265625 C 199.058594 60.960938 198.925781 60.722656 198.660156 60.546875 C 198.476562 60.429688 198.019531 60.277344 197.292969 60.09375 C 196.3125 59.847656 195.628906 59.632812 195.25 59.449219 C 194.871094 59.269531 194.582031 59.019531 194.386719 58.699219 C 194.191406 58.378906 194.089844 58.023438 194.089844 57.640625 C 194.089844 57.285156 194.171875 56.960938 194.335938 56.660156 C 194.496094 56.359375 194.714844 56.109375 194.992188 55.910156 C 195.203125 55.757812 195.484375 55.628906 195.84375 55.519531 C 196.203125 55.414062 196.589844 55.359375 197.003906 55.359375 C 197.621094 55.359375 198.164062 55.453125 198.636719 55.628906 C 199.105469 55.808594 199.453125 56.050781 199.675781 56.355469 C 199.898438 56.660156 200.050781 57.066406 200.136719 57.578125 L 198.828125 57.757812 C 198.765625 57.351562 198.59375 57.035156 198.308594 56.804688 C 198.023438 56.578125 197.621094 56.464844 197.097656 56.464844 C 196.484375 56.464844 196.042969 56.566406 195.785156 56.769531 C 195.519531 56.972656 195.386719 57.210938 195.386719 57.480469 C 195.386719 57.65625 195.441406 57.8125 195.550781 57.953125 C 195.660156 58.097656 195.832031 58.214844 196.066406 58.308594 C 196.199219 58.359375 196.59375 58.472656 197.25 58.648438 C 198.195312 58.902344 198.855469 59.109375 199.230469 59.273438 C 199.605469 59.433594 199.902344 59.667969 200.113281 59.976562 C 200.328125 60.285156 200.433594 60.664062 200.433594 61.121094 C 200.433594 61.570312 200.300781 61.988281 200.042969 62.382812 C 199.78125 62.777344 199.40625 63.082031 198.914062 63.300781 C 198.425781 63.515625 197.867188 63.621094 197.25 63.621094 C 196.21875 63.621094 195.4375 63.40625 194.898438 62.980469 C 194.359375 62.554688 194.019531 61.921875 193.871094 61.082031 "/>
<path style=" stroke:none;fill-rule:nonzero;fill:rgb(13.729858%,12.159729%,12.548828%);fill-opacity:1;" d="M 201.492188 61.082031 L 202.816406 60.875 C 202.886719 61.40625 203.097656 61.8125 203.4375 62.097656 C 203.773438 62.378906 204.25 62.519531 204.863281 62.519531 C 205.476562 62.519531 205.933594 62.394531 206.230469 62.144531 C 206.527344 61.894531 206.679688 61.597656 206.679688 61.265625 C 206.679688 60.960938 206.546875 60.722656 206.28125 60.546875 C 206.097656 60.429688 205.640625 60.277344 204.914062 60.09375 C 203.933594 59.847656 203.25 59.632812 202.871094 59.449219 C 202.492188 59.269531 202.203125 59.019531 202.007812 58.699219 C 201.8125 58.378906 201.710938 58.023438 201.710938 57.640625 C 201.710938 57.285156 201.792969 56.960938 201.957031 56.660156 C 202.117188 56.359375 202.335938 56.109375 202.613281 55.910156 C 202.820312 55.757812 203.105469 55.628906 203.464844 55.519531 C 203.824219 55.414062 204.210938 55.359375 204.625 55.359375 C 205.242188 55.359375 205.785156 55.453125 206.257812 55.628906 C 206.726562 55.808594 207.070312 56.050781 207.296875 56.355469 C 207.519531 56.660156 207.671875 57.066406 207.753906 57.578125 L 206.445312 57.757812 C 206.386719 57.351562 206.214844 57.035156 205.929688 56.804688 C 205.644531 56.578125 205.242188 56.464844 204.71875 56.464844 C 204.105469 56.464844 203.664062 56.566406 203.402344 56.769531 C 203.140625 56.972656 203.007812 57.210938 203.007812 57.480469 C 203.007812 57.65625 203.0625 57.8125 203.171875 57.953125 C 203.28125 58.097656 203.453125 58.214844 203.6875 58.308594 C 203.820312 58.359375 204.214844 58.472656 204.871094 58.648438 C 205.816406 58.902344 206.476562 59.109375 206.851562 59.273438 C 207.226562 59.433594 207.519531 59.667969 207.734375 59.976562 C 207.949219 60.285156 208.054688 60.664062 208.054688 61.121094 C 208.054688 61.570312 207.921875 61.988281 207.664062 62.382812 C 207.402344 62.777344 207.027344 63.082031 206.535156 63.300781 C 206.046875 63.515625 205.488281 63.621094 204.871094 63.621094 C 203.839844 63.621094 203.058594 63.40625 202.519531 62.980469 C 201.980469 62.554688 201.636719 61.921875 201.492188 61.082031 "/>
<path style="fill:none;stroke-width:39.9997;stroke-linecap:butt;stroke-linejoin:miter;stroke:rgb(13.729858%,12.159729%,12.548828%);stroke-opacity:1;stroke-miterlimit:22.9256;" d="M 4632.94167 1602.362809 L 6331.679421 1602.362809 L 6331.679421 143.333948 L 4632.94167 143.333948 Z M 4632.94167 1602.362809 " transform="matrix(0.034596,0,0,-0.034596,0.5,79.033)"/>
<path style="fill:none;stroke-width:79.9994;stroke-linecap:butt;stroke-linejoin:miter;stroke:rgb(13.729858%,12.159729%,12.548828%);stroke-opacity:1;stroke-miterlimit:22.9256;" d="M 6353.245317 1188.546002 L 7870.648883 1188.546002 " transform="matrix(0.034596,0,0,-0.034596,0.5,79.033)"/>
<path style=" stroke:none;fill-rule:evenodd;fill:rgb(13.729858%,12.159729%,12.548828%);fill-opacity:1;" d="M 288.851562 37.914062 L 271.90625 29.445312 L 271.90625 46.386719 Z M 288.851562 37.914062 "/>
<path style="fill:none;stroke-width:79.9994;stroke-linecap:butt;stroke-linejoin:miter;stroke:rgb(13.729858%,12.159729%,12.548828%);stroke-opacity:1;stroke-miterlimit:22.9256;" d="M 2640.410922 1188.546002 L 4157.927398 1188.546002 " transform="matrix(0.034596,0,0,-0.034596,0.5,79.033)"/>
<path style=" stroke:none;fill-rule:evenodd;fill:rgb(13.729858%,12.159729%,12.548828%);fill-opacity:1;" d="M 160.40625 37.914062 L 143.460938 29.445312 L 143.460938 46.386719 Z M 160.40625 37.914062 "/>
<path style="fill:none;stroke-width:79.9994;stroke-linecap:butt;stroke-linejoin:miter;stroke:rgb(13.729858%,12.159729%,12.548828%);stroke-opacity:1;stroke-miterlimit:22.9256;" d="M 8323.871437 600.621278 L 6817.194365 600.621278 " transform="matrix(0.034596,0,0,-0.034596,0.5,79.033)"/>
<path style=" stroke:none;fill-rule:evenodd;fill:rgb(13.729858%,12.159729%,12.548828%);fill-opacity:1;" d="M 220.289062 58.253906 L 237.234375 66.722656 L 237.234375 49.777344 Z M 220.289062 58.253906 "/>
<path style="fill:none;stroke-width:79.9994;stroke-linecap:butt;stroke-linejoin:miter;stroke:rgb(13.729858%,12.159729%,12.548828%);stroke-opacity:1;stroke-miterlimit:22.9256;" d="M 4622.102266 600.621278 L 3115.425194 600.621278 " transform="matrix(0.034596,0,0,-0.034596,0.5,79.033)"/>
<path style=" stroke:none;fill-rule:evenodd;fill:rgb(13.729858%,12.159729%,12.548828%);fill-opacity:1;" d="M 92.222656 58.253906 L 109.164062 66.722656 L 109.164062 49.777344 Z M 92.222656 58.253906 "/>
<path style=" stroke:none;fill-rule:nonzero;fill:rgb(13.729858%,12.159729%,12.548828%);fill-opacity:1;" d="M 225.199219 76.664062 L 226.28125 76.496094 C 226.339844 76.929688 226.511719 77.261719 226.789062 77.492188 C 227.066406 77.722656 227.453125 77.839844 227.953125 77.839844 C 228.457031 77.839844 228.828125 77.738281 229.074219 77.535156 C 229.316406 77.328125 229.4375 77.085938 229.4375 76.8125 C 229.4375 76.5625 229.328125 76.371094 229.113281 76.226562 C 228.964844 76.128906 228.589844 76.007812 227.996094 75.859375 C 227.195312 75.65625 226.636719 75.480469 226.324219 75.332031 C 226.015625 75.183594 225.78125 74.976562 225.621094 74.714844 C 225.460938 74.457031 225.378906 74.167969 225.378906 73.851562 C 225.378906 73.5625 225.445312 73.296875 225.578125 73.050781 C 225.710938 72.804688 225.890625 72.601562 226.117188 72.441406 C 226.285156 72.316406 226.519531 72.207031 226.8125 72.121094 C 227.105469 72.03125 227.421875 71.988281 227.757812 71.988281 C 228.265625 71.988281 228.710938 72.0625 229.09375 72.210938 C 229.476562 72.355469 229.757812 72.550781 229.941406 72.800781 C 230.125 73.050781 230.25 73.382812 230.316406 73.800781 L 229.25 73.949219 C 229.199219 73.617188 229.058594 73.355469 228.824219 73.171875 C 228.59375 72.984375 228.261719 72.890625 227.835938 72.890625 C 227.335938 72.890625 226.976562 72.972656 226.761719 73.140625 C 226.546875 73.304688 226.4375 73.5 226.4375 73.722656 C 226.4375 73.867188 226.484375 73.992188 226.574219 74.105469 C 226.664062 74.226562 226.800781 74.320312 226.992188 74.398438 C 227.101562 74.4375 227.425781 74.53125 227.960938 74.675781 C 228.734375 74.882812 229.273438 75.054688 229.578125 75.1875 C 229.886719 75.316406 230.125 75.507812 230.300781 75.761719 C 230.476562 76.011719 230.5625 76.324219 230.5625 76.695312 C 230.5625 77.0625 230.453125 77.40625 230.242188 77.726562 C 230.027344 78.050781 229.722656 78.300781 229.320312 78.476562 C 228.921875 78.652344 228.464844 78.738281 227.960938 78.738281 C 227.117188 78.738281 226.480469 78.566406 226.039062 78.214844 C 225.597656 77.867188 225.320312 77.351562 225.199219 76.664062 "/>
<path style=" stroke:none;fill-rule:nonzero;fill:rgb(13.729858%,12.159729%,12.548828%);fill-opacity:1;" d="M 236.285156 76.515625 L 237.414062 76.652344 C 237.234375 77.316406 236.90625 77.828125 236.425781 78.195312 C 235.941406 78.558594 235.324219 78.738281 234.574219 78.738281 C 233.628906 78.738281 232.882812 78.449219 232.328125 77.867188 C 231.773438 77.285156 231.5 76.46875 231.5 75.421875 C 231.5 74.332031 231.777344 73.488281 232.335938 72.890625 C 232.898438 72.289062 233.621094 71.988281 234.515625 71.988281 C 235.378906 71.988281 236.085938 72.285156 236.628906 72.871094 C 237.179688 73.457031 237.453125 74.285156 237.453125 75.351562 C 237.453125 75.417969 237.449219 75.515625 237.445312 75.644531 L 232.628906 75.644531 C 232.667969 76.355469 232.871094 76.898438 233.230469 77.273438 C 233.59375 77.652344 234.042969 77.839844 234.582031 77.839844 C 234.980469 77.839844 235.324219 77.734375 235.609375 77.523438 C 235.894531 77.3125 236.117188 76.976562 236.285156 76.515625 Z M 232.691406 74.742188 L 236.296875 74.742188 C 236.25 74.203125 236.109375 73.792969 235.882812 73.523438 C 235.535156 73.101562 235.082031 72.890625 234.527344 72.890625 C 234.023438 72.890625 233.601562 73.058594 233.257812 73.394531 C 232.917969 73.730469 232.726562 74.179688 232.691406 74.742188 "/>
<path style=" stroke:none;fill-rule:nonzero;fill:rgb(13.729858%,12.159729%,12.548828%);fill-opacity:1;" d="M 241.179688 77.613281 L 241.339844 78.582031 C 241.03125 78.644531 240.753906 78.679688 240.511719 78.679688 C 240.113281 78.679688 239.804688 78.617188 239.585938 78.492188 C 239.367188 78.367188 239.214844 78.199219 239.125 77.996094 C 239.035156 77.789062 238.992188 77.359375 238.992188 76.703125 L 238.992188 72.988281 L 238.1875 72.988281 L 238.1875 72.136719 L 238.992188 72.136719 L 238.992188 70.535156 L 240.078125 69.878906 L 240.078125 72.136719 L 241.179688 72.136719 L 241.179688 72.988281 L 240.078125 72.988281 L 240.078125 76.761719 C 240.078125 77.078125 240.097656 77.277344 240.136719 77.363281 C 240.175781 77.453125 240.238281 77.523438 240.324219 77.578125 C 240.414062 77.632812 240.535156 77.65625 240.699219 77.65625 C 240.820312 77.65625 240.980469 77.644531 241.179688 77.613281 "/>
<path style=" stroke:none;fill-rule:nonzero;fill:rgb(13.729858%,12.159729%,12.548828%);fill-opacity:1;" d="M 244.640625 77.613281 L 244.796875 78.582031 C 244.492188 78.644531 244.214844 78.679688 243.972656 78.679688 C 243.574219 78.679688 243.265625 78.617188 243.046875 78.492188 C 242.828125 78.367188 242.675781 78.199219 242.585938 77.996094 C 242.496094 77.789062 242.449219 77.359375 242.449219 76.703125 L 242.449219 72.988281 L 241.648438 72.988281 L 241.648438 72.136719 L 242.449219 72.136719 L 242.449219 70.535156 L 243.539062 69.878906 L 243.539062 72.136719 L 244.640625 72.136719 L 244.640625 72.988281 L 243.539062 72.988281 L 243.539062 76.761719 C 243.539062 77.078125 243.558594 77.277344 243.597656 77.363281 C 243.636719 77.453125 243.699219 77.523438 243.785156 77.578125 C 243.871094 77.632812 243.996094 77.65625 244.160156 77.65625 C 244.28125 77.65625 244.441406 77.644531 244.640625 77.613281 "/>
<path style=" stroke:none;fill-rule:nonzero;fill:rgb(13.729858%,12.159729%,12.548828%);fill-opacity:1;" d="M 250.132812 76.515625 L 251.261719 76.652344 C 251.082031 77.316406 250.753906 77.828125 250.273438 78.195312 C 249.789062 78.558594 249.171875 78.738281 248.421875 78.738281 C 247.476562 78.738281 246.730469 78.449219 246.175781 77.867188 C 245.621094 77.285156 245.347656 76.46875 245.347656 75.421875 C 245.347656 74.332031 245.625 73.488281 246.183594 72.890625 C 246.746094 72.289062 247.46875 71.988281 248.363281 71.988281 C 249.226562 71.988281 249.929688 72.285156 250.476562 72.871094 C 251.027344 73.457031 251.300781 74.285156 251.300781 75.351562 C 251.300781 75.417969 251.296875 75.515625 251.292969 75.644531 L 246.476562 75.644531 C 246.515625 76.355469 246.71875 76.898438 247.078125 77.273438 C 247.441406 77.652344 247.890625 77.839844 248.429688 77.839844 C 248.828125 77.839844 249.171875 77.734375 249.457031 77.523438 C 249.742188 77.3125 249.964844 76.976562 250.132812 76.515625 Z M 246.539062 74.742188 L 250.144531 74.742188 C 250.09375 74.203125 249.957031 73.792969 249.730469 73.523438 C 249.382812 73.101562 248.929688 72.890625 248.375 72.890625 C 247.871094 72.890625 247.449219 73.058594 247.105469 73.394531 C 246.765625 73.730469 246.574219 74.179688 246.539062 74.742188 "/>
<path style=" stroke:none;fill-rule:nonzero;fill:rgb(13.729858%,12.159729%,12.548828%);fill-opacity:1;" d="M 252.625 78.59375 L 252.625 72.136719 L 253.609375 72.136719 L 253.609375 73.113281 C 253.859375 72.65625 254.09375 72.355469 254.308594 72.210938 C 254.519531 72.0625 254.753906 71.988281 255.007812 71.988281 C 255.378906 71.988281 255.753906 72.109375 256.132812 72.34375 L 255.757812 73.359375 C 255.492188 73.199219 255.222656 73.121094 254.953125 73.121094 C 254.714844 73.121094 254.5 73.191406 254.308594 73.335938 C 254.117188 73.480469 253.984375 73.679688 253.902344 73.9375 C 253.78125 74.324219 253.71875 74.75 253.71875 75.210938 L 253.71875 78.59375 L 252.625 78.59375 "/>
<path style=" stroke:none;fill-rule:nonzero;fill:rgb(13.729858%,12.159729%,12.548828%);fill-opacity:1;" d="M 256.347656 76.664062 L 257.429688 76.496094 C 257.488281 76.929688 257.660156 77.261719 257.9375 77.492188 C 258.214844 77.722656 258.601562 77.839844 259.101562 77.839844 C 259.605469 77.839844 259.976562 77.738281 260.222656 77.535156 C 260.464844 77.328125 260.585938 77.085938 260.585938 76.8125 C 260.585938 76.5625 260.480469 76.371094 260.261719 76.226562 C 260.113281 76.128906 259.738281 76.007812 259.144531 75.859375 C 258.34375 75.65625 257.785156 75.480469 257.476562 75.332031 C 257.164062 75.183594 256.929688 74.976562 256.769531 74.714844 C 256.609375 74.457031 256.527344 74.167969 256.527344 73.851562 C 256.527344 73.5625 256.59375 73.296875 256.726562 73.050781 C 256.859375 72.804688 257.039062 72.601562 257.265625 72.441406 C 257.433594 72.316406 257.667969 72.207031 257.960938 72.121094 C 258.253906 72.03125 258.570312 71.988281 258.90625 71.988281 C 259.414062 71.988281 259.859375 72.0625 260.242188 72.210938 C 260.625 72.355469 260.910156 72.550781 261.089844 72.800781 C 261.273438 73.050781 261.398438 73.382812 261.464844 73.800781 L 260.398438 73.949219 C 260.347656 73.617188 260.207031 73.355469 259.972656 73.171875 C 259.742188 72.984375 259.410156 72.890625 258.984375 72.890625 C 258.484375 72.890625 258.125 72.972656 257.910156 73.140625 C 257.695312 73.304688 257.585938 73.5 257.585938 73.722656 C 257.585938 73.867188 257.632812 73.992188 257.722656 74.105469 C 257.8125 74.226562 257.949219 74.320312 258.140625 74.398438 C 258.25 74.4375 258.574219 74.53125 259.109375 74.675781 C 259.882812 74.882812 260.421875 75.054688 260.726562 75.1875 C 261.035156 75.316406 261.277344 75.507812 261.449219 75.761719 C 261.625 76.011719 261.710938 76.324219 261.710938 76.695312 C 261.710938 77.0625 261.605469 77.40625 261.390625 77.726562 C 261.179688 78.050781 260.871094 78.300781 260.46875 78.476562 C 260.070312 78.652344 259.613281 78.738281 259.109375 78.738281 C 258.269531 78.738281 257.628906 78.566406 257.1875 78.214844 C 256.75 77.867188 256.46875 77.351562 256.347656 76.664062 "/>
<path style=" stroke:none;fill-rule:nonzero;fill:rgb(13.729858%,12.159729%,12.548828%);fill-opacity:1;" d="M 223.007812 7.1875 L 224.082031 7.328125 C 223.96875 8.070312 223.667969 8.648438 223.179688 9.070312 C 222.695312 9.488281 222.101562 9.699219 221.394531 9.699219 C 220.511719 9.699219 219.800781 9.410156 219.265625 8.832031 C 218.726562 8.253906 218.457031 7.425781 218.457031 6.347656 C 218.457031 5.652344 218.574219 5.039062 218.804688 4.515625 C 219.039062 3.996094 219.386719 3.601562 219.863281 3.339844 C 220.332031 3.078125 220.847656 2.949219 221.402344 2.949219 C 222.101562 2.949219 222.679688 3.125 223.121094 3.480469 C 223.570312 3.835938 223.855469 4.339844 223.980469 4.992188 L 222.917969 5.15625 C 222.816406 4.722656 222.636719 4.398438 222.378906 4.175781 C 222.121094 3.960938 221.8125 3.847656 221.445312 3.847656 C 220.894531 3.847656 220.445312 4.046875 220.101562 4.441406 C 219.753906 4.835938 219.582031 5.460938 219.582031 6.316406 C 219.582031 7.183594 219.75 7.816406 220.082031 8.210938 C 220.414062 8.601562 220.847656 8.800781 221.386719 8.800781 C 221.816406 8.800781 222.171875 8.667969 222.460938 8.402344 C 222.75 8.140625 222.929688 7.734375 223.007812 7.1875 "/>
<path style=" stroke:none;fill-rule:nonzero;fill:rgb(13.729858%,12.159729%,12.548828%);fill-opacity:1;" d="M 229.234375 8.757812 C 228.828125 9.101562 228.4375 9.34375 228.066406 9.488281 C 227.6875 9.628906 227.285156 9.699219 226.855469 9.699219 C 226.148438 9.699219 225.601562 9.527344 225.222656 9.179688 C 224.839844 8.832031 224.648438 8.386719 224.648438 7.851562 C 224.648438 7.535156 224.722656 7.246094 224.867188 6.984375 C 225.007812 6.722656 225.199219 6.511719 225.429688 6.355469 C 225.664062 6.195312 225.925781 6.078125 226.21875 5.996094 C 226.433594 5.9375 226.757812 5.882812 227.191406 5.832031 C 228.074219 5.726562 228.726562 5.601562 229.144531 5.453125 C 229.148438 5.304688 229.152344 5.207031 229.152344 5.167969 C 229.152344 4.722656 229.046875 4.40625 228.839844 4.226562 C 228.5625 3.976562 228.144531 3.855469 227.59375 3.855469 C 227.078125 3.855469 226.699219 3.945312 226.453125 4.125 C 226.207031 4.304688 226.027344 4.625 225.90625 5.085938 L 224.839844 4.9375 C 224.9375 4.480469 225.097656 4.109375 225.320312 3.828125 C 225.539062 3.546875 225.863281 3.328125 226.285156 3.175781 C 226.707031 3.023438 227.195312 2.949219 227.75 2.949219 C 228.304688 2.949219 228.75 3.015625 229.09375 3.144531 C 229.4375 3.273438 229.691406 3.4375 229.855469 3.632812 C 230.019531 3.832031 230.128906 4.078125 230.195312 4.378906 C 230.230469 4.566406 230.25 4.902344 230.25 5.386719 L 230.25 6.847656 C 230.25 7.867188 230.273438 8.507812 230.320312 8.777344 C 230.367188 9.046875 230.460938 9.304688 230.597656 9.554688 L 229.453125 9.554688 C 229.339844 9.328125 229.265625 9.0625 229.234375 8.757812 Z M 229.144531 6.3125 C 228.746094 6.476562 228.148438 6.613281 227.355469 6.726562 C 226.90625 6.789062 226.585938 6.863281 226.402344 6.945312 C 226.214844 7.023438 226.070312 7.144531 225.96875 7.300781 C 225.867188 7.457031 225.816406 7.628906 225.816406 7.820312 C 225.816406 8.113281 225.929688 8.355469 226.148438 8.550781 C 226.367188 8.742188 226.691406 8.839844 227.117188 8.839844 C 227.539062 8.839844 227.914062 8.75 228.242188 8.566406 C 228.570312 8.378906 228.8125 8.128906 228.96875 7.808594 C 229.085938 7.558594 229.144531 7.195312 229.144531 6.714844 L 229.144531 6.3125 "/>
<g clip-path="url(#clip1)" clip-rule="nonzero">
<path style=" stroke:none;fill-rule:nonzero;fill:rgb(13.729858%,12.159729%,12.548828%);fill-opacity:1;" d="M 231.921875 9.554688 L 231.921875 0.636719 L 233.019531 0.636719 L 233.019531 9.554688 L 231.921875 9.554688 "/>
</g>
<g clip-path="url(#clip2)" clip-rule="nonzero">
<path style=" stroke:none;fill-rule:nonzero;fill:rgb(13.729858%,12.159729%,12.548828%);fill-opacity:1;" d="M 234.691406 9.554688 L 234.691406 0.636719 L 235.785156 0.636719 L 235.785156 9.554688 L 234.691406 9.554688 "/>
</g>
<g clip-path="url(#clip3)" clip-rule="nonzero">
<path style=" stroke:none;fill-rule:nonzero;fill:rgb(13.729858%,12.159729%,12.548828%);fill-opacity:1;" d="M 238.492188 9.554688 L 237.476562 9.554688 L 237.476562 0.636719 L 238.570312 0.636719 L 238.570312 3.816406 C 239.03125 3.238281 239.621094 2.949219 240.339844 2.949219 C 240.738281 2.949219 241.113281 3.027344 241.46875 3.1875 C 241.824219 3.347656 242.113281 3.574219 242.34375 3.863281 C 242.574219 4.152344 242.753906 4.503906 242.882812 4.914062 C 243.011719 5.324219 243.078125 5.761719 243.078125 6.226562 C 243.078125 7.335938 242.804688 8.1875 242.253906 8.792969 C 241.707031 9.398438 241.050781 9.699219 240.285156 9.699219 C 239.523438 9.699219 238.925781 9.382812 238.492188 8.742188 Z M 238.480469 6.277344 C 238.480469 7.050781 238.585938 7.609375 238.792969 7.953125 C 239.140625 8.515625 239.605469 8.800781 240.195312 8.800781 C 240.671875 8.800781 241.085938 8.59375 241.433594 8.175781 C 241.785156 7.757812 241.957031 7.140625 241.957031 6.316406 C 241.957031 5.472656 241.789062 4.851562 241.457031 4.449219 C 241.121094 4.050781 240.714844 3.847656 240.242188 3.847656 C 239.765625 3.847656 239.351562 4.054688 239.003906 4.472656 C 238.652344 4.886719 238.480469 5.488281 238.480469 6.277344 "/>
</g>
<path style=" stroke:none;fill-rule:nonzero;fill:rgb(13.729858%,12.159729%,12.548828%);fill-opacity:1;" d="M 248.625 8.757812 C 248.214844 9.101562 247.824219 9.34375 247.453125 9.488281 C 247.078125 9.628906 246.675781 9.699219 246.242188 9.699219 C 245.535156 9.699219 244.992188 9.527344 244.609375 9.179688 C 244.230469 8.832031 244.039062 8.386719 244.039062 7.851562 C 244.039062 7.535156 244.109375 7.246094 244.253906 6.984375 C 244.398438 6.722656 244.585938 6.511719 244.816406 6.355469 C 245.054688 6.195312 245.3125 6.078125 245.605469 5.996094 C 245.820312 5.9375 246.144531 5.882812 246.578125 5.832031 C 247.460938 5.726562 248.113281 5.601562 248.53125 5.453125 C 248.535156 5.304688 248.539062 5.207031 248.539062 5.167969 C 248.539062 4.722656 248.433594 4.40625 248.226562 4.226562 C 247.949219 3.976562 247.53125 3.855469 246.980469 3.855469 C 246.464844 3.855469 246.085938 3.945312 245.839844 4.125 C 245.59375 4.304688 245.414062 4.625 245.296875 5.085938 L 244.226562 4.9375 C 244.324219 4.480469 244.484375 4.109375 244.707031 3.828125 C 244.929688 3.546875 245.253906 3.328125 245.671875 3.175781 C 246.09375 3.023438 246.582031 2.949219 247.140625 2.949219 C 247.691406 2.949219 248.136719 3.015625 248.480469 3.144531 C 248.828125 3.273438 249.078125 3.4375 249.242188 3.632812 C 249.40625 3.832031 249.519531 4.078125 249.585938 4.378906 C 249.621094 4.566406 249.636719 4.902344 249.636719 5.386719 L 249.636719 6.847656 C 249.636719 7.867188 249.660156 8.507812 249.707031 8.777344 C 249.753906 9.046875 249.847656 9.304688 249.984375 9.554688 L 248.839844 9.554688 C 248.730469 9.328125 248.65625 9.0625 248.625 8.757812 Z M 248.53125 6.3125 C 248.132812 6.476562 247.539062 6.613281 246.746094 6.726562 C 246.292969 6.789062 245.972656 6.863281 245.789062 6.945312 C 245.601562 7.023438 245.457031 7.144531 245.359375 7.300781 C 245.257812 7.457031 245.203125 7.628906 245.203125 7.820312 C 245.203125 8.113281 245.316406 8.355469 245.535156 8.550781 C 245.757812 8.742188 246.082031 8.839844 246.507812 8.839844 C 246.925781 8.839844 247.304688 8.75 247.632812 8.566406 C 247.957031 8.378906 248.203125 8.128906 248.355469 7.808594 C 248.472656 7.558594 248.53125 7.195312 248.53125 6.714844 L 248.53125 6.3125 "/>
<path style=" stroke:none;fill-rule:nonzero;fill:rgb(13.729858%,12.159729%,12.548828%);fill-opacity:1;" d="M 255.550781 7.1875 L 256.625 7.328125 C 256.507812 8.070312 256.207031 8.648438 255.722656 9.070312 C 255.238281 9.488281 254.644531 9.699219 253.9375 9.699219 C 253.054688 9.699219 252.34375 9.410156 251.808594 8.832031 C 251.269531 8.253906 251 7.425781 251 6.347656 C 251 5.652344 251.117188 5.039062 251.347656 4.515625 C 251.578125 3.996094 251.929688 3.601562 252.402344 3.339844 C 252.875 3.078125 253.390625 2.949219 253.945312 2.949219 C 254.644531 2.949219 255.21875 3.125 255.664062 3.480469 C 256.109375 3.835938 256.398438 4.339844 256.523438 4.992188 L 255.457031 5.15625 C 255.355469 4.722656 255.179688 4.398438 254.921875 4.175781 C 254.664062 3.960938 254.351562 3.847656 253.988281 3.847656 C 253.433594 3.847656 252.988281 4.046875 252.640625 4.441406 C 252.296875 4.835938 252.125 5.460938 252.125 6.316406 C 252.125 7.183594 252.292969 7.816406 252.625 8.210938 C 252.957031 8.601562 253.390625 8.800781 253.925781 8.800781 C 254.355469 8.800781 254.714844 8.667969 255 8.402344 C 255.289062 8.140625 255.472656 7.734375 255.550781 7.1875 "/>
<g clip-path="url(#clip4)" clip-rule="nonzero">
<path style=" stroke:none;fill-rule:nonzero;fill:rgb(13.729858%,12.159729%,12.548828%);fill-opacity:1;" d="M 257.566406 9.554688 L 257.566406 0.636719 L 258.664062 0.636719 L 258.664062 5.722656 L 261.253906 3.09375 L 262.667969 3.09375 L 260.203125 5.492188 L 262.921875 9.554688 L 261.570312 9.554688 L 259.433594 6.25 L 258.664062 6.992188 L 258.664062 9.554688 L 257.566406 9.554688 "/>
</g>
<path style=" stroke:none;fill-rule:nonzero;fill:rgb(13.729858%,12.159729%,12.548828%);fill-opacity:1;" d="M 263.351562 7.625 L 264.433594 7.453125 C 264.496094 7.886719 264.664062 8.21875 264.941406 8.453125 C 265.21875 8.683594 265.605469 8.800781 266.105469 8.800781 C 266.609375 8.800781 266.984375 8.695312 267.226562 8.492188 C 267.46875 8.285156 267.589844 8.046875 267.589844 7.773438 C 267.589844 7.523438 267.484375 7.328125 267.265625 7.1875 C 267.117188 7.089844 266.746094 6.964844 266.148438 6.816406 C 265.347656 6.613281 264.789062 6.441406 264.480469 6.289062 C 264.171875 6.144531 263.933594 5.9375 263.773438 5.675781 C 263.613281 5.414062 263.535156 5.125 263.535156 4.808594 C 263.535156 4.523438 263.601562 4.253906 263.730469 4.011719 C 263.863281 3.765625 264.042969 3.558594 264.269531 3.398438 C 264.441406 3.273438 264.671875 3.167969 264.964844 3.078125 C 265.261719 2.992188 265.574219 2.949219 265.910156 2.949219 C 266.417969 2.949219 266.863281 3.023438 267.246094 3.167969 C 267.628906 3.3125 267.914062 3.511719 268.097656 3.757812 C 268.277344 4.011719 268.402344 4.34375 268.472656 4.761719 L 267.402344 4.90625 C 267.351562 4.574219 267.210938 4.316406 266.980469 4.128906 C 266.746094 3.941406 266.417969 3.847656 265.992188 3.847656 C 265.488281 3.847656 265.128906 3.933594 264.914062 4.097656 C 264.699219 4.265625 264.589844 4.460938 264.589844 4.679688 C 264.589844 4.824219 264.636719 4.953125 264.726562 5.066406 C 264.816406 5.183594 264.957031 5.277344 265.144531 5.359375 C 265.257812 5.398438 265.578125 5.492188 266.113281 5.636719 C 266.886719 5.84375 267.425781 6.011719 267.734375 6.144531 C 268.039062 6.277344 268.28125 6.46875 268.453125 6.71875 C 268.628906 6.972656 268.714844 7.28125 268.714844 7.65625 C 268.714844 8.019531 268.609375 8.363281 268.398438 8.6875 C 268.183594 9.007812 267.875 9.257812 267.476562 9.433594 C 267.074219 9.609375 266.621094 9.699219 266.113281 9.699219 C 265.273438 9.699219 264.632812 9.523438 264.191406 9.175781 C 263.753906 8.828125 263.472656 8.308594 263.351562 7.625 "/>
<path style=" stroke:none;fill-rule:nonzero;fill:rgb(13.729858%,12.159729%,12.548828%);fill-opacity:1;" d="M 225.4375 25.53125 L 226.5 25.691406 C 226.542969 26.019531 226.667969 26.257812 226.871094 26.410156 C 227.140625 26.609375 227.511719 26.710938 227.984375 26.710938 C 228.492188 26.710938 228.882812 26.609375 229.15625 26.410156 C 229.433594 26.203125 229.617188 25.921875 229.714844 25.558594 C 229.773438 25.332031 229.800781 24.867188 229.792969 24.152344 C 229.316406 24.714844 228.722656 24.996094 228.007812 24.996094 C 227.117188 24.996094 226.433594 24.675781 225.945312 24.035156 C 225.460938 23.394531 225.214844 22.625 225.214844 21.730469 C 225.214844 21.113281 225.328125 20.546875 225.550781 20.023438 C 225.773438 19.503906 226.097656 19.101562 226.519531 18.816406 C 226.945312 18.535156 227.441406 18.390625 228.015625 18.390625 C 228.777344 18.390625 229.40625 18.699219 229.898438 19.316406 L 229.898438 18.539062 L 230.910156 18.539062 L 230.910156 24.121094 C 230.910156 25.125 230.804688 25.839844 230.601562 26.257812 C 230.398438 26.679688 230.074219 27.011719 229.628906 27.253906 C 229.183594 27.496094 228.636719 27.617188 227.988281 27.617188 C 227.21875 27.617188 226.597656 27.445312 226.121094 27.097656 C 225.648438 26.75 225.417969 26.230469 225.4375 25.53125 Z M 226.339844 21.652344 C 226.339844 22.5 226.507812 23.117188 226.847656 23.507812 C 227.183594 23.898438 227.605469 24.089844 228.113281 24.089844 C 228.613281 24.089844 229.035156 23.898438 229.375 23.511719 C 229.714844 23.121094 229.886719 22.515625 229.886719 21.6875 C 229.886719 20.898438 229.710938 20.300781 229.359375 19.902344 C 229.011719 19.5 228.585938 19.300781 228.09375 19.300781 C 227.605469 19.300781 227.195312 19.496094 226.851562 19.890625 C 226.511719 20.285156 226.339844 20.875 226.339844 21.652344 "/>
<path style=" stroke:none;fill-rule:nonzero;fill:rgb(13.729858%,12.159729%,12.548828%);fill-opacity:1;" d="M 236.984375 22.917969 L 238.113281 23.054688 C 237.9375 23.71875 237.605469 24.230469 237.125 24.597656 C 236.640625 24.960938 236.023438 25.140625 235.273438 25.140625 C 234.332031 25.140625 233.582031 24.851562 233.027344 24.269531 C 232.472656 23.6875 232.199219 22.875 232.199219 21.824219 C 232.199219 20.734375 232.480469 19.890625 233.035156 19.292969 C 233.597656 18.691406 234.320312 18.390625 235.214844 18.390625 C 236.078125 18.390625 236.785156 18.6875 237.328125 19.273438 C 237.878906 19.863281 238.152344 20.691406 238.152344 21.753906 C 238.152344 21.820312 238.148438 21.917969 238.144531 22.046875 L 233.328125 22.046875 C 233.367188 22.757812 233.570312 23.300781 233.933594 23.675781 C 234.292969 24.054688 234.742188 24.242188 235.28125 24.242188 C 235.679688 24.242188 236.023438 24.136719 236.308594 23.925781 C 236.59375 23.714844 236.816406 23.378906 236.984375 22.917969 Z M 233.390625 21.144531 L 236.996094 21.144531 C 236.949219 20.605469 236.808594 20.195312 236.582031 19.925781 C 236.234375 19.503906 235.78125 19.292969 235.226562 19.292969 C 234.726562 19.292969 234.300781 19.460938 233.957031 19.796875 C 233.617188 20.132812 233.425781 20.582031 233.390625 21.144531 "/>
<path style=" stroke:none;fill-rule:nonzero;fill:rgb(13.729858%,12.159729%,12.548828%);fill-opacity:1;" d="M 241.878906 24.015625 L 242.039062 24.984375 C 241.730469 25.046875 241.453125 25.082031 241.210938 25.082031 C 240.8125 25.082031 240.503906 25.019531 240.285156 24.894531 C 240.066406 24.769531 239.914062 24.601562 239.824219 24.398438 C 239.734375 24.195312 239.691406 23.761719 239.691406 23.105469 L 239.691406 19.390625 L 238.886719 19.390625 L 238.886719 18.539062 L 239.691406 18.539062 L 239.691406 16.9375 L 240.78125 16.28125 L 240.78125 18.539062 L 241.878906 18.539062 L 241.878906 19.390625 L 240.78125 19.390625 L 240.78125 23.164062 C 240.78125 23.480469 240.796875 23.679688 240.835938 23.769531 C 240.875 23.855469 240.9375 23.929688 241.023438 23.980469 C 241.113281 24.035156 241.234375 24.0625 241.398438 24.0625 C 241.519531 24.0625 241.679688 24.046875 241.878906 24.015625 "/>
<path style=" stroke:none;fill-rule:nonzero;fill:rgb(13.729858%,12.159729%,12.548828%);fill-opacity:1;" d="M 245.339844 24.015625 L 245.496094 24.984375 C 245.191406 25.046875 244.914062 25.082031 244.671875 25.082031 C 244.273438 25.082031 243.964844 25.019531 243.746094 24.894531 C 243.527344 24.769531 243.375 24.601562 243.285156 24.398438 C 243.195312 24.195312 243.148438 23.761719 243.148438 23.105469 L 243.148438 19.390625 L 242.347656 19.390625 L 242.347656 18.539062 L 243.148438 18.539062 L 243.148438 16.9375 L 244.238281 16.28125 L 244.238281 18.539062 L 245.339844 18.539062 L 245.339844 19.390625 L 244.238281 19.390625 L 244.238281 23.164062 C 244.238281 23.480469 244.257812 23.679688 244.296875 23.769531 C 244.335938 23.855469 244.398438 23.929688 244.484375 23.980469 C 244.570312 24.035156 244.695312 24.0625 244.859375 24.0625 C 244.980469 24.0625 245.140625 24.046875 245.339844 24.015625 "/>
<path style=" stroke:none;fill-rule:nonzero;fill:rgb(13.729858%,12.159729%,12.548828%);fill-opacity:1;" d="M 250.832031 22.917969 L 251.960938 23.054688 C 251.78125 23.71875 251.453125 24.230469 250.972656 24.597656 C 250.488281 24.960938 249.871094 25.140625 249.121094 25.140625 C 248.175781 25.140625 247.429688 24.851562 246.875 24.269531 C 246.320312 23.6875 246.046875 22.875 246.046875 21.824219 C 246.046875 20.734375 246.324219 19.890625 246.882812 19.292969 C 247.445312 18.691406 248.167969 18.390625 249.0625 18.390625 C 249.925781 18.390625 250.632812 18.6875 251.175781 19.273438 C 251.726562 19.863281 252 20.691406 252 21.753906 C 252 21.820312 251.996094 21.917969 251.992188 22.046875 L 247.175781 22.046875 C 247.214844 22.757812 247.417969 23.300781 247.78125 23.675781 C 248.140625 24.054688 248.589844 24.242188 249.128906 24.242188 C 249.527344 24.242188 249.871094 24.136719 250.15625 23.925781 C 250.441406 23.714844 250.664062 23.378906 250.832031 22.917969 Z M 247.238281 21.144531 L 250.84375 21.144531 C 250.796875 20.605469 250.65625 20.195312 250.429688 19.925781 C 250.082031 19.503906 249.628906 19.292969 249.074219 19.292969 C 248.570312 19.292969 248.148438 19.460938 247.804688 19.796875 C 247.464844 20.132812 247.273438 20.582031 247.238281 21.144531 "/>
<path style=" stroke:none;fill-rule:nonzero;fill:rgb(13.729858%,12.159729%,12.548828%);fill-opacity:1;" d="M 253.324219 24.996094 L 253.324219 18.539062 L 254.308594 18.539062 L 254.308594 19.515625 C 254.5625 19.058594 254.792969 18.757812 255.007812 18.613281 C 255.21875 18.464844 255.453125 18.390625 255.707031 18.390625 C 256.078125 18.390625 256.453125 18.511719 256.832031 18.746094 L 256.457031 19.761719 C 256.191406 19.601562 255.921875 19.523438 255.65625 19.523438 C 255.414062 19.523438 255.199219 19.59375 255.007812 19.738281 C 254.816406 19.882812 254.683594 20.082031 254.601562 20.339844 C 254.480469 20.726562 254.417969 21.152344 254.417969 21.617188 L 254.417969 24.996094 L 253.324219 24.996094 "/>
<path style=" stroke:none;fill-rule:nonzero;fill:rgb(13.729858%,12.159729%,12.548828%);fill-opacity:1;" d="M 257.046875 23.070312 L 258.128906 22.898438 C 258.1875 23.332031 258.359375 23.664062 258.636719 23.898438 C 258.914062 24.128906 259.300781 24.242188 259.800781 24.242188 C 260.304688 24.242188 260.679688 24.140625 260.921875 23.9375 C 261.164062 23.730469 261.285156 23.488281 261.285156 23.214844 C 261.285156 22.964844 261.179688 22.773438 260.960938 22.628906 C 260.8125 22.53125 260.4375 22.410156 259.84375 22.261719 C 259.042969 22.058594 258.484375 21.882812 258.175781 21.734375 C 257.863281 21.585938 257.628906 21.378906 257.46875 21.121094 C 257.308594 20.859375 257.226562 20.570312 257.226562 20.253906 C 257.226562 19.964844 257.292969 19.699219 257.425781 19.453125 C 257.558594 19.207031 257.738281 19.003906 257.964844 18.84375 C 258.136719 18.71875 258.367188 18.609375 258.660156 18.523438 C 258.953125 18.433594 259.269531 18.390625 259.605469 18.390625 C 260.113281 18.390625 260.558594 18.464844 260.941406 18.613281 C 261.324219 18.757812 261.609375 18.953125 261.789062 19.203125 C 261.972656 19.453125 262.097656 19.785156 262.167969 20.203125 L 261.097656 20.351562 C 261.046875 20.019531 260.90625 19.757812 260.671875 19.574219 C 260.441406 19.386719 260.109375 19.292969 259.6875 19.292969 C 259.183594 19.292969 258.824219 19.375 258.609375 19.542969 C 258.394531 19.707031 258.285156 19.902344 258.285156 20.125 C 258.285156 20.269531 258.332031 20.394531 258.421875 20.507812 C 258.511719 20.628906 258.648438 20.722656 258.839844 20.800781 C 258.949219 20.839844 259.273438 20.933594 259.808594 21.078125 C 260.582031 21.289062 261.121094 21.457031 261.425781 21.589844 C 261.734375 21.71875 261.976562 21.914062 262.148438 22.164062 C 262.324219 22.414062 262.410156 22.726562 262.410156 23.097656 C 262.410156 23.464844 262.304688 23.808594 262.089844 24.132812 C 261.878906 24.453125 261.570312 24.703125 261.167969 24.878906 C 260.769531 25.054688 260.316406 25.140625 259.808594 25.140625 C 258.96875 25.140625 258.328125 24.96875 257.886719 24.617188 C 257.449219 24.269531 257.167969 23.753906 257.046875 23.070312 "/>
<g clip-path="url(#clip5)" clip-rule="nonzero">
<path style="fill:none;stroke-width:39.9997;stroke-linecap:butt;stroke-linejoin:miter;stroke:rgb(13.729858%,12.159729%,12.548828%);stroke-opacity:1;stroke-miterlimit:22.9256;" d="M 6144.473891 1757.953412 L 7614.342157 1442.142878 " transform="matrix(0.034596,0,0,-0.034596,0.5,79.033)"/>
</g>
<g clip-path="url(#clip6)" clip-rule="nonzero">
<path style="fill:none;stroke-width:39.9997;stroke-linecap:butt;stroke-linejoin:miter;stroke:rgb(13.729858%,12.159729%,12.548828%);stroke-opacity:1;stroke-miterlimit:22.9256;" d="M 7614.342157 1888.590805 L 6514.707264 1376.767726 " transform="matrix(0.034596,0,0,-0.034596,0.5,79.033)"/>
</g>
<path style=" stroke:none;fill-rule:nonzero;fill:rgb(13.729858%,12.159729%,12.548828%);fill-opacity:1;" d="M 3.605469 44.058594 C 3 43.296875 2.488281 42.402344 2.074219 41.382812 C 1.65625 40.359375 1.445312 39.304688 1.445312 38.207031 C 1.445312 37.242188 1.601562 36.316406 1.914062 35.433594 C 2.28125 34.410156 2.84375 33.386719 3.605469 32.371094 L 4.390625 32.371094 C 3.898438 33.210938 3.574219 33.816406 3.417969 34.175781 C 3.167969 34.734375 2.976562 35.320312 2.832031 35.929688 C 2.65625 36.683594 2.570312 37.445312 2.570312 38.214844 C 2.570312 40.164062 3.175781 42.113281 4.390625 44.058594 L 3.605469 44.058594 "/>
<path style=" stroke:none;fill-rule:nonzero;fill:rgb(13.729858%,12.159729%,12.548828%);fill-opacity:1;" d="M 5.222656 39.507812 L 6.304688 39.339844 C 6.367188 39.773438 6.535156 40.105469 6.8125 40.335938 C 7.089844 40.566406 7.476562 40.683594 7.976562 40.683594 C 8.480469 40.683594 8.855469 40.578125 9.097656 40.375 C 9.339844 40.171875 9.460938 39.929688 9.460938 39.65625 C 9.460938 39.40625 9.355469 39.214844 9.136719 39.070312 C 8.988281 38.972656 8.617188 38.851562 8.019531 38.699219 C 7.21875 38.496094 6.660156 38.324219 6.351562 38.171875 C 6.042969 38.027344 5.804688 37.820312 5.644531 37.558594 C 5.484375 37.296875 5.402344 37.007812 5.402344 36.695312 C 5.402344 36.40625 5.472656 36.140625 5.601562 35.894531 C 5.734375 35.648438 5.914062 35.445312 6.140625 35.28125 C 6.3125 35.15625 6.542969 35.050781 6.835938 34.960938 C 7.132812 34.875 7.445312 34.832031 7.78125 34.832031 C 8.289062 34.832031 8.734375 34.90625 9.117188 35.050781 C 9.5 35.195312 9.785156 35.394531 9.964844 35.644531 C 10.148438 35.894531 10.273438 36.226562 10.34375 36.644531 L 9.273438 36.792969 C 9.222656 36.460938 9.082031 36.199219 8.851562 36.011719 C 8.617188 35.824219 8.289062 35.734375 7.863281 35.734375 C 7.359375 35.734375 7 35.816406 6.785156 35.980469 C 6.570312 36.148438 6.460938 36.34375 6.460938 36.566406 C 6.460938 36.707031 6.507812 36.835938 6.597656 36.949219 C 6.6875 37.066406 6.828125 37.164062 7.015625 37.242188 C 7.128906 37.28125 7.449219 37.375 7.984375 37.519531 C 8.757812 37.726562 9.296875 37.894531 9.605469 38.027344 C 9.910156 38.160156 10.152344 38.351562 10.324219 38.601562 C 10.5 38.855469 10.585938 39.164062 10.585938 39.539062 C 10.585938 39.90625 10.480469 40.246094 10.269531 40.570312 C 10.054688 40.894531 9.746094 41.140625 9.347656 41.320312 C 8.945312 41.496094 8.492188 41.582031 7.984375 41.582031 C 7.144531 41.582031 6.503906 41.40625 6.0625 41.058594 C 5.625 40.710938 5.34375 40.195312 5.222656 39.507812 "/>
<path style=" stroke:none;fill-rule:nonzero;fill:rgb(13.729858%,12.159729%,12.548828%);fill-opacity:1;" d="M 16.308594 39.355469 L 17.441406 39.496094 C 17.261719 40.15625 16.929688 40.671875 16.449219 41.035156 C 15.964844 41.398438 15.347656 41.582031 14.601562 41.582031 C 13.65625 41.582031 12.90625 41.292969 12.355469 40.710938 C 11.800781 40.128906 11.523438 39.3125 11.523438 38.261719 C 11.523438 37.175781 11.804688 36.332031 12.363281 35.734375 C 12.921875 35.132812 13.648438 34.832031 14.539062 34.832031 C 15.402344 34.832031 16.109375 35.125 16.65625 35.714844 C 17.203125 36.300781 17.476562 37.128906 17.476562 38.195312 C 17.476562 38.261719 17.476562 38.359375 17.46875 38.488281 L 12.65625 38.488281 C 12.695312 39.195312 12.894531 39.742188 13.257812 40.117188 C 13.617188 40.496094 14.066406 40.683594 14.605469 40.683594 C 15.007812 40.683594 15.347656 40.578125 15.632812 40.367188 C 15.917969 40.15625 16.140625 39.820312 16.308594 39.355469 Z M 12.714844 37.585938 L 16.320312 37.585938 C 16.273438 37.042969 16.132812 36.636719 15.90625 36.367188 C 15.558594 35.945312 15.105469 35.734375 14.550781 35.734375 C 14.050781 35.734375 13.625 35.902344 13.285156 36.238281 C 12.941406 36.574219 12.753906 37.023438 12.714844 37.585938 "/>
<path style=" stroke:none;fill-rule:nonzero;fill:rgb(13.729858%,12.159729%,12.548828%);fill-opacity:1;" d="M 18.816406 41.4375 L 18.816406 34.980469 L 19.800781 34.980469 L 19.800781 35.898438 C 20.273438 35.1875 20.960938 34.832031 21.855469 34.832031 C 22.246094 34.832031 22.601562 34.902344 22.929688 35.042969 C 23.253906 35.183594 23.5 35.367188 23.660156 35.59375 C 23.824219 35.820312 23.9375 36.089844 24.003906 36.402344 C 24.042969 36.605469 24.0625 36.960938 24.0625 37.464844 L 24.0625 41.4375 L 22.96875 41.4375 L 22.96875 37.507812 C 22.96875 37.0625 22.925781 36.730469 22.839844 36.507812 C 22.753906 36.285156 22.605469 36.109375 22.386719 35.980469 C 22.171875 35.847656 21.917969 35.78125 21.625 35.78125 C 21.15625 35.78125 20.757812 35.929688 20.417969 36.222656 C 20.078125 36.519531 19.910156 37.082031 19.910156 37.910156 L 19.910156 41.4375 L 18.816406 41.4375 "/>
<path style=" stroke:none;fill-rule:nonzero;fill:rgb(13.729858%,12.159729%,12.548828%);fill-opacity:1;" d="M 25.304688 39.507812 L 26.386719 39.339844 C 26.445312 39.773438 26.617188 40.105469 26.894531 40.335938 C 27.171875 40.566406 27.558594 40.683594 28.058594 40.683594 C 28.5625 40.683594 28.933594 40.578125 29.179688 40.375 C 29.421875 40.171875 29.542969 39.929688 29.542969 39.65625 C 29.542969 39.40625 29.433594 39.214844 29.21875 39.070312 C 29.070312 38.972656 28.695312 38.851562 28.101562 38.699219 C 27.300781 38.496094 26.742188 38.324219 26.429688 38.171875 C 26.121094 38.027344 25.886719 37.820312 25.726562 37.558594 C 25.566406 37.296875 25.484375 37.007812 25.484375 36.695312 C 25.484375 36.40625 25.550781 36.140625 25.683594 35.894531 C 25.816406 35.648438 25.996094 35.445312 26.222656 35.28125 C 26.390625 35.15625 26.625 35.050781 26.917969 34.960938 C 27.210938 34.875 27.527344 34.832031 27.863281 34.832031 C 28.371094 34.832031 28.816406 34.90625 29.199219 35.050781 C 29.582031 35.195312 29.863281 35.394531 30.046875 35.644531 C 30.230469 35.894531 30.355469 36.226562 30.421875 36.644531 L 29.355469 36.792969 C 29.304688 36.460938 29.164062 36.199219 28.929688 36.011719 C 28.699219 35.824219 28.367188 35.734375 27.941406 35.734375 C 27.441406 35.734375 27.082031 35.816406 26.867188 35.980469 C 26.652344 36.148438 26.542969 36.34375 26.542969 36.566406 C 26.542969 36.707031 26.589844 36.835938 26.679688 36.949219 C 26.769531 37.066406 26.90625 37.164062 27.097656 37.242188 C 27.207031 37.28125 27.53125 37.375 28.066406 37.519531 C 28.839844 37.726562 29.378906 37.894531 29.683594 38.027344 C 29.992188 38.160156 30.234375 38.351562 30.40625 38.601562 C 30.582031 38.855469 30.667969 39.164062 30.667969 39.539062 C 30.667969 39.90625 30.558594 40.246094 30.347656 40.570312 C 30.136719 40.894531 29.828125 41.140625 29.425781 41.320312 C 29.027344 41.496094 28.570312 41.582031 28.066406 41.582031 C 27.226562 41.582031 26.585938 41.40625 26.144531 41.058594 C 25.707031 40.710938 25.425781 40.195312 25.304688 39.507812 "/>
<path style=" stroke:none;fill-rule:nonzero;fill:rgb(13.729858%,12.159729%,12.548828%);fill-opacity:1;" d="M 31.5625 38.207031 C 31.5625 37.011719 31.894531 36.125 32.558594 35.550781 C 33.113281 35.074219 33.789062 34.832031 34.589844 34.832031 C 35.476562 34.832031 36.203125 35.121094 36.765625 35.707031 C 37.332031 36.285156 37.613281 37.089844 37.613281 38.117188 C 37.613281 38.949219 37.488281 39.601562 37.238281 40.078125 C 36.988281 40.554688 36.625 40.925781 36.152344 41.1875 C 35.671875 41.453125 35.152344 41.582031 34.589844 41.582031 C 33.6875 41.582031 32.957031 41.292969 32.398438 40.710938 C 31.839844 40.132812 31.5625 39.296875 31.5625 38.207031 Z M 32.6875 38.207031 C 32.6875 39.035156 32.867188 39.652344 33.226562 40.066406 C 33.589844 40.476562 34.042969 40.683594 34.589844 40.683594 C 35.132812 40.683594 35.585938 40.476562 35.945312 40.0625 C 36.304688 39.648438 36.488281 39.019531 36.488281 38.171875 C 36.488281 37.371094 36.304688 36.765625 35.941406 36.355469 C 35.578125 35.945312 35.128906 35.738281 34.589844 35.738281 C 34.042969 35.738281 33.589844 35.945312 33.226562 36.351562 C 32.867188 36.761719 32.6875 37.378906 32.6875 38.207031 "/>
<path style=" stroke:none;fill-rule:nonzero;fill:rgb(13.729858%,12.159729%,12.548828%);fill-opacity:1;" d="M 38.882812 41.4375 L 38.882812 34.980469 L 39.867188 34.980469 L 39.867188 35.957031 C 40.121094 35.5 40.351562 35.195312 40.566406 35.050781 C 40.777344 34.90625 41.011719 34.832031 41.265625 34.832031 C 41.636719 34.832031 42.011719 34.949219 42.390625 35.183594 L 42.015625 36.203125 C 41.75 36.042969 41.480469 35.964844 41.214844 35.964844 C 40.972656 35.964844 40.757812 36.035156 40.566406 36.179688 C 40.375 36.324219 40.242188 36.523438 40.160156 36.777344 C 40.039062 37.167969 39.976562 37.59375 39.976562 38.054688 L 39.976562 41.4375 L 38.882812 41.4375 "/>
<path style=" stroke:none;fill-rule:nonzero;fill:rgb(13.729858%,12.159729%,12.548828%);fill-opacity:1;" d="M 43.761719 44.058594 L 42.976562 44.058594 C 44.1875 42.113281 44.792969 40.164062 44.792969 38.214844 C 44.792969 37.453125 44.707031 36.695312 44.53125 35.945312 C 44.394531 35.339844 44.203125 34.753906 43.953125 34.195312 C 43.796875 33.828125 43.472656 33.222656 42.976562 32.371094 L 43.761719 32.371094 C 44.523438 33.386719 45.085938 34.410156 45.453125 35.433594 C 45.761719 36.316406 45.917969 37.242188 45.917969 38.207031 C 45.917969 39.304688 45.710938 40.359375 45.289062 41.382812 C 44.871094 42.402344 44.359375 43.296875 43.761719 44.058594 "/>
<path style=" stroke:none;fill-rule:nonzero;fill:rgb(13.729858%,12.159729%,12.548828%);fill-opacity:1;" d="M 55.070312 39.355469 L 56.203125 39.496094 C 56.023438 40.15625 55.695312 40.671875 55.210938 41.035156 C 54.730469 41.398438 54.113281 41.582031 53.363281 41.582031 C 52.417969 41.582031 51.667969 41.292969 51.117188 40.710938 C 50.5625 40.128906 50.285156 39.3125 50.285156 38.261719 C 50.285156 37.175781 50.566406 36.332031 51.125 35.734375 C 51.683594 35.132812 52.410156 34.832031 53.300781 34.832031 C 54.164062 34.832031 54.871094 35.125 55.417969 35.714844 C 55.964844 36.300781 56.238281 37.128906 56.238281 38.195312 C 56.238281 38.261719 56.238281 38.359375 56.234375 38.488281 L 51.417969 38.488281 C 51.457031 39.195312 51.660156 39.742188 52.019531 40.117188 C 52.378906 40.496094 52.828125 40.683594 53.367188 40.683594 C 53.769531 40.683594 54.113281 40.578125 54.394531 40.367188 C 54.679688 40.15625 54.90625 39.820312 55.070312 39.355469 Z M 51.476562 37.585938 L 55.082031 37.585938 C 55.035156 37.042969 54.898438 36.636719 54.671875 36.367188 C 54.320312 35.945312 53.871094 35.734375 53.316406 35.734375 C 52.8125 35.734375 52.390625 35.902344 52.046875 36.238281 C 51.703125 36.574219 51.515625 37.023438 51.476562 37.585938 "/>
<path style=" stroke:none;fill-rule:nonzero;fill:rgb(13.729858%,12.159729%,12.548828%);fill-opacity:1;" d="M 59.371094 41.4375 L 56.914062 34.980469 L 58.070312 34.980469 L 59.457031 38.847656 C 59.605469 39.261719 59.742188 39.699219 59.871094 40.148438 C 59.96875 39.808594 60.101562 39.398438 60.277344 38.917969 L 61.714844 34.980469 L 62.839844 34.980469 L 60.394531 41.4375 L 59.371094 41.4375 "/>
<path style=" stroke:none;fill-rule:nonzero;fill:rgb(13.729858%,12.159729%,12.548828%);fill-opacity:1;" d="M 68.226562 39.355469 L 69.355469 39.496094 C 69.179688 40.15625 68.847656 40.671875 68.367188 41.035156 C 67.882812 41.398438 67.265625 41.582031 66.515625 41.582031 C 65.574219 41.582031 64.824219 41.292969 64.269531 40.710938 C 63.714844 40.128906 63.441406 39.3125 63.441406 38.261719 C 63.441406 37.175781 63.71875 36.332031 64.277344 35.734375 C 64.839844 35.132812 65.5625 34.832031 66.457031 34.832031 C 67.320312 34.832031 68.027344 35.125 68.570312 35.714844 C 69.121094 36.300781 69.394531 37.128906 69.394531 38.195312 C 69.394531 38.261719 69.390625 38.359375 69.386719 38.488281 L 64.570312 38.488281 C 64.609375 39.195312 64.8125 39.742188 65.171875 40.117188 C 65.535156 40.496094 65.984375 40.683594 66.523438 40.683594 C 66.921875 40.683594 67.265625 40.578125 67.550781 40.367188 C 67.835938 40.15625 68.058594 39.820312 68.226562 39.355469 Z M 64.632812 37.585938 L 68.238281 37.585938 C 68.191406 37.042969 68.050781 36.636719 67.824219 36.367188 C 67.476562 35.945312 67.023438 35.734375 66.46875 35.734375 C 65.964844 35.734375 65.542969 35.902344 65.199219 36.238281 C 64.859375 36.574219 64.667969 37.023438 64.632812 37.585938 "/>
<path style=" stroke:none;fill-rule:nonzero;fill:rgb(13.729858%,12.159729%,12.548828%);fill-opacity:1;" d="M 70.730469 41.4375 L 70.730469 34.980469 L 71.714844 34.980469 L 71.714844 35.898438 C 72.191406 35.1875 72.875 34.832031 73.769531 34.832031 C 74.160156 34.832031 74.519531 34.902344 74.84375 35.042969 C 75.171875 35.183594 75.414062 35.367188 75.578125 35.59375 C 75.742188 35.820312 75.851562 36.089844 75.921875 36.402344 C 75.960938 36.605469 75.980469 36.960938 75.980469 37.464844 L 75.980469 41.4375 L 74.882812 41.4375 L 74.882812 37.507812 C 74.882812 37.0625 74.84375 36.730469 74.757812 36.507812 C 74.671875 36.285156 74.519531 36.109375 74.304688 35.980469 C 74.085938 35.847656 73.832031 35.78125 73.542969 35.78125 C 73.074219 35.78125 72.671875 35.929688 72.332031 36.222656 C 71.996094 36.519531 71.828125 37.082031 71.828125 37.910156 L 71.828125 41.4375 L 70.730469 41.4375 "/>
<path style=" stroke:none;fill-rule:nonzero;fill:rgb(13.729858%,12.159729%,12.548828%);fill-opacity:1;" d="M 80.046875 40.457031 L 80.207031 41.425781 C 79.898438 41.488281 79.621094 41.523438 79.378906 41.523438 C 78.980469 41.523438 78.675781 41.460938 78.453125 41.332031 C 78.234375 41.207031 78.082031 41.042969 77.992188 40.835938 C 77.90625 40.632812 77.859375 40.203125 77.859375 39.546875 L 77.859375 35.832031 L 77.054688 35.832031 L 77.054688 34.980469 L 77.859375 34.980469 L 77.859375 33.378906 L 78.949219 32.722656 L 78.949219 34.980469 L 80.046875 34.980469 L 80.046875 35.832031 L 78.949219 35.832031 L 78.949219 39.605469 C 78.949219 39.917969 78.96875 40.117188 79.003906 40.207031 C 79.042969 40.296875 79.105469 40.367188 79.191406 40.421875 C 79.28125 40.472656 79.40625 40.5 79.566406 40.5 C 79.691406 40.5 79.847656 40.484375 80.046875 40.457031 "/>
<path style=" stroke:none;fill-rule:nonzero;fill:rgb(13.729858%,12.159729%,12.548828%);fill-opacity:1;" d="M 80.683594 39.507812 L 81.761719 39.339844 C 81.824219 39.773438 81.992188 40.105469 82.273438 40.335938 C 82.546875 40.566406 82.9375 40.683594 83.4375 40.683594 C 83.9375 40.683594 84.3125 40.578125 84.554688 40.375 C 84.796875 40.171875 84.921875 39.929688 84.921875 39.65625 C 84.921875 39.40625 84.8125 39.214844 84.597656 39.070312 C 84.445312 38.972656 84.074219 38.851562 83.476562 38.699219 C 82.675781 38.496094 82.117188 38.324219 81.808594 38.171875 C 81.5 38.027344 81.261719 37.820312 81.101562 37.558594 C 80.941406 37.296875 80.863281 37.007812 80.863281 36.695312 C 80.863281 36.40625 80.929688 36.140625 81.0625 35.894531 C 81.191406 35.648438 81.371094 35.445312 81.597656 35.28125 C 81.769531 35.15625 82 35.050781 82.292969 34.960938 C 82.589844 34.875 82.90625 34.832031 83.242188 34.832031 C 83.746094 34.832031 84.191406 34.90625 84.574219 35.050781 C 84.960938 35.195312 85.242188 35.394531 85.425781 35.644531 C 85.609375 35.894531 85.730469 36.226562 85.800781 36.644531 L 84.730469 36.792969 C 84.683594 36.460938 84.539062 36.199219 84.308594 36.011719 C 84.074219 35.824219 83.746094 35.734375 83.320312 35.734375 C 82.816406 35.734375 82.457031 35.816406 82.246094 35.980469 C 82.027344 36.148438 81.921875 36.34375 81.921875 36.566406 C 81.921875 36.707031 81.964844 36.835938 82.054688 36.949219 C 82.144531 37.066406 82.285156 37.164062 82.476562 37.242188 C 82.585938 37.28125 82.90625 37.375 83.441406 37.519531 C 84.214844 37.726562 84.757812 37.894531 85.0625 38.027344 C 85.367188 38.160156 85.609375 38.351562 85.785156 38.601562 C 85.957031 38.855469 86.046875 39.164062 86.046875 39.539062 C 86.046875 39.90625 85.9375 40.246094 85.726562 40.570312 C 85.511719 40.894531 85.203125 41.140625 84.804688 41.320312 C 84.402344 41.496094 83.949219 41.582031 83.441406 41.582031 C 82.601562 41.582031 81.960938 41.40625 81.523438 41.058594 C 81.082031 40.710938 80.800781 40.195312 80.683594 39.507812 "/>
<path style=" stroke:none;fill-rule:nonzero;fill:rgb(13.729858%,12.159729%,12.548828%);fill-opacity:1;" d="M 3.605469 63.890625 C 3 63.125 2.488281 62.234375 2.074219 61.214844 C 1.65625 60.191406 1.445312 59.132812 1.445312 58.039062 C 1.445312 57.070312 1.601562 56.148438 1.914062 55.265625 C 2.28125 54.238281 2.84375 53.21875 3.605469 52.199219 L 4.390625 52.199219 C 3.898438 53.042969 3.574219 53.644531 3.417969 54.007812 C 3.167969 54.5625 2.976562 55.148438 2.832031 55.757812 C 2.65625 56.515625 2.570312 57.277344 2.570312 58.042969 C 2.570312 59.996094 3.175781 61.941406 4.390625 63.890625 L 3.605469 63.890625 "/>
<path style=" stroke:none;fill-rule:nonzero;fill:rgb(13.729858%,12.159729%,12.548828%);fill-opacity:1;" d="M 9.875 58.902344 L 10.949219 59.042969 C 10.835938 59.78125 10.535156 60.363281 10.046875 60.785156 C 9.5625 61.203125 8.96875 61.414062 8.261719 61.414062 C 7.378906 61.414062 6.667969 61.125 6.132812 60.546875 C 5.59375 59.96875 5.324219 59.140625 5.324219 58.0625 C 5.324219 57.363281 5.441406 56.753906 5.671875 56.230469 C 5.90625 55.707031 6.253906 55.316406 6.730469 55.054688 C 7.199219 54.792969 7.714844 54.660156 8.269531 54.660156 C 8.96875 54.660156 9.546875 54.839844 9.988281 55.195312 C 10.4375 55.550781 10.722656 56.054688 10.847656 56.707031 L 9.785156 56.871094 C 9.683594 56.4375 9.503906 56.109375 9.246094 55.890625 C 8.988281 55.671875 8.679688 55.5625 8.3125 55.5625 C 7.761719 55.5625 7.3125 55.761719 6.96875 56.15625 C 6.621094 56.550781 6.449219 57.175781 6.449219 58.03125 C 6.449219 58.898438 6.617188 59.53125 6.949219 59.925781 C 7.28125 60.316406 7.714844 60.511719 8.253906 60.511719 C 8.683594 60.511719 9.039062 60.378906 9.328125 60.117188 C 9.617188 59.851562 9.796875 59.449219 9.875 58.902344 "/>
<path style=" stroke:none;fill-rule:nonzero;fill:rgb(13.729858%,12.159729%,12.548828%);fill-opacity:1;" d="M 11.480469 58.039062 C 11.480469 56.839844 11.8125 55.957031 12.476562 55.378906 C 13.03125 54.902344 13.710938 54.660156 14.507812 54.660156 C 15.398438 54.660156 16.125 54.953125 16.6875 55.535156 C 17.25 56.117188 17.53125 56.921875 17.53125 57.945312 C 17.53125 58.777344 17.40625 59.433594 17.15625 59.90625 C 16.90625 60.386719 16.542969 60.753906 16.070312 61.019531 C 15.59375 61.28125 15.074219 61.414062 14.507812 61.414062 C 13.605469 61.414062 12.875 61.125 12.316406 60.542969 C 11.757812 59.964844 11.480469 59.128906 11.480469 58.039062 Z M 12.605469 58.039062 C 12.605469 58.867188 12.785156 59.484375 13.148438 59.894531 C 13.507812 60.308594 13.960938 60.511719 14.507812 60.511719 C 15.050781 60.511719 15.503906 60.304688 15.867188 59.894531 C 16.226562 59.480469 16.40625 58.847656 16.40625 58 C 16.40625 57.203125 16.226562 56.597656 15.863281 56.1875 C 15.5 55.773438 15.046875 55.570312 14.507812 55.570312 C 13.960938 55.570312 13.507812 55.773438 13.148438 56.183594 C 12.785156 56.59375 12.605469 57.210938 12.605469 58.039062 "/>
<path style=" stroke:none;fill-rule:nonzero;fill:rgb(13.729858%,12.159729%,12.548828%);fill-opacity:1;" d="M 18.816406 61.265625 L 18.816406 54.808594 L 19.800781 54.808594 L 19.800781 55.726562 C 20.273438 55.015625 20.960938 54.660156 21.855469 54.660156 C 22.246094 54.660156 22.601562 54.734375 22.929688 54.871094 C 23.253906 55.011719 23.5 55.195312 23.660156 55.421875 C 23.824219 55.648438 23.9375 55.917969 24.003906 56.230469 C 24.042969 56.433594 24.0625 56.789062 24.0625 57.296875 L 24.0625 61.265625 L 22.96875 61.265625 L 22.96875 57.335938 C 22.96875 56.894531 22.925781 56.558594 22.839844 56.335938 C 22.753906 56.117188 22.605469 55.941406 22.386719 55.808594 C 22.171875 55.675781 21.917969 55.609375 21.625 55.609375 C 21.15625 55.609375 20.757812 55.761719 20.417969 56.054688 C 20.078125 56.351562 19.910156 56.914062 19.910156 57.742188 L 19.910156 61.265625 L 18.816406 61.265625 "/>
<path style=" stroke:none;fill-rule:nonzero;fill:rgb(13.729858%,12.159729%,12.548828%);fill-opacity:1;" d="M 28.132812 60.289062 L 28.289062 61.253906 C 27.980469 61.320312 27.707031 61.351562 27.464844 61.351562 C 27.066406 61.351562 26.757812 61.289062 26.539062 61.164062 C 26.320312 61.039062 26.164062 60.871094 26.078125 60.667969 C 25.988281 60.464844 25.941406 60.03125 25.941406 59.375 L 25.941406 55.660156 L 25.136719 55.660156 L 25.136719 54.808594 L 25.941406 54.808594 L 25.941406 53.210938 L 27.03125 52.554688 L 27.03125 54.808594 L 28.132812 54.808594 L 28.132812 55.660156 L 27.03125 55.660156 L 27.03125 59.4375 C 27.03125 59.75 27.050781 59.949219 27.085938 60.039062 C 27.128906 60.128906 27.1875 60.199219 27.277344 60.253906 C 27.363281 60.304688 27.488281 60.332031 27.648438 60.332031 C 27.773438 60.332031 27.933594 60.316406 28.132812 60.289062 "/>
<path style=" stroke:none;fill-rule:nonzero;fill:rgb(13.729858%,12.159729%,12.548828%);fill-opacity:1;" d="M 29.191406 61.265625 L 29.191406 54.808594 L 30.175781 54.808594 L 30.175781 55.785156 C 30.425781 55.332031 30.65625 55.027344 30.871094 54.882812 C 31.082031 54.738281 31.316406 54.660156 31.574219 54.660156 C 31.941406 54.660156 32.316406 54.78125 32.699219 55.015625 L 32.320312 56.03125 C 32.054688 55.871094 31.789062 55.792969 31.519531 55.792969 C 31.277344 55.792969 31.066406 55.867188 30.875 56.007812 C 30.683594 56.15625 30.546875 56.355469 30.46875 56.609375 C 30.34375 56.996094 30.285156 57.421875 30.285156 57.886719 L 30.285156 61.265625 L 29.191406 61.265625 "/>
<path style=" stroke:none;fill-rule:nonzero;fill:rgb(13.729858%,12.159729%,12.548828%);fill-opacity:1;" d="M 32.941406 58.039062 C 32.941406 56.839844 33.273438 55.957031 33.941406 55.378906 C 34.492188 54.902344 35.171875 54.660156 35.96875 54.660156 C 36.859375 54.660156 37.585938 54.953125 38.148438 55.535156 C 38.710938 56.117188 38.992188 56.921875 38.992188 57.945312 C 38.992188 58.777344 38.867188 59.433594 38.617188 59.90625 C 38.371094 60.386719 38.007812 60.753906 37.53125 61.019531 C 37.054688 61.28125 36.535156 61.414062 35.96875 61.414062 C 35.066406 61.414062 34.335938 61.125 33.777344 60.542969 C 33.21875 59.964844 32.941406 59.128906 32.941406 58.039062 Z M 34.066406 58.039062 C 34.066406 58.867188 34.246094 59.484375 34.609375 59.894531 C 34.96875 60.308594 35.425781 60.511719 35.96875 60.511719 C 36.515625 60.511719 36.964844 60.304688 37.328125 59.894531 C 37.6875 59.480469 37.867188 58.847656 37.867188 58 C 37.867188 57.203125 37.6875 56.597656 37.324219 56.1875 C 36.960938 55.773438 36.507812 55.570312 35.96875 55.570312 C 35.425781 55.570312 34.96875 55.773438 34.609375 56.183594 C 34.246094 56.59375 34.066406 57.210938 34.066406 58.039062 "/>
<path style=" stroke:none;fill-rule:nonzero;fill:rgb(13.729858%,12.159729%,12.548828%);fill-opacity:1;" d="M 40.253906 61.265625 L 40.253906 52.351562 L 41.347656 52.351562 L 41.347656 61.265625 L 40.253906 61.265625 "/>
<path style=" stroke:none;fill-rule:nonzero;fill:rgb(13.729858%,12.159729%,12.548828%);fill-opacity:1;" d="M 43.761719 63.890625 L 42.976562 63.890625 C 44.1875 61.941406 44.792969 59.996094 44.792969 58.042969 C 44.792969 57.28125 44.707031 56.527344 44.53125 55.773438 C 44.394531 55.167969 44.203125 54.582031 43.953125 54.023438 C 43.796875 53.660156 43.472656 53.050781 42.976562 52.199219 L 43.761719 52.199219 C 44.523438 53.21875 45.085938 54.238281 45.453125 55.265625 C 45.761719 56.148438 45.917969 57.070312 45.917969 58.039062 C 45.917969 59.132812 45.710938 60.191406 45.289062 61.214844 C 44.871094 62.234375 44.359375 63.125 43.761719 63.890625 "/>
<path style=" stroke:none;fill-rule:nonzero;fill:rgb(13.729858%,12.159729%,12.548828%);fill-opacity:1;" d="M 50.242188 58.039062 C 50.242188 56.839844 50.574219 55.957031 51.242188 55.378906 C 51.796875 54.902344 52.472656 54.660156 53.269531 54.660156 C 54.160156 54.660156 54.886719 54.953125 55.449219 55.535156 C 56.011719 56.117188 56.292969 56.921875 56.292969 57.945312 C 56.292969 58.777344 56.167969 59.433594 55.921875 59.90625 C 55.671875 60.386719 55.308594 60.753906 54.832031 61.019531 C 54.355469 61.28125 53.835938 61.414062 53.269531 61.414062 C 52.367188 61.414062 51.636719 61.125 51.078125 60.542969 C 50.519531 59.964844 50.242188 59.128906 50.242188 58.039062 Z M 51.367188 58.039062 C 51.367188 58.867188 51.546875 59.484375 51.910156 59.894531 C 52.269531 60.308594 52.726562 60.511719 53.269531 60.511719 C 53.816406 60.511719 54.269531 60.304688 54.628906 59.894531 C 54.988281 59.480469 55.167969 58.847656 55.167969 58 C 55.167969 57.203125 54.988281 56.597656 54.625 56.1875 C 54.261719 55.773438 53.8125 55.570312 53.269531 55.570312 C 52.726562 55.570312 52.269531 55.773438 51.910156 56.183594 C 51.546875 56.59375 51.367188 57.210938 51.367188 58.039062 "/>
<path style=" stroke:none;fill-rule:nonzero;fill:rgb(13.729858%,12.159729%,12.548828%);fill-opacity:1;" d="M 61.8125 61.265625 L 61.8125 60.320312 C 61.304688 61.050781 60.625 61.414062 59.761719 61.414062 C 59.378906 61.414062 59.023438 61.339844 58.691406 61.195312 C 58.363281 61.050781 58.117188 60.863281 57.957031 60.644531 C 57.796875 60.421875 57.683594 60.152344 57.621094 59.832031 C 57.578125 59.617188 57.554688 59.277344 57.554688 58.808594 L 57.554688 54.808594 L 58.648438 54.808594 L 58.648438 58.390625 C 58.648438 58.964844 58.671875 59.347656 58.714844 59.546875 C 58.785156 59.835938 58.929688 60.058594 59.152344 60.226562 C 59.375 60.390625 59.652344 60.46875 59.980469 60.46875 C 60.308594 60.46875 60.617188 60.386719 60.902344 60.21875 C 61.191406 60.050781 61.394531 59.820312 61.515625 59.53125 C 61.632812 59.242188 61.695312 58.820312 61.695312 58.269531 L 61.695312 54.808594 L 62.789062 54.808594 L 62.789062 61.265625 L 61.8125 61.265625 "/>
<path style=" stroke:none;fill-rule:nonzero;fill:rgb(13.729858%,12.159729%,12.548828%);fill-opacity:1;" d="M 66.894531 60.289062 L 67.050781 61.253906 C 66.746094 61.320312 66.46875 61.351562 66.226562 61.351562 C 65.828125 61.351562 65.519531 61.289062 65.300781 61.164062 C 65.082031 61.039062 64.929688 60.871094 64.839844 60.667969 C 64.75 60.464844 64.703125 60.03125 64.703125 59.375 L 64.703125 55.660156 L 63.902344 55.660156 L 63.902344 54.808594 L 64.703125 54.808594 L 64.703125 53.210938 L 65.792969 52.554688 L 65.792969 54.808594 L 66.894531 54.808594 L 66.894531 55.660156 L 65.792969 55.660156 L 65.792969 59.4375 C 65.792969 59.75 65.8125 59.949219 65.851562 60.039062 C 65.890625 60.128906 65.953125 60.199219 66.039062 60.253906 C 66.125 60.304688 66.25 60.332031 66.414062 60.332031 C 66.535156 60.332031 66.695312 60.316406 66.894531 60.289062 "/>
<path style=" stroke:none;fill-rule:nonzero;fill:rgb(13.729858%,12.159729%,12.548828%);fill-opacity:1;" d="M 67.964844 63.742188 L 67.964844 54.808594 L 68.960938 54.808594 L 68.960938 55.648438 C 69.195312 55.320312 69.460938 55.074219 69.757812 54.910156 C 70.054688 54.746094 70.414062 54.660156 70.835938 54.660156 C 71.386719 54.660156 71.871094 54.804688 72.292969 55.085938 C 72.71875 55.371094 73.035156 55.773438 73.25 56.289062 C 73.464844 56.804688 73.574219 57.371094 73.574219 57.988281 C 73.574219 58.648438 73.453125 59.246094 73.214844 59.773438 C 72.980469 60.304688 72.632812 60.707031 72.179688 60.992188 C 71.730469 61.269531 71.253906 61.414062 70.753906 61.414062 C 70.390625 61.414062 70.0625 61.335938 69.773438 61.183594 C 69.484375 61.027344 69.246094 60.832031 69.058594 60.597656 L 69.058594 63.742188 Z M 68.957031 58.074219 C 68.957031 58.90625 69.125 59.519531 69.460938 59.917969 C 69.796875 60.3125 70.207031 60.511719 70.683594 60.511719 C 71.167969 60.511719 71.585938 60.308594 71.933594 59.894531 C 72.277344 59.484375 72.453125 58.847656 72.453125 57.984375 C 72.453125 57.160156 72.285156 56.542969 71.945312 56.132812 C 71.605469 55.726562 71.203125 55.519531 70.730469 55.519531 C 70.265625 55.519531 69.851562 55.738281 69.492188 56.171875 C 69.132812 56.609375 68.957031 57.242188 68.957031 58.074219 "/>
<path style=" stroke:none;fill-rule:nonzero;fill:rgb(13.729858%,12.159729%,12.548828%);fill-opacity:1;" d="M 79.125 61.265625 L 79.125 60.320312 C 78.621094 61.050781 77.9375 61.414062 77.074219 61.414062 C 76.695312 61.414062 76.335938 61.339844 76.007812 61.195312 C 75.675781 61.050781 75.433594 60.863281 75.273438 60.644531 C 75.109375 60.421875 75 60.152344 74.933594 59.832031 C 74.890625 59.617188 74.867188 59.277344 74.867188 58.808594 L 74.867188 54.808594 L 75.960938 54.808594 L 75.960938 58.390625 C 75.960938 58.964844 75.984375 59.347656 76.027344 59.546875 C 76.097656 59.835938 76.242188 60.058594 76.464844 60.226562 C 76.691406 60.390625 76.964844 60.46875 77.292969 60.46875 C 77.621094 60.46875 77.929688 60.386719 78.21875 60.21875 C 78.507812 60.050781 78.710938 59.820312 78.828125 59.53125 C 78.949219 59.242188 79.007812 58.820312 79.007812 58.269531 L 79.007812 54.808594 L 80.101562 54.808594 L 80.101562 61.265625 L 79.125 61.265625 "/>
<path style=" stroke:none;fill-rule:nonzero;fill:rgb(13.729858%,12.159729%,12.548828%);fill-opacity:1;" d="M 84.207031 60.289062 L 84.367188 61.253906 C 84.058594 61.320312 83.78125 61.351562 83.539062 61.351562 C 83.140625 61.351562 82.835938 61.289062 82.613281 61.164062 C 82.394531 61.039062 82.242188 60.871094 82.152344 60.667969 C 82.0625 60.464844 82.019531 60.03125 82.019531 59.375 L 82.019531 55.660156 L 81.214844 55.660156 L 81.214844 54.808594 L 82.019531 54.808594 L 82.019531 53.210938 L 83.109375 52.554688 L 83.109375 54.808594 L 84.207031 54.808594 L 84.207031 55.660156 L 83.109375 55.660156 L 83.109375 59.4375 C 83.109375 59.75 83.128906 59.949219 83.164062 60.039062 C 83.203125 60.128906 83.265625 60.199219 83.351562 60.253906 C 83.441406 60.304688 83.566406 60.332031 83.726562 60.332031 C 83.847656 60.332031 84.007812 60.316406 84.207031 60.289062 "/>
<path style=" stroke:none;fill-rule:nonzero;fill:rgb(13.729858%,12.159729%,12.548828%);fill-opacity:1;" d="M 84.839844 59.339844 L 85.921875 59.167969 C 85.984375 59.601562 86.152344 59.933594 86.429688 60.167969 C 86.707031 60.398438 87.09375 60.511719 87.597656 60.511719 C 88.097656 60.511719 88.472656 60.410156 88.714844 60.207031 C 88.957031 60 89.078125 59.761719 89.078125 59.484375 C 89.078125 59.238281 88.972656 59.042969 88.757812 58.902344 C 88.605469 58.804688 88.234375 58.679688 87.636719 58.53125 C 86.835938 58.328125 86.277344 58.152344 85.96875 58.003906 C 85.660156 57.855469 85.421875 57.652344 85.261719 57.390625 C 85.101562 57.128906 85.023438 56.839844 85.023438 56.523438 C 85.023438 56.234375 85.089844 55.96875 85.222656 55.726562 C 85.351562 55.476562 85.53125 55.273438 85.757812 55.113281 C 85.929688 54.988281 86.160156 54.878906 86.453125 54.792969 C 86.75 54.707031 87.066406 54.660156 87.402344 54.660156 C 87.90625 54.660156 88.351562 54.738281 88.734375 54.882812 C 89.121094 55.027344 89.402344 55.222656 89.585938 55.472656 C 89.765625 55.726562 89.890625 56.058594 89.960938 56.472656 L 88.890625 56.621094 C 88.839844 56.289062 88.699219 56.03125 88.46875 55.84375 C 88.234375 55.65625 87.90625 55.5625 87.480469 55.5625 C 86.976562 55.5625 86.617188 55.644531 86.402344 55.8125 C 86.1875 55.976562 86.082031 56.171875 86.082031 56.394531 C 86.082031 56.539062 86.125 56.664062 86.214844 56.777344 C 86.304688 56.898438 86.445312 56.992188 86.632812 57.070312 C 86.746094 57.109375 87.066406 57.203125 87.601562 57.351562 C 88.375 57.558594 88.917969 57.726562 89.222656 57.859375 C 89.527344 57.988281 89.769531 58.183594 89.945312 58.433594 C 90.117188 58.683594 90.207031 58.996094 90.207031 59.371094 C 90.207031 59.734375 90.097656 60.078125 89.886719 60.402344 C 89.671875 60.722656 89.363281 60.972656 88.964844 61.148438 C 88.5625 61.324219 88.109375 61.414062 87.601562 61.414062 C 86.761719 61.414062 86.121094 61.238281 85.683594 60.890625 C 85.242188 60.539062 84.960938 60.023438 84.839844 59.339844 "/>
</g>
</svg>
