<?xml version="1.0" encoding="UTF-8"?>
<svg xmlns="http://www.w3.org/2000/svg" xmlns:xlink="http://www.w3.org/1999/xlink" width="389.543" height="81.15" viewBox="0 0 389.543 81.15">
<defs>
<clipPath id="clip-0">
<path clip-rule="nonzero" d="M 385 54 L 389.542969 54 L 389.542969 64 L 385 64 Z M 385 54 "/>
</clipPath>
<clipPath id="clip-1">
<path clip-rule="nonzero" d="M 340 18 L 389.542969 18 L 389.542969 76 L 340 76 Z M 340 18 "/>
</clipPath>
<clipPath id="clip-2">
<path clip-rule="nonzero" d="M 265 72 L 272 72 L 272 80.648438 L 265 80.648438 Z M 265 72 "/>
</clipPath>
<clipPath id="clip-3">
<path clip-rule="nonzero" d="M 272 72 L 280 72 L 280 80.648438 L 272 80.648438 Z M 272 72 "/>
</clipPath>
<clipPath id="clip-4">
<path clip-rule="nonzero" d="M 280 70 L 284 70 L 284 80.648438 L 280 80.648438 Z M 280 70 "/>
</clipPath>
<clipPath id="clip-5">
<path clip-rule="nonzero" d="M 284 70 L 288 70 L 288 80.648438 L 284 80.648438 Z M 284 70 "/>
</clipPath>
<clipPath id="clip-6">
<path clip-rule="nonzero" d="M 288 72 L 295 72 L 295 80.648438 L 288 80.648438 Z M 288 72 "/>
</clipPath>
<clipPath id="clip-7">
<path clip-rule="nonzero" d="M 296 72 L 301 72 L 301 80.648438 L 296 80.648438 Z M 296 72 "/>
</clipPath>
<clipPath id="clip-8">
<path clip-rule="nonzero" d="M 300 72 L 307 72 L 307 80.648438 L 300 80.648438 Z M 300 72 "/>
</clipPath>
<clipPath id="clip-9">
<path clip-rule="nonzero" d="M 203 0.5 L 359 0.5 L 359 69 L 203 69 Z M 203 0.5 "/>
</clipPath>
<clipPath id="clip-10">
<path clip-rule="nonzero" d="M 217 0.5 L 359 0.5 L 359 71 L 217 71 Z M 217 0.5 "/>
</clipPath>
</defs>
<path fill-rule="nonzero" fill="rgb(13.729858%, 12.159729%, 12.548828%)" fill-opacity="1" d="M 365.328125 40.445312 L 366.921875 40.851562 C 366.589844 42.15625 365.984375 43.152344 365.121094 43.84375 C 364.25 44.53125 363.191406 44.871094 361.9375 44.871094 C 360.640625 44.871094 359.585938 44.609375 358.773438 44.082031 C 357.960938 43.550781 357.339844 42.785156 356.917969 41.785156 C 356.496094 40.78125 356.28125 39.707031 356.28125 38.558594 C 356.28125 37.304688 356.519531 36.210938 357 35.277344 C 357.476562 34.347656 358.160156 33.636719 359.042969 33.152344 C 359.925781 32.667969 360.898438 32.425781 361.960938 32.425781 C 363.167969 32.425781 364.179688 32.730469 365 33.34375 C 365.820312 33.960938 366.390625 34.820312 366.714844 35.933594 L 365.148438 36.300781 C 364.867188 35.425781 364.464844 34.789062 363.933594 34.386719 C 363.402344 33.988281 362.734375 33.789062 361.929688 33.789062 C 361.003906 33.789062 360.234375 34.007812 359.609375 34.453125 C 358.988281 34.898438 358.550781 35.492188 358.300781 36.238281 C 358.050781 36.984375 357.921875 37.757812 357.921875 38.550781 C 357.921875 39.574219 358.074219 40.464844 358.371094 41.230469 C 358.667969 41.992188 359.132812 42.566406 359.761719 42.945312 C 360.390625 43.320312 361.074219 43.507812 361.808594 43.507812 C 362.699219 43.507812 363.453125 43.25 364.070312 42.738281 C 364.691406 42.222656 365.109375 41.457031 365.328125 40.445312 "/>
<path fill-rule="nonzero" fill="rgb(13.729858%, 12.159729%, 12.548828%)" fill-opacity="1" d="M 371.796875 42.722656 L 371.796875 39.421875 L 368.523438 39.421875 L 368.523438 38.042969 L 371.796875 38.042969 L 371.796875 34.765625 L 373.195312 34.765625 L 373.195312 38.042969 L 376.46875 38.042969 L 376.46875 39.421875 L 373.195312 39.421875 L 373.195312 42.722656 L 371.796875 42.722656 "/>
<path fill-rule="nonzero" fill="rgb(13.729858%, 12.159729%, 12.548828%)" fill-opacity="1" d="M 381.617188 42.722656 L 381.617188 39.421875 L 378.339844 39.421875 L 378.339844 38.042969 L 381.617188 38.042969 L 381.617188 34.765625 L 383.011719 34.765625 L 383.011719 38.042969 L 386.289062 38.042969 L 386.289062 39.421875 L 383.011719 39.421875 L 383.011719 42.722656 L 381.617188 42.722656 "/>
<path fill-rule="nonzero" fill="rgb(13.729858%, 12.159729%, 12.548828%)" fill-opacity="1" d="M 362.242188 60.257812 L 363.695312 60.449219 C 363.535156 61.449219 363.128906 62.230469 362.472656 62.796875 C 361.820312 63.363281 361.015625 63.648438 360.066406 63.648438 C 358.875 63.648438 357.914062 63.257812 357.1875 62.480469 C 356.464844 61.699219 356.097656 60.582031 356.097656 59.125 C 356.097656 58.183594 356.257812 57.359375 356.566406 56.652344 C 356.882812 55.945312 357.355469 55.417969 357.992188 55.0625 C 358.628906 54.710938 359.324219 54.535156 360.074219 54.535156 C 361.019531 54.535156 361.796875 54.773438 362.394531 55.253906 C 363 55.734375 363.386719 56.410156 363.554688 57.292969 L 362.117188 57.515625 C 361.980469 56.929688 361.742188 56.492188 361.394531 56.191406 C 361.046875 55.898438 360.625 55.75 360.132812 55.75 C 359.386719 55.75 358.78125 56.015625 358.316406 56.550781 C 357.851562 57.085938 357.617188 57.929688 357.617188 59.082031 C 357.617188 60.253906 357.84375 61.105469 358.292969 61.636719 C 358.742188 62.167969 359.328125 62.433594 360.050781 62.433594 C 360.628906 62.433594 361.113281 62.253906 361.503906 61.898438 C 361.890625 61.542969 362.136719 60.996094 362.242188 60.257812 "/>
<path fill-rule="nonzero" fill="rgb(13.729858%, 12.159729%, 12.548828%)" fill-opacity="1" d="M 364.925781 63.453125 L 364.925781 51.414062 L 366.402344 51.414062 L 366.402344 63.453125 L 364.925781 63.453125 "/>
<path fill-rule="nonzero" fill="rgb(13.729858%, 12.159729%, 12.548828%)" fill-opacity="1" d="M 374.386719 62.375 C 373.835938 62.839844 373.308594 63.167969 372.804688 63.363281 C 372.296875 63.550781 371.753906 63.648438 371.171875 63.648438 C 370.214844 63.648438 369.480469 63.414062 368.964844 62.945312 C 368.453125 62.480469 368.195312 61.878906 368.195312 61.152344 C 368.195312 60.726562 368.289062 60.335938 368.484375 59.980469 C 368.679688 59.628906 368.933594 59.347656 369.25 59.132812 C 369.566406 58.921875 369.917969 58.757812 370.3125 58.648438 C 370.601562 58.574219 371.039062 58.496094 371.625 58.425781 C 372.820312 58.285156 373.699219 58.117188 374.261719 57.917969 C 374.265625 57.714844 374.269531 57.585938 374.269531 57.53125 C 374.269531 56.929688 374.128906 56.503906 373.851562 56.261719 C 373.472656 55.925781 372.910156 55.757812 372.167969 55.757812 C 371.472656 55.757812 370.960938 55.878906 370.628906 56.125 C 370.296875 56.367188 370.050781 56.796875 369.894531 57.417969 L 368.449219 57.21875 C 368.582031 56.601562 368.796875 56.101562 369.097656 55.722656 C 369.398438 55.339844 369.832031 55.046875 370.402344 54.84375 C 370.972656 54.636719 371.628906 54.535156 372.382812 54.535156 C 373.125 54.535156 373.730469 54.625 374.195312 54.796875 C 374.660156 54.972656 375 55.191406 375.222656 55.460938 C 375.441406 55.726562 375.59375 56.058594 375.683594 56.464844 C 375.730469 56.71875 375.753906 57.171875 375.753906 57.828125 L 375.753906 59.796875 C 375.753906 61.171875 375.785156 62.042969 375.851562 62.402344 C 375.910156 62.765625 376.039062 63.117188 376.222656 63.453125 L 374.679688 63.453125 C 374.527344 63.144531 374.425781 62.789062 374.386719 62.375 Z M 374.261719 59.074219 C 373.722656 59.296875 372.917969 59.480469 371.847656 59.632812 C 371.242188 59.722656 370.808594 59.820312 370.558594 59.929688 C 370.308594 60.039062 370.113281 60.199219 369.976562 60.410156 C 369.839844 60.621094 369.769531 60.855469 369.769531 61.109375 C 369.769531 61.507812 369.921875 61.835938 370.21875 62.097656 C 370.515625 62.359375 370.953125 62.488281 371.527344 62.488281 C 372.09375 62.488281 372.601562 62.367188 373.046875 62.117188 C 373.488281 61.867188 373.816406 61.527344 374.023438 61.09375 C 374.183594 60.761719 374.261719 60.269531 374.261719 59.617188 L 374.261719 59.074219 "/>
<path fill-rule="nonzero" fill="rgb(13.729858%, 12.159729%, 12.548828%)" fill-opacity="1" d="M 377.457031 60.847656 L 378.917969 60.617188 C 378.996094 61.203125 379.226562 61.652344 379.601562 61.964844 C 379.976562 62.277344 380.5 62.433594 381.175781 62.433594 C 381.851562 62.433594 382.359375 62.292969 382.683594 62.019531 C 383.011719 61.742188 383.179688 61.417969 383.179688 61.046875 C 383.179688 60.710938 383.035156 60.449219 382.742188 60.257812 C 382.539062 60.125 382.035156 59.960938 381.230469 59.757812 C 380.148438 59.484375 379.394531 59.246094 378.976562 59.046875 C 378.558594 58.847656 378.242188 58.570312 378.023438 58.214844 C 377.808594 57.863281 377.699219 57.472656 377.699219 57.046875 C 377.699219 56.660156 377.789062 56.300781 377.96875 55.96875 C 378.144531 55.636719 378.390625 55.359375 378.695312 55.140625 C 378.925781 54.972656 379.238281 54.828125 379.632812 54.710938 C 380.03125 54.59375 380.457031 54.535156 380.910156 54.535156 C 381.59375 54.535156 382.195312 54.636719 382.714844 54.832031 C 383.230469 55.027344 383.613281 55.292969 383.859375 55.628906 C 384.105469 55.96875 384.273438 56.417969 384.367188 56.980469 L 382.925781 57.179688 C 382.855469 56.730469 382.667969 56.382812 382.351562 56.128906 C 382.039062 55.875 381.59375 55.75 381.019531 55.75 C 380.339844 55.75 379.855469 55.863281 379.566406 56.085938 C 379.273438 56.3125 379.128906 56.574219 379.128906 56.875 C 379.128906 57.066406 379.191406 57.238281 379.3125 57.394531 C 379.433594 57.550781 379.621094 57.679688 379.878906 57.789062 C 380.027344 57.839844 380.460938 57.96875 381.183594 58.164062 C 382.230469 58.445312 382.957031 58.671875 383.371094 58.851562 C 383.785156 59.027344 384.109375 59.285156 384.34375 59.625 C 384.582031 59.964844 384.699219 60.386719 384.699219 60.890625 C 384.699219 61.382812 384.550781 61.84375 384.265625 62.28125 C 383.976562 62.71875 383.5625 63.054688 383.023438 63.292969 C 382.480469 63.53125 381.867188 63.648438 381.183594 63.648438 C 380.046875 63.648438 379.1875 63.410156 378.589844 62.941406 C 377.996094 62.46875 377.617188 61.773438 377.457031 60.847656 "/>
<g clip-path="url(#clip-0)">
<path fill-rule="nonzero" fill="rgb(13.729858%, 12.159729%, 12.548828%)" fill-opacity="1" d="M 385.863281 60.847656 L 387.324219 60.617188 C 387.40625 61.203125 387.632812 61.652344 388.011719 61.964844 C 388.382812 62.277344 388.90625 62.433594 389.582031 62.433594 C 390.261719 62.433594 390.765625 62.292969 391.09375 62.019531 C 391.421875 61.742188 391.585938 61.417969 391.585938 61.046875 C 391.585938 60.710938 391.441406 60.449219 391.148438 60.257812 C 390.945312 60.125 390.441406 59.960938 389.636719 59.757812 C 388.558594 59.484375 387.804688 59.246094 387.386719 59.046875 C 386.96875 58.847656 386.648438 58.570312 386.433594 58.214844 C 386.214844 57.863281 386.109375 57.472656 386.109375 57.046875 C 386.109375 56.660156 386.195312 56.300781 386.375 55.96875 C 386.554688 55.636719 386.796875 55.359375 387.101562 55.140625 C 387.332031 54.972656 387.644531 54.828125 388.042969 54.710938 C 388.4375 54.59375 388.863281 54.535156 389.320312 54.535156 C 390.003906 54.535156 390.601562 54.636719 391.121094 54.832031 C 391.640625 55.027344 392.019531 55.292969 392.265625 55.628906 C 392.511719 55.96875 392.683594 56.417969 392.773438 56.980469 L 391.332031 57.179688 C 391.265625 56.730469 391.074219 56.382812 390.757812 56.128906 C 390.445312 55.875 390 55.75 389.425781 55.75 C 388.746094 55.75 388.261719 55.863281 387.972656 56.085938 C 387.683594 56.3125 387.535156 56.574219 387.535156 56.875 C 387.535156 57.066406 387.597656 57.238281 387.71875 57.394531 C 387.839844 57.550781 388.027344 57.679688 388.285156 57.789062 C 388.433594 57.839844 388.867188 57.96875 389.589844 58.164062 C 390.636719 58.445312 391.363281 58.671875 391.777344 58.851562 C 392.191406 59.027344 392.515625 59.285156 392.753906 59.625 C 392.988281 59.964844 393.105469 60.386719 393.105469 60.890625 C 393.105469 61.382812 392.960938 61.84375 392.671875 62.28125 C 392.382812 62.71875 391.96875 63.054688 391.429688 63.292969 C 390.886719 63.53125 390.273438 63.648438 389.589844 63.648438 C 388.457031 63.648438 387.59375 63.410156 387 62.941406 C 386.40625 62.46875 386.027344 61.773438 385.863281 60.847656 "/>
</g>
<g clip-path="url(#clip-1)">
<path fill="none" stroke-width="39.9997" stroke-linecap="butt" stroke-linejoin="miter" stroke="rgb(13.729858%, 12.159729%, 12.548828%)" stroke-opacity="1" stroke-miterlimit="22.9256" d="M 8459.931846 1602.27176 L 10158.777543 1602.27176 L 10158.777543 143.325713 L 8459.931846 143.325713 Z M 8459.931846 1602.27176 " transform="matrix(0.038167, 0, 0, -0.038167, 18.059, 80.65)"/>
</g>
<path fill-rule="nonzero" fill="rgb(13.729858%, 12.159729%, 12.548828%)" fill-opacity="1" d="M 219.261719 40.445312 L 220.855469 40.851562 C 220.523438 42.15625 219.917969 43.152344 219.054688 43.84375 C 218.183594 44.53125 217.125 44.871094 215.871094 44.871094 C 214.570312 44.871094 213.519531 44.609375 212.707031 44.082031 C 211.894531 43.550781 211.273438 42.785156 210.851562 41.785156 C 210.425781 40.78125 210.214844 39.707031 210.214844 38.558594 C 210.214844 37.304688 210.453125 36.210938 210.933594 35.277344 C 211.410156 34.347656 212.09375 33.636719 212.976562 33.152344 C 213.859375 32.667969 214.832031 32.425781 215.894531 32.425781 C 217.101562 32.425781 218.113281 32.730469 218.933594 33.34375 C 219.753906 33.960938 220.324219 34.820312 220.648438 35.933594 L 219.082031 36.300781 C 218.800781 35.425781 218.398438 34.789062 217.863281 34.386719 C 217.335938 33.988281 216.667969 33.789062 215.859375 33.789062 C 214.9375 33.789062 214.164062 34.007812 213.542969 34.453125 C 212.921875 34.898438 212.484375 35.492188 212.234375 36.238281 C 211.984375 36.984375 211.855469 37.757812 211.855469 38.550781 C 211.855469 39.574219 212.003906 40.464844 212.300781 41.230469 C 212.601562 41.992188 213.066406 42.566406 213.695312 42.945312 C 214.324219 43.320312 215.007812 43.507812 215.742188 43.507812 C 216.632812 43.507812 217.386719 43.25 218.003906 42.738281 C 218.625 42.222656 219.042969 41.457031 219.261719 40.445312 "/>
<path fill-rule="nonzero" fill="rgb(13.729858%, 12.159729%, 12.548828%)" fill-opacity="1" d="M 225.730469 42.722656 L 225.730469 39.421875 L 222.457031 39.421875 L 222.457031 38.042969 L 225.730469 38.042969 L 225.730469 34.765625 L 227.125 34.765625 L 227.125 38.042969 L 230.402344 38.042969 L 230.402344 39.421875 L 227.125 39.421875 L 227.125 42.722656 L 225.730469 42.722656 "/>
<path fill-rule="nonzero" fill="rgb(13.729858%, 12.159729%, 12.548828%)" fill-opacity="1" d="M 235.550781 42.722656 L 235.550781 39.421875 L 232.273438 39.421875 L 232.273438 38.042969 L 235.550781 38.042969 L 235.550781 34.765625 L 236.945312 34.765625 L 236.945312 38.042969 L 240.222656 38.042969 L 240.222656 39.421875 L 236.945312 39.421875 L 236.945312 42.722656 L 235.550781 42.722656 "/>
<path fill-rule="nonzero" fill="rgb(13.729858%, 12.159729%, 12.548828%)" fill-opacity="1" d="M 216.175781 60.257812 L 217.625 60.449219 C 217.46875 61.449219 217.0625 62.230469 216.40625 62.796875 C 215.753906 63.363281 214.949219 63.648438 213.996094 63.648438 C 212.804688 63.648438 211.84375 63.257812 211.121094 62.480469 C 210.398438 61.699219 210.03125 60.582031 210.03125 59.125 C 210.03125 58.183594 210.1875 57.359375 210.5 56.652344 C 210.8125 55.945312 211.289062 55.417969 211.925781 55.0625 C 212.5625 54.710938 213.257812 54.535156 214.007812 54.535156 C 214.953125 54.535156 215.730469 54.773438 216.328125 55.253906 C 216.929688 55.734375 217.320312 56.410156 217.488281 57.292969 L 216.050781 57.515625 C 215.914062 56.929688 215.671875 56.492188 215.324219 56.191406 C 214.976562 55.898438 214.558594 55.75 214.066406 55.75 C 213.320312 55.75 212.714844 56.015625 212.25 56.550781 C 211.785156 57.085938 211.550781 57.929688 211.550781 59.082031 C 211.550781 60.253906 211.773438 61.105469 212.226562 61.636719 C 212.675781 62.167969 213.261719 62.433594 213.984375 62.433594 C 214.5625 62.433594 215.046875 62.253906 215.433594 61.898438 C 215.824219 61.542969 216.070312 60.996094 216.175781 60.257812 "/>
<path fill-rule="nonzero" fill="rgb(13.729858%, 12.159729%, 12.548828%)" fill-opacity="1" d="M 218.859375 63.453125 L 218.859375 51.414062 L 220.335938 51.414062 L 220.335938 63.453125 L 218.859375 63.453125 "/>
<path fill-rule="nonzero" fill="rgb(13.729858%, 12.159729%, 12.548828%)" fill-opacity="1" d="M 228.316406 62.375 C 227.769531 62.839844 227.242188 63.167969 226.738281 63.363281 C 226.230469 63.550781 225.6875 63.648438 225.105469 63.648438 C 224.148438 63.648438 223.414062 63.414062 222.898438 62.945312 C 222.386719 62.480469 222.128906 61.878906 222.128906 61.152344 C 222.128906 60.726562 222.222656 60.335938 222.417969 59.980469 C 222.613281 59.628906 222.867188 59.347656 223.179688 59.132812 C 223.496094 58.921875 223.851562 58.757812 224.246094 58.648438 C 224.535156 58.574219 224.972656 58.496094 225.558594 58.425781 C 226.75 58.285156 227.632812 58.117188 228.195312 57.917969 C 228.199219 57.714844 228.203125 57.585938 228.203125 57.53125 C 228.203125 56.929688 228.0625 56.503906 227.78125 56.261719 C 227.40625 55.925781 226.84375 55.757812 226.101562 55.757812 C 225.40625 55.757812 224.894531 55.878906 224.558594 56.125 C 224.230469 56.367188 223.984375 56.796875 223.824219 57.417969 L 222.382812 57.21875 C 222.515625 56.601562 222.730469 56.101562 223.03125 55.722656 C 223.328125 55.339844 223.765625 55.046875 224.335938 54.84375 C 224.902344 54.636719 225.5625 54.535156 226.3125 54.535156 C 227.058594 54.535156 227.660156 54.625 228.128906 54.796875 C 228.59375 54.972656 228.933594 55.191406 229.15625 55.460938 C 229.375 55.726562 229.527344 56.058594 229.617188 56.464844 C 229.664062 56.71875 229.6875 57.171875 229.6875 57.828125 L 229.6875 59.796875 C 229.6875 61.171875 229.71875 62.042969 229.785156 62.402344 C 229.84375 62.765625 229.972656 63.117188 230.15625 63.453125 L 228.613281 63.453125 C 228.460938 63.144531 228.359375 62.789062 228.316406 62.375 Z M 228.195312 59.074219 C 227.65625 59.296875 226.851562 59.480469 225.78125 59.632812 C 225.171875 59.722656 224.742188 59.820312 224.492188 59.929688 C 224.238281 60.039062 224.042969 60.199219 223.910156 60.410156 C 223.773438 60.621094 223.703125 60.855469 223.703125 61.109375 C 223.703125 61.507812 223.855469 61.835938 224.152344 62.097656 C 224.449219 62.359375 224.886719 62.488281 225.460938 62.488281 C 226.027344 62.488281 226.535156 62.367188 226.976562 62.117188 C 227.421875 61.867188 227.75 61.527344 227.957031 61.09375 C 228.117188 60.761719 228.195312 60.269531 228.195312 59.617188 L 228.195312 59.074219 "/>
<path fill-rule="nonzero" fill="rgb(13.729858%, 12.159729%, 12.548828%)" fill-opacity="1" d="M 231.390625 60.847656 L 232.847656 60.617188 C 232.929688 61.203125 233.160156 61.652344 233.535156 61.964844 C 233.910156 62.277344 234.433594 62.433594 235.109375 62.433594 C 235.785156 62.433594 236.289062 62.292969 236.617188 62.019531 C 236.945312 61.742188 237.113281 61.417969 237.113281 61.046875 C 237.113281 60.710938 236.964844 60.449219 236.675781 60.257812 C 236.472656 60.125 235.96875 59.960938 235.164062 59.757812 C 234.082031 59.484375 233.328125 59.246094 232.910156 59.046875 C 232.492188 58.847656 232.175781 58.570312 231.957031 58.214844 C 231.742188 57.863281 231.632812 57.472656 231.632812 57.046875 C 231.632812 56.660156 231.722656 56.300781 231.902344 55.96875 C 232.078125 55.636719 232.324219 55.359375 232.628906 55.140625 C 232.859375 54.972656 233.171875 54.828125 233.566406 54.710938 C 233.964844 54.59375 234.390625 54.535156 234.84375 54.535156 C 235.527344 54.535156 236.128906 54.636719 236.644531 54.832031 C 237.164062 55.027344 237.546875 55.292969 237.792969 55.628906 C 238.039062 55.96875 238.207031 56.417969 238.300781 56.980469 L 236.855469 57.179688 C 236.789062 56.730469 236.597656 56.382812 236.285156 56.128906 C 235.972656 55.875 235.527344 55.75 234.949219 55.75 C 234.273438 55.75 233.789062 55.863281 233.5 56.085938 C 233.207031 56.3125 233.0625 56.574219 233.0625 56.875 C 233.0625 57.066406 233.125 57.238281 233.246094 57.394531 C 233.363281 57.550781 233.550781 57.679688 233.8125 57.789062 C 233.960938 57.839844 234.394531 57.96875 235.117188 58.164062 C 236.160156 58.445312 236.890625 58.671875 237.300781 58.851562 C 237.71875 59.027344 238.042969 59.285156 238.277344 59.625 C 238.511719 59.964844 238.628906 60.386719 238.628906 60.890625 C 238.628906 61.382812 238.484375 61.84375 238.199219 62.28125 C 237.910156 62.71875 237.496094 63.054688 236.953125 63.292969 C 236.414062 63.53125 235.800781 63.648438 235.117188 63.648438 C 233.980469 63.648438 233.117188 63.410156 232.523438 62.941406 C 231.929688 62.46875 231.550781 61.773438 231.390625 60.847656 "/>
<path fill-rule="nonzero" fill="rgb(13.729858%, 12.159729%, 12.548828%)" fill-opacity="1" d="M 239.796875 60.847656 L 241.257812 60.617188 C 241.335938 61.203125 241.566406 61.652344 241.941406 61.964844 C 242.316406 62.277344 242.839844 62.433594 243.515625 62.433594 C 244.195312 62.433594 244.699219 62.292969 245.027344 62.019531 C 245.355469 61.742188 245.519531 61.417969 245.519531 61.046875 C 245.519531 60.710938 245.375 60.449219 245.082031 60.257812 C 244.878906 60.125 244.375 59.960938 243.570312 59.757812 C 242.488281 59.484375 241.734375 59.246094 241.320312 59.046875 C 240.902344 58.847656 240.582031 58.570312 240.367188 58.214844 C 240.148438 57.863281 240.039062 57.472656 240.039062 57.046875 C 240.039062 56.660156 240.128906 56.300781 240.308594 55.96875 C 240.484375 55.636719 240.730469 55.359375 241.035156 55.140625 C 241.265625 54.972656 241.578125 54.828125 241.972656 54.710938 C 242.371094 54.59375 242.796875 54.535156 243.25 54.535156 C 243.933594 54.535156 244.535156 54.636719 245.054688 54.832031 C 245.570312 55.027344 245.953125 55.292969 246.199219 55.628906 C 246.445312 55.96875 246.613281 56.417969 246.707031 56.980469 L 245.265625 57.179688 C 245.195312 56.730469 245.007812 56.382812 244.691406 56.128906 C 244.378906 55.875 243.933594 55.75 243.359375 55.75 C 242.679688 55.75 242.195312 55.863281 241.90625 56.085938 C 241.617188 56.3125 241.46875 56.574219 241.46875 56.875 C 241.46875 57.066406 241.53125 57.238281 241.652344 57.394531 C 241.773438 57.550781 241.960938 57.679688 242.21875 57.789062 C 242.367188 57.839844 242.800781 57.96875 243.523438 58.164062 C 244.570312 58.445312 245.296875 58.671875 245.710938 58.851562 C 246.125 59.027344 246.449219 59.285156 246.683594 59.625 C 246.921875 59.964844 247.039062 60.386719 247.039062 60.890625 C 247.039062 61.382812 246.890625 61.84375 246.605469 62.28125 C 246.316406 62.71875 245.902344 63.054688 245.363281 63.292969 C 244.820312 63.53125 244.207031 63.648438 243.523438 63.648438 C 242.386719 63.648438 241.527344 63.410156 240.929688 62.941406 C 240.335938 62.46875 239.957031 61.773438 239.796875 60.847656 "/>
<path fill="none" stroke-width="39.9997" stroke-linecap="butt" stroke-linejoin="miter" stroke="rgb(13.729858%, 12.159729%, 12.548828%)" stroke-opacity="1" stroke-miterlimit="22.9256" d="M 4632.897857 1602.27176 L 6331.743555 1602.27176 L 6331.743555 143.325713 L 4632.897857 143.325713 Z M 4632.897857 1602.27176 " transform="matrix(0.038167, 0, 0, -0.038167, 18.059, 80.65)"/>
<path fill="none" stroke-width="79.9994" stroke-linecap="butt" stroke-linejoin="miter" stroke="rgb(13.729858%, 12.159729%, 12.548828%)" stroke-opacity="1" stroke-miterlimit="22.9256" d="M 6353.236271 1188.588146 L 8001.31822 1188.588146 " transform="matrix(0.038167, 0, 0, -0.038167, 18.059, 80.65)"/>
<path fill-rule="evenodd" fill="rgb(13.729858%, 12.159729%, 12.548828%)" fill-opacity="1" d="M 341.160156 35.285156 L 322.464844 25.941406 L 322.464844 44.636719 Z M 341.160156 35.285156 "/>
<path fill="none" stroke-width="79.9994" stroke-linecap="butt" stroke-linejoin="miter" stroke="rgb(13.729858%, 12.159729%, 12.548828%)" stroke-opacity="1" stroke-miterlimit="22.9256" d="M 2640.420717 1188.588146 L 4157.908828 1188.588146 " transform="matrix(0.038167, 0, 0, -0.038167, 18.059, 80.65)"/>
<path fill-rule="evenodd" fill="rgb(13.729858%, 12.159729%, 12.548828%)" fill-opacity="1" d="M 194.46875 35.285156 L 175.777344 25.941406 L 175.777344 44.636719 Z M 194.46875 35.285156 "/>
<path fill="none" stroke-width="79.9994" stroke-linecap="butt" stroke-linejoin="miter" stroke="rgb(13.729858%, 12.159729%, 12.548828%)" stroke-opacity="1" stroke-miterlimit="22.9256" d="M 8453.79107 600.608837 L 6817.274249 600.608837 " transform="matrix(0.038167, 0, 0, -0.038167, 18.059, 80.65)"/>
<path fill-rule="evenodd" fill="rgb(13.729858%, 12.159729%, 12.548828%)" fill-opacity="1" d="M 260.535156 57.726562 L 279.230469 67.070312 L 279.230469 48.375 Z M 260.535156 57.726562 "/>
<path fill="none" stroke-width="79.9994" stroke-linecap="butt" stroke-linejoin="miter" stroke="rgb(13.729858%, 12.159729%, 12.548828%)" stroke-opacity="1" stroke-miterlimit="22.9256" d="M 4622.049152 600.608837 L 3115.409745 600.608837 " transform="matrix(0.038167, 0, 0, -0.038167, 18.059, 80.65)"/>
<path fill-rule="evenodd" fill="rgb(13.729858%, 12.159729%, 12.548828%)" fill-opacity="1" d="M 119.25 57.726562 L 137.941406 67.070312 L 137.941406 48.375 Z M 119.25 57.726562 "/>
<g clip-path="url(#clip-2)">
<path fill-rule="nonzero" fill="rgb(13.729858%, 12.159729%, 12.548828%)" fill-opacity="1" d="M 265.953125 78.039062 L 267.144531 77.851562 C 267.210938 78.328125 267.398438 78.695312 267.707031 78.953125 C 268.011719 79.207031 268.4375 79.335938 268.988281 79.335938 C 269.542969 79.335938 269.957031 79.21875 270.222656 78.996094 C 270.492188 78.769531 270.628906 78.503906 270.628906 78.199219 C 270.628906 77.925781 270.507812 77.714844 270.269531 77.554688 C 270.105469 77.449219 269.691406 77.3125 269.035156 77.148438 C 268.152344 76.921875 267.535156 76.730469 267.195312 76.566406 C 266.855469 76.402344 266.59375 76.175781 266.417969 75.886719 C 266.238281 75.597656 266.152344 75.28125 266.152344 74.933594 C 266.152344 74.613281 266.222656 74.320312 266.371094 74.050781 C 266.515625 73.777344 266.714844 73.554688 266.964844 73.375 C 267.152344 73.238281 267.40625 73.121094 267.730469 73.023438 C 268.054688 72.925781 268.402344 72.878906 268.773438 72.878906 C 269.332031 72.878906 269.824219 72.960938 270.246094 73.121094 C 270.671875 73.28125 270.984375 73.5 271.183594 73.773438 C 271.386719 74.050781 271.523438 74.417969 271.597656 74.878906 L 270.417969 75.039062 C 270.363281 74.675781 270.207031 74.386719 269.953125 74.183594 C 269.695312 73.976562 269.332031 73.871094 268.863281 73.871094 C 268.308594 73.871094 267.910156 73.964844 267.675781 74.148438 C 267.4375 74.332031 267.320312 74.546875 267.320312 74.792969 C 267.320312 74.949219 267.367188 75.089844 267.46875 75.214844 C 267.566406 75.34375 267.71875 75.449219 267.929688 75.539062 C 268.050781 75.582031 268.40625 75.683594 268.996094 75.84375 C 269.851562 76.074219 270.445312 76.257812 270.785156 76.40625 C 271.121094 76.550781 271.386719 76.761719 271.582031 77.039062 C 271.773438 77.316406 271.867188 77.660156 271.867188 78.074219 C 271.867188 78.476562 271.75 78.855469 271.515625 79.210938 C 271.28125 79.566406 270.941406 79.839844 270.5 80.035156 C 270.058594 80.230469 269.554688 80.328125 268.996094 80.328125 C 268.070312 80.328125 267.363281 80.132812 266.878906 79.75 C 266.394531 79.363281 266.085938 78.792969 265.953125 78.039062 "/>
</g>
<g clip-path="url(#clip-3)">
<path fill-rule="nonzero" fill="rgb(13.729858%, 12.159729%, 12.548828%)" fill-opacity="1" d="M 278.179688 77.871094 L 279.429688 78.023438 C 279.230469 78.753906 278.867188 79.320312 278.335938 79.722656 C 277.800781 80.125 277.121094 80.328125 276.296875 80.328125 C 275.253906 80.328125 274.425781 80.003906 273.816406 79.363281 C 273.207031 78.722656 272.902344 77.824219 272.902344 76.664062 C 272.902344 75.464844 273.210938 74.535156 273.828125 73.871094 C 274.445312 73.210938 275.246094 72.878906 276.230469 72.878906 C 277.179688 72.878906 277.960938 73.203125 278.5625 73.851562 C 279.167969 74.5 279.46875 75.414062 279.46875 76.589844 C 279.46875 76.664062 279.46875 76.769531 279.460938 76.910156 L 274.148438 76.910156 C 274.191406 77.695312 274.414062 78.296875 274.8125 78.710938 C 275.210938 79.125 275.707031 79.335938 276.300781 79.335938 C 276.746094 79.335938 277.121094 79.21875 277.4375 78.984375 C 277.75 78.753906 277.996094 78.382812 278.179688 77.871094 Z M 274.214844 75.917969 L 278.195312 75.917969 C 278.140625 75.320312 277.988281 74.867188 277.738281 74.570312 C 277.351562 74.105469 276.855469 73.871094 276.242188 73.871094 C 275.6875 73.871094 275.222656 74.058594 274.84375 74.429688 C 274.464844 74.800781 274.257812 75.296875 274.214844 75.917969 "/>
</g>
<g clip-path="url(#clip-4)">
<path fill-rule="nonzero" fill="rgb(13.729858%, 12.159729%, 12.548828%)" fill-opacity="1" d="M 283.582031 79.085938 L 283.757812 80.152344 C 283.417969 80.222656 283.113281 80.261719 282.84375 80.261719 C 282.40625 80.261719 282.066406 80.191406 281.824219 80.050781 C 281.582031 79.914062 281.414062 79.730469 281.316406 79.503906 C 281.214844 79.28125 281.167969 78.804688 281.167969 78.078125 L 281.167969 73.980469 L 280.28125 73.980469 L 280.28125 73.042969 L 281.167969 73.042969 L 281.167969 71.277344 L 282.367188 70.550781 L 282.367188 73.042969 L 283.582031 73.042969 L 283.582031 73.980469 L 282.367188 73.980469 L 282.367188 78.144531 C 282.367188 78.492188 282.390625 78.710938 282.429688 78.808594 C 282.472656 78.910156 282.542969 78.988281 282.640625 79.046875 C 282.734375 79.101562 282.871094 79.132812 283.050781 79.132812 C 283.1875 79.132812 283.363281 79.117188 283.582031 79.085938 "/>
</g>
<g clip-path="url(#clip-5)">
<path fill-rule="nonzero" fill="rgb(13.729858%, 12.159729%, 12.548828%)" fill-opacity="1" d="M 287.398438 79.085938 L 287.574219 80.152344 C 287.234375 80.222656 286.929688 80.261719 286.664062 80.261719 C 286.222656 80.261719 285.882812 80.191406 285.640625 80.050781 C 285.402344 79.914062 285.230469 79.730469 285.132812 79.503906 C 285.035156 79.28125 284.984375 78.804688 284.984375 78.078125 L 284.984375 73.980469 L 284.097656 73.980469 L 284.097656 73.042969 L 284.984375 73.042969 L 284.984375 71.277344 L 286.1875 70.550781 L 286.1875 73.042969 L 287.398438 73.042969 L 287.398438 73.980469 L 286.1875 73.980469 L 286.1875 78.144531 C 286.1875 78.492188 286.207031 78.710938 286.246094 78.808594 C 286.292969 78.910156 286.359375 78.988281 286.457031 79.046875 C 286.550781 79.101562 286.691406 79.132812 286.867188 79.132812 C 287.003906 79.132812 287.179688 79.117188 287.398438 79.085938 "/>
</g>
<g clip-path="url(#clip-6)">
<path fill-rule="nonzero" fill="rgb(13.729858%, 12.159729%, 12.548828%)" fill-opacity="1" d="M 293.457031 77.871094 L 294.703125 78.023438 C 294.507812 78.753906 294.144531 79.320312 293.613281 79.722656 C 293.078125 80.125 292.398438 80.328125 291.570312 80.328125 C 290.53125 80.328125 289.703125 80.003906 289.09375 79.363281 C 288.484375 78.722656 288.179688 77.824219 288.179688 76.664062 C 288.179688 75.464844 288.488281 74.535156 289.101562 73.871094 C 289.722656 73.210938 290.519531 72.878906 291.503906 72.878906 C 292.457031 72.878906 293.238281 73.203125 293.839844 73.851562 C 294.445312 74.5 294.746094 75.414062 294.746094 76.589844 C 294.746094 76.664062 294.742188 76.769531 294.738281 76.910156 L 289.425781 76.910156 C 289.46875 77.695312 289.691406 78.296875 290.089844 78.710938 C 290.488281 79.125 290.984375 79.335938 291.578125 79.335938 C 292.019531 79.335938 292.398438 79.21875 292.714844 78.984375 C 293.027344 78.753906 293.273438 78.382812 293.457031 77.871094 Z M 289.492188 75.917969 L 293.46875 75.917969 C 293.417969 75.320312 293.265625 74.867188 293.015625 74.570312 C 292.628906 74.105469 292.132812 73.871094 291.519531 73.871094 C 290.964844 73.871094 290.5 74.058594 290.121094 74.429688 C 289.742188 74.800781 289.535156 75.296875 289.492188 75.917969 "/>
</g>
<g clip-path="url(#clip-7)">
<path fill-rule="nonzero" fill="rgb(13.729858%, 12.159729%, 12.548828%)" fill-opacity="1" d="M 296.210938 80.164062 L 296.210938 73.042969 L 297.292969 73.042969 L 297.292969 74.121094 C 297.570312 73.617188 297.828125 73.28125 298.0625 73.121094 C 298.296875 72.960938 298.558594 72.878906 298.839844 72.878906 C 299.246094 72.878906 299.65625 73.007812 300.078125 73.269531 L 299.664062 74.390625 C 299.371094 74.214844 299.074219 74.128906 298.777344 74.128906 C 298.511719 74.128906 298.277344 74.207031 298.066406 74.367188 C 297.855469 74.527344 297.707031 74.746094 297.617188 75.027344 C 297.484375 75.457031 297.417969 75.925781 297.417969 76.433594 L 297.417969 80.164062 L 296.210938 80.164062 "/>
</g>
<g clip-path="url(#clip-8)">
<path fill-rule="nonzero" fill="rgb(13.729858%, 12.159729%, 12.548828%)" fill-opacity="1" d="M 300.316406 78.039062 L 301.507812 77.851562 C 301.574219 78.328125 301.761719 78.695312 302.070312 78.953125 C 302.375 79.207031 302.800781 79.335938 303.355469 79.335938 C 303.910156 79.335938 304.320312 79.21875 304.589844 78.996094 C 304.855469 78.769531 304.992188 78.503906 304.992188 78.199219 C 304.992188 77.925781 304.871094 77.714844 304.632812 77.554688 C 304.46875 77.449219 304.058594 77.3125 303.398438 77.148438 C 302.515625 76.921875 301.898438 76.730469 301.558594 76.566406 C 301.21875 76.402344 300.957031 76.175781 300.78125 75.886719 C 300.605469 75.597656 300.515625 75.28125 300.515625 74.933594 C 300.515625 74.613281 300.589844 74.320312 300.734375 74.050781 C 300.878906 73.777344 301.078125 73.554688 301.328125 73.375 C 301.515625 73.238281 301.773438 73.121094 302.09375 73.023438 C 302.421875 72.925781 302.769531 72.878906 303.140625 72.878906 C 303.699219 72.878906 304.1875 72.960938 304.613281 73.121094 C 305.035156 73.28125 305.347656 73.5 305.546875 73.773438 C 305.75 74.050781 305.886719 74.417969 305.960938 74.878906 L 304.785156 75.039062 C 304.726562 74.675781 304.574219 74.386719 304.316406 74.183594 C 304.058594 73.976562 303.695312 73.871094 303.226562 73.871094 C 302.671875 73.871094 302.277344 73.964844 302.039062 74.148438 C 301.800781 74.332031 301.683594 74.546875 301.683594 74.792969 C 301.683594 74.949219 301.734375 75.089844 301.832031 75.214844 C 301.929688 75.34375 302.082031 75.449219 302.292969 75.539062 C 302.414062 75.582031 302.769531 75.683594 303.363281 75.84375 C 304.214844 76.074219 304.8125 76.257812 305.148438 76.40625 C 305.484375 76.550781 305.753906 76.761719 305.945312 77.039062 C 306.136719 77.316406 306.234375 77.660156 306.234375 78.074219 C 306.234375 78.476562 306.113281 78.855469 305.878906 79.210938 C 305.644531 79.566406 305.304688 79.839844 304.863281 80.035156 C 304.421875 80.230469 303.917969 80.328125 303.363281 80.328125 C 302.433594 80.328125 301.726562 80.132812 301.242188 79.75 C 300.757812 79.363281 300.449219 78.792969 300.316406 78.039062 "/>
</g>
<path fill-rule="nonzero" fill="rgb(13.729858%, 12.159729%, 12.548828%)" fill-opacity="1" d="M 269.296875 27.984375 L 270.480469 28.140625 C 270.355469 28.957031 270.023438 29.597656 269.484375 30.058594 C 268.953125 30.523438 268.296875 30.753906 267.515625 30.753906 C 266.542969 30.753906 265.757812 30.4375 265.167969 29.800781 C 264.574219 29.164062 264.277344 28.25 264.277344 27.058594 C 264.277344 26.289062 264.40625 25.617188 264.660156 25.039062 C 264.914062 24.460938 265.300781 24.027344 265.824219 23.738281 C 266.34375 23.453125 266.910156 23.308594 267.523438 23.308594 C 268.296875 23.308594 268.933594 23.503906 269.421875 23.894531 C 269.914062 24.289062 270.230469 24.839844 270.371094 25.5625 L 269.195312 25.742188 C 269.082031 25.265625 268.886719 24.90625 268.601562 24.664062 C 268.316406 24.421875 267.972656 24.300781 267.570312 24.300781 C 266.960938 24.300781 266.46875 24.519531 266.085938 24.957031 C 265.707031 25.390625 265.515625 26.082031 265.515625 27.023438 C 265.515625 27.980469 265.699219 28.675781 266.070312 29.113281 C 266.4375 29.546875 266.914062 29.761719 267.503906 29.761719 C 267.980469 29.761719 268.375 29.617188 268.691406 29.324219 C 269.007812 29.035156 269.210938 28.589844 269.296875 27.984375 "/>
<path fill-rule="nonzero" fill="rgb(13.729858%, 12.159729%, 12.548828%)" fill-opacity="1" d="M 276.164062 29.714844 C 275.71875 30.09375 275.285156 30.363281 274.875 30.519531 C 274.460938 30.675781 274.015625 30.753906 273.542969 30.753906 C 272.757812 30.753906 272.160156 30.5625 271.738281 30.183594 C 271.316406 29.800781 271.105469 29.308594 271.105469 28.714844 C 271.105469 28.367188 271.183594 28.046875 271.34375 27.757812 C 271.503906 27.46875 271.710938 27.238281 271.96875 27.066406 C 272.226562 26.890625 272.515625 26.757812 272.839844 26.667969 C 273.074219 26.605469 273.433594 26.546875 273.910156 26.488281 C 274.886719 26.371094 275.605469 26.234375 276.066406 26.070312 C 276.070312 25.90625 276.070312 25.800781 276.070312 25.757812 C 276.070312 25.265625 275.957031 24.917969 275.730469 24.71875 C 275.421875 24.441406 274.960938 24.308594 274.355469 24.308594 C 273.785156 24.308594 273.367188 24.40625 273.09375 24.605469 C 272.824219 24.804688 272.625 25.15625 272.496094 25.664062 L 271.316406 25.5 C 271.421875 24.996094 271.601562 24.585938 271.84375 24.277344 C 272.089844 23.964844 272.445312 23.726562 272.910156 23.558594 C 273.375 23.390625 273.914062 23.308594 274.527344 23.308594 C 275.136719 23.308594 275.628906 23.378906 276.011719 23.523438 C 276.390625 23.667969 276.667969 23.84375 276.851562 24.0625 C 277.027344 24.28125 277.152344 24.554688 277.226562 24.886719 C 277.265625 25.089844 277.285156 25.460938 277.285156 25.996094 L 277.285156 27.609375 C 277.285156 28.730469 277.3125 29.441406 277.363281 29.738281 C 277.414062 30.035156 277.515625 30.320312 277.667969 30.59375 L 276.40625 30.59375 C 276.28125 30.34375 276.199219 30.050781 276.164062 29.714844 Z M 276.066406 27.015625 C 275.625 27.199219 274.96875 27.347656 274.09375 27.476562 C 273.597656 27.546875 273.242188 27.625 273.039062 27.714844 C 272.835938 27.804688 272.671875 27.933594 272.5625 28.109375 C 272.453125 28.28125 272.394531 28.472656 272.394531 28.683594 C 272.394531 29.003906 272.519531 29.273438 272.761719 29.488281 C 273.003906 29.699219 273.359375 29.808594 273.828125 29.808594 C 274.296875 29.808594 274.710938 29.707031 275.070312 29.503906 C 275.433594 29.300781 275.699219 29.019531 275.871094 28.667969 C 276 28.394531 276.066406 27.992188 276.066406 27.460938 L 276.066406 27.015625 "/>
<path fill-rule="nonzero" fill="rgb(13.729858%, 12.159729%, 12.548828%)" fill-opacity="1" d="M 279.132812 30.59375 L 279.132812 20.757812 L 280.339844 20.757812 L 280.339844 30.59375 L 279.132812 30.59375 "/>
<path fill-rule="nonzero" fill="rgb(13.729858%, 12.159729%, 12.548828%)" fill-opacity="1" d="M 282.183594 30.59375 L 282.183594 20.757812 L 283.390625 20.757812 L 283.390625 30.59375 L 282.183594 30.59375 "/>
<path fill-rule="nonzero" fill="rgb(13.729858%, 12.159729%, 12.548828%)" fill-opacity="1" d="M 286.378906 30.59375 L 285.257812 30.59375 L 285.257812 20.757812 L 286.464844 20.757812 L 286.464844 24.265625 C 286.976562 23.628906 287.625 23.308594 288.414062 23.308594 C 288.855469 23.308594 289.269531 23.394531 289.660156 23.574219 C 290.050781 23.75 290.371094 24 290.628906 24.316406 C 290.878906 24.636719 291.078125 25.023438 291.21875 25.476562 C 291.363281 25.925781 291.433594 26.410156 291.433594 26.921875 C 291.433594 28.144531 291.132812 29.089844 290.527344 29.753906 C 289.925781 30.421875 289.199219 30.753906 288.355469 30.753906 C 287.515625 30.753906 286.855469 30.402344 286.378906 29.699219 Z M 286.363281 26.976562 C 286.363281 27.832031 286.480469 28.449219 286.710938 28.828125 C 287.089844 29.453125 287.605469 29.761719 288.253906 29.761719 C 288.785156 29.761719 289.238281 29.535156 289.625 29.074219 C 290.007812 28.617188 290.199219 27.933594 290.199219 27.023438 C 290.199219 26.09375 290.015625 25.40625 289.648438 24.964844 C 289.277344 24.523438 288.832031 24.300781 288.308594 24.300781 C 287.78125 24.300781 287.324219 24.53125 286.941406 24.988281 C 286.554688 25.445312 286.363281 26.109375 286.363281 26.976562 "/>
<path fill-rule="nonzero" fill="rgb(13.729858%, 12.159729%, 12.548828%)" fill-opacity="1" d="M 297.554688 29.714844 C 297.105469 30.09375 296.675781 30.363281 296.261719 30.519531 C 295.847656 30.675781 295.40625 30.753906 294.929688 30.753906 C 294.148438 30.753906 293.546875 30.5625 293.125 30.183594 C 292.707031 29.800781 292.496094 29.308594 292.496094 28.714844 C 292.496094 28.367188 292.574219 28.046875 292.734375 27.757812 C 292.890625 27.46875 293.101562 27.238281 293.355469 27.066406 C 293.617188 26.890625 293.902344 26.757812 294.226562 26.667969 C 294.460938 26.605469 294.820312 26.546875 295.296875 26.488281 C 296.273438 26.371094 296.992188 26.234375 297.453125 26.070312 C 297.457031 25.90625 297.460938 25.800781 297.460938 25.757812 C 297.460938 25.265625 297.347656 24.917969 297.117188 24.71875 C 296.808594 24.441406 296.351562 24.308594 295.742188 24.308594 C 295.175781 24.308594 294.757812 24.40625 294.484375 24.605469 C 294.214844 24.804688 294.015625 25.15625 293.882812 25.664062 L 292.703125 25.5 C 292.8125 24.996094 292.988281 24.585938 293.234375 24.277344 C 293.476562 23.964844 293.835938 23.726562 294.300781 23.558594 C 294.765625 23.390625 295.304688 23.308594 295.917969 23.308594 C 296.527344 23.308594 297.019531 23.378906 297.398438 23.523438 C 297.777344 23.667969 298.058594 23.84375 298.238281 24.0625 C 298.417969 24.28125 298.542969 24.554688 298.613281 24.886719 C 298.652344 25.089844 298.675781 25.460938 298.675781 25.996094 L 298.675781 27.609375 C 298.675781 28.730469 298.699219 29.441406 298.753906 29.738281 C 298.800781 30.035156 298.90625 30.320312 299.058594 30.59375 L 297.796875 30.59375 C 297.671875 30.34375 297.589844 30.050781 297.554688 29.714844 Z M 297.453125 27.015625 C 297.015625 27.199219 296.355469 27.347656 295.480469 27.476562 C 294.984375 27.546875 294.632812 27.625 294.429688 27.714844 C 294.222656 27.804688 294.0625 27.933594 293.953125 28.109375 C 293.839844 28.28125 293.78125 28.472656 293.78125 28.683594 C 293.78125 29.003906 293.90625 29.273438 294.148438 29.488281 C 294.390625 29.699219 294.75 29.808594 295.21875 29.808594 C 295.683594 29.808594 296.097656 29.707031 296.460938 29.503906 C 296.820312 29.300781 297.089844 29.019531 297.257812 28.667969 C 297.390625 28.394531 297.453125 27.992188 297.453125 27.460938 L 297.453125 27.015625 "/>
<path fill-rule="nonzero" fill="rgb(13.729858%, 12.159729%, 12.548828%)" fill-opacity="1" d="M 305.195312 27.984375 L 306.382812 28.140625 C 306.253906 28.957031 305.921875 29.597656 305.386719 30.058594 C 304.851562 30.523438 304.195312 30.753906 303.417969 30.753906 C 302.445312 30.753906 301.65625 30.4375 301.066406 29.800781 C 300.472656 29.164062 300.175781 28.25 300.175781 27.058594 C 300.175781 26.289062 300.304688 25.617188 300.558594 25.039062 C 300.816406 24.460938 301.203125 24.027344 301.722656 23.738281 C 302.246094 23.453125 302.8125 23.308594 303.421875 23.308594 C 304.199219 23.308594 304.832031 23.503906 305.320312 23.894531 C 305.816406 24.289062 306.128906 24.839844 306.269531 25.5625 L 305.09375 25.742188 C 304.984375 25.265625 304.785156 24.90625 304.503906 24.664062 C 304.21875 24.421875 303.875 24.300781 303.472656 24.300781 C 302.863281 24.300781 302.367188 24.519531 301.988281 24.957031 C 301.609375 25.390625 301.417969 26.082031 301.417969 27.023438 C 301.417969 27.980469 301.601562 28.675781 301.96875 29.113281 C 302.335938 29.546875 302.816406 29.761719 303.40625 29.761719 C 303.878906 29.761719 304.273438 29.617188 304.589844 29.324219 C 304.910156 29.035156 305.113281 28.589844 305.195312 27.984375 "/>
<path fill-rule="nonzero" fill="rgb(13.729858%, 12.159729%, 12.548828%)" fill-opacity="1" d="M 307.421875 30.59375 L 307.421875 20.757812 L 308.632812 20.757812 L 308.632812 26.367188 L 311.488281 23.46875 L 313.050781 23.46875 L 310.328125 26.113281 L 313.328125 30.59375 L 311.835938 30.59375 L 309.484375 26.949219 L 308.632812 27.769531 L 308.632812 30.59375 L 307.421875 30.59375 "/>
<path fill-rule="nonzero" fill="rgb(13.729858%, 12.159729%, 12.548828%)" fill-opacity="1" d="M 313.804688 28.464844 L 314.996094 28.277344 C 315.0625 28.757812 315.25 29.125 315.558594 29.378906 C 315.863281 29.632812 316.292969 29.761719 316.84375 29.761719 C 317.398438 29.761719 317.808594 29.648438 318.078125 29.421875 C 318.34375 29.195312 318.480469 28.933594 318.480469 28.628906 C 318.480469 28.355469 318.363281 28.140625 318.125 27.984375 C 317.957031 27.875 317.546875 27.742188 316.890625 27.574219 C 316.003906 27.351562 315.390625 27.160156 315.046875 26.992188 C 314.707031 26.832031 314.445312 26.605469 314.269531 26.316406 C 314.09375 26.027344 314.003906 25.710938 314.003906 25.359375 C 314.003906 25.042969 314.078125 24.75 314.222656 24.480469 C 314.367188 24.207031 314.566406 23.984375 314.816406 23.804688 C 315.003906 23.667969 315.261719 23.546875 315.582031 23.453125 C 315.910156 23.355469 316.257812 23.308594 316.628906 23.308594 C 317.1875 23.308594 317.675781 23.390625 318.101562 23.550781 C 318.523438 23.710938 318.835938 23.925781 319.035156 24.203125 C 319.238281 24.480469 319.375 24.847656 319.453125 25.304688 L 318.273438 25.46875 C 318.21875 25.101562 318.0625 24.816406 317.804688 24.609375 C 317.546875 24.402344 317.183594 24.300781 316.714844 24.300781 C 316.160156 24.300781 315.765625 24.394531 315.527344 24.574219 C 315.289062 24.757812 315.171875 24.972656 315.171875 25.21875 C 315.171875 25.378906 315.222656 25.515625 315.320312 25.644531 C 315.417969 25.773438 315.574219 25.878906 315.78125 25.964844 C 315.90625 26.007812 316.257812 26.113281 316.851562 26.273438 C 317.703125 26.5 318.300781 26.6875 318.636719 26.832031 C 318.976562 26.976562 319.242188 27.191406 319.433594 27.46875 C 319.625 27.746094 319.722656 28.089844 319.722656 28.5 C 319.722656 28.902344 319.601562 29.28125 319.371094 29.640625 C 319.132812 29.992188 318.792969 30.269531 318.351562 30.464844 C 317.910156 30.65625 317.410156 30.753906 316.851562 30.753906 C 315.921875 30.753906 315.21875 30.5625 314.730469 30.175781 C 314.246094 29.792969 313.9375 29.222656 313.804688 28.464844 "/>
<path fill-rule="nonzero" fill="rgb(13.729858%, 12.159729%, 12.548828%)" fill-opacity="1" d="M 266.628906 14.5625 L 267.804688 14.738281 C 267.851562 15.097656 267.988281 15.363281 268.210938 15.527344 C 268.511719 15.75 268.921875 15.863281 269.4375 15.863281 C 270 15.863281 270.429688 15.75 270.734375 15.527344 C 271.039062 15.304688 271.242188 14.992188 271.351562 14.589844 C 271.414062 14.34375 271.441406 13.828125 271.4375 13.039062 C 270.910156 13.660156 270.253906 13.972656 269.464844 13.972656 C 268.484375 13.972656 267.726562 13.621094 267.191406 12.910156 C 266.65625 12.207031 266.386719 11.355469 266.386719 10.371094 C 266.386719 9.691406 266.507812 9.0625 266.753906 8.488281 C 267 7.914062 267.359375 7.46875 267.824219 7.15625 C 268.292969 6.84375 268.84375 6.683594 269.472656 6.683594 C 270.3125 6.683594 271.007812 7.027344 271.550781 7.707031 L 271.550781 6.847656 L 272.667969 6.847656 L 272.667969 13.003906 C 272.667969 14.113281 272.550781 14.902344 272.328125 15.363281 C 272.101562 15.828125 271.742188 16.191406 271.253906 16.460938 C 270.765625 16.730469 270.160156 16.863281 269.445312 16.863281 C 268.59375 16.863281 267.90625 16.671875 267.386719 16.289062 C 266.863281 15.90625 266.609375 15.332031 266.628906 14.5625 Z M 267.625 10.28125 C 267.625 11.21875 267.8125 11.898438 268.183594 12.328125 C 268.554688 12.757812 269.019531 12.972656 269.578125 12.972656 C 270.132812 12.972656 270.597656 12.757812 270.972656 12.332031 C 271.351562 11.902344 271.539062 11.234375 271.539062 10.320312 C 271.539062 9.449219 271.34375 8.792969 270.957031 8.351562 C 270.570312 7.90625 270.105469 7.6875 269.558594 7.6875 C 269.023438 7.6875 268.566406 7.902344 268.191406 8.339844 C 267.8125 8.777344 267.625 9.425781 267.625 10.28125 "/>
<path fill-rule="nonzero" fill="rgb(13.729858%, 12.159729%, 12.548828%)" fill-opacity="1" d="M 279.367188 11.675781 L 280.617188 11.832031 C 280.417969 12.5625 280.054688 13.125 279.523438 13.53125 C 278.988281 13.929688 278.308594 14.132812 277.484375 14.132812 C 276.441406 14.132812 275.613281 13.8125 275.003906 13.171875 C 274.394531 12.527344 274.089844 11.628906 274.089844 10.46875 C 274.089844 9.269531 274.398438 8.339844 275.015625 7.679688 C 275.632812 7.015625 276.433594 6.683594 277.417969 6.683594 C 278.367188 6.683594 279.148438 7.011719 279.75 7.660156 C 280.355469 8.304688 280.65625 9.21875 280.65625 10.394531 C 280.65625 10.46875 280.65625 10.574219 280.648438 10.71875 L 275.335938 10.71875 C 275.378906 11.5 275.601562 12.101562 276 12.515625 C 276.398438 12.933594 276.894531 13.140625 277.488281 13.140625 C 277.929688 13.140625 278.308594 13.023438 278.625 12.789062 C 278.9375 12.558594 279.183594 12.1875 279.367188 11.675781 Z M 275.402344 9.722656 L 279.382812 9.722656 C 279.328125 9.125 279.175781 8.675781 278.925781 8.378906 C 278.539062 7.914062 278.042969 7.679688 277.429688 7.679688 C 276.875 7.679688 276.410156 7.863281 276.03125 8.234375 C 275.652344 8.605469 275.445312 9.101562 275.402344 9.722656 "/>
<path fill-rule="nonzero" fill="rgb(13.729858%, 12.159729%, 12.548828%)" fill-opacity="1" d="M 284.769531 12.890625 L 284.945312 13.957031 C 284.605469 14.027344 284.300781 14.066406 284.03125 14.066406 C 283.59375 14.066406 283.253906 13.996094 283.011719 13.855469 C 282.769531 13.71875 282.601562 13.535156 282.503906 13.308594 C 282.402344 13.085938 282.355469 12.609375 282.355469 11.886719 L 282.355469 7.785156 L 281.46875 7.785156 L 281.46875 6.847656 L 282.355469 6.847656 L 282.355469 5.082031 L 283.554688 4.359375 L 283.554688 6.847656 L 284.769531 6.847656 L 284.769531 7.785156 L 283.554688 7.785156 L 283.554688 11.953125 C 283.554688 12.296875 283.578125 12.519531 283.617188 12.617188 C 283.660156 12.714844 283.730469 12.792969 283.824219 12.851562 C 283.921875 12.910156 284.058594 12.9375 284.238281 12.9375 C 284.375 12.9375 284.550781 12.921875 284.769531 12.890625 "/>
<path fill-rule="nonzero" fill="rgb(13.729858%, 12.159729%, 12.548828%)" fill-opacity="1" d="M 288.585938 12.890625 L 288.761719 13.957031 C 288.421875 14.027344 288.117188 14.066406 287.851562 14.066406 C 287.410156 14.066406 287.070312 13.996094 286.828125 13.855469 C 286.585938 13.71875 286.417969 13.535156 286.320312 13.308594 C 286.222656 13.085938 286.171875 12.609375 286.171875 11.886719 L 286.171875 7.785156 L 285.285156 7.785156 L 285.285156 6.847656 L 286.171875 6.847656 L 286.171875 5.082031 L 287.375 4.359375 L 287.375 6.847656 L 288.585938 6.847656 L 288.585938 7.785156 L 287.375 7.785156 L 287.375 11.953125 C 287.375 12.296875 287.394531 12.519531 287.433594 12.617188 C 287.480469 12.714844 287.546875 12.792969 287.644531 12.851562 C 287.738281 12.910156 287.878906 12.9375 288.054688 12.9375 C 288.191406 12.9375 288.367188 12.921875 288.585938 12.890625 "/>
<path fill-rule="nonzero" fill="rgb(13.729858%, 12.159729%, 12.548828%)" fill-opacity="1" d="M 294.644531 11.675781 L 295.890625 11.832031 C 295.695312 12.5625 295.332031 13.125 294.800781 13.53125 C 294.265625 13.929688 293.585938 14.132812 292.757812 14.132812 C 291.71875 14.132812 290.890625 13.8125 290.28125 13.171875 C 289.671875 12.527344 289.367188 11.628906 289.367188 10.46875 C 289.367188 9.269531 289.675781 8.339844 290.289062 7.679688 C 290.910156 7.015625 291.707031 6.683594 292.691406 6.683594 C 293.644531 6.683594 294.425781 7.011719 295.027344 7.660156 C 295.632812 8.304688 295.933594 9.21875 295.933594 10.394531 C 295.933594 10.46875 295.929688 10.574219 295.925781 10.71875 L 290.613281 10.71875 C 290.65625 11.5 290.878906 12.101562 291.277344 12.515625 C 291.675781 12.933594 292.171875 13.140625 292.765625 13.140625 C 293.207031 13.140625 293.585938 13.023438 293.898438 12.789062 C 294.214844 12.558594 294.460938 12.1875 294.644531 11.675781 Z M 290.679688 9.722656 L 294.65625 9.722656 C 294.605469 9.125 294.453125 8.675781 294.203125 8.378906 C 293.816406 7.914062 293.316406 7.679688 292.707031 7.679688 C 292.152344 7.679688 291.683594 7.863281 291.308594 8.234375 C 290.929688 8.605469 290.722656 9.101562 290.679688 9.722656 "/>
<path fill-rule="nonzero" fill="rgb(13.729858%, 12.159729%, 12.548828%)" fill-opacity="1" d="M 297.398438 13.972656 L 297.398438 6.847656 L 298.480469 6.847656 L 298.480469 7.925781 C 298.757812 7.421875 299.015625 7.089844 299.25 6.929688 C 299.484375 6.765625 299.742188 6.683594 300.027344 6.683594 C 300.433594 6.683594 300.84375 6.816406 301.265625 7.074219 L 300.851562 8.195312 C 300.558594 8.019531 300.261719 7.933594 299.964844 7.933594 C 299.699219 7.933594 299.464844 8.011719 299.253906 8.171875 C 299.042969 8.332031 298.894531 8.550781 298.804688 8.832031 C 298.671875 9.261719 298.605469 9.730469 298.605469 10.242188 L 298.605469 13.972656 L 297.398438 13.972656 "/>
<path fill-rule="nonzero" fill="rgb(13.729858%, 12.159729%, 12.548828%)" fill-opacity="1" d="M 301.503906 11.84375 L 302.695312 11.65625 C 302.761719 12.136719 302.949219 12.5 303.257812 12.757812 C 303.5625 13.011719 303.988281 13.140625 304.542969 13.140625 C 305.097656 13.140625 305.507812 13.027344 305.777344 12.800781 C 306.042969 12.574219 306.179688 12.308594 306.179688 12.007812 C 306.179688 11.730469 306.058594 11.519531 305.820312 11.359375 C 305.65625 11.253906 305.246094 11.117188 304.585938 10.953125 C 303.703125 10.730469 303.085938 10.535156 302.746094 10.371094 C 302.40625 10.210938 302.144531 9.984375 301.96875 9.695312 C 301.792969 9.40625 301.703125 9.085938 301.703125 8.738281 C 301.703125 8.421875 301.773438 8.128906 301.921875 7.859375 C 302.066406 7.585938 302.265625 7.359375 302.515625 7.183594 C 302.703125 7.042969 302.960938 6.925781 303.28125 6.828125 C 303.605469 6.734375 303.957031 6.683594 304.328125 6.683594 C 304.886719 6.683594 305.375 6.765625 305.800781 6.929688 C 306.222656 7.089844 306.535156 7.304688 306.734375 7.582031 C 306.9375 7.859375 307.074219 8.222656 307.148438 8.683594 L 305.96875 8.847656 C 305.914062 8.480469 305.761719 8.195312 305.503906 7.988281 C 305.246094 7.78125 304.882812 7.679688 304.414062 7.679688 C 303.859375 7.679688 303.464844 7.769531 303.226562 7.953125 C 302.988281 8.136719 302.871094 8.351562 302.871094 8.597656 C 302.871094 8.753906 302.921875 8.894531 303.019531 9.019531 C 303.117188 9.152344 303.269531 9.257812 303.480469 9.34375 C 303.601562 9.386719 303.957031 9.492188 304.546875 9.652344 C 305.402344 9.878906 306 10.066406 306.335938 10.210938 C 306.671875 10.355469 306.9375 10.570312 307.132812 10.847656 C 307.324219 11.125 307.421875 11.464844 307.421875 11.878906 C 307.421875 12.28125 307.300781 12.660156 307.066406 13.015625 C 306.832031 13.371094 306.492188 13.648438 306.050781 13.839844 C 305.609375 14.035156 305.105469 14.132812 304.546875 14.132812 C 303.621094 14.132812 302.914062 13.941406 302.429688 13.554688 C 301.945312 13.171875 301.636719 12.601562 301.503906 11.84375 "/>
<g clip-path="url(#clip-9)">
<path fill="none" stroke-width="39.9997" stroke-linecap="butt" stroke-linejoin="miter" stroke="rgb(13.729858%, 12.159729%, 12.548828%)" stroke-opacity="1" stroke-miterlimit="22.9256" d="M 6155.400935 1942.982485 L 7625.298032 1627.244249 " transform="matrix(0.038167, 0, 0, -0.038167, 18.059, 80.65)"/>
</g>
<g clip-path="url(#clip-10)">
<path fill="none" stroke-width="39.9997" stroke-linecap="butt" stroke-linejoin="miter" stroke="rgb(13.729858%, 12.159729%, 12.548828%)" stroke-opacity="1" stroke-miterlimit="22.9256" d="M 7625.298032 2073.678669 L 6525.587386 1561.94733 " transform="matrix(0.038167, 0, 0, -0.038167, 18.059, 80.65)"/>
</g>
<path fill-rule="nonzero" fill="rgb(13.729858%, 12.159729%, 12.548828%)" fill-opacity="1" d="M 21.484375 42.066406 C 20.816406 41.226562 20.253906 40.242188 19.792969 39.113281 C 19.332031 37.984375 19.101562 36.820312 19.101562 35.609375 C 19.101562 34.546875 19.273438 33.527344 19.621094 32.550781 C 20.023438 31.417969 20.644531 30.292969 21.484375 29.171875 L 22.351562 29.171875 C 21.808594 30.101562 21.453125 30.765625 21.277344 31.164062 C 21.003906 31.777344 20.789062 32.425781 20.632812 33.09375 C 20.441406 33.929688 20.34375 34.773438 20.34375 35.617188 C 20.34375 37.769531 21.011719 39.917969 22.351562 42.066406 L 21.484375 42.066406 "/>
<path fill-rule="nonzero" fill="rgb(13.729858%, 12.159729%, 12.548828%)" fill-opacity="1" d="M 23.269531 37.046875 L 24.464844 36.859375 C 24.53125 37.335938 24.71875 37.703125 25.023438 37.960938 C 25.328125 38.214844 25.757812 38.34375 26.308594 38.34375 C 26.863281 38.34375 27.277344 38.226562 27.542969 38.003906 C 27.8125 37.777344 27.945312 37.511719 27.945312 37.207031 C 27.945312 36.933594 27.828125 36.71875 27.589844 36.5625 C 27.425781 36.453125 27.011719 36.320312 26.355469 36.15625 C 25.472656 35.929688 24.855469 35.738281 24.515625 35.574219 C 24.171875 35.410156 23.910156 35.183594 23.734375 34.894531 C 23.558594 34.605469 23.46875 34.289062 23.46875 33.941406 C 23.46875 33.621094 23.542969 33.328125 23.6875 33.058594 C 23.832031 32.785156 24.03125 32.5625 24.28125 32.382812 C 24.46875 32.246094 24.726562 32.125 25.050781 32.03125 C 25.375 31.933594 25.722656 31.886719 26.09375 31.886719 C 26.652344 31.886719 27.144531 31.96875 27.566406 32.128906 C 27.988281 32.289062 28.300781 32.507812 28.503906 32.78125 C 28.703125 33.058594 28.839844 33.425781 28.917969 33.886719 L 27.738281 34.046875 C 27.683594 33.683594 27.527344 33.394531 27.269531 33.1875 C 27.015625 32.984375 26.648438 32.878906 26.179688 32.878906 C 25.625 32.878906 25.230469 32.972656 24.996094 33.15625 C 24.757812 33.339844 24.636719 33.554688 24.636719 33.796875 C 24.636719 33.957031 24.6875 34.097656 24.785156 34.222656 C 24.882812 34.351562 25.039062 34.457031 25.25 34.546875 C 25.371094 34.589844 25.726562 34.691406 26.316406 34.851562 C 27.171875 35.082031 27.765625 35.265625 28.101562 35.414062 C 28.441406 35.558594 28.707031 35.769531 28.898438 36.046875 C 29.089844 36.324219 29.1875 36.667969 29.1875 37.082031 C 29.1875 37.484375 29.070312 37.859375 28.835938 38.21875 C 28.597656 38.574219 28.261719 38.847656 27.816406 39.042969 C 27.375 39.238281 26.875 39.332031 26.316406 39.332031 C 25.386719 39.332031 24.683594 39.140625 24.199219 38.757812 C 23.710938 38.371094 23.402344 37.800781 23.269531 37.046875 "/>
<path fill-rule="nonzero" fill="rgb(13.729858%, 12.159729%, 12.548828%)" fill-opacity="1" d="M 35.5 36.878906 L 36.746094 37.03125 C 36.550781 37.761719 36.1875 38.328125 35.65625 38.730469 C 35.121094 39.132812 34.441406 39.332031 33.613281 39.332031 C 32.574219 39.332031 31.746094 39.011719 31.136719 38.371094 C 30.523438 37.730469 30.21875 36.832031 30.21875 35.671875 C 30.21875 34.472656 30.53125 33.542969 31.144531 32.878906 C 31.765625 32.21875 32.5625 31.886719 33.546875 31.886719 C 34.5 31.886719 35.277344 32.210938 35.882812 32.859375 C 36.484375 33.507812 36.789062 34.421875 36.789062 35.597656 C 36.789062 35.667969 36.785156 35.777344 36.78125 35.917969 L 31.46875 35.917969 C 31.511719 36.703125 31.734375 37.300781 32.132812 37.714844 C 32.53125 38.132812 33.027344 38.34375 33.621094 38.34375 C 34.0625 38.34375 34.441406 38.226562 34.753906 37.992188 C 35.070312 37.761719 35.316406 37.390625 35.5 36.878906 Z M 31.535156 34.925781 L 35.511719 34.925781 C 35.460938 34.328125 35.304688 33.875 35.058594 33.578125 C 34.671875 33.113281 34.171875 32.878906 33.5625 32.878906 C 33.007812 32.878906 32.539062 33.066406 32.164062 33.4375 C 31.785156 33.808594 31.574219 34.304688 31.535156 34.925781 "/>
<path fill-rule="nonzero" fill="rgb(13.729858%, 12.159729%, 12.548828%)" fill-opacity="1" d="M 38.265625 39.171875 L 38.265625 32.050781 L 39.351562 32.050781 L 39.351562 33.0625 C 39.875 32.277344 40.632812 31.886719 41.617188 31.886719 C 42.046875 31.886719 42.441406 31.964844 42.800781 32.117188 C 43.164062 32.273438 43.429688 32.476562 43.609375 32.726562 C 43.789062 32.976562 43.914062 33.273438 43.988281 33.617188 C 44.03125 33.84375 44.054688 34.234375 44.054688 34.792969 L 44.054688 39.171875 L 42.84375 39.171875 L 42.84375 34.839844 C 42.84375 34.347656 42.800781 33.980469 42.707031 33.734375 C 42.613281 33.492188 42.445312 33.296875 42.207031 33.152344 C 41.964844 33.007812 41.6875 32.933594 41.363281 32.933594 C 40.847656 32.933594 40.40625 33.097656 40.03125 33.421875 C 39.65625 33.75 39.472656 34.367188 39.472656 35.28125 L 39.472656 39.171875 L 38.265625 39.171875 "/>
<path fill-rule="nonzero" fill="rgb(13.729858%, 12.159729%, 12.548828%)" fill-opacity="1" d="M 45.425781 37.046875 L 46.617188 36.859375 C 46.683594 37.335938 46.871094 37.703125 47.179688 37.960938 C 47.484375 38.214844 47.910156 38.34375 48.460938 38.34375 C 49.015625 38.34375 49.429688 38.226562 49.695312 38.003906 C 49.964844 37.777344 50.101562 37.511719 50.101562 37.207031 C 50.101562 36.933594 49.980469 36.71875 49.742188 36.5625 C 49.578125 36.453125 49.164062 36.320312 48.507812 36.15625 C 47.625 35.929688 47.007812 35.738281 46.667969 35.574219 C 46.324219 35.410156 46.066406 35.183594 45.890625 34.894531 C 45.710938 34.605469 45.621094 34.289062 45.621094 33.941406 C 45.621094 33.621094 45.695312 33.328125 45.84375 33.058594 C 45.988281 32.785156 46.1875 32.5625 46.4375 32.382812 C 46.625 32.246094 46.878906 32.125 47.203125 32.03125 C 47.527344 31.933594 47.875 31.886719 48.246094 31.886719 C 48.804688 31.886719 49.296875 31.96875 49.71875 32.128906 C 50.144531 32.289062 50.453125 32.507812 50.65625 32.78125 C 50.859375 33.058594 50.996094 33.425781 51.070312 33.886719 L 49.890625 34.046875 C 49.835938 33.683594 49.679688 33.394531 49.425781 33.1875 C 49.167969 32.984375 48.804688 32.878906 48.335938 32.878906 C 47.78125 32.878906 47.382812 32.972656 47.148438 33.15625 C 46.910156 33.339844 46.789062 33.554688 46.789062 33.796875 C 46.789062 33.957031 46.839844 34.097656 46.941406 34.222656 C 47.039062 34.351562 47.191406 34.457031 47.402344 34.546875 C 47.523438 34.589844 47.878906 34.691406 48.46875 34.851562 C 49.324219 35.082031 49.917969 35.265625 50.253906 35.414062 C 50.59375 35.558594 50.859375 35.769531 51.050781 36.046875 C 51.246094 36.324219 51.339844 36.667969 51.339844 37.082031 C 51.339844 37.484375 51.222656 37.859375 50.988281 38.21875 C 50.753906 38.574219 50.414062 38.847656 49.972656 39.042969 C 49.53125 39.238281 49.027344 39.332031 48.46875 39.332031 C 47.542969 39.332031 46.835938 39.140625 46.351562 38.757812 C 45.867188 38.371094 45.558594 37.800781 45.425781 37.046875 "/>
<path fill-rule="nonzero" fill="rgb(13.729858%, 12.159729%, 12.548828%)" fill-opacity="1" d="M 52.324219 35.609375 C 52.324219 34.289062 52.691406 33.3125 53.425781 32.679688 C 54.039062 32.152344 54.785156 31.886719 55.667969 31.886719 C 56.648438 31.886719 57.449219 32.207031 58.070312 32.851562 C 58.691406 33.492188 59 34.378906 59 35.507812 C 59 36.425781 58.863281 37.148438 58.589844 37.671875 C 58.3125 38.199219 57.914062 38.609375 57.390625 38.898438 C 56.863281 39.1875 56.289062 39.332031 55.667969 39.332031 C 54.671875 39.332031 53.863281 39.015625 53.25 38.375 C 52.632812 37.734375 52.324219 36.8125 52.324219 35.609375 Z M 53.566406 35.609375 C 53.566406 36.523438 53.765625 37.207031 54.164062 37.660156 C 54.5625 38.113281 55.066406 38.34375 55.667969 38.34375 C 56.265625 38.34375 56.765625 38.113281 57.164062 37.65625 C 57.5625 37.203125 57.761719 36.503906 57.761719 35.570312 C 57.761719 34.6875 57.5625 34.019531 57.160156 33.566406 C 56.757812 33.113281 56.261719 32.886719 55.667969 32.886719 C 55.066406 32.886719 54.5625 33.113281 54.164062 33.566406 C 53.765625 34.015625 53.566406 34.699219 53.566406 35.609375 "/>
<path fill-rule="nonzero" fill="rgb(13.729858%, 12.159729%, 12.548828%)" fill-opacity="1" d="M 60.40625 39.171875 L 60.40625 32.050781 L 61.492188 32.050781 L 61.492188 33.128906 C 61.769531 32.625 62.023438 32.289062 62.261719 32.128906 C 62.492188 31.96875 62.753906 31.886719 63.035156 31.886719 C 63.441406 31.886719 63.855469 32.015625 64.277344 32.277344 L 63.859375 33.398438 C 63.566406 33.222656 63.269531 33.132812 62.976562 33.132812 C 62.710938 33.132812 62.472656 33.214844 62.261719 33.371094 C 62.050781 33.53125 61.902344 33.753906 61.8125 34.035156 C 61.679688 34.460938 61.613281 34.933594 61.613281 35.441406 L 61.613281 39.171875 L 60.40625 39.171875 "/>
<path fill-rule="nonzero" fill="rgb(13.729858%, 12.159729%, 12.548828%)" fill-opacity="1" d="M 65.785156 42.066406 L 64.917969 42.066406 C 66.257812 39.917969 66.925781 37.769531 66.925781 35.617188 C 66.925781 34.777344 66.828125 33.941406 66.636719 33.113281 C 66.484375 32.445312 66.273438 31.800781 66 31.183594 C 65.824219 30.78125 65.464844 30.109375 64.917969 29.171875 L 65.785156 29.171875 C 66.625 30.292969 67.246094 31.417969 67.652344 32.550781 C 67.996094 33.527344 68.167969 34.546875 68.167969 35.609375 C 68.167969 36.820312 67.933594 37.984375 67.472656 39.113281 C 67.007812 40.242188 66.445312 41.226562 65.785156 42.066406 "/>
<path fill-rule="nonzero" fill="rgb(13.729858%, 12.159729%, 12.548828%)" fill-opacity="1" d="M 78.261719 36.878906 L 79.511719 37.03125 C 79.3125 37.761719 78.949219 38.328125 78.417969 38.730469 C 77.886719 39.132812 77.203125 39.332031 76.378906 39.332031 C 75.335938 39.332031 74.507812 39.011719 73.898438 38.371094 C 73.289062 37.730469 72.984375 36.832031 72.984375 35.671875 C 72.984375 34.472656 73.292969 33.542969 73.910156 32.878906 C 74.527344 32.21875 75.328125 31.886719 76.3125 31.886719 C 77.265625 31.886719 78.042969 32.210938 78.644531 32.859375 C 79.25 33.507812 79.550781 34.421875 79.550781 35.597656 C 79.550781 35.667969 79.550781 35.777344 79.546875 35.917969 L 74.234375 35.917969 C 74.277344 36.703125 74.5 37.300781 74.898438 37.714844 C 75.296875 38.132812 75.789062 38.34375 76.386719 38.34375 C 76.828125 38.34375 77.203125 38.226562 77.519531 37.992188 C 77.832031 37.761719 78.078125 37.390625 78.261719 36.878906 Z M 74.300781 34.925781 L 78.277344 34.925781 C 78.222656 34.328125 78.070312 33.875 77.820312 33.578125 C 77.4375 33.113281 76.9375 32.878906 76.324219 32.878906 C 75.769531 32.878906 75.304688 33.066406 74.925781 33.4375 C 74.546875 33.808594 74.339844 34.304688 74.300781 34.925781 "/>
<path fill-rule="nonzero" fill="rgb(13.729858%, 12.159729%, 12.548828%)" fill-opacity="1" d="M 83.007812 39.171875 L 80.296875 32.050781 L 81.570312 32.050781 L 83.101562 36.316406 C 83.265625 36.777344 83.417969 37.253906 83.558594 37.75 C 83.664062 37.375 83.8125 36.925781 84.007812 36.394531 L 85.589844 32.050781 L 86.832031 32.050781 L 84.132812 39.171875 L 83.007812 39.171875 "/>
<path fill-rule="nonzero" fill="rgb(13.729858%, 12.159729%, 12.548828%)" fill-opacity="1" d="M 92.773438 36.878906 L 94.023438 37.03125 C 93.824219 37.761719 93.460938 38.328125 92.929688 38.730469 C 92.398438 39.132812 91.714844 39.332031 90.890625 39.332031 C 89.847656 39.332031 89.019531 39.011719 88.414062 38.371094 C 87.800781 37.730469 87.496094 36.832031 87.496094 35.671875 C 87.496094 34.472656 87.804688 33.542969 88.421875 32.878906 C 89.039062 32.21875 89.839844 31.886719 90.824219 31.886719 C 91.777344 31.886719 92.554688 32.210938 93.15625 32.859375 C 93.761719 33.507812 94.0625 34.421875 94.0625 35.597656 C 94.0625 35.667969 94.0625 35.777344 94.058594 35.917969 L 88.746094 35.917969 C 88.789062 36.703125 89.011719 37.300781 89.410156 37.714844 C 89.808594 38.132812 90.300781 38.34375 90.898438 38.34375 C 91.339844 38.34375 91.714844 38.226562 92.03125 37.992188 C 92.34375 37.761719 92.589844 37.390625 92.773438 36.878906 Z M 88.808594 34.925781 L 92.789062 34.925781 C 92.734375 34.328125 92.582031 33.875 92.332031 33.578125 C 91.949219 33.113281 91.449219 32.878906 90.835938 32.878906 C 90.28125 32.878906 89.816406 33.066406 89.4375 33.4375 C 89.058594 33.808594 88.851562 34.304688 88.808594 34.925781 "/>
<path fill-rule="nonzero" fill="rgb(13.729858%, 12.159729%, 12.548828%)" fill-opacity="1" d="M 95.539062 39.171875 L 95.539062 32.050781 L 96.625 32.050781 L 96.625 33.0625 C 97.152344 32.277344 97.90625 31.886719 98.894531 31.886719 C 99.324219 31.886719 99.71875 31.964844 100.078125 32.117188 C 100.4375 32.273438 100.707031 32.476562 100.886719 32.726562 C 101.066406 32.976562 101.191406 33.273438 101.265625 33.617188 C 101.308594 33.84375 101.328125 34.234375 101.328125 34.792969 L 101.328125 39.171875 L 100.121094 39.171875 L 100.121094 34.839844 C 100.121094 34.347656 100.074219 33.980469 99.980469 33.734375 C 99.886719 33.492188 99.71875 33.296875 99.480469 33.152344 C 99.242188 33.007812 98.960938 32.933594 98.640625 32.933594 C 98.125 32.933594 97.683594 33.097656 97.308594 33.421875 C 96.933594 33.75 96.746094 34.367188 96.746094 35.28125 L 96.746094 39.171875 L 95.539062 39.171875 "/>
<path fill-rule="nonzero" fill="rgb(13.729858%, 12.159729%, 12.548828%)" fill-opacity="1" d="M 105.820312 38.09375 L 105.992188 39.160156 C 105.652344 39.230469 105.347656 39.265625 105.082031 39.265625 C 104.640625 39.265625 104.300781 39.199219 104.058594 39.058594 C 103.820312 38.921875 103.648438 38.738281 103.550781 38.511719 C 103.453125 38.285156 103.402344 37.8125 103.402344 37.085938 L 103.402344 32.988281 L 102.515625 32.988281 L 102.515625 32.050781 L 103.402344 32.050781 L 103.402344 30.285156 L 104.605469 29.558594 L 104.605469 32.050781 L 105.820312 32.050781 L 105.820312 32.988281 L 104.605469 32.988281 L 104.605469 37.152344 C 104.605469 37.5 104.625 37.71875 104.667969 37.816406 C 104.710938 37.914062 104.777344 37.992188 104.875 38.054688 C 104.972656 38.109375 105.109375 38.140625 105.285156 38.140625 C 105.421875 38.140625 105.597656 38.125 105.820312 38.09375 "/>
<path fill-rule="nonzero" fill="rgb(13.729858%, 12.159729%, 12.548828%)" fill-opacity="1" d="M 106.515625 37.046875 L 107.710938 36.859375 C 107.777344 37.335938 107.964844 37.703125 108.269531 37.960938 C 108.574219 38.214844 109.003906 38.34375 109.554688 38.34375 C 110.109375 38.34375 110.523438 38.226562 110.789062 38.003906 C 111.058594 37.777344 111.191406 37.511719 111.191406 37.207031 C 111.191406 36.933594 111.074219 36.71875 110.835938 36.5625 C 110.671875 36.453125 110.257812 36.320312 109.601562 36.15625 C 108.71875 35.929688 108.101562 35.738281 107.761719 35.574219 C 107.417969 35.410156 107.160156 35.183594 106.980469 34.894531 C 106.804688 34.605469 106.714844 34.289062 106.714844 33.941406 C 106.714844 33.621094 106.789062 33.328125 106.9375 33.058594 C 107.082031 32.785156 107.28125 32.5625 107.53125 32.382812 C 107.714844 32.246094 107.972656 32.125 108.296875 32.03125 C 108.621094 31.933594 108.96875 31.886719 109.339844 31.886719 C 109.898438 31.886719 110.390625 31.96875 110.8125 32.128906 C 111.238281 32.289062 111.546875 32.507812 111.75 32.78125 C 111.953125 33.058594 112.089844 33.425781 112.164062 33.886719 L 110.984375 34.046875 C 110.929688 33.683594 110.773438 33.394531 110.519531 33.1875 C 110.261719 32.984375 109.898438 32.878906 109.429688 32.878906 C 108.875 32.878906 108.476562 32.972656 108.242188 33.15625 C 108.003906 33.339844 107.882812 33.554688 107.882812 33.796875 C 107.882812 33.957031 107.933594 34.097656 108.03125 34.222656 C 108.132812 34.351562 108.285156 34.457031 108.496094 34.546875 C 108.617188 34.589844 108.972656 34.691406 109.5625 34.851562 C 110.417969 35.082031 111.011719 35.265625 111.347656 35.414062 C 111.6875 35.558594 111.953125 35.769531 112.144531 36.046875 C 112.339844 36.324219 112.433594 36.667969 112.433594 37.082031 C 112.433594 37.484375 112.316406 37.859375 112.082031 38.21875 C 111.847656 38.574219 111.507812 38.847656 111.066406 39.042969 C 110.625 39.238281 110.121094 39.332031 109.5625 39.332031 C 108.636719 39.332031 107.929688 39.140625 107.445312 38.757812 C 106.957031 38.371094 106.648438 37.800781 106.515625 37.046875 "/>
<path fill-rule="nonzero" fill="rgb(13.729858%, 12.159729%, 12.548828%)" fill-opacity="1" d="M 21.484375 63.941406 C 20.816406 63.101562 20.253906 62.117188 19.792969 60.992188 C 19.332031 59.863281 19.101562 58.695312 19.101562 57.488281 C 19.101562 56.421875 19.273438 55.402344 19.621094 54.425781 C 20.023438 53.296875 20.644531 52.167969 21.484375 51.046875 L 22.351562 51.046875 C 21.808594 51.976562 21.453125 52.640625 21.277344 53.039062 C 21.003906 53.65625 20.789062 54.300781 20.632812 54.972656 C 20.441406 55.808594 20.34375 56.648438 20.34375 57.492188 C 20.34375 59.648438 21.011719 61.792969 22.351562 63.941406 L 21.484375 63.941406 "/>
<path fill-rule="nonzero" fill="rgb(13.729858%, 12.159729%, 12.548828%)" fill-opacity="1" d="M 28.402344 58.441406 L 29.589844 58.59375 C 29.460938 59.414062 29.128906 60.054688 28.59375 60.515625 C 28.058594 60.980469 27.402344 61.210938 26.621094 61.210938 C 25.648438 61.210938 24.863281 60.890625 24.273438 60.253906 C 23.679688 59.617188 23.382812 58.707031 23.382812 57.515625 C 23.382812 56.746094 23.511719 56.070312 23.765625 55.496094 C 24.019531 54.917969 24.410156 54.484375 24.929688 54.195312 C 25.449219 53.90625 26.019531 53.761719 26.628906 53.761719 C 27.402344 53.761719 28.039062 53.960938 28.527344 54.351562 C 29.019531 54.742188 29.335938 55.296875 29.476562 56.019531 L 28.300781 56.199219 C 28.1875 55.722656 27.992188 55.363281 27.707031 55.117188 C 27.425781 54.878906 27.082031 54.757812 26.675781 54.757812 C 26.070312 54.757812 25.574219 54.976562 25.195312 55.414062 C 24.8125 55.847656 24.625 56.535156 24.625 57.480469 C 24.625 58.4375 24.808594 59.132812 25.175781 59.570312 C 25.542969 60 26.019531 60.21875 26.613281 60.21875 C 27.085938 60.21875 27.480469 60.074219 27.796875 59.78125 C 28.117188 59.492188 28.316406 59.042969 28.402344 58.441406 "/>
<path fill-rule="nonzero" fill="rgb(13.729858%, 12.159729%, 12.548828%)" fill-opacity="1" d="M 30.171875 57.488281 C 30.171875 56.167969 30.539062 55.191406 31.273438 54.554688 C 31.886719 54.027344 32.632812 53.761719 33.511719 53.761719 C 34.492188 53.761719 35.296875 54.082031 35.914062 54.726562 C 36.539062 55.367188 36.847656 56.253906 36.847656 57.386719 C 36.847656 58.304688 36.710938 59.027344 36.433594 59.550781 C 36.160156 60.078125 35.761719 60.484375 35.234375 60.777344 C 34.707031 61.066406 34.136719 61.210938 33.511719 61.210938 C 32.515625 61.210938 31.710938 60.890625 31.09375 60.25 C 30.480469 59.613281 30.171875 58.691406 30.171875 57.488281 Z M 31.414062 57.488281 C 31.414062 58.402344 31.613281 59.082031 32.011719 59.535156 C 32.410156 59.992188 32.910156 60.21875 33.511719 60.21875 C 34.113281 60.21875 34.613281 59.988281 35.011719 59.535156 C 35.40625 59.078125 35.605469 58.382812 35.605469 57.449219 C 35.605469 56.566406 35.40625 55.898438 35.007812 55.445312 C 34.605469 54.992188 34.109375 54.765625 33.511719 54.765625 C 32.910156 54.765625 32.410156 54.992188 32.011719 55.441406 C 31.613281 55.894531 31.414062 56.574219 31.414062 57.488281 "/>
<path fill-rule="nonzero" fill="rgb(13.729858%, 12.159729%, 12.548828%)" fill-opacity="1" d="M 38.265625 61.050781 L 38.265625 53.925781 L 39.351562 53.925781 L 39.351562 54.9375 C 39.875 54.15625 40.632812 53.761719 41.617188 53.761719 C 42.046875 53.761719 42.441406 53.839844 42.800781 53.996094 C 43.164062 54.152344 43.429688 54.351562 43.609375 54.605469 C 43.789062 54.851562 43.914062 55.152344 43.988281 55.496094 C 44.03125 55.71875 44.054688 56.109375 44.054688 56.667969 L 44.054688 61.050781 L 42.84375 61.050781 L 42.84375 56.714844 C 42.84375 56.226562 42.800781 55.855469 42.707031 55.613281 C 42.613281 55.367188 42.445312 55.175781 42.207031 55.03125 C 41.964844 54.882812 41.6875 54.808594 41.363281 54.808594 C 40.847656 54.808594 40.40625 54.976562 40.03125 55.300781 C 39.65625 55.628906 39.472656 56.246094 39.472656 57.160156 L 39.472656 61.050781 L 38.265625 61.050781 "/>
<path fill-rule="nonzero" fill="rgb(13.729858%, 12.159729%, 12.548828%)" fill-opacity="1" d="M 48.542969 59.96875 L 48.71875 61.035156 C 48.378906 61.109375 48.074219 61.144531 47.804688 61.144531 C 47.367188 61.144531 47.027344 61.074219 46.785156 60.9375 C 46.542969 60.796875 46.375 60.613281 46.277344 60.386719 C 46.175781 60.164062 46.125 59.6875 46.125 58.964844 L 46.125 54.863281 L 45.242188 54.863281 L 45.242188 53.925781 L 46.125 53.925781 L 46.125 52.160156 L 47.328125 51.4375 L 47.328125 53.925781 L 48.542969 53.925781 L 48.542969 54.863281 L 47.328125 54.863281 L 47.328125 59.03125 C 47.328125 59.375 47.351562 59.597656 47.390625 59.695312 C 47.433594 59.792969 47.503906 59.871094 47.597656 59.929688 C 47.695312 59.988281 47.832031 60.015625 48.011719 60.015625 C 48.148438 60.015625 48.324219 60 48.542969 59.96875 "/>
<path fill-rule="nonzero" fill="rgb(13.729858%, 12.159729%, 12.548828%)" fill-opacity="1" d="M 49.710938 61.050781 L 49.710938 53.925781 L 50.796875 53.925781 L 50.796875 55.003906 C 51.074219 54.5 51.328125 54.167969 51.566406 54.007812 C 51.800781 53.847656 52.058594 53.761719 52.339844 53.761719 C 52.746094 53.761719 53.160156 53.894531 53.582031 54.152344 L 53.164062 55.273438 C 52.871094 55.097656 52.574219 55.011719 52.28125 55.011719 C 52.015625 55.011719 51.777344 55.089844 51.566406 55.25 C 51.355469 55.410156 51.207031 55.628906 51.121094 55.910156 C 50.984375 56.339844 50.917969 56.808594 50.917969 57.320312 L 50.917969 61.050781 L 49.710938 61.050781 "/>
<path fill-rule="nonzero" fill="rgb(13.729858%, 12.159729%, 12.548828%)" fill-opacity="1" d="M 53.847656 57.488281 C 53.847656 56.167969 54.214844 55.191406 54.949219 54.554688 C 55.5625 54.027344 56.308594 53.761719 57.191406 53.761719 C 58.171875 53.761719 58.972656 54.082031 59.59375 54.726562 C 60.214844 55.367188 60.523438 56.253906 60.523438 57.386719 C 60.523438 58.304688 60.386719 59.027344 60.113281 59.550781 C 59.835938 60.078125 59.4375 60.484375 58.914062 60.777344 C 58.386719 61.066406 57.8125 61.210938 57.191406 61.210938 C 56.195312 61.210938 55.386719 60.890625 54.773438 60.25 C 54.15625 59.613281 53.847656 58.691406 53.847656 57.488281 Z M 55.089844 57.488281 C 55.089844 58.402344 55.289062 59.082031 55.6875 59.535156 C 56.085938 59.992188 56.585938 60.21875 57.191406 60.21875 C 57.789062 60.21875 58.289062 59.988281 58.6875 59.535156 C 59.082031 59.078125 59.28125 58.382812 59.28125 57.449219 C 59.28125 56.566406 59.082031 55.898438 58.683594 55.445312 C 58.28125 54.992188 57.785156 54.765625 57.191406 54.765625 C 56.585938 54.765625 56.085938 54.992188 55.6875 55.441406 C 55.289062 55.894531 55.089844 56.574219 55.089844 57.488281 "/>
<path fill-rule="nonzero" fill="rgb(13.729858%, 12.159729%, 12.548828%)" fill-opacity="1" d="M 61.914062 61.050781 L 61.914062 51.214844 L 63.121094 51.214844 L 63.121094 61.050781 L 61.914062 61.050781 "/>
<path fill-rule="nonzero" fill="rgb(13.729858%, 12.159729%, 12.548828%)" fill-opacity="1" d="M 65.785156 63.941406 L 64.917969 63.941406 C 66.257812 61.792969 66.925781 59.648438 66.925781 57.492188 C 66.925781 56.652344 66.828125 55.820312 66.636719 54.992188 C 66.484375 54.320312 66.273438 53.675781 66 53.058594 C 65.824219 52.65625 65.464844 51.984375 64.917969 51.046875 L 65.785156 51.046875 C 66.625 52.167969 67.246094 53.296875 67.652344 54.425781 C 67.996094 55.402344 68.167969 56.421875 68.167969 57.488281 C 68.167969 58.695312 67.933594 59.863281 67.472656 60.992188 C 67.007812 62.117188 66.445312 63.101562 65.785156 63.941406 "/>
<path fill-rule="nonzero" fill="rgb(13.729858%, 12.159729%, 12.548828%)" fill-opacity="1" d="M 72.9375 57.488281 C 72.9375 56.167969 73.300781 55.191406 74.039062 54.554688 C 74.648438 54.027344 75.394531 53.761719 76.277344 53.761719 C 77.257812 53.761719 78.058594 54.082031 78.679688 54.726562 C 79.300781 55.367188 79.609375 56.253906 79.609375 57.386719 C 79.609375 58.304688 79.472656 59.027344 79.199219 59.550781 C 78.925781 60.078125 78.523438 60.484375 78 60.777344 C 77.472656 61.066406 76.898438 61.210938 76.277344 61.210938 C 75.28125 61.210938 74.476562 60.890625 73.859375 60.25 C 73.242188 59.613281 72.9375 58.691406 72.9375 57.488281 Z M 74.175781 57.488281 C 74.175781 58.402344 74.375 59.082031 74.773438 59.535156 C 75.171875 59.992188 75.675781 60.21875 76.277344 60.21875 C 76.878906 60.21875 77.375 59.988281 77.773438 59.535156 C 78.171875 59.078125 78.371094 58.382812 78.371094 57.449219 C 78.371094 56.566406 78.171875 55.898438 77.769531 55.445312 C 77.371094 54.992188 76.871094 54.765625 76.277344 54.765625 C 75.675781 54.765625 75.171875 54.992188 74.773438 55.441406 C 74.375 55.894531 74.175781 56.574219 74.175781 57.488281 "/>
<path fill-rule="nonzero" fill="rgb(13.729858%, 12.159729%, 12.548828%)" fill-opacity="1" d="M 85.699219 61.050781 L 85.699219 60.003906 C 85.140625 60.808594 84.386719 61.210938 83.4375 61.210938 C 83.015625 61.210938 82.625 61.128906 82.257812 60.96875 C 81.894531 60.808594 81.625 60.605469 81.449219 60.363281 C 81.269531 60.117188 81.144531 59.820312 81.074219 59.46875 C 81.027344 59.230469 81 58.855469 81 58.339844 L 81 53.925781 L 82.207031 53.925781 L 82.207031 57.875 C 82.207031 58.507812 82.234375 58.933594 82.28125 59.152344 C 82.359375 59.46875 82.519531 59.71875 82.765625 59.902344 C 83.011719 60.082031 83.316406 60.171875 83.679688 60.171875 C 84.039062 60.171875 84.378906 60.078125 84.699219 59.894531 C 85.015625 59.707031 85.242188 59.453125 85.371094 59.136719 C 85.503906 58.816406 85.570312 58.351562 85.570312 57.742188 L 85.570312 53.925781 L 86.777344 53.925781 L 86.777344 61.050781 L 85.699219 61.050781 "/>
<path fill-rule="nonzero" fill="rgb(13.729858%, 12.159729%, 12.548828%)" fill-opacity="1" d="M 91.308594 59.96875 L 91.480469 61.035156 C 91.140625 61.109375 90.835938 61.144531 90.570312 61.144531 C 90.128906 61.144531 89.789062 61.074219 89.546875 60.9375 C 89.308594 60.796875 89.136719 60.613281 89.039062 60.386719 C 88.941406 60.164062 88.890625 59.6875 88.890625 58.964844 L 88.890625 54.863281 L 88.003906 54.863281 L 88.003906 53.925781 L 88.890625 53.925781 L 88.890625 52.160156 L 90.09375 51.4375 L 90.09375 53.925781 L 91.308594 53.925781 L 91.308594 54.863281 L 90.09375 54.863281 L 90.09375 59.03125 C 90.09375 59.375 90.113281 59.597656 90.15625 59.695312 C 90.199219 59.792969 90.265625 59.871094 90.363281 59.929688 C 90.460938 59.988281 90.597656 60.015625 90.773438 60.015625 C 90.910156 60.015625 91.085938 60 91.308594 59.96875 "/>
<path fill-rule="nonzero" fill="rgb(13.729858%, 12.159729%, 12.548828%)" fill-opacity="1" d="M 92.488281 63.78125 L 92.488281 53.925781 L 93.585938 53.925781 L 93.585938 54.851562 C 93.847656 54.488281 94.140625 54.21875 94.46875 54.035156 C 94.792969 53.855469 95.1875 53.761719 95.652344 53.761719 C 96.261719 53.761719 96.796875 53.921875 97.261719 54.234375 C 97.730469 54.546875 98.082031 54.988281 98.316406 55.558594 C 98.554688 56.128906 98.671875 56.753906 98.671875 57.433594 C 98.671875 58.164062 98.542969 58.820312 98.28125 59.402344 C 98.019531 59.988281 97.640625 60.433594 97.140625 60.746094 C 96.640625 61.054688 96.117188 61.210938 95.566406 61.210938 C 95.164062 61.210938 94.804688 61.125 94.484375 60.957031 C 94.164062 60.785156 93.902344 60.570312 93.695312 60.3125 L 93.695312 63.78125 Z M 93.582031 57.527344 C 93.582031 58.445312 93.765625 59.121094 94.136719 59.5625 C 94.507812 60 94.960938 60.21875 95.484375 60.21875 C 96.023438 60.21875 96.480469 59.992188 96.863281 59.535156 C 97.246094 59.082031 97.441406 58.378906 97.441406 57.425781 C 97.441406 56.519531 97.25 55.839844 96.878906 55.386719 C 96.503906 54.9375 96.058594 54.710938 95.539062 54.710938 C 95.027344 54.710938 94.570312 54.949219 94.175781 55.429688 C 93.777344 55.910156 93.582031 56.613281 93.582031 57.527344 "/>
<path fill-rule="nonzero" fill="rgb(13.729858%, 12.159729%, 12.548828%)" fill-opacity="1" d="M 104.800781 61.050781 L 104.800781 60.003906 C 104.242188 60.808594 103.488281 61.210938 102.535156 61.210938 C 102.117188 61.210938 101.722656 61.128906 101.359375 60.96875 C 100.996094 60.808594 100.726562 60.605469 100.550781 60.363281 C 100.371094 60.117188 100.246094 59.820312 100.175781 59.46875 C 100.128906 59.230469 100.101562 58.855469 100.101562 58.339844 L 100.101562 53.925781 L 101.308594 53.925781 L 101.308594 57.875 C 101.308594 58.507812 101.335938 58.933594 101.382812 59.152344 C 101.460938 59.46875 101.621094 59.71875 101.867188 59.902344 C 102.113281 60.082031 102.417969 60.171875 102.78125 60.171875 C 103.140625 60.171875 103.480469 60.078125 103.800781 59.894531 C 104.117188 59.707031 104.339844 59.453125 104.472656 59.136719 C 104.605469 58.816406 104.671875 58.351562 104.671875 57.742188 L 104.671875 53.925781 L 105.878906 53.925781 L 105.878906 61.050781 L 104.800781 61.050781 "/>
<path fill-rule="nonzero" fill="rgb(13.729858%, 12.159729%, 12.548828%)" fill-opacity="1" d="M 110.40625 59.96875 L 110.582031 61.035156 C 110.242188 61.109375 109.9375 61.144531 109.671875 61.144531 C 109.230469 61.144531 108.890625 61.074219 108.648438 60.9375 C 108.410156 60.796875 108.238281 60.613281 108.140625 60.386719 C 108.042969 60.164062 107.992188 59.6875 107.992188 58.964844 L 107.992188 54.863281 L 107.105469 54.863281 L 107.105469 53.925781 L 107.992188 53.925781 L 107.992188 52.160156 L 109.195312 51.4375 L 109.195312 53.925781 L 110.40625 53.925781 L 110.40625 54.863281 L 109.195312 54.863281 L 109.195312 59.03125 C 109.195312 59.375 109.214844 59.597656 109.253906 59.695312 C 109.300781 59.792969 109.367188 59.871094 109.464844 59.929688 C 109.558594 59.988281 109.699219 60.015625 109.875 60.015625 C 110.011719 60.015625 110.1875 60 110.40625 59.96875 "/>
<path fill-rule="nonzero" fill="rgb(13.729858%, 12.159729%, 12.548828%)" fill-opacity="1" d="M 111.105469 58.921875 L 112.300781 58.734375 C 112.367188 59.214844 112.554688 59.578125 112.859375 59.835938 C 113.164062 60.089844 113.59375 60.21875 114.144531 60.21875 C 114.699219 60.21875 115.113281 60.105469 115.378906 59.878906 C 115.648438 59.652344 115.78125 59.386719 115.78125 59.085938 C 115.78125 58.8125 115.664062 58.597656 115.425781 58.441406 C 115.261719 58.332031 114.847656 58.195312 114.191406 58.03125 C 113.308594 57.808594 112.691406 57.613281 112.351562 57.449219 C 112.007812 57.289062 111.746094 57.0625 111.570312 56.773438 C 111.394531 56.484375 111.304688 56.164062 111.304688 55.816406 C 111.304688 55.5 111.378906 55.207031 111.527344 54.9375 C 111.667969 54.664062 111.867188 54.4375 112.117188 54.261719 C 112.304688 54.121094 112.5625 54.003906 112.886719 53.90625 C 113.210938 53.8125 113.558594 53.761719 113.929688 53.761719 C 114.488281 53.761719 114.980469 53.847656 115.402344 54.007812 C 115.824219 54.167969 116.136719 54.382812 116.339844 54.660156 C 116.539062 54.9375 116.679688 55.300781 116.753906 55.761719 L 115.574219 55.925781 C 115.519531 55.558594 115.363281 55.273438 115.105469 55.066406 C 114.851562 54.859375 114.488281 54.757812 114.015625 54.757812 C 113.460938 54.757812 113.066406 54.847656 112.832031 55.03125 C 112.59375 55.214844 112.472656 55.429688 112.472656 55.675781 C 112.472656 55.832031 112.523438 55.972656 112.621094 56.097656 C 112.722656 56.230469 112.875 56.335938 113.085938 56.421875 C 113.207031 56.464844 113.5625 56.570312 114.152344 56.730469 C 115.007812 56.957031 115.601562 57.144531 115.9375 57.289062 C 116.277344 57.433594 116.542969 57.648438 116.734375 57.925781 C 116.925781 58.203125 117.023438 58.546875 117.023438 58.957031 C 117.023438 59.359375 116.90625 59.738281 116.671875 60.09375 C 116.433594 60.449219 116.097656 60.726562 115.652344 60.917969 C 115.210938 61.113281 114.710938 61.210938 114.152344 61.210938 C 113.222656 61.210938 112.519531 61.019531 112.035156 60.632812 C 111.546875 60.25 111.238281 59.679688 111.105469 58.921875 "/>
</svg>
