<?xml version="1.0" encoding="UTF-8"?>
<svg xmlns="http://www.w3.org/2000/svg" xmlns:xlink="http://www.w3.org/1999/xlink" width="390.543pt" height="82.15pt" viewBox="0 0 390.543 82.15" version="1.2">
<defs>
<clipPath id="clip1">
  <path d="M 386 55 L 390.542969 55 L 390.542969 65 L 386 65 Z M 386 55 "/>
</clipPath>
<clipPath id="clip2">
  <path d="M 340 19 L 390.542969 19 L 390.542969 77 L 340 77 Z M 340 19 "/>
</clipPath>
<clipPath id="clip3">
  <path d="M 203 1 L 360 1 L 360 69 L 203 69 Z M 203 1 "/>
</clipPath>
<clipPath id="clip4">
  <path d="M 218 1 L 360 1 L 360 72 L 218 72 Z M 218 1 "/>
</clipPath>
</defs>
<g id="surface1">
<path style=" stroke:none;fill-rule:nonzero;fill:rgb(13.729858%,12.159729%,12.548828%);fill-opacity:1;" d="M 365.828125 40.945312 L 367.421875 41.351562 C 367.089844 42.65625 366.484375 43.652344 365.621094 44.34375 C 364.75 45.03125 363.691406 45.371094 362.4375 45.371094 C 361.140625 45.371094 360.085938 45.109375 359.273438 44.582031 C 358.460938 44.050781 357.839844 43.285156 357.417969 42.285156 C 356.996094 41.28125 356.78125 40.207031 356.78125 39.058594 C 356.78125 37.804688 357.019531 36.710938 357.5 35.777344 C 357.976562 34.847656 358.660156 34.136719 359.542969 33.652344 C 360.425781 33.167969 361.398438 32.925781 362.460938 32.925781 C 363.667969 32.925781 364.679688 33.230469 365.5 33.84375 C 366.320312 34.460938 366.890625 35.320312 367.214844 36.433594 L 365.648438 36.800781 C 365.367188 35.925781 364.964844 35.289062 364.433594 34.886719 C 363.902344 34.488281 363.234375 34.289062 362.429688 34.289062 C 361.503906 34.289062 360.734375 34.507812 360.109375 34.953125 C 359.488281 35.398438 359.050781 35.992188 358.800781 36.738281 C 358.550781 37.484375 358.421875 38.257812 358.421875 39.050781 C 358.421875 40.074219 358.574219 40.964844 358.871094 41.730469 C 359.167969 42.492188 359.632812 43.066406 360.261719 43.445312 C 360.890625 43.820312 361.574219 44.007812 362.308594 44.007812 C 363.199219 44.007812 363.953125 43.75 364.570312 43.238281 C 365.191406 42.722656 365.609375 41.957031 365.828125 40.945312 "/>
<path style=" stroke:none;fill-rule:nonzero;fill:rgb(13.729858%,12.159729%,12.548828%);fill-opacity:1;" d="M 372.296875 43.222656 L 372.296875 39.921875 L 369.023438 39.921875 L 369.023438 38.542969 L 372.296875 38.542969 L 372.296875 35.265625 L 373.695312 35.265625 L 373.695312 38.542969 L 376.96875 38.542969 L 376.96875 39.921875 L 373.695312 39.921875 L 373.695312 43.222656 L 372.296875 43.222656 "/>
<path style=" stroke:none;fill-rule:nonzero;fill:rgb(13.729858%,12.159729%,12.548828%);fill-opacity:1;" d="M 382.117188 43.222656 L 382.117188 39.921875 L 378.839844 39.921875 L 378.839844 38.542969 L 382.117188 38.542969 L 382.117188 35.265625 L 383.511719 35.265625 L 383.511719 38.542969 L 386.789062 38.542969 L 386.789062 39.921875 L 383.511719 39.921875 L 383.511719 43.222656 L 382.117188 43.222656 "/>
<path style=" stroke:none;fill-rule:nonzero;fill:rgb(13.729858%,12.159729%,12.548828%);fill-opacity:1;" d="M 362.742188 60.757812 L 364.195312 60.949219 C 364.035156 61.949219 363.628906 62.730469 362.972656 63.296875 C 362.320312 63.863281 361.515625 64.148438 360.566406 64.148438 C 359.375 64.148438 358.414062 63.757812 357.6875 62.980469 C 356.964844 62.199219 356.597656 61.082031 356.597656 59.625 C 356.597656 58.683594 356.757812 57.859375 357.066406 57.152344 C 357.382812 56.445312 357.855469 55.917969 358.492188 55.5625 C 359.128906 55.210938 359.824219 55.035156 360.574219 55.035156 C 361.519531 55.035156 362.296875 55.273438 362.894531 55.753906 C 363.5 56.234375 363.886719 56.910156 364.054688 57.792969 L 362.617188 58.015625 C 362.480469 57.429688 362.242188 56.992188 361.894531 56.691406 C 361.546875 56.398438 361.125 56.25 360.632812 56.25 C 359.886719 56.25 359.28125 56.515625 358.816406 57.050781 C 358.351562 57.585938 358.117188 58.429688 358.117188 59.582031 C 358.117188 60.753906 358.34375 61.605469 358.792969 62.136719 C 359.242188 62.667969 359.828125 62.933594 360.550781 62.933594 C 361.128906 62.933594 361.613281 62.753906 362.003906 62.398438 C 362.390625 62.042969 362.636719 61.496094 362.742188 60.757812 "/>
<path style=" stroke:none;fill-rule:nonzero;fill:rgb(13.729858%,12.159729%,12.548828%);fill-opacity:1;" d="M 365.425781 63.953125 L 365.425781 51.914062 L 366.902344 51.914062 L 366.902344 63.953125 L 365.425781 63.953125 "/>
<path style=" stroke:none;fill-rule:nonzero;fill:rgb(13.729858%,12.159729%,12.548828%);fill-opacity:1;" d="M 374.886719 62.875 C 374.335938 63.339844 373.808594 63.667969 373.304688 63.863281 C 372.796875 64.050781 372.253906 64.148438 371.671875 64.148438 C 370.714844 64.148438 369.980469 63.914062 369.464844 63.445312 C 368.953125 62.980469 368.695312 62.378906 368.695312 61.652344 C 368.695312 61.226562 368.789062 60.835938 368.984375 60.480469 C 369.179688 60.128906 369.433594 59.847656 369.75 59.632812 C 370.066406 59.421875 370.417969 59.257812 370.8125 59.148438 C 371.101562 59.074219 371.539062 58.996094 372.125 58.925781 C 373.320312 58.785156 374.199219 58.617188 374.761719 58.417969 C 374.765625 58.214844 374.769531 58.085938 374.769531 58.03125 C 374.769531 57.429688 374.628906 57.003906 374.351562 56.761719 C 373.972656 56.425781 373.410156 56.257812 372.667969 56.257812 C 371.972656 56.257812 371.460938 56.378906 371.128906 56.625 C 370.796875 56.867188 370.550781 57.296875 370.394531 57.917969 L 368.949219 57.71875 C 369.082031 57.101562 369.296875 56.601562 369.597656 56.222656 C 369.898438 55.839844 370.332031 55.546875 370.902344 55.34375 C 371.472656 55.136719 372.128906 55.035156 372.882812 55.035156 C 373.625 55.035156 374.230469 55.125 374.695312 55.296875 C 375.160156 55.472656 375.5 55.691406 375.722656 55.960938 C 375.941406 56.226562 376.09375 56.558594 376.183594 56.964844 C 376.230469 57.21875 376.253906 57.671875 376.253906 58.328125 L 376.253906 60.296875 C 376.253906 61.671875 376.285156 62.542969 376.351562 62.902344 C 376.410156 63.265625 376.539062 63.617188 376.722656 63.953125 L 375.179688 63.953125 C 375.027344 63.644531 374.925781 63.289062 374.886719 62.875 Z M 374.761719 59.574219 C 374.222656 59.796875 373.417969 59.980469 372.347656 60.132812 C 371.742188 60.222656 371.308594 60.320312 371.058594 60.429688 C 370.808594 60.539062 370.613281 60.699219 370.476562 60.910156 C 370.339844 61.121094 370.269531 61.355469 370.269531 61.609375 C 370.269531 62.007812 370.421875 62.335938 370.71875 62.597656 C 371.015625 62.859375 371.453125 62.988281 372.027344 62.988281 C 372.59375 62.988281 373.101562 62.867188 373.546875 62.617188 C 373.988281 62.367188 374.316406 62.027344 374.523438 61.59375 C 374.683594 61.261719 374.761719 60.769531 374.761719 60.117188 L 374.761719 59.574219 "/>
<path style=" stroke:none;fill-rule:nonzero;fill:rgb(13.729858%,12.159729%,12.548828%);fill-opacity:1;" d="M 377.957031 61.347656 L 379.417969 61.117188 C 379.496094 61.703125 379.726562 62.152344 380.101562 62.464844 C 380.476562 62.777344 381 62.933594 381.675781 62.933594 C 382.351562 62.933594 382.859375 62.792969 383.183594 62.519531 C 383.511719 62.242188 383.679688 61.917969 383.679688 61.546875 C 383.679688 61.210938 383.535156 60.949219 383.242188 60.757812 C 383.039062 60.625 382.535156 60.460938 381.730469 60.257812 C 380.648438 59.984375 379.894531 59.746094 379.476562 59.546875 C 379.058594 59.347656 378.742188 59.070312 378.523438 58.714844 C 378.308594 58.363281 378.199219 57.972656 378.199219 57.546875 C 378.199219 57.160156 378.289062 56.800781 378.46875 56.46875 C 378.644531 56.136719 378.890625 55.859375 379.195312 55.640625 C 379.425781 55.472656 379.738281 55.328125 380.132812 55.210938 C 380.53125 55.09375 380.957031 55.035156 381.410156 55.035156 C 382.09375 55.035156 382.695312 55.136719 383.214844 55.332031 C 383.730469 55.527344 384.113281 55.792969 384.359375 56.128906 C 384.605469 56.46875 384.773438 56.917969 384.867188 57.480469 L 383.425781 57.679688 C 383.355469 57.230469 383.167969 56.882812 382.851562 56.628906 C 382.539062 56.375 382.09375 56.25 381.519531 56.25 C 380.839844 56.25 380.355469 56.363281 380.066406 56.585938 C 379.773438 56.8125 379.628906 57.074219 379.628906 57.375 C 379.628906 57.566406 379.691406 57.738281 379.8125 57.894531 C 379.933594 58.050781 380.121094 58.179688 380.378906 58.289062 C 380.527344 58.339844 380.960938 58.46875 381.683594 58.664062 C 382.730469 58.945312 383.457031 59.171875 383.871094 59.351562 C 384.285156 59.527344 384.609375 59.785156 384.84375 60.125 C 385.082031 60.464844 385.199219 60.886719 385.199219 61.390625 C 385.199219 61.882812 385.050781 62.34375 384.765625 62.78125 C 384.476562 63.21875 384.0625 63.554688 383.523438 63.792969 C 382.980469 64.03125 382.367188 64.148438 381.683594 64.148438 C 380.546875 64.148438 379.6875 63.910156 379.089844 63.441406 C 378.496094 62.96875 378.117188 62.273438 377.957031 61.347656 "/>
<g clip-path="url(#clip1)" clip-rule="nonzero">
<path style=" stroke:none;fill-rule:nonzero;fill:rgb(13.729858%,12.159729%,12.548828%);fill-opacity:1;" d="M 386.363281 61.347656 L 387.824219 61.117188 C 387.90625 61.703125 388.132812 62.152344 388.511719 62.464844 C 388.882812 62.777344 389.40625 62.933594 390.082031 62.933594 C 390.761719 62.933594 391.265625 62.792969 391.59375 62.519531 C 391.921875 62.242188 392.085938 61.917969 392.085938 61.546875 C 392.085938 61.210938 391.941406 60.949219 391.648438 60.757812 C 391.445312 60.625 390.941406 60.460938 390.136719 60.257812 C 389.058594 59.984375 388.304688 59.746094 387.886719 59.546875 C 387.46875 59.347656 387.148438 59.070312 386.933594 58.714844 C 386.714844 58.363281 386.609375 57.972656 386.609375 57.546875 C 386.609375 57.160156 386.695312 56.800781 386.875 56.46875 C 387.054688 56.136719 387.296875 55.859375 387.601562 55.640625 C 387.832031 55.472656 388.144531 55.328125 388.542969 55.210938 C 388.9375 55.09375 389.363281 55.035156 389.820312 55.035156 C 390.503906 55.035156 391.101562 55.136719 391.621094 55.332031 C 392.140625 55.527344 392.519531 55.792969 392.765625 56.128906 C 393.011719 56.46875 393.183594 56.917969 393.273438 57.480469 L 391.832031 57.679688 C 391.765625 57.230469 391.574219 56.882812 391.257812 56.628906 C 390.945312 56.375 390.5 56.25 389.925781 56.25 C 389.246094 56.25 388.761719 56.363281 388.472656 56.585938 C 388.183594 56.8125 388.035156 57.074219 388.035156 57.375 C 388.035156 57.566406 388.097656 57.738281 388.21875 57.894531 C 388.339844 58.050781 388.527344 58.179688 388.785156 58.289062 C 388.933594 58.339844 389.367188 58.46875 390.089844 58.664062 C 391.136719 58.945312 391.863281 59.171875 392.277344 59.351562 C 392.691406 59.527344 393.015625 59.785156 393.253906 60.125 C 393.488281 60.464844 393.605469 60.886719 393.605469 61.390625 C 393.605469 61.882812 393.460938 62.34375 393.171875 62.78125 C 392.882812 63.21875 392.46875 63.554688 391.929688 63.792969 C 391.386719 64.03125 390.773438 64.148438 390.089844 64.148438 C 388.957031 64.148438 388.09375 63.910156 387.5 63.441406 C 386.90625 62.96875 386.527344 62.273438 386.363281 61.347656 "/>
</g>
<g clip-path="url(#clip2)" clip-rule="nonzero">
<path style="fill:none;stroke-width:39.9997;stroke-linecap:butt;stroke-linejoin:miter;stroke:rgb(13.729858%,12.159729%,12.548828%);stroke-opacity:1;stroke-miterlimit:22.9256;" d="M 8459.931846 1602.27176 L 10158.777543 1602.27176 L 10158.777543 143.325713 L 8459.931846 143.325713 Z M 8459.931846 1602.27176 " transform="matrix(0.038167,0,0,-0.038167,18.559,81.15)"/>
</g>
<path style=" stroke:none;fill-rule:nonzero;fill:rgb(13.729858%,12.159729%,12.548828%);fill-opacity:1;" d="M 219.761719 40.945312 L 221.355469 41.351562 C 221.023438 42.65625 220.417969 43.652344 219.554688 44.34375 C 218.683594 45.03125 217.625 45.371094 216.371094 45.371094 C 215.070312 45.371094 214.019531 45.109375 213.207031 44.582031 C 212.394531 44.050781 211.773438 43.285156 211.351562 42.285156 C 210.925781 41.28125 210.714844 40.207031 210.714844 39.058594 C 210.714844 37.804688 210.953125 36.710938 211.433594 35.777344 C 211.910156 34.847656 212.59375 34.136719 213.476562 33.652344 C 214.359375 33.167969 215.332031 32.925781 216.394531 32.925781 C 217.601562 32.925781 218.613281 33.230469 219.433594 33.84375 C 220.253906 34.460938 220.824219 35.320312 221.148438 36.433594 L 219.582031 36.800781 C 219.300781 35.925781 218.898438 35.289062 218.363281 34.886719 C 217.835938 34.488281 217.167969 34.289062 216.359375 34.289062 C 215.4375 34.289062 214.664062 34.507812 214.042969 34.953125 C 213.421875 35.398438 212.984375 35.992188 212.734375 36.738281 C 212.484375 37.484375 212.355469 38.257812 212.355469 39.050781 C 212.355469 40.074219 212.503906 40.964844 212.800781 41.730469 C 213.101562 42.492188 213.566406 43.066406 214.195312 43.445312 C 214.824219 43.820312 215.507812 44.007812 216.242188 44.007812 C 217.132812 44.007812 217.886719 43.75 218.503906 43.238281 C 219.125 42.722656 219.542969 41.957031 219.761719 40.945312 "/>
<path style=" stroke:none;fill-rule:nonzero;fill:rgb(13.729858%,12.159729%,12.548828%);fill-opacity:1;" d="M 226.230469 43.222656 L 226.230469 39.921875 L 222.957031 39.921875 L 222.957031 38.542969 L 226.230469 38.542969 L 226.230469 35.265625 L 227.625 35.265625 L 227.625 38.542969 L 230.902344 38.542969 L 230.902344 39.921875 L 227.625 39.921875 L 227.625 43.222656 L 226.230469 43.222656 "/>
<path style=" stroke:none;fill-rule:nonzero;fill:rgb(13.729858%,12.159729%,12.548828%);fill-opacity:1;" d="M 236.050781 43.222656 L 236.050781 39.921875 L 232.773438 39.921875 L 232.773438 38.542969 L 236.050781 38.542969 L 236.050781 35.265625 L 237.445312 35.265625 L 237.445312 38.542969 L 240.722656 38.542969 L 240.722656 39.921875 L 237.445312 39.921875 L 237.445312 43.222656 L 236.050781 43.222656 "/>
<path style=" stroke:none;fill-rule:nonzero;fill:rgb(13.729858%,12.159729%,12.548828%);fill-opacity:1;" d="M 216.675781 60.757812 L 218.125 60.949219 C 217.96875 61.949219 217.5625 62.730469 216.90625 63.296875 C 216.253906 63.863281 215.449219 64.148438 214.496094 64.148438 C 213.304688 64.148438 212.34375 63.757812 211.621094 62.980469 C 210.898438 62.199219 210.53125 61.082031 210.53125 59.625 C 210.53125 58.683594 210.6875 57.859375 211 57.152344 C 211.3125 56.445312 211.789062 55.917969 212.425781 55.5625 C 213.0625 55.210938 213.757812 55.035156 214.507812 55.035156 C 215.453125 55.035156 216.230469 55.273438 216.828125 55.753906 C 217.429688 56.234375 217.820312 56.910156 217.988281 57.792969 L 216.550781 58.015625 C 216.414062 57.429688 216.171875 56.992188 215.824219 56.691406 C 215.476562 56.398438 215.058594 56.25 214.566406 56.25 C 213.820312 56.25 213.214844 56.515625 212.75 57.050781 C 212.285156 57.585938 212.050781 58.429688 212.050781 59.582031 C 212.050781 60.753906 212.273438 61.605469 212.726562 62.136719 C 213.175781 62.667969 213.761719 62.933594 214.484375 62.933594 C 215.0625 62.933594 215.546875 62.753906 215.933594 62.398438 C 216.324219 62.042969 216.570312 61.496094 216.675781 60.757812 "/>
<path style=" stroke:none;fill-rule:nonzero;fill:rgb(13.729858%,12.159729%,12.548828%);fill-opacity:1;" d="M 219.359375 63.953125 L 219.359375 51.914062 L 220.835938 51.914062 L 220.835938 63.953125 L 219.359375 63.953125 "/>
<path style=" stroke:none;fill-rule:nonzero;fill:rgb(13.729858%,12.159729%,12.548828%);fill-opacity:1;" d="M 228.816406 62.875 C 228.269531 63.339844 227.742188 63.667969 227.238281 63.863281 C 226.730469 64.050781 226.1875 64.148438 225.605469 64.148438 C 224.648438 64.148438 223.914062 63.914062 223.398438 63.445312 C 222.886719 62.980469 222.628906 62.378906 222.628906 61.652344 C 222.628906 61.226562 222.722656 60.835938 222.917969 60.480469 C 223.113281 60.128906 223.367188 59.847656 223.679688 59.632812 C 223.996094 59.421875 224.351562 59.257812 224.746094 59.148438 C 225.035156 59.074219 225.472656 58.996094 226.058594 58.925781 C 227.25 58.785156 228.132812 58.617188 228.695312 58.417969 C 228.699219 58.214844 228.703125 58.085938 228.703125 58.03125 C 228.703125 57.429688 228.5625 57.003906 228.28125 56.761719 C 227.90625 56.425781 227.34375 56.257812 226.601562 56.257812 C 225.90625 56.257812 225.394531 56.378906 225.058594 56.625 C 224.730469 56.867188 224.484375 57.296875 224.324219 57.917969 L 222.882812 57.71875 C 223.015625 57.101562 223.230469 56.601562 223.53125 56.222656 C 223.828125 55.839844 224.265625 55.546875 224.835938 55.34375 C 225.402344 55.136719 226.0625 55.035156 226.8125 55.035156 C 227.558594 55.035156 228.160156 55.125 228.628906 55.296875 C 229.09375 55.472656 229.433594 55.691406 229.65625 55.960938 C 229.875 56.226562 230.027344 56.558594 230.117188 56.964844 C 230.164062 57.21875 230.1875 57.671875 230.1875 58.328125 L 230.1875 60.296875 C 230.1875 61.671875 230.21875 62.542969 230.285156 62.902344 C 230.34375 63.265625 230.472656 63.617188 230.65625 63.953125 L 229.113281 63.953125 C 228.960938 63.644531 228.859375 63.289062 228.816406 62.875 Z M 228.695312 59.574219 C 228.15625 59.796875 227.351562 59.980469 226.28125 60.132812 C 225.671875 60.222656 225.242188 60.320312 224.992188 60.429688 C 224.738281 60.539062 224.542969 60.699219 224.410156 60.910156 C 224.273438 61.121094 224.203125 61.355469 224.203125 61.609375 C 224.203125 62.007812 224.355469 62.335938 224.652344 62.597656 C 224.949219 62.859375 225.386719 62.988281 225.960938 62.988281 C 226.527344 62.988281 227.035156 62.867188 227.476562 62.617188 C 227.921875 62.367188 228.25 62.027344 228.457031 61.59375 C 228.617188 61.261719 228.695312 60.769531 228.695312 60.117188 L 228.695312 59.574219 "/>
<path style=" stroke:none;fill-rule:nonzero;fill:rgb(13.729858%,12.159729%,12.548828%);fill-opacity:1;" d="M 231.890625 61.347656 L 233.347656 61.117188 C 233.429688 61.703125 233.660156 62.152344 234.035156 62.464844 C 234.410156 62.777344 234.933594 62.933594 235.609375 62.933594 C 236.285156 62.933594 236.789062 62.792969 237.117188 62.519531 C 237.445312 62.242188 237.613281 61.917969 237.613281 61.546875 C 237.613281 61.210938 237.464844 60.949219 237.175781 60.757812 C 236.972656 60.625 236.46875 60.460938 235.664062 60.257812 C 234.582031 59.984375 233.828125 59.746094 233.410156 59.546875 C 232.992188 59.347656 232.675781 59.070312 232.457031 58.714844 C 232.242188 58.363281 232.132812 57.972656 232.132812 57.546875 C 232.132812 57.160156 232.222656 56.800781 232.402344 56.46875 C 232.578125 56.136719 232.824219 55.859375 233.128906 55.640625 C 233.359375 55.472656 233.671875 55.328125 234.066406 55.210938 C 234.464844 55.09375 234.890625 55.035156 235.34375 55.035156 C 236.027344 55.035156 236.628906 55.136719 237.144531 55.332031 C 237.664062 55.527344 238.046875 55.792969 238.292969 56.128906 C 238.539062 56.46875 238.707031 56.917969 238.800781 57.480469 L 237.355469 57.679688 C 237.289062 57.230469 237.097656 56.882812 236.785156 56.628906 C 236.472656 56.375 236.027344 56.25 235.449219 56.25 C 234.773438 56.25 234.289062 56.363281 234 56.585938 C 233.707031 56.8125 233.5625 57.074219 233.5625 57.375 C 233.5625 57.566406 233.625 57.738281 233.746094 57.894531 C 233.863281 58.050781 234.050781 58.179688 234.3125 58.289062 C 234.460938 58.339844 234.894531 58.46875 235.617188 58.664062 C 236.660156 58.945312 237.390625 59.171875 237.800781 59.351562 C 238.21875 59.527344 238.542969 59.785156 238.777344 60.125 C 239.011719 60.464844 239.128906 60.886719 239.128906 61.390625 C 239.128906 61.882812 238.984375 62.34375 238.699219 62.78125 C 238.410156 63.21875 237.996094 63.554688 237.453125 63.792969 C 236.914062 64.03125 236.300781 64.148438 235.617188 64.148438 C 234.480469 64.148438 233.617188 63.910156 233.023438 63.441406 C 232.429688 62.96875 232.050781 62.273438 231.890625 61.347656 "/>
<path style=" stroke:none;fill-rule:nonzero;fill:rgb(13.729858%,12.159729%,12.548828%);fill-opacity:1;" d="M 240.296875 61.347656 L 241.757812 61.117188 C 241.835938 61.703125 242.066406 62.152344 242.441406 62.464844 C 242.816406 62.777344 243.339844 62.933594 244.015625 62.933594 C 244.695312 62.933594 245.199219 62.792969 245.527344 62.519531 C 245.855469 62.242188 246.019531 61.917969 246.019531 61.546875 C 246.019531 61.210938 245.875 60.949219 245.582031 60.757812 C 245.378906 60.625 244.875 60.460938 244.070312 60.257812 C 242.988281 59.984375 242.234375 59.746094 241.820312 59.546875 C 241.402344 59.347656 241.082031 59.070312 240.867188 58.714844 C 240.648438 58.363281 240.539062 57.972656 240.539062 57.546875 C 240.539062 57.160156 240.628906 56.800781 240.808594 56.46875 C 240.984375 56.136719 241.230469 55.859375 241.535156 55.640625 C 241.765625 55.472656 242.078125 55.328125 242.472656 55.210938 C 242.871094 55.09375 243.296875 55.035156 243.75 55.035156 C 244.433594 55.035156 245.035156 55.136719 245.554688 55.332031 C 246.070312 55.527344 246.453125 55.792969 246.699219 56.128906 C 246.945312 56.46875 247.113281 56.917969 247.207031 57.480469 L 245.765625 57.679688 C 245.695312 57.230469 245.507812 56.882812 245.191406 56.628906 C 244.878906 56.375 244.433594 56.25 243.859375 56.25 C 243.179688 56.25 242.695312 56.363281 242.40625 56.585938 C 242.117188 56.8125 241.96875 57.074219 241.96875 57.375 C 241.96875 57.566406 242.03125 57.738281 242.152344 57.894531 C 242.273438 58.050781 242.460938 58.179688 242.71875 58.289062 C 242.867188 58.339844 243.300781 58.46875 244.023438 58.664062 C 245.070312 58.945312 245.796875 59.171875 246.210938 59.351562 C 246.625 59.527344 246.949219 59.785156 247.183594 60.125 C 247.421875 60.464844 247.539062 60.886719 247.539062 61.390625 C 247.539062 61.882812 247.390625 62.34375 247.105469 62.78125 C 246.816406 63.21875 246.402344 63.554688 245.863281 63.792969 C 245.320312 64.03125 244.707031 64.148438 244.023438 64.148438 C 242.886719 64.148438 242.027344 63.910156 241.429688 63.441406 C 240.835938 62.96875 240.457031 62.273438 240.296875 61.347656 "/>
<path style="fill:none;stroke-width:39.9997;stroke-linecap:butt;stroke-linejoin:miter;stroke:rgb(13.729858%,12.159729%,12.548828%);stroke-opacity:1;stroke-miterlimit:22.9256;" d="M 4632.897857 1602.27176 L 6331.743555 1602.27176 L 6331.743555 143.325713 L 4632.897857 143.325713 Z M 4632.897857 1602.27176 " transform="matrix(0.038167,0,0,-0.038167,18.559,81.15)"/>
<path style="fill:none;stroke-width:79.9994;stroke-linecap:butt;stroke-linejoin:miter;stroke:rgb(13.729858%,12.159729%,12.548828%);stroke-opacity:1;stroke-miterlimit:22.9256;" d="M 6353.236271 1188.588146 L 8001.31822 1188.588146 " transform="matrix(0.038167,0,0,-0.038167,18.559,81.15)"/>
<path style=" stroke:none;fill-rule:evenodd;fill:rgb(13.729858%,12.159729%,12.548828%);fill-opacity:1;" d="M 341.660156 35.785156 L 322.964844 26.441406 L 322.964844 45.136719 Z M 341.660156 35.785156 "/>
<path style="fill:none;stroke-width:79.9994;stroke-linecap:butt;stroke-linejoin:miter;stroke:rgb(13.729858%,12.159729%,12.548828%);stroke-opacity:1;stroke-miterlimit:22.9256;" d="M 2640.420717 1188.588146 L 4157.908828 1188.588146 " transform="matrix(0.038167,0,0,-0.038167,18.559,81.15)"/>
<path style=" stroke:none;fill-rule:evenodd;fill:rgb(13.729858%,12.159729%,12.548828%);fill-opacity:1;" d="M 194.96875 35.785156 L 176.277344 26.441406 L 176.277344 45.136719 Z M 194.96875 35.785156 "/>
<path style="fill:none;stroke-width:79.9994;stroke-linecap:butt;stroke-linejoin:miter;stroke:rgb(13.729858%,12.159729%,12.548828%);stroke-opacity:1;stroke-miterlimit:22.9256;" d="M 8453.79107 600.608837 L 6817.274249 600.608837 " transform="matrix(0.038167,0,0,-0.038167,18.559,81.15)"/>
<path style=" stroke:none;fill-rule:evenodd;fill:rgb(13.729858%,12.159729%,12.548828%);fill-opacity:1;" d="M 261.035156 58.226562 L 279.730469 67.570312 L 279.730469 48.875 Z M 261.035156 58.226562 "/>
<path style="fill:none;stroke-width:79.9994;stroke-linecap:butt;stroke-linejoin:miter;stroke:rgb(13.729858%,12.159729%,12.548828%);stroke-opacity:1;stroke-miterlimit:22.9256;" d="M 4622.049152 600.608837 L 3115.409745 600.608837 " transform="matrix(0.038167,0,0,-0.038167,18.559,81.15)"/>
<path style=" stroke:none;fill-rule:evenodd;fill:rgb(13.729858%,12.159729%,12.548828%);fill-opacity:1;" d="M 119.75 58.226562 L 138.441406 67.570312 L 138.441406 48.875 Z M 119.75 58.226562 "/>
<path style=" stroke:none;fill-rule:nonzero;fill:rgb(13.729858%,12.159729%,12.548828%);fill-opacity:1;" d="M 266.453125 78.539062 L 267.644531 78.351562 C 267.710938 78.828125 267.898438 79.195312 268.207031 79.453125 C 268.511719 79.707031 268.9375 79.835938 269.488281 79.835938 C 270.042969 79.835938 270.457031 79.71875 270.722656 79.496094 C 270.992188 79.269531 271.128906 79.003906 271.128906 78.699219 C 271.128906 78.425781 271.007812 78.214844 270.769531 78.054688 C 270.605469 77.949219 270.191406 77.8125 269.535156 77.648438 C 268.652344 77.421875 268.035156 77.230469 267.695312 77.066406 C 267.355469 76.902344 267.09375 76.675781 266.917969 76.386719 C 266.738281 76.097656 266.652344 75.78125 266.652344 75.433594 C 266.652344 75.113281 266.722656 74.820312 266.871094 74.550781 C 267.015625 74.277344 267.214844 74.054688 267.464844 73.875 C 267.652344 73.738281 267.90625 73.621094 268.230469 73.523438 C 268.554688 73.425781 268.902344 73.378906 269.273438 73.378906 C 269.832031 73.378906 270.324219 73.460938 270.746094 73.621094 C 271.171875 73.78125 271.484375 74 271.683594 74.273438 C 271.886719 74.550781 272.023438 74.917969 272.097656 75.378906 L 270.917969 75.539062 C 270.863281 75.175781 270.707031 74.886719 270.453125 74.683594 C 270.195312 74.476562 269.832031 74.371094 269.363281 74.371094 C 268.808594 74.371094 268.410156 74.464844 268.175781 74.648438 C 267.9375 74.832031 267.820312 75.046875 267.820312 75.292969 C 267.820312 75.449219 267.867188 75.589844 267.96875 75.714844 C 268.066406 75.84375 268.21875 75.949219 268.429688 76.039062 C 268.550781 76.082031 268.90625 76.183594 269.496094 76.34375 C 270.351562 76.574219 270.945312 76.757812 271.285156 76.90625 C 271.621094 77.050781 271.886719 77.261719 272.082031 77.539062 C 272.273438 77.816406 272.367188 78.160156 272.367188 78.574219 C 272.367188 78.976562 272.25 79.355469 272.015625 79.710938 C 271.78125 80.066406 271.441406 80.339844 271 80.535156 C 270.558594 80.730469 270.054688 80.828125 269.496094 80.828125 C 268.570312 80.828125 267.863281 80.632812 267.378906 80.25 C 266.894531 79.863281 266.585938 79.292969 266.453125 78.539062 "/>
<path style=" stroke:none;fill-rule:nonzero;fill:rgb(13.729858%,12.159729%,12.548828%);fill-opacity:1;" d="M 278.679688 78.371094 L 279.929688 78.523438 C 279.730469 79.253906 279.367188 79.820312 278.835938 80.222656 C 278.300781 80.625 277.621094 80.828125 276.796875 80.828125 C 275.753906 80.828125 274.925781 80.503906 274.316406 79.863281 C 273.707031 79.222656 273.402344 78.324219 273.402344 77.164062 C 273.402344 75.964844 273.710938 75.035156 274.328125 74.371094 C 274.945312 73.710938 275.746094 73.378906 276.730469 73.378906 C 277.679688 73.378906 278.460938 73.703125 279.0625 74.351562 C 279.667969 75 279.96875 75.914062 279.96875 77.089844 C 279.96875 77.164062 279.96875 77.269531 279.960938 77.410156 L 274.648438 77.410156 C 274.691406 78.195312 274.914062 78.796875 275.3125 79.210938 C 275.710938 79.625 276.207031 79.835938 276.800781 79.835938 C 277.246094 79.835938 277.621094 79.71875 277.9375 79.484375 C 278.25 79.253906 278.496094 78.882812 278.679688 78.371094 Z M 274.714844 76.417969 L 278.695312 76.417969 C 278.640625 75.820312 278.488281 75.367188 278.238281 75.070312 C 277.851562 74.605469 277.355469 74.371094 276.742188 74.371094 C 276.1875 74.371094 275.722656 74.558594 275.34375 74.929688 C 274.964844 75.300781 274.757812 75.796875 274.714844 76.417969 "/>
<path style=" stroke:none;fill-rule:nonzero;fill:rgb(13.729858%,12.159729%,12.548828%);fill-opacity:1;" d="M 284.082031 79.585938 L 284.257812 80.652344 C 283.917969 80.722656 283.613281 80.761719 283.34375 80.761719 C 282.90625 80.761719 282.566406 80.691406 282.324219 80.550781 C 282.082031 80.414062 281.914062 80.230469 281.816406 80.003906 C 281.714844 79.78125 281.667969 79.304688 281.667969 78.578125 L 281.667969 74.480469 L 280.78125 74.480469 L 280.78125 73.542969 L 281.667969 73.542969 L 281.667969 71.777344 L 282.867188 71.050781 L 282.867188 73.542969 L 284.082031 73.542969 L 284.082031 74.480469 L 282.867188 74.480469 L 282.867188 78.644531 C 282.867188 78.992188 282.890625 79.210938 282.929688 79.308594 C 282.972656 79.410156 283.042969 79.488281 283.140625 79.546875 C 283.234375 79.601562 283.371094 79.632812 283.550781 79.632812 C 283.6875 79.632812 283.863281 79.617188 284.082031 79.585938 "/>
<path style=" stroke:none;fill-rule:nonzero;fill:rgb(13.729858%,12.159729%,12.548828%);fill-opacity:1;" d="M 287.898438 79.585938 L 288.074219 80.652344 C 287.734375 80.722656 287.429688 80.761719 287.164062 80.761719 C 286.722656 80.761719 286.382812 80.691406 286.140625 80.550781 C 285.902344 80.414062 285.730469 80.230469 285.632812 80.003906 C 285.535156 79.78125 285.484375 79.304688 285.484375 78.578125 L 285.484375 74.480469 L 284.597656 74.480469 L 284.597656 73.542969 L 285.484375 73.542969 L 285.484375 71.777344 L 286.6875 71.050781 L 286.6875 73.542969 L 287.898438 73.542969 L 287.898438 74.480469 L 286.6875 74.480469 L 286.6875 78.644531 C 286.6875 78.992188 286.707031 79.210938 286.746094 79.308594 C 286.792969 79.410156 286.859375 79.488281 286.957031 79.546875 C 287.050781 79.601562 287.191406 79.632812 287.367188 79.632812 C 287.503906 79.632812 287.679688 79.617188 287.898438 79.585938 "/>
<path style=" stroke:none;fill-rule:nonzero;fill:rgb(13.729858%,12.159729%,12.548828%);fill-opacity:1;" d="M 293.957031 78.371094 L 295.203125 78.523438 C 295.007812 79.253906 294.644531 79.820312 294.113281 80.222656 C 293.578125 80.625 292.898438 80.828125 292.070312 80.828125 C 291.03125 80.828125 290.203125 80.503906 289.59375 79.863281 C 288.984375 79.222656 288.679688 78.324219 288.679688 77.164062 C 288.679688 75.964844 288.988281 75.035156 289.601562 74.371094 C 290.222656 73.710938 291.019531 73.378906 292.003906 73.378906 C 292.957031 73.378906 293.738281 73.703125 294.339844 74.351562 C 294.945312 75 295.246094 75.914062 295.246094 77.089844 C 295.246094 77.164062 295.242188 77.269531 295.238281 77.410156 L 289.925781 77.410156 C 289.96875 78.195312 290.191406 78.796875 290.589844 79.210938 C 290.988281 79.625 291.484375 79.835938 292.078125 79.835938 C 292.519531 79.835938 292.898438 79.71875 293.214844 79.484375 C 293.527344 79.253906 293.773438 78.882812 293.957031 78.371094 Z M 289.992188 76.417969 L 293.96875 76.417969 C 293.917969 75.820312 293.765625 75.367188 293.515625 75.070312 C 293.128906 74.605469 292.632812 74.371094 292.019531 74.371094 C 291.464844 74.371094 291 74.558594 290.621094 74.929688 C 290.242188 75.300781 290.035156 75.796875 289.992188 76.417969 "/>
<path style=" stroke:none;fill-rule:nonzero;fill:rgb(13.729858%,12.159729%,12.548828%);fill-opacity:1;" d="M 296.710938 80.664062 L 296.710938 73.542969 L 297.792969 73.542969 L 297.792969 74.621094 C 298.070312 74.117188 298.328125 73.78125 298.5625 73.621094 C 298.796875 73.460938 299.058594 73.378906 299.339844 73.378906 C 299.746094 73.378906 300.15625 73.507812 300.578125 73.769531 L 300.164062 74.890625 C 299.871094 74.714844 299.574219 74.628906 299.277344 74.628906 C 299.011719 74.628906 298.777344 74.707031 298.566406 74.867188 C 298.355469 75.027344 298.207031 75.246094 298.117188 75.527344 C 297.984375 75.957031 297.917969 76.425781 297.917969 76.933594 L 297.917969 80.664062 L 296.710938 80.664062 "/>
<path style=" stroke:none;fill-rule:nonzero;fill:rgb(13.729858%,12.159729%,12.548828%);fill-opacity:1;" d="M 300.816406 78.539062 L 302.007812 78.351562 C 302.074219 78.828125 302.261719 79.195312 302.570312 79.453125 C 302.875 79.707031 303.300781 79.835938 303.855469 79.835938 C 304.410156 79.835938 304.820312 79.71875 305.089844 79.496094 C 305.355469 79.269531 305.492188 79.003906 305.492188 78.699219 C 305.492188 78.425781 305.371094 78.214844 305.132812 78.054688 C 304.96875 77.949219 304.558594 77.8125 303.898438 77.648438 C 303.015625 77.421875 302.398438 77.230469 302.058594 77.066406 C 301.71875 76.902344 301.457031 76.675781 301.28125 76.386719 C 301.105469 76.097656 301.015625 75.78125 301.015625 75.433594 C 301.015625 75.113281 301.089844 74.820312 301.234375 74.550781 C 301.378906 74.277344 301.578125 74.054688 301.828125 73.875 C 302.015625 73.738281 302.273438 73.621094 302.59375 73.523438 C 302.921875 73.425781 303.269531 73.378906 303.640625 73.378906 C 304.199219 73.378906 304.6875 73.460938 305.113281 73.621094 C 305.535156 73.78125 305.847656 74 306.046875 74.273438 C 306.25 74.550781 306.386719 74.917969 306.460938 75.378906 L 305.285156 75.539062 C 305.226562 75.175781 305.074219 74.886719 304.816406 74.683594 C 304.558594 74.476562 304.195312 74.371094 303.726562 74.371094 C 303.171875 74.371094 302.777344 74.464844 302.539062 74.648438 C 302.300781 74.832031 302.183594 75.046875 302.183594 75.292969 C 302.183594 75.449219 302.234375 75.589844 302.332031 75.714844 C 302.429688 75.84375 302.582031 75.949219 302.792969 76.039062 C 302.914062 76.082031 303.269531 76.183594 303.863281 76.34375 C 304.714844 76.574219 305.3125 76.757812 305.648438 76.90625 C 305.984375 77.050781 306.253906 77.261719 306.445312 77.539062 C 306.636719 77.816406 306.734375 78.160156 306.734375 78.574219 C 306.734375 78.976562 306.613281 79.355469 306.378906 79.710938 C 306.144531 80.066406 305.804688 80.339844 305.363281 80.535156 C 304.921875 80.730469 304.417969 80.828125 303.863281 80.828125 C 302.933594 80.828125 302.226562 80.632812 301.742188 80.25 C 301.257812 79.863281 300.949219 79.292969 300.816406 78.539062 "/>
<path style=" stroke:none;fill-rule:nonzero;fill:rgb(13.729858%,12.159729%,12.548828%);fill-opacity:1;" d="M 269.796875 28.484375 L 270.980469 28.640625 C 270.855469 29.457031 270.523438 30.097656 269.984375 30.558594 C 269.453125 31.023438 268.796875 31.253906 268.015625 31.253906 C 267.042969 31.253906 266.257812 30.9375 265.667969 30.300781 C 265.074219 29.664062 264.777344 28.75 264.777344 27.558594 C 264.777344 26.789062 264.90625 26.117188 265.160156 25.539062 C 265.414062 24.960938 265.800781 24.527344 266.324219 24.238281 C 266.84375 23.953125 267.410156 23.808594 268.023438 23.808594 C 268.796875 23.808594 269.433594 24.003906 269.921875 24.394531 C 270.414062 24.789062 270.730469 25.339844 270.871094 26.0625 L 269.695312 26.242188 C 269.582031 25.765625 269.386719 25.40625 269.101562 25.164062 C 268.816406 24.921875 268.472656 24.800781 268.070312 24.800781 C 267.460938 24.800781 266.96875 25.019531 266.585938 25.457031 C 266.207031 25.890625 266.015625 26.582031 266.015625 27.523438 C 266.015625 28.480469 266.199219 29.175781 266.570312 29.613281 C 266.9375 30.046875 267.414062 30.261719 268.003906 30.261719 C 268.480469 30.261719 268.875 30.117188 269.191406 29.824219 C 269.507812 29.535156 269.710938 29.089844 269.796875 28.484375 "/>
<path style=" stroke:none;fill-rule:nonzero;fill:rgb(13.729858%,12.159729%,12.548828%);fill-opacity:1;" d="M 276.664062 30.214844 C 276.21875 30.59375 275.785156 30.863281 275.375 31.019531 C 274.960938 31.175781 274.515625 31.253906 274.042969 31.253906 C 273.257812 31.253906 272.660156 31.0625 272.238281 30.683594 C 271.816406 30.300781 271.605469 29.808594 271.605469 29.214844 C 271.605469 28.867188 271.683594 28.546875 271.84375 28.257812 C 272.003906 27.96875 272.210938 27.738281 272.46875 27.566406 C 272.726562 27.390625 273.015625 27.257812 273.339844 27.167969 C 273.574219 27.105469 273.933594 27.046875 274.410156 26.988281 C 275.386719 26.871094 276.105469 26.734375 276.566406 26.570312 C 276.570312 26.40625 276.570312 26.300781 276.570312 26.257812 C 276.570312 25.765625 276.457031 25.417969 276.230469 25.21875 C 275.921875 24.941406 275.460938 24.808594 274.855469 24.808594 C 274.285156 24.808594 273.867188 24.90625 273.59375 25.105469 C 273.324219 25.304688 273.125 25.65625 272.996094 26.164062 L 271.816406 26 C 271.921875 25.496094 272.101562 25.085938 272.34375 24.777344 C 272.589844 24.464844 272.945312 24.226562 273.410156 24.058594 C 273.875 23.890625 274.414062 23.808594 275.027344 23.808594 C 275.636719 23.808594 276.128906 23.878906 276.511719 24.023438 C 276.890625 24.167969 277.167969 24.34375 277.351562 24.5625 C 277.527344 24.78125 277.652344 25.054688 277.726562 25.386719 C 277.765625 25.589844 277.785156 25.960938 277.785156 26.496094 L 277.785156 28.109375 C 277.785156 29.230469 277.8125 29.941406 277.863281 30.238281 C 277.914062 30.535156 278.015625 30.820312 278.167969 31.09375 L 276.90625 31.09375 C 276.78125 30.84375 276.699219 30.550781 276.664062 30.214844 Z M 276.566406 27.515625 C 276.125 27.699219 275.46875 27.847656 274.59375 27.976562 C 274.097656 28.046875 273.742188 28.125 273.539062 28.214844 C 273.335938 28.304688 273.171875 28.433594 273.0625 28.609375 C 272.953125 28.78125 272.894531 28.972656 272.894531 29.183594 C 272.894531 29.503906 273.019531 29.773438 273.261719 29.988281 C 273.503906 30.199219 273.859375 30.308594 274.328125 30.308594 C 274.796875 30.308594 275.210938 30.207031 275.570312 30.003906 C 275.933594 29.800781 276.199219 29.519531 276.371094 29.167969 C 276.5 28.894531 276.566406 28.492188 276.566406 27.960938 L 276.566406 27.515625 "/>
<path style=" stroke:none;fill-rule:nonzero;fill:rgb(13.729858%,12.159729%,12.548828%);fill-opacity:1;" d="M 279.632812 31.09375 L 279.632812 21.257812 L 280.839844 21.257812 L 280.839844 31.09375 L 279.632812 31.09375 "/>
<path style=" stroke:none;fill-rule:nonzero;fill:rgb(13.729858%,12.159729%,12.548828%);fill-opacity:1;" d="M 282.683594 31.09375 L 282.683594 21.257812 L 283.890625 21.257812 L 283.890625 31.09375 L 282.683594 31.09375 "/>
<path style=" stroke:none;fill-rule:nonzero;fill:rgb(13.729858%,12.159729%,12.548828%);fill-opacity:1;" d="M 286.878906 31.09375 L 285.757812 31.09375 L 285.757812 21.257812 L 286.964844 21.257812 L 286.964844 24.765625 C 287.476562 24.128906 288.125 23.808594 288.914062 23.808594 C 289.355469 23.808594 289.769531 23.894531 290.160156 24.074219 C 290.550781 24.25 290.871094 24.5 291.128906 24.816406 C 291.378906 25.136719 291.578125 25.523438 291.71875 25.976562 C 291.863281 26.425781 291.933594 26.910156 291.933594 27.421875 C 291.933594 28.644531 291.632812 29.589844 291.027344 30.253906 C 290.425781 30.921875 289.699219 31.253906 288.855469 31.253906 C 288.015625 31.253906 287.355469 30.902344 286.878906 30.199219 Z M 286.863281 27.476562 C 286.863281 28.332031 286.980469 28.949219 287.210938 29.328125 C 287.589844 29.953125 288.105469 30.261719 288.753906 30.261719 C 289.285156 30.261719 289.738281 30.035156 290.125 29.574219 C 290.507812 29.117188 290.699219 28.433594 290.699219 27.523438 C 290.699219 26.59375 290.515625 25.90625 290.148438 25.464844 C 289.777344 25.023438 289.332031 24.800781 288.808594 24.800781 C 288.28125 24.800781 287.824219 25.03125 287.441406 25.488281 C 287.054688 25.945312 286.863281 26.609375 286.863281 27.476562 "/>
<path style=" stroke:none;fill-rule:nonzero;fill:rgb(13.729858%,12.159729%,12.548828%);fill-opacity:1;" d="M 298.054688 30.214844 C 297.605469 30.59375 297.175781 30.863281 296.761719 31.019531 C 296.347656 31.175781 295.90625 31.253906 295.429688 31.253906 C 294.648438 31.253906 294.046875 31.0625 293.625 30.683594 C 293.207031 30.300781 292.996094 29.808594 292.996094 29.214844 C 292.996094 28.867188 293.074219 28.546875 293.234375 28.257812 C 293.390625 27.96875 293.601562 27.738281 293.855469 27.566406 C 294.117188 27.390625 294.402344 27.257812 294.726562 27.167969 C 294.960938 27.105469 295.320312 27.046875 295.796875 26.988281 C 296.773438 26.871094 297.492188 26.734375 297.953125 26.570312 C 297.957031 26.40625 297.960938 26.300781 297.960938 26.257812 C 297.960938 25.765625 297.847656 25.417969 297.617188 25.21875 C 297.308594 24.941406 296.851562 24.808594 296.242188 24.808594 C 295.675781 24.808594 295.257812 24.90625 294.984375 25.105469 C 294.714844 25.304688 294.515625 25.65625 294.382812 26.164062 L 293.203125 26 C 293.3125 25.496094 293.488281 25.085938 293.734375 24.777344 C 293.976562 24.464844 294.335938 24.226562 294.800781 24.058594 C 295.265625 23.890625 295.804688 23.808594 296.417969 23.808594 C 297.027344 23.808594 297.519531 23.878906 297.898438 24.023438 C 298.277344 24.167969 298.558594 24.34375 298.738281 24.5625 C 298.917969 24.78125 299.042969 25.054688 299.113281 25.386719 C 299.152344 25.589844 299.175781 25.960938 299.175781 26.496094 L 299.175781 28.109375 C 299.175781 29.230469 299.199219 29.941406 299.253906 30.238281 C 299.300781 30.535156 299.40625 30.820312 299.558594 31.09375 L 298.296875 31.09375 C 298.171875 30.84375 298.089844 30.550781 298.054688 30.214844 Z M 297.953125 27.515625 C 297.515625 27.699219 296.855469 27.847656 295.980469 27.976562 C 295.484375 28.046875 295.132812 28.125 294.929688 28.214844 C 294.722656 28.304688 294.5625 28.433594 294.453125 28.609375 C 294.339844 28.78125 294.28125 28.972656 294.28125 29.183594 C 294.28125 29.503906 294.40625 29.773438 294.648438 29.988281 C 294.890625 30.199219 295.25 30.308594 295.71875 30.308594 C 296.183594 30.308594 296.597656 30.207031 296.960938 30.003906 C 297.320312 29.800781 297.589844 29.519531 297.757812 29.167969 C 297.890625 28.894531 297.953125 28.492188 297.953125 27.960938 L 297.953125 27.515625 "/>
<path style=" stroke:none;fill-rule:nonzero;fill:rgb(13.729858%,12.159729%,12.548828%);fill-opacity:1;" d="M 305.695312 28.484375 L 306.882812 28.640625 C 306.753906 29.457031 306.421875 30.097656 305.886719 30.558594 C 305.351562 31.023438 304.695312 31.253906 303.917969 31.253906 C 302.945312 31.253906 302.15625 30.9375 301.566406 30.300781 C 300.972656 29.664062 300.675781 28.75 300.675781 27.558594 C 300.675781 26.789062 300.804688 26.117188 301.058594 25.539062 C 301.316406 24.960938 301.703125 24.527344 302.222656 24.238281 C 302.746094 23.953125 303.3125 23.808594 303.921875 23.808594 C 304.699219 23.808594 305.332031 24.003906 305.820312 24.394531 C 306.316406 24.789062 306.628906 25.339844 306.769531 26.0625 L 305.59375 26.242188 C 305.484375 25.765625 305.285156 25.40625 305.003906 25.164062 C 304.71875 24.921875 304.375 24.800781 303.972656 24.800781 C 303.363281 24.800781 302.867188 25.019531 302.488281 25.457031 C 302.109375 25.890625 301.917969 26.582031 301.917969 27.523438 C 301.917969 28.480469 302.101562 29.175781 302.46875 29.613281 C 302.835938 30.046875 303.316406 30.261719 303.90625 30.261719 C 304.378906 30.261719 304.773438 30.117188 305.089844 29.824219 C 305.410156 29.535156 305.613281 29.089844 305.695312 28.484375 "/>
<path style=" stroke:none;fill-rule:nonzero;fill:rgb(13.729858%,12.159729%,12.548828%);fill-opacity:1;" d="M 307.921875 31.09375 L 307.921875 21.257812 L 309.132812 21.257812 L 309.132812 26.867188 L 311.988281 23.96875 L 313.550781 23.96875 L 310.828125 26.613281 L 313.828125 31.09375 L 312.335938 31.09375 L 309.984375 27.449219 L 309.132812 28.269531 L 309.132812 31.09375 L 307.921875 31.09375 "/>
<path style=" stroke:none;fill-rule:nonzero;fill:rgb(13.729858%,12.159729%,12.548828%);fill-opacity:1;" d="M 314.304688 28.964844 L 315.496094 28.777344 C 315.5625 29.257812 315.75 29.625 316.058594 29.878906 C 316.363281 30.132812 316.792969 30.261719 317.34375 30.261719 C 317.898438 30.261719 318.308594 30.148438 318.578125 29.921875 C 318.84375 29.695312 318.980469 29.433594 318.980469 29.128906 C 318.980469 28.855469 318.863281 28.640625 318.625 28.484375 C 318.457031 28.375 318.046875 28.242188 317.390625 28.074219 C 316.503906 27.851562 315.890625 27.660156 315.546875 27.492188 C 315.207031 27.332031 314.945312 27.105469 314.769531 26.816406 C 314.59375 26.527344 314.503906 26.210938 314.503906 25.859375 C 314.503906 25.542969 314.578125 25.25 314.722656 24.980469 C 314.867188 24.707031 315.066406 24.484375 315.316406 24.304688 C 315.503906 24.167969 315.761719 24.046875 316.082031 23.953125 C 316.410156 23.855469 316.757812 23.808594 317.128906 23.808594 C 317.6875 23.808594 318.175781 23.890625 318.601562 24.050781 C 319.023438 24.210938 319.335938 24.425781 319.535156 24.703125 C 319.738281 24.980469 319.875 25.347656 319.953125 25.804688 L 318.773438 25.96875 C 318.71875 25.601562 318.5625 25.316406 318.304688 25.109375 C 318.046875 24.902344 317.683594 24.800781 317.214844 24.800781 C 316.660156 24.800781 316.265625 24.894531 316.027344 25.074219 C 315.789062 25.257812 315.671875 25.472656 315.671875 25.71875 C 315.671875 25.878906 315.722656 26.015625 315.820312 26.144531 C 315.917969 26.273438 316.074219 26.378906 316.28125 26.464844 C 316.40625 26.507812 316.757812 26.613281 317.351562 26.773438 C 318.203125 27 318.800781 27.1875 319.136719 27.332031 C 319.476562 27.476562 319.742188 27.691406 319.933594 27.96875 C 320.125 28.246094 320.222656 28.589844 320.222656 29 C 320.222656 29.402344 320.101562 29.78125 319.871094 30.140625 C 319.632812 30.492188 319.292969 30.769531 318.851562 30.964844 C 318.410156 31.15625 317.910156 31.253906 317.351562 31.253906 C 316.421875 31.253906 315.71875 31.0625 315.230469 30.675781 C 314.746094 30.292969 314.4375 29.722656 314.304688 28.964844 "/>
<path style=" stroke:none;fill-rule:nonzero;fill:rgb(13.729858%,12.159729%,12.548828%);fill-opacity:1;" d="M 267.128906 15.0625 L 268.304688 15.238281 C 268.351562 15.597656 268.488281 15.863281 268.710938 16.027344 C 269.011719 16.25 269.421875 16.363281 269.9375 16.363281 C 270.5 16.363281 270.929688 16.25 271.234375 16.027344 C 271.539062 15.804688 271.742188 15.492188 271.851562 15.089844 C 271.914062 14.84375 271.941406 14.328125 271.9375 13.539062 C 271.410156 14.160156 270.753906 14.472656 269.964844 14.472656 C 268.984375 14.472656 268.226562 14.121094 267.691406 13.410156 C 267.15625 12.707031 266.886719 11.855469 266.886719 10.871094 C 266.886719 10.191406 267.007812 9.5625 267.253906 8.988281 C 267.5 8.414062 267.859375 7.96875 268.324219 7.65625 C 268.792969 7.34375 269.34375 7.183594 269.972656 7.183594 C 270.8125 7.183594 271.507812 7.527344 272.050781 8.207031 L 272.050781 7.347656 L 273.167969 7.347656 L 273.167969 13.503906 C 273.167969 14.613281 273.050781 15.402344 272.828125 15.863281 C 272.601562 16.328125 272.242188 16.691406 271.753906 16.960938 C 271.265625 17.230469 270.660156 17.363281 269.945312 17.363281 C 269.09375 17.363281 268.40625 17.171875 267.886719 16.789062 C 267.363281 16.40625 267.109375 15.832031 267.128906 15.0625 Z M 268.125 10.78125 C 268.125 11.71875 268.3125 12.398438 268.683594 12.828125 C 269.054688 13.257812 269.519531 13.472656 270.078125 13.472656 C 270.632812 13.472656 271.097656 13.257812 271.472656 12.832031 C 271.851562 12.402344 272.039062 11.734375 272.039062 10.820312 C 272.039062 9.949219 271.84375 9.292969 271.457031 8.851562 C 271.070312 8.40625 270.605469 8.1875 270.058594 8.1875 C 269.523438 8.1875 269.066406 8.402344 268.691406 8.839844 C 268.3125 9.277344 268.125 9.925781 268.125 10.78125 "/>
<path style=" stroke:none;fill-rule:nonzero;fill:rgb(13.729858%,12.159729%,12.548828%);fill-opacity:1;" d="M 279.867188 12.175781 L 281.117188 12.332031 C 280.917969 13.0625 280.554688 13.625 280.023438 14.03125 C 279.488281 14.429688 278.808594 14.632812 277.984375 14.632812 C 276.941406 14.632812 276.113281 14.3125 275.503906 13.671875 C 274.894531 13.027344 274.589844 12.128906 274.589844 10.96875 C 274.589844 9.769531 274.898438 8.839844 275.515625 8.179688 C 276.132812 7.515625 276.933594 7.183594 277.917969 7.183594 C 278.867188 7.183594 279.648438 7.511719 280.25 8.160156 C 280.855469 8.804688 281.15625 9.71875 281.15625 10.894531 C 281.15625 10.96875 281.15625 11.074219 281.148438 11.21875 L 275.835938 11.21875 C 275.878906 12 276.101562 12.601562 276.5 13.015625 C 276.898438 13.433594 277.394531 13.640625 277.988281 13.640625 C 278.429688 13.640625 278.808594 13.523438 279.125 13.289062 C 279.4375 13.058594 279.683594 12.6875 279.867188 12.175781 Z M 275.902344 10.222656 L 279.882812 10.222656 C 279.828125 9.625 279.675781 9.175781 279.425781 8.878906 C 279.039062 8.414062 278.542969 8.179688 277.929688 8.179688 C 277.375 8.179688 276.910156 8.363281 276.53125 8.734375 C 276.152344 9.105469 275.945312 9.601562 275.902344 10.222656 "/>
<path style=" stroke:none;fill-rule:nonzero;fill:rgb(13.729858%,12.159729%,12.548828%);fill-opacity:1;" d="M 285.269531 13.390625 L 285.445312 14.457031 C 285.105469 14.527344 284.800781 14.566406 284.53125 14.566406 C 284.09375 14.566406 283.753906 14.496094 283.511719 14.355469 C 283.269531 14.21875 283.101562 14.035156 283.003906 13.808594 C 282.902344 13.585938 282.855469 13.109375 282.855469 12.386719 L 282.855469 8.285156 L 281.96875 8.285156 L 281.96875 7.347656 L 282.855469 7.347656 L 282.855469 5.582031 L 284.054688 4.859375 L 284.054688 7.347656 L 285.269531 7.347656 L 285.269531 8.285156 L 284.054688 8.285156 L 284.054688 12.453125 C 284.054688 12.796875 284.078125 13.019531 284.117188 13.117188 C 284.160156 13.214844 284.230469 13.292969 284.324219 13.351562 C 284.421875 13.410156 284.558594 13.4375 284.738281 13.4375 C 284.875 13.4375 285.050781 13.421875 285.269531 13.390625 "/>
<path style=" stroke:none;fill-rule:nonzero;fill:rgb(13.729858%,12.159729%,12.548828%);fill-opacity:1;" d="M 289.085938 13.390625 L 289.261719 14.457031 C 288.921875 14.527344 288.617188 14.566406 288.351562 14.566406 C 287.910156 14.566406 287.570312 14.496094 287.328125 14.355469 C 287.085938 14.21875 286.917969 14.035156 286.820312 13.808594 C 286.722656 13.585938 286.671875 13.109375 286.671875 12.386719 L 286.671875 8.285156 L 285.785156 8.285156 L 285.785156 7.347656 L 286.671875 7.347656 L 286.671875 5.582031 L 287.875 4.859375 L 287.875 7.347656 L 289.085938 7.347656 L 289.085938 8.285156 L 287.875 8.285156 L 287.875 12.453125 C 287.875 12.796875 287.894531 13.019531 287.933594 13.117188 C 287.980469 13.214844 288.046875 13.292969 288.144531 13.351562 C 288.238281 13.410156 288.378906 13.4375 288.554688 13.4375 C 288.691406 13.4375 288.867188 13.421875 289.085938 13.390625 "/>
<path style=" stroke:none;fill-rule:nonzero;fill:rgb(13.729858%,12.159729%,12.548828%);fill-opacity:1;" d="M 295.144531 12.175781 L 296.390625 12.332031 C 296.195312 13.0625 295.832031 13.625 295.300781 14.03125 C 294.765625 14.429688 294.085938 14.632812 293.257812 14.632812 C 292.21875 14.632812 291.390625 14.3125 290.78125 13.671875 C 290.171875 13.027344 289.867188 12.128906 289.867188 10.96875 C 289.867188 9.769531 290.175781 8.839844 290.789062 8.179688 C 291.410156 7.515625 292.207031 7.183594 293.191406 7.183594 C 294.144531 7.183594 294.925781 7.511719 295.527344 8.160156 C 296.132812 8.804688 296.433594 9.71875 296.433594 10.894531 C 296.433594 10.96875 296.429688 11.074219 296.425781 11.21875 L 291.113281 11.21875 C 291.15625 12 291.378906 12.601562 291.777344 13.015625 C 292.175781 13.433594 292.671875 13.640625 293.265625 13.640625 C 293.707031 13.640625 294.085938 13.523438 294.398438 13.289062 C 294.714844 13.058594 294.960938 12.6875 295.144531 12.175781 Z M 291.179688 10.222656 L 295.15625 10.222656 C 295.105469 9.625 294.953125 9.175781 294.703125 8.878906 C 294.316406 8.414062 293.816406 8.179688 293.207031 8.179688 C 292.652344 8.179688 292.183594 8.363281 291.808594 8.734375 C 291.429688 9.105469 291.222656 9.601562 291.179688 10.222656 "/>
<path style=" stroke:none;fill-rule:nonzero;fill:rgb(13.729858%,12.159729%,12.548828%);fill-opacity:1;" d="M 297.898438 14.472656 L 297.898438 7.347656 L 298.980469 7.347656 L 298.980469 8.425781 C 299.257812 7.921875 299.515625 7.589844 299.75 7.429688 C 299.984375 7.265625 300.242188 7.183594 300.527344 7.183594 C 300.933594 7.183594 301.34375 7.316406 301.765625 7.574219 L 301.351562 8.695312 C 301.058594 8.519531 300.761719 8.433594 300.464844 8.433594 C 300.199219 8.433594 299.964844 8.511719 299.753906 8.671875 C 299.542969 8.832031 299.394531 9.050781 299.304688 9.332031 C 299.171875 9.761719 299.105469 10.230469 299.105469 10.742188 L 299.105469 14.472656 L 297.898438 14.472656 "/>
<path style=" stroke:none;fill-rule:nonzero;fill:rgb(13.729858%,12.159729%,12.548828%);fill-opacity:1;" d="M 302.003906 12.34375 L 303.195312 12.15625 C 303.261719 12.636719 303.449219 13 303.757812 13.257812 C 304.0625 13.511719 304.488281 13.640625 305.042969 13.640625 C 305.597656 13.640625 306.007812 13.527344 306.277344 13.300781 C 306.542969 13.074219 306.679688 12.808594 306.679688 12.507812 C 306.679688 12.230469 306.558594 12.019531 306.320312 11.859375 C 306.15625 11.753906 305.746094 11.617188 305.085938 11.453125 C 304.203125 11.230469 303.585938 11.035156 303.246094 10.871094 C 302.90625 10.710938 302.644531 10.484375 302.46875 10.195312 C 302.292969 9.90625 302.203125 9.585938 302.203125 9.238281 C 302.203125 8.921875 302.273438 8.628906 302.421875 8.359375 C 302.566406 8.085938 302.765625 7.859375 303.015625 7.683594 C 303.203125 7.542969 303.460938 7.425781 303.78125 7.328125 C 304.105469 7.234375 304.457031 7.183594 304.828125 7.183594 C 305.386719 7.183594 305.875 7.265625 306.300781 7.429688 C 306.722656 7.589844 307.035156 7.804688 307.234375 8.082031 C 307.4375 8.359375 307.574219 8.722656 307.648438 9.183594 L 306.46875 9.347656 C 306.414062 8.980469 306.261719 8.695312 306.003906 8.488281 C 305.746094 8.28125 305.382812 8.179688 304.914062 8.179688 C 304.359375 8.179688 303.964844 8.269531 303.726562 8.453125 C 303.488281 8.636719 303.371094 8.851562 303.371094 9.097656 C 303.371094 9.253906 303.421875 9.394531 303.519531 9.519531 C 303.617188 9.652344 303.769531 9.757812 303.980469 9.84375 C 304.101562 9.886719 304.457031 9.992188 305.046875 10.152344 C 305.902344 10.378906 306.5 10.566406 306.835938 10.710938 C 307.171875 10.855469 307.4375 11.070312 307.632812 11.347656 C 307.824219 11.625 307.921875 11.964844 307.921875 12.378906 C 307.921875 12.78125 307.800781 13.160156 307.566406 13.515625 C 307.332031 13.871094 306.992188 14.148438 306.550781 14.339844 C 306.109375 14.535156 305.605469 14.632812 305.046875 14.632812 C 304.121094 14.632812 303.414062 14.441406 302.929688 14.054688 C 302.445312 13.671875 302.136719 13.101562 302.003906 12.34375 "/>
<g clip-path="url(#clip3)" clip-rule="nonzero">
<path style="fill:none;stroke-width:39.9997;stroke-linecap:butt;stroke-linejoin:miter;stroke:rgb(13.729858%,12.159729%,12.548828%);stroke-opacity:1;stroke-miterlimit:22.9256;" d="M 6155.400935 1942.982485 L 7625.298032 1627.244249 " transform="matrix(0.038167,0,0,-0.038167,18.559,81.15)"/>
</g>
<g clip-path="url(#clip4)" clip-rule="nonzero">
<path style="fill:none;stroke-width:39.9997;stroke-linecap:butt;stroke-linejoin:miter;stroke:rgb(13.729858%,12.159729%,12.548828%);stroke-opacity:1;stroke-miterlimit:22.9256;" d="M 7625.298032 2073.678669 L 6525.587386 1561.94733 " transform="matrix(0.038167,0,0,-0.038167,18.559,81.15)"/>
</g>
<path style=" stroke:none;fill-rule:nonzero;fill:rgb(13.729858%,12.159729%,12.548828%);fill-opacity:1;" d="M 21.984375 42.566406 C 21.316406 41.726562 20.753906 40.742188 20.292969 39.613281 C 19.832031 38.484375 19.601562 37.320312 19.601562 36.109375 C 19.601562 35.046875 19.773438 34.027344 20.121094 33.050781 C 20.523438 31.917969 21.144531 30.792969 21.984375 29.671875 L 22.851562 29.671875 C 22.308594 30.601562 21.953125 31.265625 21.777344 31.664062 C 21.503906 32.277344 21.289062 32.925781 21.132812 33.59375 C 20.941406 34.429688 20.84375 35.273438 20.84375 36.117188 C 20.84375 38.269531 21.511719 40.417969 22.851562 42.566406 L 21.984375 42.566406 "/>
<path style=" stroke:none;fill-rule:nonzero;fill:rgb(13.729858%,12.159729%,12.548828%);fill-opacity:1;" d="M 23.769531 37.546875 L 24.964844 37.359375 C 25.03125 37.835938 25.21875 38.203125 25.523438 38.460938 C 25.828125 38.714844 26.257812 38.84375 26.808594 38.84375 C 27.363281 38.84375 27.777344 38.726562 28.042969 38.503906 C 28.3125 38.277344 28.445312 38.011719 28.445312 37.707031 C 28.445312 37.433594 28.328125 37.21875 28.089844 37.0625 C 27.925781 36.953125 27.511719 36.820312 26.855469 36.65625 C 25.972656 36.429688 25.355469 36.238281 25.015625 36.074219 C 24.671875 35.910156 24.410156 35.683594 24.234375 35.394531 C 24.058594 35.105469 23.96875 34.789062 23.96875 34.441406 C 23.96875 34.121094 24.042969 33.828125 24.1875 33.558594 C 24.332031 33.285156 24.53125 33.0625 24.78125 32.882812 C 24.96875 32.746094 25.226562 32.625 25.550781 32.53125 C 25.875 32.433594 26.222656 32.386719 26.59375 32.386719 C 27.152344 32.386719 27.644531 32.46875 28.066406 32.628906 C 28.488281 32.789062 28.800781 33.007812 29.003906 33.28125 C 29.203125 33.558594 29.339844 33.925781 29.417969 34.386719 L 28.238281 34.546875 C 28.183594 34.183594 28.027344 33.894531 27.769531 33.6875 C 27.515625 33.484375 27.148438 33.378906 26.679688 33.378906 C 26.125 33.378906 25.730469 33.472656 25.496094 33.65625 C 25.257812 33.839844 25.136719 34.054688 25.136719 34.296875 C 25.136719 34.457031 25.1875 34.597656 25.285156 34.722656 C 25.382812 34.851562 25.539062 34.957031 25.75 35.046875 C 25.871094 35.089844 26.226562 35.191406 26.816406 35.351562 C 27.671875 35.582031 28.265625 35.765625 28.601562 35.914062 C 28.941406 36.058594 29.207031 36.269531 29.398438 36.546875 C 29.589844 36.824219 29.6875 37.167969 29.6875 37.582031 C 29.6875 37.984375 29.570312 38.359375 29.335938 38.71875 C 29.097656 39.074219 28.761719 39.347656 28.316406 39.542969 C 27.875 39.738281 27.375 39.832031 26.816406 39.832031 C 25.886719 39.832031 25.183594 39.640625 24.699219 39.257812 C 24.210938 38.871094 23.902344 38.300781 23.769531 37.546875 "/>
<path style=" stroke:none;fill-rule:nonzero;fill:rgb(13.729858%,12.159729%,12.548828%);fill-opacity:1;" d="M 36 37.378906 L 37.246094 37.53125 C 37.050781 38.261719 36.6875 38.828125 36.15625 39.230469 C 35.621094 39.632812 34.941406 39.832031 34.113281 39.832031 C 33.074219 39.832031 32.246094 39.511719 31.636719 38.871094 C 31.023438 38.230469 30.71875 37.332031 30.71875 36.171875 C 30.71875 34.972656 31.03125 34.042969 31.644531 33.378906 C 32.265625 32.71875 33.0625 32.386719 34.046875 32.386719 C 35 32.386719 35.777344 32.710938 36.382812 33.359375 C 36.984375 34.007812 37.289062 34.921875 37.289062 36.097656 C 37.289062 36.167969 37.285156 36.277344 37.28125 36.417969 L 31.96875 36.417969 C 32.011719 37.203125 32.234375 37.800781 32.632812 38.214844 C 33.03125 38.632812 33.527344 38.84375 34.121094 38.84375 C 34.5625 38.84375 34.941406 38.726562 35.253906 38.492188 C 35.570312 38.261719 35.816406 37.890625 36 37.378906 Z M 32.035156 35.425781 L 36.011719 35.425781 C 35.960938 34.828125 35.804688 34.375 35.558594 34.078125 C 35.171875 33.613281 34.671875 33.378906 34.0625 33.378906 C 33.507812 33.378906 33.039062 33.566406 32.664062 33.9375 C 32.285156 34.308594 32.074219 34.804688 32.035156 35.425781 "/>
<path style=" stroke:none;fill-rule:nonzero;fill:rgb(13.729858%,12.159729%,12.548828%);fill-opacity:1;" d="M 38.765625 39.671875 L 38.765625 32.550781 L 39.851562 32.550781 L 39.851562 33.5625 C 40.375 32.777344 41.132812 32.386719 42.117188 32.386719 C 42.546875 32.386719 42.941406 32.464844 43.300781 32.617188 C 43.664062 32.773438 43.929688 32.976562 44.109375 33.226562 C 44.289062 33.476562 44.414062 33.773438 44.488281 34.117188 C 44.53125 34.34375 44.554688 34.734375 44.554688 35.292969 L 44.554688 39.671875 L 43.34375 39.671875 L 43.34375 35.339844 C 43.34375 34.847656 43.300781 34.480469 43.207031 34.234375 C 43.113281 33.992188 42.945312 33.796875 42.707031 33.652344 C 42.464844 33.507812 42.1875 33.433594 41.863281 33.433594 C 41.347656 33.433594 40.90625 33.597656 40.53125 33.921875 C 40.15625 34.25 39.972656 34.867188 39.972656 35.78125 L 39.972656 39.671875 L 38.765625 39.671875 "/>
<path style=" stroke:none;fill-rule:nonzero;fill:rgb(13.729858%,12.159729%,12.548828%);fill-opacity:1;" d="M 45.925781 37.546875 L 47.117188 37.359375 C 47.183594 37.835938 47.371094 38.203125 47.679688 38.460938 C 47.984375 38.714844 48.410156 38.84375 48.960938 38.84375 C 49.515625 38.84375 49.929688 38.726562 50.195312 38.503906 C 50.464844 38.277344 50.601562 38.011719 50.601562 37.707031 C 50.601562 37.433594 50.480469 37.21875 50.242188 37.0625 C 50.078125 36.953125 49.664062 36.820312 49.007812 36.65625 C 48.125 36.429688 47.507812 36.238281 47.167969 36.074219 C 46.824219 35.910156 46.566406 35.683594 46.390625 35.394531 C 46.210938 35.105469 46.121094 34.789062 46.121094 34.441406 C 46.121094 34.121094 46.195312 33.828125 46.34375 33.558594 C 46.488281 33.285156 46.6875 33.0625 46.9375 32.882812 C 47.125 32.746094 47.378906 32.625 47.703125 32.53125 C 48.027344 32.433594 48.375 32.386719 48.746094 32.386719 C 49.304688 32.386719 49.796875 32.46875 50.21875 32.628906 C 50.644531 32.789062 50.953125 33.007812 51.15625 33.28125 C 51.359375 33.558594 51.496094 33.925781 51.570312 34.386719 L 50.390625 34.546875 C 50.335938 34.183594 50.179688 33.894531 49.925781 33.6875 C 49.667969 33.484375 49.304688 33.378906 48.835938 33.378906 C 48.28125 33.378906 47.882812 33.472656 47.648438 33.65625 C 47.410156 33.839844 47.289062 34.054688 47.289062 34.296875 C 47.289062 34.457031 47.339844 34.597656 47.441406 34.722656 C 47.539062 34.851562 47.691406 34.957031 47.902344 35.046875 C 48.023438 35.089844 48.378906 35.191406 48.96875 35.351562 C 49.824219 35.582031 50.417969 35.765625 50.753906 35.914062 C 51.09375 36.058594 51.359375 36.269531 51.550781 36.546875 C 51.746094 36.824219 51.839844 37.167969 51.839844 37.582031 C 51.839844 37.984375 51.722656 38.359375 51.488281 38.71875 C 51.253906 39.074219 50.914062 39.347656 50.472656 39.542969 C 50.03125 39.738281 49.527344 39.832031 48.96875 39.832031 C 48.042969 39.832031 47.335938 39.640625 46.851562 39.257812 C 46.367188 38.871094 46.058594 38.300781 45.925781 37.546875 "/>
<path style=" stroke:none;fill-rule:nonzero;fill:rgb(13.729858%,12.159729%,12.548828%);fill-opacity:1;" d="M 52.824219 36.109375 C 52.824219 34.789062 53.191406 33.8125 53.925781 33.179688 C 54.539062 32.652344 55.285156 32.386719 56.167969 32.386719 C 57.148438 32.386719 57.949219 32.707031 58.570312 33.351562 C 59.191406 33.992188 59.5 34.878906 59.5 36.007812 C 59.5 36.925781 59.363281 37.648438 59.089844 38.171875 C 58.8125 38.699219 58.414062 39.109375 57.890625 39.398438 C 57.363281 39.6875 56.789062 39.832031 56.167969 39.832031 C 55.171875 39.832031 54.363281 39.515625 53.75 38.875 C 53.132812 38.234375 52.824219 37.3125 52.824219 36.109375 Z M 54.066406 36.109375 C 54.066406 37.023438 54.265625 37.707031 54.664062 38.160156 C 55.0625 38.613281 55.566406 38.84375 56.167969 38.84375 C 56.765625 38.84375 57.265625 38.613281 57.664062 38.15625 C 58.0625 37.703125 58.261719 37.003906 58.261719 36.070312 C 58.261719 35.1875 58.0625 34.519531 57.660156 34.066406 C 57.257812 33.613281 56.761719 33.386719 56.167969 33.386719 C 55.566406 33.386719 55.0625 33.613281 54.664062 34.066406 C 54.265625 34.515625 54.066406 35.199219 54.066406 36.109375 "/>
<path style=" stroke:none;fill-rule:nonzero;fill:rgb(13.729858%,12.159729%,12.548828%);fill-opacity:1;" d="M 60.90625 39.671875 L 60.90625 32.550781 L 61.992188 32.550781 L 61.992188 33.628906 C 62.269531 33.125 62.523438 32.789062 62.761719 32.628906 C 62.992188 32.46875 63.253906 32.386719 63.535156 32.386719 C 63.941406 32.386719 64.355469 32.515625 64.777344 32.777344 L 64.359375 33.898438 C 64.066406 33.722656 63.769531 33.632812 63.476562 33.632812 C 63.210938 33.632812 62.972656 33.714844 62.761719 33.871094 C 62.550781 34.03125 62.402344 34.253906 62.3125 34.535156 C 62.179688 34.960938 62.113281 35.433594 62.113281 35.941406 L 62.113281 39.671875 L 60.90625 39.671875 "/>
<path style=" stroke:none;fill-rule:nonzero;fill:rgb(13.729858%,12.159729%,12.548828%);fill-opacity:1;" d="M 66.285156 42.566406 L 65.417969 42.566406 C 66.757812 40.417969 67.425781 38.269531 67.425781 36.117188 C 67.425781 35.277344 67.328125 34.441406 67.136719 33.613281 C 66.984375 32.945312 66.773438 32.300781 66.5 31.683594 C 66.324219 31.28125 65.964844 30.609375 65.417969 29.671875 L 66.285156 29.671875 C 67.125 30.792969 67.746094 31.917969 68.152344 33.050781 C 68.496094 34.027344 68.667969 35.046875 68.667969 36.109375 C 68.667969 37.320312 68.433594 38.484375 67.972656 39.613281 C 67.507812 40.742188 66.945312 41.726562 66.285156 42.566406 "/>
<path style=" stroke:none;fill-rule:nonzero;fill:rgb(13.729858%,12.159729%,12.548828%);fill-opacity:1;" d="M 78.761719 37.378906 L 80.011719 37.53125 C 79.8125 38.261719 79.449219 38.828125 78.917969 39.230469 C 78.386719 39.632812 77.703125 39.832031 76.878906 39.832031 C 75.835938 39.832031 75.007812 39.511719 74.398438 38.871094 C 73.789062 38.230469 73.484375 37.332031 73.484375 36.171875 C 73.484375 34.972656 73.792969 34.042969 74.410156 33.378906 C 75.027344 32.71875 75.828125 32.386719 76.8125 32.386719 C 77.765625 32.386719 78.542969 32.710938 79.144531 33.359375 C 79.75 34.007812 80.050781 34.921875 80.050781 36.097656 C 80.050781 36.167969 80.050781 36.277344 80.046875 36.417969 L 74.734375 36.417969 C 74.777344 37.203125 75 37.800781 75.398438 38.214844 C 75.796875 38.632812 76.289062 38.84375 76.886719 38.84375 C 77.328125 38.84375 77.703125 38.726562 78.019531 38.492188 C 78.332031 38.261719 78.578125 37.890625 78.761719 37.378906 Z M 74.800781 35.425781 L 78.777344 35.425781 C 78.722656 34.828125 78.570312 34.375 78.320312 34.078125 C 77.9375 33.613281 77.4375 33.378906 76.824219 33.378906 C 76.269531 33.378906 75.804688 33.566406 75.425781 33.9375 C 75.046875 34.308594 74.839844 34.804688 74.800781 35.425781 "/>
<path style=" stroke:none;fill-rule:nonzero;fill:rgb(13.729858%,12.159729%,12.548828%);fill-opacity:1;" d="M 83.507812 39.671875 L 80.796875 32.550781 L 82.070312 32.550781 L 83.601562 36.816406 C 83.765625 37.277344 83.917969 37.753906 84.058594 38.25 C 84.164062 37.875 84.3125 37.425781 84.507812 36.894531 L 86.089844 32.550781 L 87.332031 32.550781 L 84.632812 39.671875 L 83.507812 39.671875 "/>
<path style=" stroke:none;fill-rule:nonzero;fill:rgb(13.729858%,12.159729%,12.548828%);fill-opacity:1;" d="M 93.273438 37.378906 L 94.523438 37.53125 C 94.324219 38.261719 93.960938 38.828125 93.429688 39.230469 C 92.898438 39.632812 92.214844 39.832031 91.390625 39.832031 C 90.347656 39.832031 89.519531 39.511719 88.914062 38.871094 C 88.300781 38.230469 87.996094 37.332031 87.996094 36.171875 C 87.996094 34.972656 88.304688 34.042969 88.921875 33.378906 C 89.539062 32.71875 90.339844 32.386719 91.324219 32.386719 C 92.277344 32.386719 93.054688 32.710938 93.65625 33.359375 C 94.261719 34.007812 94.5625 34.921875 94.5625 36.097656 C 94.5625 36.167969 94.5625 36.277344 94.558594 36.417969 L 89.246094 36.417969 C 89.289062 37.203125 89.511719 37.800781 89.910156 38.214844 C 90.308594 38.632812 90.800781 38.84375 91.398438 38.84375 C 91.839844 38.84375 92.214844 38.726562 92.53125 38.492188 C 92.84375 38.261719 93.089844 37.890625 93.273438 37.378906 Z M 89.308594 35.425781 L 93.289062 35.425781 C 93.234375 34.828125 93.082031 34.375 92.832031 34.078125 C 92.449219 33.613281 91.949219 33.378906 91.335938 33.378906 C 90.78125 33.378906 90.316406 33.566406 89.9375 33.9375 C 89.558594 34.308594 89.351562 34.804688 89.308594 35.425781 "/>
<path style=" stroke:none;fill-rule:nonzero;fill:rgb(13.729858%,12.159729%,12.548828%);fill-opacity:1;" d="M 96.039062 39.671875 L 96.039062 32.550781 L 97.125 32.550781 L 97.125 33.5625 C 97.652344 32.777344 98.40625 32.386719 99.394531 32.386719 C 99.824219 32.386719 100.21875 32.464844 100.578125 32.617188 C 100.9375 32.773438 101.207031 32.976562 101.386719 33.226562 C 101.566406 33.476562 101.691406 33.773438 101.765625 34.117188 C 101.808594 34.34375 101.828125 34.734375 101.828125 35.292969 L 101.828125 39.671875 L 100.621094 39.671875 L 100.621094 35.339844 C 100.621094 34.847656 100.574219 34.480469 100.480469 34.234375 C 100.386719 33.992188 100.21875 33.796875 99.980469 33.652344 C 99.742188 33.507812 99.460938 33.433594 99.140625 33.433594 C 98.625 33.433594 98.183594 33.597656 97.808594 33.921875 C 97.433594 34.25 97.246094 34.867188 97.246094 35.78125 L 97.246094 39.671875 L 96.039062 39.671875 "/>
<path style=" stroke:none;fill-rule:nonzero;fill:rgb(13.729858%,12.159729%,12.548828%);fill-opacity:1;" d="M 106.320312 38.59375 L 106.492188 39.660156 C 106.152344 39.730469 105.847656 39.765625 105.582031 39.765625 C 105.140625 39.765625 104.800781 39.699219 104.558594 39.558594 C 104.320312 39.421875 104.148438 39.238281 104.050781 39.011719 C 103.953125 38.785156 103.902344 38.3125 103.902344 37.585938 L 103.902344 33.488281 L 103.015625 33.488281 L 103.015625 32.550781 L 103.902344 32.550781 L 103.902344 30.785156 L 105.105469 30.058594 L 105.105469 32.550781 L 106.320312 32.550781 L 106.320312 33.488281 L 105.105469 33.488281 L 105.105469 37.652344 C 105.105469 38 105.125 38.21875 105.167969 38.316406 C 105.210938 38.414062 105.277344 38.492188 105.375 38.554688 C 105.472656 38.609375 105.609375 38.640625 105.785156 38.640625 C 105.921875 38.640625 106.097656 38.625 106.320312 38.59375 "/>
<path style=" stroke:none;fill-rule:nonzero;fill:rgb(13.729858%,12.159729%,12.548828%);fill-opacity:1;" d="M 107.015625 37.546875 L 108.210938 37.359375 C 108.277344 37.835938 108.464844 38.203125 108.769531 38.460938 C 109.074219 38.714844 109.503906 38.84375 110.054688 38.84375 C 110.609375 38.84375 111.023438 38.726562 111.289062 38.503906 C 111.558594 38.277344 111.691406 38.011719 111.691406 37.707031 C 111.691406 37.433594 111.574219 37.21875 111.335938 37.0625 C 111.171875 36.953125 110.757812 36.820312 110.101562 36.65625 C 109.21875 36.429688 108.601562 36.238281 108.261719 36.074219 C 107.917969 35.910156 107.660156 35.683594 107.480469 35.394531 C 107.304688 35.105469 107.214844 34.789062 107.214844 34.441406 C 107.214844 34.121094 107.289062 33.828125 107.4375 33.558594 C 107.582031 33.285156 107.78125 33.0625 108.03125 32.882812 C 108.214844 32.746094 108.472656 32.625 108.796875 32.53125 C 109.121094 32.433594 109.46875 32.386719 109.839844 32.386719 C 110.398438 32.386719 110.890625 32.46875 111.3125 32.628906 C 111.738281 32.789062 112.046875 33.007812 112.25 33.28125 C 112.453125 33.558594 112.589844 33.925781 112.664062 34.386719 L 111.484375 34.546875 C 111.429688 34.183594 111.273438 33.894531 111.019531 33.6875 C 110.761719 33.484375 110.398438 33.378906 109.929688 33.378906 C 109.375 33.378906 108.976562 33.472656 108.742188 33.65625 C 108.503906 33.839844 108.382812 34.054688 108.382812 34.296875 C 108.382812 34.457031 108.433594 34.597656 108.53125 34.722656 C 108.632812 34.851562 108.785156 34.957031 108.996094 35.046875 C 109.117188 35.089844 109.472656 35.191406 110.0625 35.351562 C 110.917969 35.582031 111.511719 35.765625 111.847656 35.914062 C 112.1875 36.058594 112.453125 36.269531 112.644531 36.546875 C 112.839844 36.824219 112.933594 37.167969 112.933594 37.582031 C 112.933594 37.984375 112.816406 38.359375 112.582031 38.71875 C 112.347656 39.074219 112.007812 39.347656 111.566406 39.542969 C 111.125 39.738281 110.621094 39.832031 110.0625 39.832031 C 109.136719 39.832031 108.429688 39.640625 107.945312 39.257812 C 107.457031 38.871094 107.148438 38.300781 107.015625 37.546875 "/>
<path style=" stroke:none;fill-rule:nonzero;fill:rgb(13.729858%,12.159729%,12.548828%);fill-opacity:1;" d="M 21.984375 64.441406 C 21.316406 63.601562 20.753906 62.617188 20.292969 61.492188 C 19.832031 60.363281 19.601562 59.195312 19.601562 57.988281 C 19.601562 56.921875 19.773438 55.902344 20.121094 54.925781 C 20.523438 53.796875 21.144531 52.667969 21.984375 51.546875 L 22.851562 51.546875 C 22.308594 52.476562 21.953125 53.140625 21.777344 53.539062 C 21.503906 54.15625 21.289062 54.800781 21.132812 55.472656 C 20.941406 56.308594 20.84375 57.148438 20.84375 57.992188 C 20.84375 60.148438 21.511719 62.292969 22.851562 64.441406 L 21.984375 64.441406 "/>
<path style=" stroke:none;fill-rule:nonzero;fill:rgb(13.729858%,12.159729%,12.548828%);fill-opacity:1;" d="M 28.902344 58.941406 L 30.089844 59.09375 C 29.960938 59.914062 29.628906 60.554688 29.09375 61.015625 C 28.558594 61.480469 27.902344 61.710938 27.121094 61.710938 C 26.148438 61.710938 25.363281 61.390625 24.773438 60.753906 C 24.179688 60.117188 23.882812 59.207031 23.882812 58.015625 C 23.882812 57.246094 24.011719 56.570312 24.265625 55.996094 C 24.519531 55.417969 24.910156 54.984375 25.429688 54.695312 C 25.949219 54.40625 26.519531 54.261719 27.128906 54.261719 C 27.902344 54.261719 28.539062 54.460938 29.027344 54.851562 C 29.519531 55.242188 29.835938 55.796875 29.976562 56.519531 L 28.800781 56.699219 C 28.6875 56.222656 28.492188 55.863281 28.207031 55.617188 C 27.925781 55.378906 27.582031 55.257812 27.175781 55.257812 C 26.570312 55.257812 26.074219 55.476562 25.695312 55.914062 C 25.3125 56.347656 25.125 57.035156 25.125 57.980469 C 25.125 58.9375 25.308594 59.632812 25.675781 60.070312 C 26.042969 60.5 26.519531 60.71875 27.113281 60.71875 C 27.585938 60.71875 27.980469 60.574219 28.296875 60.28125 C 28.617188 59.992188 28.816406 59.542969 28.902344 58.941406 "/>
<path style=" stroke:none;fill-rule:nonzero;fill:rgb(13.729858%,12.159729%,12.548828%);fill-opacity:1;" d="M 30.671875 57.988281 C 30.671875 56.667969 31.039062 55.691406 31.773438 55.054688 C 32.386719 54.527344 33.132812 54.261719 34.011719 54.261719 C 34.992188 54.261719 35.796875 54.582031 36.414062 55.226562 C 37.039062 55.867188 37.347656 56.753906 37.347656 57.886719 C 37.347656 58.804688 37.210938 59.527344 36.933594 60.050781 C 36.660156 60.578125 36.261719 60.984375 35.734375 61.277344 C 35.207031 61.566406 34.636719 61.710938 34.011719 61.710938 C 33.015625 61.710938 32.210938 61.390625 31.59375 60.75 C 30.980469 60.113281 30.671875 59.191406 30.671875 57.988281 Z M 31.914062 57.988281 C 31.914062 58.902344 32.113281 59.582031 32.511719 60.035156 C 32.910156 60.492188 33.410156 60.71875 34.011719 60.71875 C 34.613281 60.71875 35.113281 60.488281 35.511719 60.035156 C 35.90625 59.578125 36.105469 58.882812 36.105469 57.949219 C 36.105469 57.066406 35.90625 56.398438 35.507812 55.945312 C 35.105469 55.492188 34.609375 55.265625 34.011719 55.265625 C 33.410156 55.265625 32.910156 55.492188 32.511719 55.941406 C 32.113281 56.394531 31.914062 57.074219 31.914062 57.988281 "/>
<path style=" stroke:none;fill-rule:nonzero;fill:rgb(13.729858%,12.159729%,12.548828%);fill-opacity:1;" d="M 38.765625 61.550781 L 38.765625 54.425781 L 39.851562 54.425781 L 39.851562 55.4375 C 40.375 54.65625 41.132812 54.261719 42.117188 54.261719 C 42.546875 54.261719 42.941406 54.339844 43.300781 54.496094 C 43.664062 54.652344 43.929688 54.851562 44.109375 55.105469 C 44.289062 55.351562 44.414062 55.652344 44.488281 55.996094 C 44.53125 56.21875 44.554688 56.609375 44.554688 57.167969 L 44.554688 61.550781 L 43.34375 61.550781 L 43.34375 57.214844 C 43.34375 56.726562 43.300781 56.355469 43.207031 56.113281 C 43.113281 55.867188 42.945312 55.675781 42.707031 55.53125 C 42.464844 55.382812 42.1875 55.308594 41.863281 55.308594 C 41.347656 55.308594 40.90625 55.476562 40.53125 55.800781 C 40.15625 56.128906 39.972656 56.746094 39.972656 57.660156 L 39.972656 61.550781 L 38.765625 61.550781 "/>
<path style=" stroke:none;fill-rule:nonzero;fill:rgb(13.729858%,12.159729%,12.548828%);fill-opacity:1;" d="M 49.042969 60.46875 L 49.21875 61.535156 C 48.878906 61.609375 48.574219 61.644531 48.304688 61.644531 C 47.867188 61.644531 47.527344 61.574219 47.285156 61.4375 C 47.042969 61.296875 46.875 61.113281 46.777344 60.886719 C 46.675781 60.664062 46.625 60.1875 46.625 59.464844 L 46.625 55.363281 L 45.742188 55.363281 L 45.742188 54.425781 L 46.625 54.425781 L 46.625 52.660156 L 47.828125 51.9375 L 47.828125 54.425781 L 49.042969 54.425781 L 49.042969 55.363281 L 47.828125 55.363281 L 47.828125 59.53125 C 47.828125 59.875 47.851562 60.097656 47.890625 60.195312 C 47.933594 60.292969 48.003906 60.371094 48.097656 60.429688 C 48.195312 60.488281 48.332031 60.515625 48.511719 60.515625 C 48.648438 60.515625 48.824219 60.5 49.042969 60.46875 "/>
<path style=" stroke:none;fill-rule:nonzero;fill:rgb(13.729858%,12.159729%,12.548828%);fill-opacity:1;" d="M 50.210938 61.550781 L 50.210938 54.425781 L 51.296875 54.425781 L 51.296875 55.503906 C 51.574219 55 51.828125 54.667969 52.066406 54.507812 C 52.300781 54.347656 52.558594 54.261719 52.839844 54.261719 C 53.246094 54.261719 53.660156 54.394531 54.082031 54.652344 L 53.664062 55.773438 C 53.371094 55.597656 53.074219 55.511719 52.78125 55.511719 C 52.515625 55.511719 52.277344 55.589844 52.066406 55.75 C 51.855469 55.910156 51.707031 56.128906 51.621094 56.410156 C 51.484375 56.839844 51.417969 57.308594 51.417969 57.820312 L 51.417969 61.550781 L 50.210938 61.550781 "/>
<path style=" stroke:none;fill-rule:nonzero;fill:rgb(13.729858%,12.159729%,12.548828%);fill-opacity:1;" d="M 54.347656 57.988281 C 54.347656 56.667969 54.714844 55.691406 55.449219 55.054688 C 56.0625 54.527344 56.808594 54.261719 57.691406 54.261719 C 58.671875 54.261719 59.472656 54.582031 60.09375 55.226562 C 60.714844 55.867188 61.023438 56.753906 61.023438 57.886719 C 61.023438 58.804688 60.886719 59.527344 60.613281 60.050781 C 60.335938 60.578125 59.9375 60.984375 59.414062 61.277344 C 58.886719 61.566406 58.3125 61.710938 57.691406 61.710938 C 56.695312 61.710938 55.886719 61.390625 55.273438 60.75 C 54.65625 60.113281 54.347656 59.191406 54.347656 57.988281 Z M 55.589844 57.988281 C 55.589844 58.902344 55.789062 59.582031 56.1875 60.035156 C 56.585938 60.492188 57.085938 60.71875 57.691406 60.71875 C 58.289062 60.71875 58.789062 60.488281 59.1875 60.035156 C 59.582031 59.578125 59.78125 58.882812 59.78125 57.949219 C 59.78125 57.066406 59.582031 56.398438 59.183594 55.945312 C 58.78125 55.492188 58.285156 55.265625 57.691406 55.265625 C 57.085938 55.265625 56.585938 55.492188 56.1875 55.941406 C 55.789062 56.394531 55.589844 57.074219 55.589844 57.988281 "/>
<path style=" stroke:none;fill-rule:nonzero;fill:rgb(13.729858%,12.159729%,12.548828%);fill-opacity:1;" d="M 62.414062 61.550781 L 62.414062 51.714844 L 63.621094 51.714844 L 63.621094 61.550781 L 62.414062 61.550781 "/>
<path style=" stroke:none;fill-rule:nonzero;fill:rgb(13.729858%,12.159729%,12.548828%);fill-opacity:1;" d="M 66.285156 64.441406 L 65.417969 64.441406 C 66.757812 62.292969 67.425781 60.148438 67.425781 57.992188 C 67.425781 57.152344 67.328125 56.320312 67.136719 55.492188 C 66.984375 54.820312 66.773438 54.175781 66.5 53.558594 C 66.324219 53.15625 65.964844 52.484375 65.417969 51.546875 L 66.285156 51.546875 C 67.125 52.667969 67.746094 53.796875 68.152344 54.925781 C 68.496094 55.902344 68.667969 56.921875 68.667969 57.988281 C 68.667969 59.195312 68.433594 60.363281 67.972656 61.492188 C 67.507812 62.617188 66.945312 63.601562 66.285156 64.441406 "/>
<path style=" stroke:none;fill-rule:nonzero;fill:rgb(13.729858%,12.159729%,12.548828%);fill-opacity:1;" d="M 73.4375 57.988281 C 73.4375 56.667969 73.800781 55.691406 74.539062 55.054688 C 75.148438 54.527344 75.894531 54.261719 76.777344 54.261719 C 77.757812 54.261719 78.558594 54.582031 79.179688 55.226562 C 79.800781 55.867188 80.109375 56.753906 80.109375 57.886719 C 80.109375 58.804688 79.972656 59.527344 79.699219 60.050781 C 79.425781 60.578125 79.023438 60.984375 78.5 61.277344 C 77.972656 61.566406 77.398438 61.710938 76.777344 61.710938 C 75.78125 61.710938 74.976562 61.390625 74.359375 60.75 C 73.742188 60.113281 73.4375 59.191406 73.4375 57.988281 Z M 74.675781 57.988281 C 74.675781 58.902344 74.875 59.582031 75.273438 60.035156 C 75.671875 60.492188 76.175781 60.71875 76.777344 60.71875 C 77.378906 60.71875 77.875 60.488281 78.273438 60.035156 C 78.671875 59.578125 78.871094 58.882812 78.871094 57.949219 C 78.871094 57.066406 78.671875 56.398438 78.269531 55.945312 C 77.871094 55.492188 77.371094 55.265625 76.777344 55.265625 C 76.175781 55.265625 75.671875 55.492188 75.273438 55.941406 C 74.875 56.394531 74.675781 57.074219 74.675781 57.988281 "/>
<path style=" stroke:none;fill-rule:nonzero;fill:rgb(13.729858%,12.159729%,12.548828%);fill-opacity:1;" d="M 86.199219 61.550781 L 86.199219 60.503906 C 85.640625 61.308594 84.886719 61.710938 83.9375 61.710938 C 83.515625 61.710938 83.125 61.628906 82.757812 61.46875 C 82.394531 61.308594 82.125 61.105469 81.949219 60.863281 C 81.769531 60.617188 81.644531 60.320312 81.574219 59.96875 C 81.527344 59.730469 81.5 59.355469 81.5 58.839844 L 81.5 54.425781 L 82.707031 54.425781 L 82.707031 58.375 C 82.707031 59.007812 82.734375 59.433594 82.78125 59.652344 C 82.859375 59.96875 83.019531 60.21875 83.265625 60.402344 C 83.511719 60.582031 83.816406 60.671875 84.179688 60.671875 C 84.539062 60.671875 84.878906 60.578125 85.199219 60.394531 C 85.515625 60.207031 85.742188 59.953125 85.871094 59.636719 C 86.003906 59.316406 86.070312 58.851562 86.070312 58.242188 L 86.070312 54.425781 L 87.277344 54.425781 L 87.277344 61.550781 L 86.199219 61.550781 "/>
<path style=" stroke:none;fill-rule:nonzero;fill:rgb(13.729858%,12.159729%,12.548828%);fill-opacity:1;" d="M 91.808594 60.46875 L 91.980469 61.535156 C 91.640625 61.609375 91.335938 61.644531 91.070312 61.644531 C 90.628906 61.644531 90.289062 61.574219 90.046875 61.4375 C 89.808594 61.296875 89.636719 61.113281 89.539062 60.886719 C 89.441406 60.664062 89.390625 60.1875 89.390625 59.464844 L 89.390625 55.363281 L 88.503906 55.363281 L 88.503906 54.425781 L 89.390625 54.425781 L 89.390625 52.660156 L 90.59375 51.9375 L 90.59375 54.425781 L 91.808594 54.425781 L 91.808594 55.363281 L 90.59375 55.363281 L 90.59375 59.53125 C 90.59375 59.875 90.613281 60.097656 90.65625 60.195312 C 90.699219 60.292969 90.765625 60.371094 90.863281 60.429688 C 90.960938 60.488281 91.097656 60.515625 91.273438 60.515625 C 91.410156 60.515625 91.585938 60.5 91.808594 60.46875 "/>
<path style=" stroke:none;fill-rule:nonzero;fill:rgb(13.729858%,12.159729%,12.548828%);fill-opacity:1;" d="M 92.988281 64.28125 L 92.988281 54.425781 L 94.085938 54.425781 L 94.085938 55.351562 C 94.347656 54.988281 94.640625 54.71875 94.96875 54.535156 C 95.292969 54.355469 95.6875 54.261719 96.152344 54.261719 C 96.761719 54.261719 97.296875 54.421875 97.761719 54.734375 C 98.230469 55.046875 98.582031 55.488281 98.816406 56.058594 C 99.054688 56.628906 99.171875 57.253906 99.171875 57.933594 C 99.171875 58.664062 99.042969 59.320312 98.78125 59.902344 C 98.519531 60.488281 98.140625 60.933594 97.640625 61.246094 C 97.140625 61.554688 96.617188 61.710938 96.066406 61.710938 C 95.664062 61.710938 95.304688 61.625 94.984375 61.457031 C 94.664062 61.285156 94.402344 61.070312 94.195312 60.8125 L 94.195312 64.28125 Z M 94.082031 58.027344 C 94.082031 58.945312 94.265625 59.621094 94.636719 60.0625 C 95.007812 60.5 95.460938 60.71875 95.984375 60.71875 C 96.523438 60.71875 96.980469 60.492188 97.363281 60.035156 C 97.746094 59.582031 97.941406 58.878906 97.941406 57.925781 C 97.941406 57.019531 97.75 56.339844 97.378906 55.886719 C 97.003906 55.4375 96.558594 55.210938 96.039062 55.210938 C 95.527344 55.210938 95.070312 55.449219 94.675781 55.929688 C 94.277344 56.410156 94.082031 57.113281 94.082031 58.027344 "/>
<path style=" stroke:none;fill-rule:nonzero;fill:rgb(13.729858%,12.159729%,12.548828%);fill-opacity:1;" d="M 105.300781 61.550781 L 105.300781 60.503906 C 104.742188 61.308594 103.988281 61.710938 103.035156 61.710938 C 102.617188 61.710938 102.222656 61.628906 101.859375 61.46875 C 101.496094 61.308594 101.226562 61.105469 101.050781 60.863281 C 100.871094 60.617188 100.746094 60.320312 100.675781 59.96875 C 100.628906 59.730469 100.601562 59.355469 100.601562 58.839844 L 100.601562 54.425781 L 101.808594 54.425781 L 101.808594 58.375 C 101.808594 59.007812 101.835938 59.433594 101.882812 59.652344 C 101.960938 59.96875 102.121094 60.21875 102.367188 60.402344 C 102.613281 60.582031 102.917969 60.671875 103.28125 60.671875 C 103.640625 60.671875 103.980469 60.578125 104.300781 60.394531 C 104.617188 60.207031 104.839844 59.953125 104.972656 59.636719 C 105.105469 59.316406 105.171875 58.851562 105.171875 58.242188 L 105.171875 54.425781 L 106.378906 54.425781 L 106.378906 61.550781 L 105.300781 61.550781 "/>
<path style=" stroke:none;fill-rule:nonzero;fill:rgb(13.729858%,12.159729%,12.548828%);fill-opacity:1;" d="M 110.90625 60.46875 L 111.082031 61.535156 C 110.742188 61.609375 110.4375 61.644531 110.171875 61.644531 C 109.730469 61.644531 109.390625 61.574219 109.148438 61.4375 C 108.910156 61.296875 108.738281 61.113281 108.640625 60.886719 C 108.542969 60.664062 108.492188 60.1875 108.492188 59.464844 L 108.492188 55.363281 L 107.605469 55.363281 L 107.605469 54.425781 L 108.492188 54.425781 L 108.492188 52.660156 L 109.695312 51.9375 L 109.695312 54.425781 L 110.90625 54.425781 L 110.90625 55.363281 L 109.695312 55.363281 L 109.695312 59.53125 C 109.695312 59.875 109.714844 60.097656 109.753906 60.195312 C 109.800781 60.292969 109.867188 60.371094 109.964844 60.429688 C 110.058594 60.488281 110.199219 60.515625 110.375 60.515625 C 110.511719 60.515625 110.6875 60.5 110.90625 60.46875 "/>
<path style=" stroke:none;fill-rule:nonzero;fill:rgb(13.729858%,12.159729%,12.548828%);fill-opacity:1;" d="M 111.605469 59.421875 L 112.800781 59.234375 C 112.867188 59.714844 113.054688 60.078125 113.359375 60.335938 C 113.664062 60.589844 114.09375 60.71875 114.644531 60.71875 C 115.199219 60.71875 115.613281 60.605469 115.878906 60.378906 C 116.148438 60.152344 116.28125 59.886719 116.28125 59.585938 C 116.28125 59.3125 116.164062 59.097656 115.925781 58.941406 C 115.761719 58.832031 115.347656 58.695312 114.691406 58.53125 C 113.808594 58.308594 113.191406 58.113281 112.851562 57.949219 C 112.507812 57.789062 112.246094 57.5625 112.070312 57.273438 C 111.894531 56.984375 111.804688 56.664062 111.804688 56.316406 C 111.804688 56 111.878906 55.707031 112.027344 55.4375 C 112.167969 55.164062 112.367188 54.9375 112.617188 54.761719 C 112.804688 54.621094 113.0625 54.503906 113.386719 54.40625 C 113.710938 54.3125 114.058594 54.261719 114.429688 54.261719 C 114.988281 54.261719 115.480469 54.347656 115.902344 54.507812 C 116.324219 54.667969 116.636719 54.882812 116.839844 55.160156 C 117.039062 55.4375 117.179688 55.800781 117.253906 56.261719 L 116.074219 56.425781 C 116.019531 56.058594 115.863281 55.773438 115.605469 55.566406 C 115.351562 55.359375 114.988281 55.257812 114.515625 55.257812 C 113.960938 55.257812 113.566406 55.347656 113.332031 55.53125 C 113.09375 55.714844 112.972656 55.929688 112.972656 56.175781 C 112.972656 56.332031 113.023438 56.472656 113.121094 56.597656 C 113.222656 56.730469 113.375 56.835938 113.585938 56.921875 C 113.707031 56.964844 114.0625 57.070312 114.652344 57.230469 C 115.507812 57.457031 116.101562 57.644531 116.4375 57.789062 C 116.777344 57.933594 117.042969 58.148438 117.234375 58.425781 C 117.425781 58.703125 117.523438 59.046875 117.523438 59.457031 C 117.523438 59.859375 117.40625 60.238281 117.171875 60.59375 C 116.933594 60.949219 116.597656 61.226562 116.152344 61.417969 C 115.710938 61.613281 115.210938 61.710938 114.652344 61.710938 C 113.722656 61.710938 113.019531 61.519531 112.535156 61.132812 C 112.046875 60.75 111.738281 60.179688 111.605469 59.421875 "/>
</g>
</svg>
