<?xml version="1.0" encoding="UTF-8"?>
<svg xmlns="http://www.w3.org/2000/svg" xmlns:xlink="http://www.w3.org/1999/xlink" width="348.696pt" height="72.723pt" viewBox="0 0 348.696 72.723" version="1.2">
<defs>
<clipPath id="clip1">
  <path d="M 288 16 L 348.1875 16 L 348.1875 69 L 288 69 Z M 288 16 "/>
</clipPath>
<clipPath id="clip2">
  <path d="M 166 0.5 L 306 0.5 L 306 61 L 166 61 Z M 166 0.5 "/>
</clipPath>
<clipPath id="clip3">
  <path d="M 179 0.5 L 306 0.5 L 306 64 L 179 64 Z M 179 0.5 "/>
</clipPath>
</defs>
<g id="surface1">
<path style=" stroke:none;fill-rule:nonzero;fill:rgb(13.729858%,12.159729%,12.548828%);fill-opacity:1;" d="M 311.253906 36.246094 L 312.683594 36.609375 C 312.382812 37.777344 311.84375 38.667969 311.070312 39.285156 C 310.292969 39.902344 309.34375 40.207031 308.222656 40.207031 C 307.058594 40.207031 306.117188 39.96875 305.390625 39.5 C 304.664062 39.023438 304.109375 38.339844 303.730469 37.445312 C 303.351562 36.546875 303.160156 35.585938 303.160156 34.554688 C 303.160156 33.4375 303.375 32.457031 303.800781 31.621094 C 304.230469 30.789062 304.839844 30.152344 305.632812 29.71875 C 306.421875 29.285156 307.292969 29.070312 308.242188 29.070312 C 309.320312 29.070312 310.226562 29.34375 310.960938 29.890625 C 311.695312 30.441406 312.207031 31.210938 312.496094 32.207031 L 311.09375 32.539062 C 310.84375 31.753906 310.484375 31.183594 310.007812 30.824219 C 309.53125 30.464844 308.9375 30.289062 308.214844 30.289062 C 307.386719 30.289062 306.695312 30.488281 306.140625 30.882812 C 305.582031 31.28125 305.191406 31.8125 304.96875 32.484375 C 304.742188 33.148438 304.628906 33.839844 304.628906 34.550781 C 304.628906 35.46875 304.761719 36.265625 305.027344 36.949219 C 305.296875 37.632812 305.710938 38.140625 306.273438 38.480469 C 306.839844 38.820312 307.449219 38.988281 308.105469 38.988281 C 308.902344 38.988281 309.578125 38.757812 310.132812 38.296875 C 310.6875 37.835938 311.058594 37.152344 311.253906 36.246094 "/>
<path style=" stroke:none;fill-rule:nonzero;fill:rgb(13.729858%,12.159729%,12.548828%);fill-opacity:1;" d="M 317.046875 38.28125 L 317.046875 35.328125 L 314.113281 35.328125 L 314.113281 34.09375 L 317.046875 34.09375 L 317.046875 31.164062 L 318.292969 31.164062 L 318.292969 34.09375 L 321.226562 34.09375 L 321.226562 35.328125 L 318.292969 35.328125 L 318.292969 38.28125 L 317.046875 38.28125 "/>
<path style=" stroke:none;fill-rule:nonzero;fill:rgb(13.729858%,12.159729%,12.548828%);fill-opacity:1;" d="M 325.832031 38.28125 L 325.832031 35.328125 L 322.902344 35.328125 L 322.902344 34.09375 L 325.832031 34.09375 L 325.832031 31.164062 L 327.082031 31.164062 L 327.082031 34.09375 L 330.015625 34.09375 L 330.015625 35.328125 L 327.082031 35.328125 L 327.082031 38.28125 L 325.832031 38.28125 "/>
<path style=" stroke:none;fill-rule:nonzero;fill:rgb(13.729858%,12.159729%,12.548828%);fill-opacity:1;" d="M 308.496094 53.972656 L 309.792969 54.144531 C 309.652344 55.039062 309.289062 55.742188 308.703125 56.25 C 308.117188 56.753906 307.398438 57.007812 306.546875 57.007812 C 305.480469 57.007812 304.621094 56.660156 303.972656 55.960938 C 303.324219 55.265625 302.996094 54.265625 302.996094 52.960938 C 302.996094 52.117188 303.136719 51.382812 303.417969 50.75 C 303.699219 50.117188 304.121094 49.644531 304.691406 49.328125 C 305.261719 49.011719 305.882812 48.851562 306.554688 48.851562 C 307.402344 48.851562 308.097656 49.070312 308.632812 49.496094 C 309.171875 49.925781 309.519531 50.535156 309.671875 51.324219 L 308.382812 51.519531 C 308.261719 50.996094 308.046875 50.605469 307.734375 50.335938 C 307.421875 50.074219 307.046875 49.941406 306.605469 49.941406 C 305.9375 49.941406 305.398438 50.179688 304.980469 50.660156 C 304.566406 51.136719 304.355469 51.890625 304.355469 52.921875 C 304.355469 53.972656 304.558594 54.734375 304.960938 55.210938 C 305.363281 55.683594 305.886719 55.921875 306.535156 55.921875 C 307.050781 55.921875 307.484375 55.761719 307.832031 55.445312 C 308.179688 55.125 308.402344 54.636719 308.496094 53.972656 "/>
<path style=" stroke:none;fill-rule:nonzero;fill:rgb(13.729858%,12.159729%,12.548828%);fill-opacity:1;" d="M 310.898438 56.832031 L 310.898438 46.0625 L 312.21875 46.0625 L 312.21875 56.832031 L 310.898438 56.832031 "/>
<path style=" stroke:none;fill-rule:nonzero;fill:rgb(13.729858%,12.159729%,12.548828%);fill-opacity:1;" d="M 319.359375 55.871094 C 318.871094 56.285156 318.398438 56.578125 317.945312 56.753906 C 317.492188 56.921875 317.003906 57.007812 316.488281 57.007812 C 315.628906 57.007812 314.972656 56.800781 314.511719 56.382812 C 314.050781 55.960938 313.820312 55.425781 313.820312 54.777344 C 313.820312 54.394531 313.90625 54.042969 314.082031 53.726562 C 314.253906 53.414062 314.484375 53.160156 314.765625 52.96875 C 315.046875 52.777344 315.363281 52.632812 315.71875 52.535156 C 315.976562 52.464844 316.367188 52.398438 316.890625 52.335938 C 317.960938 52.207031 318.746094 52.058594 319.25 51.878906 C 319.253906 51.699219 319.257812 51.582031 319.257812 51.535156 C 319.257812 50.996094 319.132812 50.617188 318.882812 50.398438 C 318.546875 50.097656 318.042969 49.949219 317.378906 49.949219 C 316.753906 49.949219 316.296875 50.058594 315.996094 50.273438 C 315.703125 50.492188 315.484375 50.878906 315.339844 51.433594 L 314.050781 51.253906 C 314.167969 50.703125 314.359375 50.253906 314.628906 49.917969 C 314.898438 49.574219 315.289062 49.3125 315.796875 49.128906 C 316.304688 48.945312 316.894531 48.851562 317.566406 48.851562 C 318.234375 48.851562 318.773438 48.933594 319.191406 49.089844 C 319.605469 49.246094 319.914062 49.441406 320.109375 49.679688 C 320.304688 49.917969 320.441406 50.21875 320.523438 50.582031 C 320.5625 50.804688 320.585938 51.210938 320.585938 51.800781 L 320.585938 53.5625 C 320.585938 54.792969 320.613281 55.570312 320.671875 55.894531 C 320.726562 56.222656 320.839844 56.535156 321.007812 56.832031 L 319.625 56.832031 C 319.488281 56.558594 319.398438 56.238281 319.359375 55.871094 Z M 319.25 52.914062 C 318.769531 53.113281 318.050781 53.277344 317.089844 53.417969 C 316.546875 53.496094 316.160156 53.582031 315.9375 53.679688 C 315.710938 53.777344 315.535156 53.921875 315.414062 54.113281 C 315.292969 54.300781 315.230469 54.507812 315.230469 54.738281 C 315.230469 55.09375 315.367188 55.386719 315.632812 55.621094 C 315.898438 55.855469 316.289062 55.972656 316.800781 55.972656 C 317.3125 55.972656 317.765625 55.863281 318.160156 55.640625 C 318.558594 55.414062 318.851562 55.109375 319.039062 54.722656 C 319.179688 54.425781 319.25 53.984375 319.25 53.402344 L 319.25 52.914062 "/>
<path style=" stroke:none;fill-rule:nonzero;fill:rgb(13.729858%,12.159729%,12.548828%);fill-opacity:1;" d="M 322.109375 54.503906 L 323.414062 54.296875 C 323.488281 54.820312 323.695312 55.222656 324.03125 55.503906 C 324.363281 55.78125 324.832031 55.921875 325.4375 55.921875 C 326.042969 55.921875 326.496094 55.796875 326.789062 55.550781 C 327.082031 55.304688 327.230469 55.011719 327.230469 54.679688 C 327.230469 54.378906 327.101562 54.148438 326.839844 53.972656 C 326.65625 53.855469 326.207031 53.707031 325.488281 53.527344 C 324.519531 53.28125 323.84375 53.070312 323.472656 52.890625 C 323.097656 52.710938 322.8125 52.464844 322.617188 52.148438 C 322.425781 51.832031 322.328125 51.484375 322.328125 51.101562 C 322.328125 50.753906 322.40625 50.433594 322.566406 50.136719 C 322.726562 49.839844 322.945312 49.59375 323.21875 49.398438 C 323.421875 49.246094 323.703125 49.117188 324.058594 49.011719 C 324.414062 48.90625 324.796875 48.851562 325.203125 48.851562 C 325.8125 48.851562 326.351562 48.945312 326.8125 49.117188 C 327.277344 49.292969 327.617188 49.53125 327.839844 49.832031 C 328.058594 50.136719 328.210938 50.539062 328.292969 51.042969 L 327.003906 51.21875 C 326.941406 50.820312 326.769531 50.503906 326.488281 50.28125 C 326.210938 50.054688 325.8125 49.941406 325.296875 49.941406 C 324.691406 49.941406 324.257812 50.042969 323.996094 50.242188 C 323.738281 50.441406 323.605469 50.679688 323.605469 50.945312 C 323.605469 51.121094 323.660156 51.273438 323.769531 51.410156 C 323.878906 51.554688 324.046875 51.667969 324.277344 51.765625 C 324.410156 51.8125 324.796875 51.925781 325.445312 52.101562 C 326.378906 52.351562 327.03125 52.554688 327.402344 52.714844 C 327.769531 52.871094 328.0625 53.105469 328.273438 53.410156 C 328.484375 53.714844 328.589844 54.089844 328.589844 54.539062 C 328.589844 54.980469 328.457031 55.394531 328.203125 55.785156 C 327.945312 56.175781 327.574219 56.476562 327.089844 56.691406 C 326.605469 56.902344 326.054688 57.007812 325.445312 57.007812 C 324.429688 57.007812 323.65625 56.796875 323.125 56.375 C 322.59375 55.953125 322.253906 55.332031 322.109375 54.503906 "/>
<path style=" stroke:none;fill-rule:nonzero;fill:rgb(13.729858%,12.159729%,12.548828%);fill-opacity:1;" d="M 329.632812 54.503906 L 330.9375 54.296875 C 331.011719 54.820312 331.21875 55.222656 331.554688 55.503906 C 331.886719 55.78125 332.355469 55.921875 332.960938 55.921875 C 333.566406 55.921875 334.019531 55.796875 334.3125 55.550781 C 334.605469 55.304688 334.753906 55.011719 334.753906 54.679688 C 334.753906 54.378906 334.621094 54.148438 334.363281 53.972656 C 334.179688 53.855469 333.730469 53.707031 333.011719 53.527344 C 332.042969 53.28125 331.367188 53.070312 330.996094 52.890625 C 330.621094 52.710938 330.335938 52.464844 330.140625 52.148438 C 329.949219 51.832031 329.851562 51.484375 329.851562 51.101562 C 329.851562 50.753906 329.929688 50.433594 330.089844 50.136719 C 330.25 49.839844 330.46875 49.59375 330.742188 49.398438 C 330.945312 49.246094 331.226562 49.117188 331.582031 49.011719 C 331.9375 48.90625 332.320312 48.851562 332.722656 48.851562 C 333.335938 48.851562 333.875 48.945312 334.335938 49.117188 C 334.800781 49.292969 335.140625 49.53125 335.363281 49.832031 C 335.582031 50.136719 335.734375 50.539062 335.816406 51.042969 L 334.523438 51.21875 C 334.464844 50.820312 334.292969 50.503906 334.011719 50.28125 C 333.734375 50.054688 333.332031 49.941406 332.820312 49.941406 C 332.210938 49.941406 331.777344 50.042969 331.519531 50.242188 C 331.261719 50.441406 331.128906 50.679688 331.128906 50.945312 C 331.128906 51.121094 331.183594 51.273438 331.292969 51.410156 C 331.398438 51.554688 331.570312 51.667969 331.800781 51.765625 C 331.933594 51.8125 332.320312 51.925781 332.96875 52.101562 C 333.902344 52.351562 334.554688 52.554688 334.921875 52.714844 C 335.296875 52.871094 335.585938 53.105469 335.796875 53.410156 C 336.007812 53.714844 336.113281 54.089844 336.113281 54.539062 C 336.113281 54.980469 335.980469 55.394531 335.726562 55.785156 C 335.46875 56.175781 335.097656 56.476562 334.613281 56.691406 C 334.128906 56.902344 333.578125 57.007812 332.96875 57.007812 C 331.953125 57.007812 331.179688 56.796875 330.648438 56.375 C 330.117188 55.953125 329.777344 55.332031 329.632812 54.503906 "/>
<g clip-path="url(#clip1)" clip-rule="nonzero">
<path style="fill:none;stroke-width:39.9997;stroke-linecap:butt;stroke-linejoin:miter;stroke:rgb(13.729858%,12.159729%,12.548828%);stroke-opacity:1;stroke-miterlimit:22.9256;" d="M 8459.958021 1602.357154 L 10158.8348 1602.357154 L 10158.8348 143.317767 L 8459.958021 143.317767 Z M 8459.958021 1602.357154 " transform="matrix(0.034154,0,0,-0.034154,0.5,72.223)"/>
</g>
<path style=" stroke:none;fill-rule:nonzero;fill:rgb(13.729858%,12.159729%,12.548828%);fill-opacity:1;" d="M 180.546875 36.246094 L 181.972656 36.609375 C 181.675781 37.777344 181.136719 38.667969 180.359375 39.285156 C 179.582031 39.902344 178.636719 40.207031 177.511719 40.207031 C 176.351562 40.207031 175.40625 39.96875 174.679688 39.5 C 173.953125 39.023438 173.398438 38.339844 173.019531 37.445312 C 172.640625 36.546875 172.453125 35.585938 172.453125 34.554688 C 172.453125 33.4375 172.664062 32.457031 173.09375 31.621094 C 173.523438 30.789062 174.132812 30.152344 174.925781 29.71875 C 175.714844 29.285156 176.585938 29.070312 177.535156 29.070312 C 178.613281 29.070312 179.519531 29.34375 180.253906 29.890625 C 180.988281 30.441406 181.5 31.210938 181.789062 32.207031 L 180.386719 32.539062 C 180.136719 31.753906 179.773438 31.183594 179.296875 30.824219 C 178.824219 30.464844 178.226562 30.289062 177.503906 30.289062 C 176.675781 30.289062 175.988281 30.488281 175.429688 30.882812 C 174.875 31.28125 174.484375 31.8125 174.261719 32.484375 C 174.035156 33.148438 173.921875 33.839844 173.921875 34.550781 C 173.921875 35.46875 174.054688 36.265625 174.320312 36.949219 C 174.589844 37.632812 175.003906 38.140625 175.566406 38.480469 C 176.128906 38.820312 176.738281 38.988281 177.398438 38.988281 C 178.195312 38.988281 178.867188 38.757812 179.421875 38.296875 C 179.976562 37.835938 180.351562 37.152344 180.546875 36.246094 "/>
<path style=" stroke:none;fill-rule:nonzero;fill:rgb(13.729858%,12.159729%,12.548828%);fill-opacity:1;" d="M 186.335938 38.28125 L 186.335938 35.328125 L 183.40625 35.328125 L 183.40625 34.09375 L 186.335938 34.09375 L 186.335938 31.164062 L 187.585938 31.164062 L 187.585938 34.09375 L 190.515625 34.09375 L 190.515625 35.328125 L 187.585938 35.328125 L 187.585938 38.28125 L 186.335938 38.28125 "/>
<path style=" stroke:none;fill-rule:nonzero;fill:rgb(13.729858%,12.159729%,12.548828%);fill-opacity:1;" d="M 195.125 38.28125 L 195.125 35.328125 L 192.191406 35.328125 L 192.191406 34.09375 L 195.125 34.09375 L 195.125 31.164062 L 196.371094 31.164062 L 196.371094 34.09375 L 199.304688 34.09375 L 199.304688 35.328125 L 196.371094 35.328125 L 196.371094 38.28125 L 195.125 38.28125 "/>
<path style=" stroke:none;fill-rule:nonzero;fill:rgb(13.729858%,12.159729%,12.548828%);fill-opacity:1;" d="M 177.785156 53.972656 L 179.085938 54.144531 C 178.945312 55.039062 178.582031 55.742188 177.992188 56.25 C 177.410156 56.753906 176.691406 57.007812 175.835938 57.007812 C 174.769531 57.007812 173.910156 56.660156 173.265625 55.960938 C 172.613281 55.265625 172.289062 54.265625 172.289062 52.960938 C 172.289062 52.117188 172.429688 51.382812 172.707031 50.75 C 172.988281 50.117188 173.410156 49.644531 173.984375 49.328125 C 174.554688 49.011719 175.175781 48.851562 175.84375 48.851562 C 176.691406 48.851562 177.386719 49.070312 177.921875 49.496094 C 178.460938 49.925781 178.808594 50.535156 178.960938 51.324219 L 177.675781 51.519531 C 177.550781 50.996094 177.335938 50.605469 177.027344 50.335938 C 176.714844 50.074219 176.339844 49.941406 175.898438 49.941406 C 175.230469 49.941406 174.6875 50.179688 174.273438 50.660156 C 173.855469 51.136719 173.648438 51.890625 173.648438 52.921875 C 173.648438 53.972656 173.847656 54.734375 174.253906 55.210938 C 174.652344 55.683594 175.175781 55.921875 175.824219 55.921875 C 176.34375 55.921875 176.773438 55.761719 177.125 55.445312 C 177.472656 55.125 177.691406 54.636719 177.785156 53.972656 "/>
<path style=" stroke:none;fill-rule:nonzero;fill:rgb(13.729858%,12.159729%,12.548828%);fill-opacity:1;" d="M 180.1875 56.832031 L 180.1875 46.0625 L 181.507812 46.0625 L 181.507812 56.832031 L 180.1875 56.832031 "/>
<path style=" stroke:none;fill-rule:nonzero;fill:rgb(13.729858%,12.159729%,12.548828%);fill-opacity:1;" d="M 188.652344 55.871094 C 188.160156 56.285156 187.6875 56.578125 187.238281 56.753906 C 186.78125 56.921875 186.296875 57.007812 185.777344 57.007812 C 184.921875 57.007812 184.261719 56.800781 183.800781 56.382812 C 183.34375 55.960938 183.113281 55.425781 183.113281 54.777344 C 183.113281 54.394531 183.195312 54.042969 183.371094 53.726562 C 183.546875 53.414062 183.773438 53.160156 184.054688 52.96875 C 184.339844 52.777344 184.652344 52.632812 185.007812 52.535156 C 185.265625 52.464844 185.65625 52.398438 186.179688 52.335938 C 187.25 52.207031 188.039062 52.058594 188.542969 51.878906 C 188.546875 51.699219 188.546875 51.582031 188.546875 51.535156 C 188.546875 50.996094 188.421875 50.617188 188.171875 50.398438 C 187.835938 50.097656 187.332031 49.949219 186.667969 49.949219 C 186.046875 49.949219 185.585938 50.058594 185.289062 50.273438 C 184.992188 50.492188 184.773438 50.878906 184.632812 51.433594 L 183.339844 51.253906 C 183.457031 50.703125 183.652344 50.253906 183.917969 49.917969 C 184.1875 49.574219 184.578125 49.3125 185.089844 49.128906 C 185.597656 48.945312 186.1875 48.851562 186.859375 48.851562 C 187.527344 48.851562 188.066406 48.933594 188.480469 49.089844 C 188.898438 49.246094 189.203125 49.441406 189.402344 49.679688 C 189.597656 49.917969 189.730469 50.21875 189.8125 50.582031 C 189.855469 50.804688 189.878906 51.210938 189.878906 51.800781 L 189.878906 53.5625 C 189.878906 54.792969 189.90625 55.570312 189.964844 55.894531 C 190.019531 56.222656 190.132812 56.535156 190.296875 56.832031 L 188.914062 56.832031 C 188.78125 56.558594 188.6875 56.238281 188.652344 55.871094 Z M 188.542969 52.914062 C 188.058594 53.113281 187.339844 53.277344 186.382812 53.417969 C 185.839844 53.496094 185.453125 53.582031 185.226562 53.679688 C 185.003906 53.777344 184.828125 53.921875 184.707031 54.113281 C 184.582031 54.300781 184.519531 54.507812 184.519531 54.738281 C 184.519531 55.09375 184.65625 55.386719 184.921875 55.621094 C 185.1875 55.855469 185.578125 55.972656 186.09375 55.972656 C 186.601562 55.972656 187.058594 55.863281 187.453125 55.640625 C 187.847656 55.414062 188.140625 55.109375 188.328125 54.722656 C 188.472656 54.425781 188.542969 53.984375 188.542969 53.402344 L 188.542969 52.914062 "/>
<path style=" stroke:none;fill-rule:nonzero;fill:rgb(13.729858%,12.159729%,12.548828%);fill-opacity:1;" d="M 191.398438 54.503906 L 192.707031 54.296875 C 192.777344 54.820312 192.984375 55.222656 193.320312 55.503906 C 193.65625 55.78125 194.125 55.921875 194.726562 55.921875 C 195.335938 55.921875 195.785156 55.796875 196.078125 55.550781 C 196.371094 55.304688 196.519531 55.011719 196.519531 54.679688 C 196.519531 54.378906 196.390625 54.148438 196.128906 53.972656 C 195.949219 53.855469 195.496094 53.707031 194.777344 53.527344 C 193.808594 53.28125 193.136719 53.070312 192.761719 52.890625 C 192.386719 52.710938 192.101562 52.464844 191.910156 52.148438 C 191.714844 51.832031 191.617188 51.484375 191.617188 51.101562 C 191.617188 50.753906 191.699219 50.433594 191.859375 50.136719 C 192.015625 49.839844 192.234375 49.59375 192.507812 49.398438 C 192.714844 49.246094 192.996094 49.117188 193.347656 49.011719 C 193.703125 48.90625 194.085938 48.851562 194.492188 48.851562 C 195.105469 48.851562 195.640625 48.945312 196.105469 49.117188 C 196.570312 49.292969 196.910156 49.53125 197.128906 49.832031 C 197.351562 50.136719 197.5 50.539062 197.585938 51.042969 L 196.292969 51.21875 C 196.234375 50.820312 196.0625 50.503906 195.78125 50.28125 C 195.5 50.054688 195.101562 49.941406 194.585938 49.941406 C 193.980469 49.941406 193.546875 50.042969 193.289062 50.242188 C 193.027344 50.441406 192.898438 50.679688 192.898438 50.945312 C 192.898438 51.121094 192.953125 51.273438 193.058594 51.410156 C 193.167969 51.554688 193.335938 51.667969 193.566406 51.765625 C 193.699219 51.8125 194.089844 51.925781 194.734375 52.101562 C 195.671875 52.351562 196.324219 52.554688 196.691406 52.714844 C 197.0625 52.871094 197.351562 53.105469 197.5625 53.410156 C 197.773438 53.714844 197.878906 54.089844 197.878906 54.539062 C 197.878906 54.980469 197.75 55.394531 197.492188 55.785156 C 197.234375 56.175781 196.863281 56.476562 196.378906 56.691406 C 195.894531 56.902344 195.347656 57.007812 194.734375 57.007812 C 193.71875 57.007812 192.949219 56.796875 192.414062 56.375 C 191.882812 55.953125 191.546875 55.332031 191.398438 54.503906 "/>
<path style=" stroke:none;fill-rule:nonzero;fill:rgb(13.729858%,12.159729%,12.548828%);fill-opacity:1;" d="M 198.921875 54.503906 L 200.230469 54.296875 C 200.300781 54.820312 200.507812 55.222656 200.84375 55.503906 C 201.175781 55.78125 201.648438 55.921875 202.25 55.921875 C 202.859375 55.921875 203.308594 55.796875 203.601562 55.550781 C 203.894531 55.304688 204.042969 55.011719 204.042969 54.679688 C 204.042969 54.378906 203.914062 54.148438 203.652344 53.972656 C 203.472656 53.855469 203.019531 53.707031 202.300781 53.527344 C 201.332031 53.28125 200.660156 53.070312 200.285156 52.890625 C 199.910156 52.710938 199.625 52.464844 199.433594 52.148438 C 199.238281 51.832031 199.140625 51.484375 199.140625 51.101562 C 199.140625 50.753906 199.222656 50.433594 199.382812 50.136719 C 199.539062 49.839844 199.757812 49.59375 200.03125 49.398438 C 200.238281 49.246094 200.519531 49.117188 200.871094 49.011719 C 201.226562 48.90625 201.609375 48.851562 202.015625 48.851562 C 202.628906 48.851562 203.164062 48.945312 203.628906 49.117188 C 204.089844 49.292969 204.433594 49.53125 204.652344 49.832031 C 204.875 50.136719 205.023438 50.539062 205.105469 51.042969 L 203.816406 51.21875 C 203.753906 50.820312 203.585938 50.503906 203.304688 50.28125 C 203.023438 50.054688 202.625 49.941406 202.109375 49.941406 C 201.503906 49.941406 201.070312 50.042969 200.8125 50.242188 C 200.550781 50.441406 200.421875 50.679688 200.421875 50.945312 C 200.421875 51.121094 200.476562 51.273438 200.582031 51.410156 C 200.691406 51.554688 200.859375 51.667969 201.089844 51.765625 C 201.222656 51.8125 201.613281 51.925781 202.257812 52.101562 C 203.195312 52.351562 203.847656 52.554688 204.214844 52.714844 C 204.585938 52.871094 204.875 53.105469 205.085938 53.410156 C 205.296875 53.714844 205.402344 54.089844 205.402344 54.539062 C 205.402344 54.980469 205.273438 55.394531 205.015625 55.785156 C 204.757812 56.175781 204.386719 56.476562 203.902344 56.691406 C 203.417969 56.902344 202.871094 57.007812 202.257812 57.007812 C 201.242188 57.007812 200.46875 56.796875 199.9375 56.375 C 199.40625 55.953125 199.070312 55.332031 198.921875 54.503906 "/>
<path style="fill:none;stroke-width:39.9997;stroke-linecap:butt;stroke-linejoin:miter;stroke:rgb(13.729858%,12.159729%,12.548828%);stroke-opacity:1;stroke-miterlimit:22.9256;" d="M 4632.853216 1602.357154 L 6331.729995 1602.357154 L 6331.729995 143.317767 L 4632.853216 143.317767 Z M 4632.853216 1602.357154 " transform="matrix(0.034154,0,0,-0.034154,0.5,72.223)"/>
<path style="fill:none;stroke-width:79.9994;stroke-linecap:butt;stroke-linejoin:miter;stroke:rgb(13.729858%,12.159729%,12.548828%);stroke-opacity:1;stroke-miterlimit:22.9256;" d="M 6353.231869 1188.560454 L 8001.327626 1188.560454 " transform="matrix(0.034154,0,0,-0.034154,0.5,72.223)"/>
<path style=" stroke:none;fill-rule:evenodd;fill:rgb(13.729858%,12.159729%,12.548828%);fill-opacity:1;" d="M 289.628906 31.628906 L 272.902344 23.269531 L 272.902344 39.996094 Z M 289.628906 31.628906 "/>
<path style="fill:none;stroke-width:79.9994;stroke-linecap:butt;stroke-linejoin:miter;stroke:rgb(13.729858%,12.159729%,12.548828%);stroke-opacity:1;stroke-miterlimit:22.9256;" d="M 2640.384362 1188.560454 L 4157.867673 1188.560454 " transform="matrix(0.034154,0,0,-0.034154,0.5,72.223)"/>
<path style=" stroke:none;fill-rule:evenodd;fill:rgb(13.729858%,12.159729%,12.548828%);fill-opacity:1;" d="M 158.363281 31.628906 L 141.632812 23.269531 L 141.632812 39.996094 Z M 158.363281 31.628906 "/>
<path style="fill:none;stroke-width:79.9994;stroke-linecap:butt;stroke-linejoin:miter;stroke:rgb(13.729858%,12.159729%,12.548828%);stroke-opacity:1;stroke-miterlimit:22.9256;" d="M 8453.781951 600.575701 L 6817.237732 600.575701 " transform="matrix(0.034154,0,0,-0.034154,0.5,72.223)"/>
<path style=" stroke:none;fill-rule:evenodd;fill:rgb(13.729858%,12.159729%,12.548828%);fill-opacity:1;" d="M 217.484375 51.710938 L 234.210938 60.070312 L 234.210938 43.34375 Z M 217.484375 51.710938 "/>
<path style="fill:none;stroke-width:79.9994;stroke-linecap:butt;stroke-linejoin:miter;stroke:rgb(13.729858%,12.159729%,12.548828%);stroke-opacity:1;stroke-miterlimit:22.9256;" d="M 4622.102279 600.575701 L 3115.369905 600.575701 " transform="matrix(0.034154,0,0,-0.034154,0.5,72.223)"/>
<path style=" stroke:none;fill-rule:evenodd;fill:rgb(13.729858%,12.159729%,12.548828%);fill-opacity:1;" d="M 91.050781 51.710938 L 107.777344 60.070312 L 107.777344 43.34375 Z M 91.050781 51.710938 "/>
<path style=" stroke:none;fill-rule:nonzero;fill:rgb(13.729858%,12.159729%,12.548828%);fill-opacity:1;" d="M 222.328125 69.886719 L 223.394531 69.71875 C 223.457031 70.144531 223.625 70.472656 223.898438 70.703125 C 224.171875 70.929688 224.554688 71.046875 225.046875 71.046875 C 225.542969 71.046875 225.914062 70.945312 226.152344 70.742188 C 226.390625 70.539062 226.511719 70.300781 226.511719 70.03125 C 226.511719 69.785156 226.40625 69.59375 226.191406 69.453125 C 226.046875 69.355469 225.675781 69.238281 225.089844 69.089844 C 224.296875 68.886719 223.746094 68.714844 223.441406 68.570312 C 223.136719 68.421875 222.902344 68.21875 222.746094 67.960938 C 222.585938 67.703125 222.507812 67.417969 222.507812 67.105469 C 222.507812 66.824219 222.570312 66.558594 222.703125 66.316406 C 222.832031 66.074219 223.011719 65.875 223.234375 65.714844 C 223.402344 65.589844 223.632812 65.484375 223.921875 65.398438 C 224.210938 65.3125 224.523438 65.269531 224.855469 65.269531 C 225.355469 65.269531 225.792969 65.34375 226.171875 65.484375 C 226.550781 65.628906 226.832031 65.824219 227.011719 66.070312 C 227.191406 66.316406 227.3125 66.644531 227.382812 67.058594 L 226.328125 67.203125 C 226.277344 66.875 226.136719 66.621094 225.90625 66.433594 C 225.679688 66.25 225.351562 66.160156 224.933594 66.160156 C 224.4375 66.160156 224.082031 66.242188 223.871094 66.40625 C 223.65625 66.566406 223.550781 66.761719 223.550781 66.980469 C 223.550781 67.121094 223.597656 67.246094 223.683594 67.359375 C 223.773438 67.476562 223.910156 67.570312 224.097656 67.648438 C 224.207031 67.6875 224.523438 67.78125 225.054688 67.921875 C 225.820312 68.128906 226.351562 68.292969 226.652344 68.425781 C 226.957031 68.554688 227.191406 68.746094 227.367188 68.992188 C 227.539062 69.242188 227.625 69.546875 227.625 69.917969 C 227.625 70.277344 227.515625 70.617188 227.308594 70.933594 C 227.097656 71.253906 226.792969 71.5 226.398438 71.671875 C 226.003906 71.847656 225.554688 71.933594 225.054688 71.933594 C 224.222656 71.933594 223.59375 71.761719 223.15625 71.417969 C 222.722656 71.074219 222.449219 70.5625 222.328125 69.886719 "/>
<path style=" stroke:none;fill-rule:nonzero;fill:rgb(13.729858%,12.159729%,12.548828%);fill-opacity:1;" d="M 233.269531 69.738281 L 234.386719 69.875 C 234.210938 70.527344 233.886719 71.035156 233.410156 71.394531 C 232.933594 71.753906 232.324219 71.933594 231.585938 71.933594 C 230.652344 71.933594 229.914062 71.644531 229.367188 71.074219 C 228.820312 70.5 228.546875 69.691406 228.546875 68.65625 C 228.546875 67.582031 228.824219 66.75 229.375 66.160156 C 229.929688 65.566406 230.644531 65.269531 231.523438 65.269531 C 232.378906 65.269531 233.074219 65.558594 233.613281 66.140625 C 234.15625 66.71875 234.425781 67.539062 234.425781 68.589844 C 234.425781 68.65625 234.421875 68.75 234.417969 68.878906 L 229.664062 68.878906 C 229.703125 69.578125 229.902344 70.117188 230.257812 70.488281 C 230.617188 70.859375 231.058594 71.046875 231.589844 71.046875 C 231.984375 71.046875 232.324219 70.941406 232.605469 70.730469 C 232.886719 70.527344 233.105469 70.195312 233.269531 69.738281 Z M 229.722656 67.988281 L 233.285156 67.988281 C 233.234375 67.453125 233.097656 67.050781 232.875 66.785156 C 232.53125 66.367188 232.085938 66.160156 231.539062 66.160156 C 231.042969 66.160156 230.625 66.324219 230.285156 66.65625 C 229.945312 66.988281 229.761719 67.433594 229.722656 67.988281 "/>
<path style=" stroke:none;fill-rule:nonzero;fill:rgb(13.729858%,12.159729%,12.548828%);fill-opacity:1;" d="M 238.105469 70.824219 L 238.261719 71.777344 C 237.957031 71.839844 237.683594 71.875 237.445312 71.875 C 237.050781 71.875 236.75 71.8125 236.53125 71.6875 C 236.316406 71.5625 236.164062 71.398438 236.078125 71.199219 C 235.988281 70.996094 235.941406 70.570312 235.941406 69.921875 L 235.941406 66.253906 L 235.148438 66.253906 L 235.148438 65.414062 L 235.941406 65.414062 L 235.941406 63.835938 L 237.019531 63.1875 L 237.019531 65.414062 L 238.105469 65.414062 L 238.105469 66.253906 L 237.019531 66.253906 L 237.019531 69.980469 C 237.019531 70.292969 237.039062 70.488281 237.074219 70.578125 C 237.113281 70.664062 237.175781 70.734375 237.261719 70.789062 C 237.347656 70.839844 237.46875 70.867188 237.628906 70.867188 C 237.75 70.867188 237.910156 70.851562 238.105469 70.824219 "/>
<path style=" stroke:none;fill-rule:nonzero;fill:rgb(13.729858%,12.159729%,12.548828%);fill-opacity:1;" d="M 241.519531 70.824219 L 241.675781 71.777344 C 241.375 71.839844 241.101562 71.875 240.863281 71.875 C 240.46875 71.875 240.164062 71.8125 239.949219 71.6875 C 239.730469 71.5625 239.582031 71.398438 239.492188 71.199219 C 239.40625 70.996094 239.359375 70.570312 239.359375 69.921875 L 239.359375 66.253906 L 238.566406 66.253906 L 238.566406 65.414062 L 239.359375 65.414062 L 239.359375 63.835938 L 240.4375 63.1875 L 240.4375 65.414062 L 241.519531 65.414062 L 241.519531 66.253906 L 240.4375 66.253906 L 240.4375 69.980469 C 240.4375 70.292969 240.453125 70.488281 240.492188 70.578125 C 240.53125 70.664062 240.589844 70.734375 240.675781 70.789062 C 240.761719 70.839844 240.886719 70.867188 241.046875 70.867188 C 241.167969 70.867188 241.324219 70.851562 241.519531 70.824219 "/>
<path style=" stroke:none;fill-rule:nonzero;fill:rgb(13.729858%,12.159729%,12.548828%);fill-opacity:1;" d="M 246.941406 69.738281 L 248.058594 69.875 C 247.882812 70.527344 247.558594 71.035156 247.082031 71.394531 C 246.601562 71.753906 245.996094 71.933594 245.253906 71.933594 C 244.324219 71.933594 243.582031 71.644531 243.039062 71.074219 C 242.492188 70.5 242.21875 69.691406 242.21875 68.65625 C 242.21875 67.582031 242.496094 66.75 243.046875 66.160156 C 243.597656 65.566406 244.316406 65.269531 245.195312 65.269531 C 246.046875 65.269531 246.746094 65.558594 247.285156 66.140625 C 247.824219 66.71875 248.09375 67.539062 248.09375 68.589844 C 248.09375 68.65625 248.09375 68.75 248.089844 68.878906 L 243.335938 68.878906 C 243.375 69.578125 243.574219 70.117188 243.929688 70.488281 C 244.285156 70.859375 244.726562 71.046875 245.261719 71.046875 C 245.65625 71.046875 245.996094 70.941406 246.277344 70.730469 C 246.554688 70.527344 246.777344 70.195312 246.941406 69.738281 Z M 243.394531 67.988281 L 246.953125 67.988281 C 246.90625 67.453125 246.769531 67.050781 246.546875 66.785156 C 246.203125 66.367188 245.753906 66.160156 245.207031 66.160156 C 244.710938 66.160156 244.292969 66.324219 243.957031 66.65625 C 243.617188 66.988281 243.429688 67.433594 243.394531 67.988281 "/>
<path style=" stroke:none;fill-rule:nonzero;fill:rgb(13.729858%,12.159729%,12.548828%);fill-opacity:1;" d="M 249.40625 71.789062 L 249.40625 65.414062 L 250.375 65.414062 L 250.375 66.378906 C 250.625 65.929688 250.855469 65.628906 251.066406 65.484375 C 251.273438 65.34375 251.503906 65.269531 251.757812 65.269531 C 252.121094 65.269531 252.492188 65.386719 252.867188 65.617188 L 252.496094 66.621094 C 252.234375 66.464844 251.96875 66.386719 251.703125 66.386719 C 251.464844 66.386719 251.253906 66.457031 251.066406 66.597656 C 250.878906 66.742188 250.746094 66.9375 250.664062 67.191406 C 250.542969 67.574219 250.484375 67.996094 250.484375 68.453125 L 250.484375 71.789062 L 249.40625 71.789062 "/>
<path style=" stroke:none;fill-rule:nonzero;fill:rgb(13.729858%,12.159729%,12.548828%);fill-opacity:1;" d="M 253.078125 69.886719 L 254.148438 69.71875 C 254.207031 70.144531 254.375 70.472656 254.648438 70.703125 C 254.921875 70.929688 255.304688 71.046875 255.796875 71.046875 C 256.292969 71.046875 256.664062 70.945312 256.902344 70.742188 C 257.144531 70.539062 257.261719 70.300781 257.261719 70.03125 C 257.261719 69.785156 257.15625 69.59375 256.945312 69.453125 C 256.796875 69.355469 256.425781 69.238281 255.839844 69.089844 C 255.046875 68.886719 254.496094 68.714844 254.191406 68.570312 C 253.886719 68.421875 253.652344 68.21875 253.496094 67.960938 C 253.335938 67.703125 253.257812 67.417969 253.257812 67.105469 C 253.257812 66.824219 253.324219 66.558594 253.453125 66.316406 C 253.582031 66.074219 253.761719 65.875 253.984375 65.714844 C 254.152344 65.589844 254.382812 65.484375 254.671875 65.398438 C 254.960938 65.3125 255.273438 65.269531 255.605469 65.269531 C 256.105469 65.269531 256.542969 65.34375 256.921875 65.484375 C 257.300781 65.628906 257.582031 65.824219 257.761719 66.070312 C 257.941406 66.316406 258.066406 66.644531 258.132812 67.058594 L 257.078125 67.203125 C 257.027344 66.875 256.886719 66.621094 256.660156 66.433594 C 256.429688 66.25 256.105469 66.160156 255.683594 66.160156 C 255.1875 66.160156 254.832031 66.242188 254.621094 66.40625 C 254.410156 66.566406 254.300781 66.761719 254.300781 66.980469 C 254.300781 67.121094 254.347656 67.246094 254.4375 67.359375 C 254.523438 67.476562 254.660156 67.570312 254.851562 67.648438 C 254.957031 67.6875 255.277344 67.78125 255.804688 67.921875 C 256.570312 68.128906 257.101562 68.292969 257.402344 68.425781 C 257.707031 68.554688 257.945312 68.746094 258.117188 68.992188 C 258.289062 69.242188 258.375 69.546875 258.375 69.917969 C 258.375 70.277344 258.269531 70.617188 258.058594 70.933594 C 257.847656 71.253906 257.542969 71.5 257.148438 71.671875 C 256.753906 71.847656 256.304688 71.933594 255.804688 71.933594 C 254.976562 71.933594 254.34375 71.761719 253.910156 71.417969 C 253.472656 71.074219 253.199219 70.5625 253.078125 69.886719 "/>
<path style=" stroke:none;fill-rule:nonzero;fill:rgb(13.729858%,12.159729%,12.548828%);fill-opacity:1;" d="M 225.320312 25.09375 L 226.382812 25.234375 C 226.269531 25.964844 225.972656 26.539062 225.492188 26.953125 C 225.015625 27.367188 224.425781 27.574219 223.730469 27.574219 C 222.859375 27.574219 222.15625 27.289062 221.625 26.71875 C 221.09375 26.148438 220.828125 25.332031 220.828125 24.265625 C 220.828125 23.578125 220.945312 22.976562 221.171875 22.457031 C 221.402344 21.941406 221.746094 21.554688 222.214844 21.296875 C 222.679688 21.039062 223.1875 20.910156 223.734375 20.910156 C 224.425781 20.910156 224.996094 21.085938 225.433594 21.4375 C 225.875 21.785156 226.15625 22.28125 226.28125 22.929688 L 225.230469 23.089844 C 225.128906 22.660156 224.953125 22.339844 224.699219 22.121094 C 224.445312 21.90625 224.140625 21.796875 223.777344 21.796875 C 223.234375 21.796875 222.789062 21.992188 222.449219 22.386719 C 222.109375 22.773438 221.941406 23.390625 221.941406 24.234375 C 221.941406 25.09375 222.105469 25.714844 222.433594 26.105469 C 222.761719 26.492188 223.191406 26.6875 223.71875 26.6875 C 224.144531 26.6875 224.496094 26.554688 224.78125 26.296875 C 225.066406 26.035156 225.246094 25.636719 225.320312 25.09375 "/>
<path style=" stroke:none;fill-rule:nonzero;fill:rgb(13.729858%,12.159729%,12.548828%);fill-opacity:1;" d="M 231.46875 26.644531 C 231.066406 26.984375 230.679688 27.222656 230.3125 27.363281 C 229.941406 27.503906 229.542969 27.574219 229.121094 27.574219 C 228.417969 27.574219 227.882812 27.402344 227.503906 27.0625 C 227.128906 26.71875 226.941406 26.28125 226.941406 25.75 C 226.941406 25.4375 227.011719 25.152344 227.15625 24.894531 C 227.296875 24.636719 227.484375 24.429688 227.710938 24.273438 C 227.945312 24.117188 228.203125 23.996094 228.492188 23.917969 C 228.703125 23.863281 229.023438 23.808594 229.449219 23.753906 C 230.324219 23.652344 230.964844 23.527344 231.378906 23.382812 C 231.382812 23.234375 231.386719 23.140625 231.386719 23.101562 C 231.386719 22.660156 231.28125 22.351562 231.078125 22.171875 C 230.804688 21.925781 230.390625 21.804688 229.847656 21.804688 C 229.339844 21.804688 228.964844 21.894531 228.722656 22.070312 C 228.480469 22.25 228.300781 22.566406 228.183594 23.019531 L 227.128906 22.871094 C 227.222656 22.421875 227.382812 22.054688 227.601562 21.777344 C 227.820312 21.5 228.140625 21.285156 228.558594 21.132812 C 228.972656 20.984375 229.453125 20.910156 230.003906 20.910156 C 230.546875 20.910156 230.988281 20.976562 231.328125 21.101562 C 231.667969 21.230469 231.917969 21.390625 232.082031 21.585938 C 232.242188 21.78125 232.351562 22.023438 232.417969 22.320312 C 232.453125 22.503906 232.472656 22.835938 232.472656 23.316406 L 232.472656 24.757812 C 232.472656 25.765625 232.492188 26.398438 232.539062 26.664062 C 232.585938 26.929688 232.679688 27.1875 232.8125 27.429688 L 231.683594 27.429688 C 231.574219 27.207031 231.5 26.945312 231.46875 26.644531 Z M 231.378906 24.230469 C 230.984375 24.390625 230.398438 24.527344 229.613281 24.640625 C 229.167969 24.703125 228.855469 24.773438 228.671875 24.855469 C 228.488281 24.933594 228.34375 25.050781 228.246094 25.207031 C 228.144531 25.359375 228.09375 25.53125 228.09375 25.71875 C 228.09375 26.007812 228.203125 26.246094 228.421875 26.441406 C 228.640625 26.628906 228.957031 26.726562 229.378906 26.726562 C 229.792969 26.726562 230.164062 26.636719 230.488281 26.453125 C 230.8125 26.273438 231.054688 26.023438 231.203125 25.707031 C 231.320312 25.460938 231.378906 25.101562 231.378906 24.625 L 231.378906 24.230469 "/>
<path style=" stroke:none;fill-rule:nonzero;fill:rgb(13.729858%,12.159729%,12.548828%);fill-opacity:1;" d="M 234.121094 27.429688 L 234.121094 18.628906 L 235.203125 18.628906 L 235.203125 27.429688 L 234.121094 27.429688 "/>
<path style=" stroke:none;fill-rule:nonzero;fill:rgb(13.729858%,12.159729%,12.548828%);fill-opacity:1;" d="M 236.855469 27.429688 L 236.855469 18.628906 L 237.933594 18.628906 L 237.933594 27.429688 L 236.855469 27.429688 "/>
<path style=" stroke:none;fill-rule:nonzero;fill:rgb(13.729858%,12.159729%,12.548828%);fill-opacity:1;" d="M 240.605469 27.429688 L 239.605469 27.429688 L 239.605469 18.628906 L 240.683594 18.628906 L 240.683594 21.769531 C 241.140625 21.195312 241.722656 20.910156 242.429688 20.910156 C 242.824219 20.910156 243.195312 20.988281 243.542969 21.148438 C 243.894531 21.304688 244.183594 21.527344 244.410156 21.8125 C 244.636719 22.101562 244.8125 22.445312 244.941406 22.851562 C 245.070312 23.253906 245.132812 23.6875 245.132812 24.144531 C 245.132812 25.238281 244.863281 26.082031 244.320312 26.679688 C 243.78125 27.277344 243.132812 27.574219 242.375 27.574219 C 241.625 27.574219 241.035156 27.261719 240.605469 26.628906 Z M 240.59375 24.195312 C 240.59375 24.957031 240.699219 25.511719 240.90625 25.851562 C 241.246094 26.40625 241.707031 26.6875 242.285156 26.6875 C 242.761719 26.6875 243.167969 26.480469 243.511719 26.070312 C 243.855469 25.660156 244.027344 25.046875 244.027344 24.234375 C 244.027344 23.402344 243.863281 22.789062 243.53125 22.394531 C 243.203125 21.996094 242.804688 21.796875 242.335938 21.796875 C 241.863281 21.796875 241.453125 22.003906 241.109375 22.414062 C 240.765625 22.824219 240.59375 23.417969 240.59375 24.195312 "/>
<path style=" stroke:none;fill-rule:nonzero;fill:rgb(13.729858%,12.159729%,12.548828%);fill-opacity:1;" d="M 250.609375 26.644531 C 250.207031 26.984375 249.820312 27.222656 249.453125 27.363281 C 249.082031 27.503906 248.683594 27.574219 248.261719 27.574219 C 247.558594 27.574219 247.023438 27.402344 246.644531 27.0625 C 246.269531 26.71875 246.082031 26.28125 246.082031 25.75 C 246.082031 25.4375 246.152344 25.152344 246.292969 24.894531 C 246.4375 24.636719 246.621094 24.429688 246.851562 24.273438 C 247.085938 24.117188 247.34375 23.996094 247.632812 23.917969 C 247.84375 23.863281 248.160156 23.808594 248.589844 23.753906 C 249.460938 23.652344 250.105469 23.527344 250.519531 23.382812 C 250.523438 23.234375 250.523438 23.140625 250.523438 23.101562 C 250.523438 22.660156 250.421875 22.351562 250.21875 22.171875 C 249.941406 21.925781 249.53125 21.804688 248.988281 21.804688 C 248.480469 21.804688 248.105469 21.894531 247.859375 22.070312 C 247.617188 22.25 247.441406 22.566406 247.324219 23.019531 L 246.269531 22.871094 C 246.363281 22.421875 246.523438 22.054688 246.742188 21.777344 C 246.960938 21.5 247.28125 21.285156 247.695312 21.132812 C 248.113281 20.984375 248.59375 20.910156 249.144531 20.910156 C 249.6875 20.910156 250.128906 20.976562 250.46875 21.101562 C 250.808594 21.230469 251.058594 21.390625 251.222656 21.585938 C 251.382812 21.78125 251.492188 22.023438 251.558594 22.320312 C 251.59375 22.503906 251.609375 22.835938 251.609375 23.316406 L 251.609375 24.757812 C 251.609375 25.765625 251.632812 26.398438 251.679688 26.664062 C 251.726562 26.929688 251.816406 27.1875 251.953125 27.429688 L 250.824219 27.429688 C 250.710938 27.207031 250.640625 26.945312 250.609375 26.644531 Z M 250.519531 24.230469 C 250.125 24.390625 249.535156 24.527344 248.753906 24.640625 C 248.308594 24.703125 247.992188 24.773438 247.8125 24.855469 C 247.625 24.933594 247.484375 25.050781 247.386719 25.207031 C 247.285156 25.359375 247.234375 25.53125 247.234375 25.71875 C 247.234375 26.007812 247.34375 26.246094 247.5625 26.441406 C 247.777344 26.628906 248.097656 26.726562 248.519531 26.726562 C 248.933594 26.726562 249.304688 26.636719 249.628906 26.453125 C 249.953125 26.273438 250.191406 26.023438 250.34375 25.707031 C 250.460938 25.460938 250.519531 25.101562 250.519531 24.625 L 250.519531 24.230469 "/>
<path style=" stroke:none;fill-rule:nonzero;fill:rgb(13.729858%,12.159729%,12.548828%);fill-opacity:1;" d="M 257.445312 25.09375 L 258.507812 25.234375 C 258.394531 25.964844 258.097656 26.539062 257.617188 26.953125 C 257.140625 27.367188 256.550781 27.574219 255.855469 27.574219 C 254.984375 27.574219 254.28125 27.289062 253.75 26.71875 C 253.222656 26.148438 252.953125 25.332031 252.953125 24.265625 C 252.953125 23.578125 253.070312 22.976562 253.296875 22.457031 C 253.527344 21.941406 253.871094 21.554688 254.339844 21.296875 C 254.804688 21.039062 255.3125 20.910156 255.859375 20.910156 C 256.554688 20.910156 257.121094 21.085938 257.558594 21.4375 C 258 21.785156 258.28125 22.28125 258.40625 22.929688 L 257.355469 23.089844 C 257.257812 22.660156 257.082031 22.339844 256.824219 22.121094 C 256.570312 21.90625 256.265625 21.796875 255.902344 21.796875 C 255.359375 21.796875 254.917969 21.992188 254.574219 22.386719 C 254.234375 22.773438 254.066406 23.390625 254.066406 24.234375 C 254.066406 25.09375 254.230469 25.714844 254.558594 26.105469 C 254.886719 26.492188 255.316406 26.6875 255.84375 26.6875 C 256.269531 26.6875 256.621094 26.554688 256.90625 26.296875 C 257.191406 26.035156 257.371094 25.636719 257.445312 25.09375 "/>
<path style=" stroke:none;fill-rule:nonzero;fill:rgb(13.729858%,12.159729%,12.548828%);fill-opacity:1;" d="M 259.4375 27.429688 L 259.4375 18.628906 L 260.519531 18.628906 L 260.519531 23.648438 L 263.078125 21.054688 L 264.476562 21.054688 L 262.039062 23.417969 L 264.722656 27.429688 L 263.390625 27.429688 L 261.28125 24.167969 L 260.519531 24.902344 L 260.519531 27.429688 L 259.4375 27.429688 "/>
<path style=" stroke:none;fill-rule:nonzero;fill:rgb(13.729858%,12.159729%,12.548828%);fill-opacity:1;" d="M 265.148438 25.527344 L 266.21875 25.359375 C 266.277344 25.785156 266.445312 26.113281 266.71875 26.34375 C 266.992188 26.570312 267.375 26.6875 267.867188 26.6875 C 268.363281 26.6875 268.734375 26.582031 268.972656 26.382812 C 269.214844 26.179688 269.335938 25.941406 269.335938 25.671875 C 269.335938 25.425781 269.226562 25.234375 269.015625 25.09375 C 268.867188 24.996094 268.5 24.875 267.910156 24.730469 C 267.117188 24.527344 266.566406 24.355469 266.261719 24.207031 C 265.957031 24.0625 265.722656 23.859375 265.566406 23.601562 C 265.410156 23.34375 265.328125 23.058594 265.328125 22.746094 C 265.328125 22.460938 265.394531 22.199219 265.523438 21.957031 C 265.652344 21.714844 265.832031 21.515625 266.054688 21.355469 C 266.222656 21.230469 266.453125 21.125 266.742188 21.039062 C 267.03125 20.953125 267.34375 20.910156 267.675781 20.910156 C 268.175781 20.910156 268.613281 20.984375 268.996094 21.125 C 269.375 21.269531 269.652344 21.464844 269.832031 21.710938 C 270.011719 21.957031 270.136719 22.285156 270.203125 22.699219 L 269.148438 22.84375 C 269.097656 22.515625 268.960938 22.261719 268.730469 22.074219 C 268.5 21.890625 268.175781 21.796875 267.753906 21.796875 C 267.257812 21.796875 266.902344 21.878906 266.691406 22.042969 C 266.480469 22.207031 266.375 22.402344 266.375 22.621094 C 266.375 22.761719 266.417969 22.886719 266.507812 23 C 266.59375 23.117188 266.730469 23.210938 266.921875 23.289062 C 267.027344 23.328125 267.347656 23.417969 267.875 23.5625 C 268.640625 23.769531 269.171875 23.933594 269.472656 24.066406 C 269.777344 24.195312 270.015625 24.386719 270.1875 24.632812 C 270.359375 24.878906 270.445312 25.1875 270.445312 25.558594 C 270.445312 25.917969 270.339844 26.253906 270.128906 26.574219 C 269.917969 26.894531 269.613281 27.140625 269.21875 27.3125 C 268.824219 27.488281 268.375 27.574219 267.875 27.574219 C 267.046875 27.574219 266.414062 27.402344 265.980469 27.058594 C 265.546875 26.710938 265.269531 26.203125 265.148438 25.527344 "/>
<path style=" stroke:none;fill-rule:nonzero;fill:rgb(13.729858%,12.159729%,12.548828%);fill-opacity:1;" d="M 222.933594 13.085938 L 223.984375 13.238281 C 224.027344 13.5625 224.152344 13.800781 224.351562 13.949219 C 224.617188 14.148438 224.984375 14.25 225.449219 14.25 C 225.949219 14.25 226.335938 14.148438 226.609375 13.949219 C 226.878906 13.75 227.0625 13.46875 227.160156 13.109375 C 227.214844 12.886719 227.242188 12.425781 227.238281 11.722656 C 226.765625 12.277344 226.175781 12.554688 225.472656 12.554688 C 224.59375 12.554688 223.917969 12.238281 223.4375 11.605469 C 222.957031 10.976562 222.714844 10.214844 222.714844 9.332031 C 222.714844 8.722656 222.828125 8.160156 223.046875 7.648438 C 223.269531 7.132812 223.585938 6.734375 224.003906 6.453125 C 224.421875 6.175781 224.914062 6.035156 225.480469 6.035156 C 226.230469 6.035156 226.851562 6.339844 227.339844 6.949219 L 227.339844 6.179688 L 228.335938 6.179688 L 228.335938 11.691406 C 228.335938 12.683594 228.234375 13.386719 228.035156 13.800781 C 227.832031 14.214844 227.511719 14.542969 227.074219 14.78125 C 226.632812 15.023438 226.097656 15.144531 225.453125 15.144531 C 224.695312 15.144531 224.078125 14.972656 223.613281 14.628906 C 223.144531 14.289062 222.917969 13.773438 222.933594 13.085938 Z M 223.828125 9.253906 C 223.828125 10.089844 223.992188 10.699219 224.328125 11.085938 C 224.660156 11.46875 225.074219 11.660156 225.574219 11.660156 C 226.070312 11.660156 226.488281 11.46875 226.824219 11.089844 C 227.160156 10.707031 227.328125 10.105469 227.328125 9.289062 C 227.328125 8.507812 227.15625 7.921875 226.808594 7.523438 C 226.460938 7.128906 226.042969 6.929688 225.558594 6.929688 C 225.078125 6.929688 224.667969 7.125 224.332031 7.515625 C 223.996094 7.90625 223.828125 8.484375 223.828125 9.253906 "/>
<path style=" stroke:none;fill-rule:nonzero;fill:rgb(13.729858%,12.159729%,12.548828%);fill-opacity:1;" d="M 234.332031 10.503906 L 235.449219 10.640625 C 235.273438 11.292969 234.949219 11.800781 234.472656 12.160156 C 233.996094 12.519531 233.386719 12.699219 232.648438 12.699219 C 231.714844 12.699219 230.976562 12.414062 230.429688 11.839844 C 229.882812 11.265625 229.609375 10.460938 229.609375 9.421875 C 229.609375 8.347656 229.886719 7.515625 230.4375 6.925781 C 230.992188 6.332031 231.707031 6.035156 232.585938 6.035156 C 233.441406 6.035156 234.136719 6.324219 234.675781 6.90625 C 235.21875 7.484375 235.488281 8.304688 235.488281 9.355469 C 235.488281 9.421875 235.484375 9.515625 235.480469 9.644531 L 230.726562 9.644531 C 230.765625 10.34375 230.964844 10.882812 231.320312 11.253906 C 231.679688 11.625 232.121094 11.8125 232.652344 11.8125 C 233.046875 11.8125 233.386719 11.707031 233.667969 11.5 C 233.949219 11.292969 234.167969 10.960938 234.332031 10.503906 Z M 230.785156 8.753906 L 234.347656 8.753906 C 234.296875 8.21875 234.160156 7.816406 233.9375 7.550781 C 233.59375 7.132812 233.148438 6.925781 232.601562 6.925781 C 232.105469 6.925781 231.6875 7.089844 231.347656 7.421875 C 231.011719 7.753906 230.824219 8.199219 230.785156 8.753906 "/>
<path style=" stroke:none;fill-rule:nonzero;fill:rgb(13.729858%,12.159729%,12.548828%);fill-opacity:1;" d="M 239.167969 11.589844 L 239.324219 12.542969 C 239.019531 12.605469 238.746094 12.640625 238.507812 12.640625 C 238.113281 12.640625 237.8125 12.578125 237.59375 12.453125 C 237.378906 12.332031 237.226562 12.167969 237.140625 11.964844 C 237.050781 11.761719 237.007812 11.335938 237.007812 10.6875 L 237.007812 7.019531 L 236.210938 7.019531 L 236.210938 6.179688 L 237.007812 6.179688 L 237.007812 4.601562 L 238.082031 3.953125 L 238.082031 6.179688 L 239.167969 6.179688 L 239.167969 7.019531 L 238.082031 7.019531 L 238.082031 10.75 C 238.082031 11.058594 238.101562 11.253906 238.136719 11.34375 C 238.175781 11.429688 238.238281 11.5 238.324219 11.554688 C 238.410156 11.605469 238.53125 11.632812 238.691406 11.632812 C 238.8125 11.632812 238.972656 11.617188 239.167969 11.589844 "/>
<path style=" stroke:none;fill-rule:nonzero;fill:rgb(13.729858%,12.159729%,12.548828%);fill-opacity:1;" d="M 242.582031 11.589844 L 242.738281 12.542969 C 242.4375 12.605469 242.164062 12.640625 241.925781 12.640625 C 241.53125 12.640625 241.226562 12.578125 241.011719 12.453125 C 240.792969 12.332031 240.644531 12.167969 240.554688 11.964844 C 240.46875 11.761719 240.421875 11.335938 240.421875 10.6875 L 240.421875 7.019531 L 239.628906 7.019531 L 239.628906 6.179688 L 240.421875 6.179688 L 240.421875 4.601562 L 241.496094 3.953125 L 241.496094 6.179688 L 242.582031 6.179688 L 242.582031 7.019531 L 241.496094 7.019531 L 241.496094 10.75 C 241.496094 11.058594 241.515625 11.253906 241.554688 11.34375 C 241.59375 11.429688 241.652344 11.5 241.738281 11.554688 C 241.824219 11.605469 241.949219 11.632812 242.109375 11.632812 C 242.230469 11.632812 242.386719 11.617188 242.582031 11.589844 "/>
<path style=" stroke:none;fill-rule:nonzero;fill:rgb(13.729858%,12.159729%,12.548828%);fill-opacity:1;" d="M 248.003906 10.503906 L 249.121094 10.640625 C 248.945312 11.292969 248.617188 11.800781 248.144531 12.160156 C 247.664062 12.519531 247.058594 12.699219 246.316406 12.699219 C 245.386719 12.699219 244.644531 12.414062 244.101562 11.839844 C 243.554688 11.265625 243.28125 10.460938 243.28125 9.421875 C 243.28125 8.347656 243.558594 7.515625 244.109375 6.925781 C 244.660156 6.332031 245.378906 6.035156 246.257812 6.035156 C 247.109375 6.035156 247.808594 6.324219 248.347656 6.90625 C 248.886719 7.484375 249.15625 8.304688 249.15625 9.355469 C 249.15625 9.421875 249.15625 9.515625 249.152344 9.644531 L 244.398438 9.644531 C 244.4375 10.34375 244.636719 10.882812 244.992188 11.253906 C 245.347656 11.625 245.789062 11.8125 246.324219 11.8125 C 246.71875 11.8125 247.058594 11.707031 247.339844 11.5 C 247.617188 11.292969 247.839844 10.960938 248.003906 10.503906 Z M 244.457031 8.753906 L 248.015625 8.753906 C 247.96875 8.21875 247.832031 7.816406 247.609375 7.550781 C 247.265625 7.132812 246.816406 6.925781 246.269531 6.925781 C 245.773438 6.925781 245.355469 7.089844 245.019531 7.421875 C 244.679688 7.753906 244.492188 8.199219 244.457031 8.753906 "/>
<path style=" stroke:none;fill-rule:nonzero;fill:rgb(13.729858%,12.159729%,12.548828%);fill-opacity:1;" d="M 250.46875 12.554688 L 250.46875 6.179688 L 251.4375 6.179688 L 251.4375 7.144531 C 251.6875 6.695312 251.917969 6.394531 252.128906 6.253906 C 252.335938 6.109375 252.566406 6.035156 252.820312 6.035156 C 253.183594 6.035156 253.554688 6.152344 253.929688 6.382812 L 253.558594 7.386719 C 253.296875 7.230469 253.03125 7.152344 252.765625 7.152344 C 252.527344 7.152344 252.316406 7.222656 252.128906 7.363281 C 251.941406 7.507812 251.808594 7.703125 251.726562 7.957031 C 251.605469 8.339844 251.546875 8.761719 251.546875 9.21875 L 251.546875 12.554688 L 250.46875 12.554688 "/>
<path style=" stroke:none;fill-rule:nonzero;fill:rgb(13.729858%,12.159729%,12.548828%);fill-opacity:1;" d="M 254.140625 10.652344 L 255.210938 10.484375 C 255.269531 10.914062 255.4375 11.238281 255.710938 11.46875 C 255.984375 11.695312 256.367188 11.8125 256.859375 11.8125 C 257.355469 11.8125 257.726562 11.710938 257.964844 11.507812 C 258.207031 11.304688 258.324219 11.066406 258.324219 10.796875 C 258.324219 10.550781 258.21875 10.359375 258.007812 10.21875 C 257.859375 10.125 257.488281 10.003906 256.902344 9.855469 C 256.109375 9.652344 255.558594 9.480469 255.253906 9.335938 C 254.949219 9.1875 254.714844 8.984375 254.558594 8.726562 C 254.398438 8.46875 254.320312 8.183594 254.320312 7.875 C 254.320312 7.589844 254.386719 7.324219 254.515625 7.085938 C 254.644531 6.839844 254.824219 6.640625 255.046875 6.480469 C 255.214844 6.355469 255.445312 6.25 255.734375 6.164062 C 256.023438 6.078125 256.335938 6.035156 256.667969 6.035156 C 257.167969 6.035156 257.605469 6.109375 257.984375 6.253906 C 258.363281 6.394531 258.644531 6.589844 258.824219 6.835938 C 259.003906 7.085938 259.128906 7.410156 259.195312 7.824219 L 258.140625 7.96875 C 258.089844 7.640625 257.949219 7.386719 257.722656 7.199219 C 257.492188 7.015625 257.167969 6.925781 256.746094 6.925781 C 256.25 6.925781 255.894531 7.007812 255.683594 7.171875 C 255.472656 7.335938 255.363281 7.527344 255.363281 7.746094 C 255.363281 7.886719 255.410156 8.011719 255.5 8.125 C 255.585938 8.242188 255.722656 8.335938 255.914062 8.414062 C 256.019531 8.453125 256.339844 8.546875 256.867188 8.6875 C 257.632812 8.894531 258.164062 9.058594 258.464844 9.191406 C 258.769531 9.320312 259.007812 9.511719 259.179688 9.757812 C 259.351562 10.007812 259.4375 10.3125 259.4375 10.683594 C 259.4375 11.042969 259.332031 11.382812 259.121094 11.699219 C 258.910156 12.019531 258.605469 12.265625 258.210938 12.4375 C 257.816406 12.613281 257.367188 12.699219 256.867188 12.699219 C 256.039062 12.699219 255.40625 12.527344 254.972656 12.183594 C 254.539062 11.839844 254.261719 11.328125 254.140625 10.652344 "/>
<g clip-path="url(#clip2)" clip-rule="nonzero">
<path style="fill:none;stroke-width:39.9997;stroke-linecap:butt;stroke-linejoin:miter;stroke:rgb(13.729858%,12.159729%,12.548828%);stroke-opacity:1;stroke-miterlimit:22.9256;" d="M 6155.368881 1942.955986 L 7625.273577 1627.290178 " transform="matrix(0.034154,0,0,-0.034154,0.5,72.223)"/>
</g>
<g clip-path="url(#clip3)" clip-rule="nonzero">
<path style="fill:none;stroke-width:39.9997;stroke-linecap:butt;stroke-linejoin:miter;stroke:rgb(13.729858%,12.159729%,12.548828%);stroke-opacity:1;stroke-miterlimit:22.9256;" d="M 7625.273577 2073.682804 L 6525.589975 1561.869583 " transform="matrix(0.034154,0,0,-0.034154,0.5,72.223)"/>
</g>
<path style=" stroke:none;fill-rule:nonzero;fill:rgb(13.729858%,12.159729%,12.548828%);fill-opacity:1;" d="M 3.566406 37.695312 C 2.96875 36.941406 2.464844 36.0625 2.050781 35.054688 C 1.640625 34.042969 1.433594 33 1.433594 31.917969 C 1.433594 30.964844 1.585938 30.054688 1.898438 29.179688 C 2.257812 28.167969 2.8125 27.160156 3.566406 26.15625 L 4.339844 26.15625 C 3.855469 26.988281 3.535156 27.582031 3.378906 27.9375 C 3.132812 28.488281 2.945312 29.066406 2.800781 29.667969 C 2.628906 30.417969 2.542969 31.167969 2.542969 31.925781 C 2.542969 33.851562 3.144531 35.773438 4.339844 37.695312 L 3.566406 37.695312 "/>
<path style=" stroke:none;fill-rule:nonzero;fill:rgb(13.729858%,12.159729%,12.548828%);fill-opacity:1;" d="M 5.164062 33.203125 L 6.230469 33.035156 C 6.289062 33.464844 6.457031 33.792969 6.734375 34.019531 C 7.003906 34.25 7.390625 34.363281 7.882812 34.363281 C 8.378906 34.363281 8.746094 34.261719 8.988281 34.058594 C 9.226562 33.855469 9.347656 33.621094 9.347656 33.347656 C 9.347656 33.101562 9.242188 32.914062 9.027344 32.769531 C 8.878906 32.675781 8.511719 32.554688 7.921875 32.40625 C 7.132812 32.207031 6.582031 32.035156 6.277344 31.886719 C 5.972656 31.742188 5.738281 31.539062 5.578125 31.277344 C 5.421875 31.019531 5.339844 30.734375 5.339844 30.425781 C 5.339844 30.140625 5.40625 29.878906 5.539062 29.636719 C 5.667969 29.390625 5.84375 29.191406 6.070312 29.03125 C 6.238281 28.910156 6.464844 28.800781 6.753906 28.714844 C 7.046875 28.628906 7.359375 28.585938 7.691406 28.585938 C 8.191406 28.585938 8.628906 28.660156 9.007812 28.804688 C 9.386719 28.945312 9.664062 29.140625 9.847656 29.386719 C 10.027344 29.636719 10.148438 29.964844 10.21875 30.375 L 9.160156 30.519531 C 9.113281 30.191406 8.972656 29.9375 8.742188 29.753906 C 8.515625 29.566406 8.1875 29.476562 7.769531 29.476562 C 7.273438 29.476562 6.917969 29.558594 6.707031 29.722656 C 6.492188 29.886719 6.386719 30.078125 6.386719 30.296875 C 6.386719 30.4375 6.433594 30.5625 6.519531 30.675781 C 6.609375 30.792969 6.746094 30.886719 6.933594 30.964844 C 7.042969 31.003906 7.359375 31.097656 7.890625 31.242188 C 8.652344 31.445312 9.1875 31.609375 9.488281 31.742188 C 9.789062 31.871094 10.027344 32.0625 10.199219 32.308594 C 10.371094 32.558594 10.457031 32.867188 10.457031 33.234375 C 10.457031 33.59375 10.351562 33.933594 10.144531 34.253906 C 9.933594 34.570312 9.628906 34.816406 9.234375 34.992188 C 8.835938 35.164062 8.390625 35.25 7.890625 35.25 C 7.058594 35.25 6.425781 35.078125 5.992188 34.734375 C 5.558594 34.390625 5.28125 33.878906 5.164062 33.203125 "/>
<path style=" stroke:none;fill-rule:nonzero;fill:rgb(13.729858%,12.159729%,12.548828%);fill-opacity:1;" d="M 16.105469 33.054688 L 17.222656 33.191406 C 17.046875 33.84375 16.722656 34.351562 16.246094 34.710938 C 15.769531 35.070312 15.160156 35.25 14.417969 35.25 C 13.488281 35.25 12.746094 34.964844 12.203125 34.390625 C 11.65625 33.816406 11.382812 33.011719 11.382812 31.972656 C 11.382812 30.898438 11.660156 30.066406 12.210938 29.476562 C 12.765625 28.882812 13.480469 28.585938 14.359375 28.585938 C 15.210938 28.585938 15.910156 28.878906 16.449219 29.457031 C 16.988281 30.039062 17.261719 30.855469 17.261719 31.90625 C 17.261719 31.972656 17.257812 32.066406 17.253906 32.195312 L 12.5 32.195312 C 12.539062 32.894531 12.738281 33.433594 13.09375 33.804688 C 13.449219 34.175781 13.894531 34.363281 14.425781 34.363281 C 14.820312 34.363281 15.160156 34.257812 15.441406 34.050781 C 15.722656 33.84375 15.941406 33.511719 16.105469 33.054688 Z M 12.558594 31.304688 L 16.117188 31.304688 C 16.070312 30.769531 15.933594 30.367188 15.710938 30.101562 C 15.367188 29.683594 14.917969 29.476562 14.371094 29.476562 C 13.875 29.476562 13.457031 29.640625 13.121094 29.972656 C 12.78125 30.304688 12.597656 30.75 12.558594 31.304688 "/>
<path style=" stroke:none;fill-rule:nonzero;fill:rgb(13.729858%,12.159729%,12.548828%);fill-opacity:1;" d="M 18.582031 35.105469 L 18.582031 28.730469 L 19.554688 28.730469 L 19.554688 29.636719 C 20.023438 28.9375 20.699219 28.585938 21.582031 28.585938 C 21.96875 28.585938 22.320312 28.65625 22.640625 28.792969 C 22.964844 28.933594 23.203125 29.113281 23.363281 29.339844 C 23.527344 29.5625 23.636719 29.828125 23.703125 30.136719 C 23.742188 30.335938 23.761719 30.6875 23.761719 31.1875 L 23.761719 35.105469 L 22.679688 35.105469 L 22.679688 31.226562 C 22.679688 30.789062 22.640625 30.460938 22.554688 30.238281 C 22.472656 30.023438 22.320312 29.847656 22.109375 29.71875 C 21.894531 29.589844 21.644531 29.523438 21.355469 29.523438 C 20.894531 29.523438 20.496094 29.671875 20.160156 29.960938 C 19.828125 30.253906 19.660156 30.808594 19.660156 31.625 L 19.660156 35.105469 L 18.582031 35.105469 "/>
<path style=" stroke:none;fill-rule:nonzero;fill:rgb(13.729858%,12.159729%,12.548828%);fill-opacity:1;" d="M 24.988281 33.203125 L 26.054688 33.035156 C 26.113281 33.464844 26.28125 33.792969 26.558594 34.019531 C 26.828125 34.25 27.214844 34.363281 27.707031 34.363281 C 28.203125 34.363281 28.570312 34.261719 28.8125 34.058594 C 29.050781 33.855469 29.171875 33.621094 29.171875 33.347656 C 29.171875 33.101562 29.066406 32.914062 28.851562 32.769531 C 28.703125 32.675781 28.335938 32.554688 27.746094 32.40625 C 26.957031 32.207031 26.40625 32.035156 26.101562 31.886719 C 25.796875 31.742188 25.5625 31.539062 25.402344 31.277344 C 25.246094 31.019531 25.164062 30.734375 25.164062 30.425781 C 25.164062 30.140625 25.230469 29.878906 25.363281 29.636719 C 25.492188 29.390625 25.671875 29.191406 25.894531 29.03125 C 26.0625 28.910156 26.289062 28.800781 26.578125 28.714844 C 26.871094 28.628906 27.183594 28.585938 27.515625 28.585938 C 28.015625 28.585938 28.453125 28.660156 28.832031 28.804688 C 29.210938 28.945312 29.488281 29.140625 29.671875 29.386719 C 29.851562 29.636719 29.972656 29.964844 30.042969 30.375 L 28.984375 30.519531 C 28.9375 30.191406 28.796875 29.9375 28.566406 29.753906 C 28.339844 29.566406 28.011719 29.476562 27.59375 29.476562 C 27.097656 29.476562 26.742188 29.558594 26.53125 29.722656 C 26.316406 29.886719 26.210938 30.078125 26.210938 30.296875 C 26.210938 30.4375 26.257812 30.5625 26.34375 30.675781 C 26.433594 30.792969 26.570312 30.886719 26.757812 30.964844 C 26.867188 31.003906 27.183594 31.097656 27.714844 31.242188 C 28.476562 31.445312 29.011719 31.609375 29.3125 31.742188 C 29.613281 31.871094 29.851562 32.0625 30.023438 32.308594 C 30.195312 32.558594 30.28125 32.867188 30.28125 33.234375 C 30.28125 33.59375 30.175781 33.933594 29.96875 34.253906 C 29.757812 34.570312 29.453125 34.816406 29.058594 34.992188 C 28.660156 35.164062 28.214844 35.25 27.714844 35.25 C 26.882812 35.25 26.253906 35.078125 25.816406 34.734375 C 25.382812 34.390625 25.105469 33.878906 24.988281 33.203125 "/>
<path style=" stroke:none;fill-rule:nonzero;fill:rgb(13.729858%,12.159729%,12.548828%);fill-opacity:1;" d="M 31.164062 31.917969 C 31.164062 30.738281 31.492188 29.863281 32.148438 29.296875 C 32.695312 28.824219 33.363281 28.585938 34.152344 28.585938 C 35.03125 28.585938 35.75 28.875 36.304688 29.449219 C 36.859375 30.023438 37.136719 30.816406 37.136719 31.828125 C 37.136719 32.648438 37.015625 33.296875 36.769531 33.765625 C 36.523438 34.234375 36.164062 34.601562 35.695312 34.859375 C 35.222656 35.121094 34.710938 35.25 34.152344 35.25 C 33.261719 35.25 32.542969 34.964844 31.988281 34.390625 C 31.4375 33.820312 31.164062 32.996094 31.164062 31.917969 Z M 32.273438 31.917969 C 32.273438 32.734375 32.453125 33.347656 32.808594 33.753906 C 33.167969 34.160156 33.613281 34.363281 34.152344 34.363281 C 34.691406 34.363281 35.136719 34.160156 35.492188 33.75 C 35.847656 33.34375 36.027344 32.71875 36.027344 31.882812 C 36.027344 31.09375 35.847656 30.496094 35.488281 30.089844 C 35.132812 29.683594 34.6875 29.480469 34.152344 29.480469 C 33.613281 29.480469 33.167969 29.683594 32.808594 30.089844 C 32.453125 30.492188 32.273438 31.101562 32.273438 31.917969 "/>
<path style=" stroke:none;fill-rule:nonzero;fill:rgb(13.729858%,12.159729%,12.548828%);fill-opacity:1;" d="M 38.394531 35.105469 L 38.394531 28.730469 L 39.363281 28.730469 L 39.363281 29.695312 C 39.613281 29.246094 39.84375 28.945312 40.054688 28.804688 C 40.261719 28.660156 40.496094 28.585938 40.746094 28.585938 C 41.109375 28.585938 41.480469 28.703125 41.855469 28.933594 L 41.484375 29.9375 C 41.222656 29.78125 40.957031 29.703125 40.691406 29.703125 C 40.457031 29.703125 40.246094 29.773438 40.054688 29.917969 C 39.867188 30.058594 39.734375 30.257812 39.652344 30.507812 C 39.535156 30.890625 39.472656 31.3125 39.472656 31.769531 L 39.472656 35.105469 L 38.394531 35.105469 "/>
<path style=" stroke:none;fill-rule:nonzero;fill:rgb(13.729858%,12.159729%,12.548828%);fill-opacity:1;" d="M 43.207031 37.695312 L 42.433594 37.695312 C 43.628906 35.773438 44.226562 33.851562 44.226562 31.925781 C 44.226562 31.171875 44.140625 30.425781 43.96875 29.683594 C 43.835938 29.085938 43.644531 28.507812 43.398438 27.957031 C 43.246094 27.597656 42.921875 26.996094 42.433594 26.15625 L 43.207031 26.15625 C 43.960938 27.160156 44.515625 28.167969 44.878906 29.179688 C 45.183594 30.054688 45.339844 30.964844 45.339844 31.917969 C 45.339844 33 45.132812 34.042969 44.71875 35.054688 C 44.304688 36.0625 43.800781 36.941406 43.207031 37.695312 "/>
<path style=" stroke:none;fill-rule:nonzero;fill:rgb(13.729858%,12.159729%,12.548828%);fill-opacity:1;" d="M 54.375 33.054688 L 55.492188 33.191406 C 55.3125 33.84375 54.988281 34.351562 54.511719 34.710938 C 54.035156 35.070312 53.425781 35.25 52.6875 35.25 C 51.753906 35.25 51.015625 34.964844 50.46875 34.390625 C 49.921875 33.816406 49.648438 33.011719 49.648438 31.972656 C 49.648438 30.898438 49.925781 30.066406 50.476562 29.476562 C 51.03125 28.882812 51.746094 28.585938 52.628906 28.585938 C 53.480469 28.585938 54.175781 28.878906 54.714844 29.457031 C 55.257812 30.039062 55.527344 30.855469 55.527344 31.90625 C 55.527344 31.972656 55.527344 32.066406 55.519531 32.195312 L 50.765625 32.195312 C 50.804688 32.894531 51.003906 33.433594 51.363281 33.804688 C 51.71875 34.175781 52.160156 34.363281 52.695312 34.363281 C 53.089844 34.363281 53.425781 34.257812 53.707031 34.050781 C 53.988281 33.84375 54.210938 33.511719 54.375 33.054688 Z M 50.828125 31.304688 L 54.386719 31.304688 C 54.339844 30.769531 54.203125 30.367188 53.976562 30.101562 C 53.632812 29.683594 53.1875 29.476562 52.640625 29.476562 C 52.144531 29.476562 51.726562 29.640625 51.386719 29.972656 C 51.050781 30.304688 50.863281 30.75 50.828125 31.304688 "/>
<path style=" stroke:none;fill-rule:nonzero;fill:rgb(13.729858%,12.159729%,12.548828%);fill-opacity:1;" d="M 58.621094 35.105469 L 56.195312 28.730469 L 57.335938 28.730469 L 58.703125 32.550781 C 58.851562 32.960938 58.988281 33.390625 59.113281 33.835938 C 59.207031 33.5 59.339844 33.09375 59.511719 32.621094 L 60.929688 28.730469 L 62.042969 28.730469 L 59.628906 35.105469 L 58.621094 35.105469 "/>
<path style=" stroke:none;fill-rule:nonzero;fill:rgb(13.729858%,12.159729%,12.548828%);fill-opacity:1;" d="M 67.359375 33.054688 L 68.476562 33.191406 C 68.300781 33.84375 67.976562 34.351562 67.5 34.710938 C 67.023438 35.070312 66.414062 35.25 65.671875 35.25 C 64.742188 35.25 64 34.964844 63.457031 34.390625 C 62.910156 33.816406 62.636719 33.011719 62.636719 31.972656 C 62.636719 30.898438 62.914062 30.066406 63.464844 29.476562 C 64.015625 28.882812 64.734375 28.585938 65.613281 28.585938 C 66.464844 28.585938 67.164062 28.878906 67.703125 29.457031 C 68.242188 30.039062 68.511719 30.855469 68.511719 31.90625 C 68.511719 31.972656 68.511719 32.066406 68.507812 32.195312 L 63.753906 32.195312 C 63.792969 32.894531 63.992188 33.433594 64.347656 33.804688 C 64.703125 34.175781 65.148438 34.363281 65.679688 34.363281 C 66.074219 34.363281 66.414062 34.257812 66.695312 34.050781 C 66.976562 33.84375 67.195312 33.511719 67.359375 33.054688 Z M 63.8125 31.304688 L 67.371094 31.304688 C 67.324219 30.769531 67.1875 30.367188 66.964844 30.101562 C 66.621094 29.683594 66.171875 29.476562 65.625 29.476562 C 65.128906 29.476562 64.710938 29.640625 64.375 29.972656 C 64.035156 30.304688 63.847656 30.75 63.8125 31.304688 "/>
<path style=" stroke:none;fill-rule:nonzero;fill:rgb(13.729858%,12.159729%,12.548828%);fill-opacity:1;" d="M 69.835938 35.105469 L 69.835938 28.730469 L 70.808594 28.730469 L 70.808594 29.636719 C 71.277344 28.9375 71.953125 28.585938 72.835938 28.585938 C 73.21875 28.585938 73.574219 28.65625 73.894531 28.792969 C 74.21875 28.933594 74.457031 29.113281 74.617188 29.339844 C 74.78125 29.5625 74.890625 29.828125 74.957031 30.136719 C 74.996094 30.335938 75.015625 30.6875 75.015625 31.1875 L 75.015625 35.105469 L 73.933594 35.105469 L 73.933594 31.226562 C 73.933594 30.789062 73.894531 30.460938 73.808594 30.238281 C 73.722656 30.023438 73.574219 29.847656 73.363281 29.71875 C 73.148438 29.589844 72.898438 29.523438 72.609375 29.523438 C 72.148438 29.523438 71.75 29.671875 71.414062 29.960938 C 71.082031 30.253906 70.914062 30.808594 70.914062 31.625 L 70.914062 35.105469 L 69.835938 35.105469 "/>
<path style=" stroke:none;fill-rule:nonzero;fill:rgb(13.729858%,12.159729%,12.548828%);fill-opacity:1;" d="M 79.03125 34.140625 L 79.1875 35.09375 C 78.886719 35.160156 78.613281 35.191406 78.371094 35.191406 C 77.980469 35.191406 77.675781 35.128906 77.457031 35.003906 C 77.242188 34.882812 77.089844 34.71875 77.003906 34.515625 C 76.914062 34.3125 76.871094 33.886719 76.871094 33.242188 L 76.871094 29.570312 L 76.078125 29.570312 L 76.078125 28.730469 L 76.871094 28.730469 L 76.871094 27.152344 L 77.945312 26.503906 L 77.945312 28.730469 L 79.03125 28.730469 L 79.03125 29.570312 L 77.945312 29.570312 L 77.945312 33.300781 C 77.945312 33.609375 77.964844 33.804688 78 33.894531 C 78.039062 33.980469 78.101562 34.050781 78.1875 34.105469 C 78.273438 34.15625 78.398438 34.183594 78.554688 34.183594 C 78.679688 34.183594 78.835938 34.167969 79.03125 34.140625 "/>
<path style=" stroke:none;fill-rule:nonzero;fill:rgb(13.729858%,12.159729%,12.548828%);fill-opacity:1;" d="M 79.65625 33.203125 L 80.726562 33.035156 C 80.785156 33.464844 80.953125 33.792969 81.226562 34.019531 C 81.5 34.25 81.882812 34.363281 82.375 34.363281 C 82.871094 34.363281 83.242188 34.261719 83.480469 34.058594 C 83.71875 33.855469 83.84375 33.621094 83.84375 33.347656 C 83.84375 33.101562 83.734375 32.914062 83.523438 32.769531 C 83.375 32.675781 83.003906 32.554688 82.417969 32.40625 C 81.625 32.207031 81.074219 32.035156 80.769531 31.886719 C 80.464844 31.742188 80.230469 31.539062 80.074219 31.277344 C 79.914062 31.019531 79.835938 30.734375 79.835938 30.425781 C 79.835938 30.140625 79.902344 29.878906 80.03125 29.636719 C 80.160156 29.390625 80.339844 29.191406 80.5625 29.03125 C 80.730469 28.910156 80.960938 28.800781 81.25 28.714844 C 81.539062 28.628906 81.851562 28.585938 82.183594 28.585938 C 82.683594 28.585938 83.121094 28.660156 83.5 28.804688 C 83.878906 28.945312 84.160156 29.140625 84.339844 29.386719 C 84.519531 29.636719 84.644531 29.964844 84.710938 30.375 L 83.65625 30.519531 C 83.605469 30.191406 83.46875 29.9375 83.238281 29.753906 C 83.007812 29.566406 82.683594 29.476562 82.261719 29.476562 C 81.765625 29.476562 81.410156 29.558594 81.199219 29.722656 C 80.988281 29.886719 80.878906 30.078125 80.878906 30.296875 C 80.878906 30.4375 80.925781 30.5625 81.015625 30.675781 C 81.101562 30.792969 81.238281 30.886719 81.429688 30.964844 C 81.535156 31.003906 81.855469 31.097656 82.382812 31.242188 C 83.148438 31.445312 83.679688 31.609375 83.980469 31.742188 C 84.285156 31.871094 84.523438 32.0625 84.695312 32.308594 C 84.867188 32.558594 84.953125 32.867188 84.953125 33.234375 C 84.953125 33.59375 84.847656 33.933594 84.636719 34.253906 C 84.425781 34.570312 84.121094 34.816406 83.726562 34.992188 C 83.332031 35.164062 82.882812 35.25 82.382812 35.25 C 81.554688 35.25 80.921875 35.078125 80.488281 34.734375 C 80.050781 34.390625 79.777344 33.878906 79.65625 33.203125 "/>
<path style=" stroke:none;fill-rule:nonzero;fill:rgb(13.729858%,12.159729%,12.548828%);fill-opacity:1;" d="M 3.566406 57.273438 C 2.96875 56.519531 2.464844 55.640625 2.050781 54.628906 C 1.640625 53.621094 1.433594 52.578125 1.433594 51.496094 C 1.433594 50.542969 1.585938 49.628906 1.898438 48.757812 C 2.257812 47.746094 2.8125 46.738281 3.566406 45.734375 L 4.339844 45.734375 C 3.855469 46.566406 3.535156 47.160156 3.378906 47.515625 C 3.132812 48.066406 2.945312 48.644531 2.800781 49.246094 C 2.628906 49.992188 2.542969 50.746094 2.542969 51.5 C 2.542969 53.429688 3.144531 55.351562 4.339844 57.273438 L 3.566406 57.273438 "/>
<path style=" stroke:none;fill-rule:nonzero;fill:rgb(13.729858%,12.159729%,12.548828%);fill-opacity:1;" d="M 9.753906 52.347656 L 10.816406 52.488281 C 10.703125 53.21875 10.40625 53.792969 9.925781 54.207031 C 9.449219 54.621094 8.859375 54.828125 8.164062 54.828125 C 7.292969 54.828125 6.589844 54.542969 6.0625 53.972656 C 5.53125 53.402344 5.265625 52.585938 5.265625 51.519531 C 5.265625 50.832031 5.378906 50.230469 5.605469 49.710938 C 5.835938 49.195312 6.183594 48.808594 6.648438 48.550781 C 7.113281 48.292969 7.621094 48.164062 8.167969 48.164062 C 8.863281 48.164062 9.429688 48.339844 9.867188 48.691406 C 10.308594 49.039062 10.589844 49.535156 10.71875 50.183594 L 9.664062 50.34375 C 9.566406 49.914062 9.390625 49.59375 9.132812 49.375 C 8.878906 49.160156 8.574219 49.050781 8.210938 49.050781 C 7.667969 49.050781 7.226562 49.246094 6.882812 49.640625 C 6.542969 50.027344 6.375 50.644531 6.375 51.488281 C 6.375 52.347656 6.539062 52.96875 6.867188 53.359375 C 7.195312 53.746094 7.625 53.941406 8.152344 53.941406 C 8.578125 53.941406 8.929688 53.808594 9.214844 53.546875 C 9.5 53.289062 9.679688 52.890625 9.753906 52.347656 "/>
<path style=" stroke:none;fill-rule:nonzero;fill:rgb(13.729858%,12.159729%,12.548828%);fill-opacity:1;" d="M 11.339844 51.496094 C 11.339844 50.316406 11.667969 49.441406 12.324219 48.871094 C 12.871094 48.402344 13.539062 48.164062 14.328125 48.164062 C 15.207031 48.164062 15.925781 48.449219 16.480469 49.027344 C 17.035156 49.601562 17.3125 50.394531 17.3125 51.40625 C 17.3125 52.226562 17.191406 52.871094 16.945312 53.339844 C 16.699219 53.8125 16.339844 54.179688 15.871094 54.4375 C 15.398438 54.699219 14.886719 54.828125 14.328125 54.828125 C 13.4375 54.828125 12.714844 54.542969 12.164062 53.96875 C 11.613281 53.398438 11.339844 52.574219 11.339844 51.496094 Z M 12.449219 51.496094 C 12.449219 52.3125 12.628906 52.921875 12.984375 53.328125 C 13.339844 53.738281 13.789062 53.941406 14.328125 53.941406 C 14.867188 53.941406 15.3125 53.734375 15.667969 53.328125 C 16.023438 52.917969 16.203125 52.296875 16.203125 51.460938 C 16.203125 50.671875 16.023438 50.074219 15.664062 49.667969 C 15.308594 49.261719 14.863281 49.058594 14.328125 49.058594 C 13.789062 49.058594 13.339844 49.261719 12.984375 49.664062 C 12.628906 50.070312 12.449219 50.679688 12.449219 51.496094 "/>
<path style=" stroke:none;fill-rule:nonzero;fill:rgb(13.729858%,12.159729%,12.548828%);fill-opacity:1;" d="M 18.582031 54.683594 L 18.582031 48.308594 L 19.554688 48.308594 L 19.554688 49.214844 C 20.023438 48.515625 20.699219 48.164062 21.582031 48.164062 C 21.96875 48.164062 22.320312 48.234375 22.640625 48.371094 C 22.964844 48.507812 23.203125 48.691406 23.363281 48.914062 C 23.527344 49.140625 23.636719 49.40625 23.703125 49.710938 C 23.742188 49.914062 23.761719 50.265625 23.761719 50.765625 L 23.761719 54.683594 L 22.679688 54.683594 L 22.679688 50.804688 C 22.679688 50.367188 22.640625 50.035156 22.554688 49.816406 C 22.472656 49.601562 22.320312 49.425781 22.109375 49.296875 C 21.894531 49.164062 21.644531 49.101562 21.355469 49.101562 C 20.894531 49.101562 20.496094 49.246094 20.160156 49.539062 C 19.828125 49.832031 19.660156 50.382812 19.660156 51.203125 L 19.660156 54.683594 L 18.582031 54.683594 "/>
<path style=" stroke:none;fill-rule:nonzero;fill:rgb(13.729858%,12.159729%,12.548828%);fill-opacity:1;" d="M 27.777344 53.714844 L 27.933594 54.671875 C 27.632812 54.734375 27.359375 54.769531 27.117188 54.769531 C 26.726562 54.769531 26.421875 54.707031 26.203125 54.582031 C 25.988281 54.457031 25.839844 54.292969 25.75 54.089844 C 25.660156 53.890625 25.617188 53.464844 25.617188 52.816406 L 25.617188 49.148438 L 24.824219 49.148438 L 24.824219 48.308594 L 25.617188 48.308594 L 25.617188 46.730469 L 26.691406 46.082031 L 26.691406 48.308594 L 27.777344 48.308594 L 27.777344 49.148438 L 26.691406 49.148438 L 26.691406 52.875 C 26.691406 53.1875 26.710938 53.382812 26.746094 53.472656 C 26.785156 53.558594 26.847656 53.628906 26.933594 53.683594 C 27.019531 53.734375 27.144531 53.761719 27.304688 53.761719 C 27.425781 53.761719 27.582031 53.746094 27.777344 53.714844 "/>
<path style=" stroke:none;fill-rule:nonzero;fill:rgb(13.729858%,12.159729%,12.548828%);fill-opacity:1;" d="M 28.824219 54.683594 L 28.824219 48.308594 L 29.796875 48.308594 L 29.796875 49.273438 C 30.042969 48.824219 30.273438 48.523438 30.484375 48.378906 C 30.691406 48.238281 30.925781 48.164062 31.175781 48.164062 C 31.542969 48.164062 31.910156 48.28125 32.285156 48.511719 L 31.914062 49.515625 C 31.652344 49.359375 31.386719 49.28125 31.125 49.28125 C 30.886719 49.28125 30.675781 49.351562 30.484375 49.492188 C 30.296875 49.636719 30.164062 49.832031 30.085938 50.085938 C 29.964844 50.46875 29.902344 50.890625 29.902344 51.34375 L 29.902344 54.683594 L 28.824219 54.683594 "/>
<path style=" stroke:none;fill-rule:nonzero;fill:rgb(13.729858%,12.159729%,12.548828%);fill-opacity:1;" d="M 32.527344 51.496094 C 32.527344 50.316406 32.855469 49.441406 33.511719 48.871094 C 34.058594 48.402344 34.726562 48.164062 35.515625 48.164062 C 36.394531 48.164062 37.109375 48.449219 37.667969 49.027344 C 38.222656 49.601562 38.5 50.394531 38.5 51.40625 C 38.5 52.226562 38.378906 52.871094 38.132812 53.339844 C 37.886719 53.8125 37.527344 54.179688 37.058594 54.4375 C 36.585938 54.699219 36.074219 54.828125 35.515625 54.828125 C 34.625 54.828125 33.902344 54.542969 33.351562 53.96875 C 32.800781 53.398438 32.527344 52.574219 32.527344 51.496094 Z M 33.636719 51.496094 C 33.636719 52.3125 33.816406 52.921875 34.171875 53.328125 C 34.527344 53.738281 34.976562 53.941406 35.515625 53.941406 C 36.054688 53.941406 36.5 53.734375 36.855469 53.328125 C 37.210938 52.917969 37.390625 52.296875 37.390625 51.460938 C 37.390625 50.671875 37.210938 50.074219 36.851562 49.667969 C 36.496094 49.261719 36.050781 49.058594 35.515625 49.058594 C 34.976562 49.058594 34.527344 49.261719 34.171875 49.664062 C 33.816406 50.070312 33.636719 50.679688 33.636719 51.496094 "/>
<path style=" stroke:none;fill-rule:nonzero;fill:rgb(13.729858%,12.159729%,12.548828%);fill-opacity:1;" d="M 39.746094 54.683594 L 39.746094 45.882812 L 40.824219 45.882812 L 40.824219 54.683594 L 39.746094 54.683594 "/>
<path style=" stroke:none;fill-rule:nonzero;fill:rgb(13.729858%,12.159729%,12.548828%);fill-opacity:1;" d="M 43.207031 57.273438 L 42.433594 57.273438 C 43.628906 55.351562 44.226562 53.429688 44.226562 51.5 C 44.226562 50.75 44.140625 50.003906 43.96875 49.261719 C 43.835938 48.664062 43.644531 48.085938 43.398438 47.535156 C 43.246094 47.171875 42.921875 46.574219 42.433594 45.734375 L 43.207031 45.734375 C 43.960938 46.738281 44.515625 47.746094 44.878906 48.757812 C 45.183594 49.628906 45.339844 50.542969 45.339844 51.496094 C 45.339844 52.578125 45.132812 53.621094 44.71875 54.628906 C 44.304688 55.640625 43.800781 56.519531 43.207031 57.273438 "/>
<path style=" stroke:none;fill-rule:nonzero;fill:rgb(13.729858%,12.159729%,12.548828%);fill-opacity:1;" d="M 49.605469 51.496094 C 49.605469 50.316406 49.933594 49.441406 50.59375 48.871094 C 51.140625 48.402344 51.808594 48.164062 52.597656 48.164062 C 53.472656 48.164062 54.191406 48.449219 54.746094 49.027344 C 55.304688 49.601562 55.582031 50.394531 55.582031 51.40625 C 55.582031 52.226562 55.457031 52.871094 55.210938 53.339844 C 54.964844 53.8125 54.609375 54.179688 54.136719 54.4375 C 53.667969 54.699219 53.15625 54.828125 52.597656 54.828125 C 51.707031 54.828125 50.984375 54.542969 50.433594 53.96875 C 49.882812 53.398438 49.605469 52.574219 49.605469 51.496094 Z M 50.71875 51.496094 C 50.71875 52.3125 50.894531 52.921875 51.253906 53.328125 C 51.609375 53.738281 52.058594 53.941406 52.597656 53.941406 C 53.132812 53.941406 53.582031 53.734375 53.9375 53.328125 C 54.292969 52.917969 54.46875 52.296875 54.46875 51.460938 C 54.46875 50.671875 54.292969 50.074219 53.933594 49.667969 C 53.574219 49.261719 53.128906 49.058594 52.597656 49.058594 C 52.058594 49.058594 51.609375 49.261719 51.253906 49.664062 C 50.894531 50.070312 50.71875 50.679688 50.71875 51.496094 "/>
<path style=" stroke:none;fill-rule:nonzero;fill:rgb(13.729858%,12.159729%,12.548828%);fill-opacity:1;" d="M 61.027344 54.683594 L 61.027344 53.746094 C 60.53125 54.46875 59.855469 54.828125 59.003906 54.828125 C 58.628906 54.828125 58.277344 54.753906 57.949219 54.613281 C 57.625 54.46875 57.382812 54.285156 57.222656 54.070312 C 57.066406 53.851562 56.953125 53.582031 56.890625 53.269531 C 56.847656 53.054688 56.824219 52.71875 56.824219 52.257812 L 56.824219 48.308594 L 57.90625 48.308594 L 57.90625 51.84375 C 57.90625 52.410156 57.925781 52.789062 57.96875 52.984375 C 58.039062 53.269531 58.183594 53.492188 58.402344 53.65625 C 58.625 53.816406 58.898438 53.898438 59.21875 53.898438 C 59.542969 53.898438 59.847656 53.816406 60.132812 53.648438 C 60.417969 53.484375 60.617188 53.253906 60.734375 52.972656 C 60.855469 52.683594 60.914062 52.269531 60.914062 51.726562 L 60.914062 48.308594 L 61.992188 48.308594 L 61.992188 54.683594 L 61.027344 54.683594 "/>
<path style=" stroke:none;fill-rule:nonzero;fill:rgb(13.729858%,12.159729%,12.548828%);fill-opacity:1;" d="M 66.046875 53.714844 L 66.203125 54.671875 C 65.898438 54.734375 65.625 54.769531 65.386719 54.769531 C 64.992188 54.769531 64.691406 54.707031 64.472656 54.582031 C 64.257812 54.457031 64.105469 54.292969 64.015625 54.089844 C 63.929688 53.890625 63.882812 53.464844 63.882812 52.816406 L 63.882812 49.148438 L 63.089844 49.148438 L 63.089844 48.308594 L 63.882812 48.308594 L 63.882812 46.730469 L 64.960938 46.082031 L 64.960938 48.308594 L 66.046875 48.308594 L 66.046875 49.148438 L 64.960938 49.148438 L 64.960938 52.875 C 64.960938 53.1875 64.980469 53.382812 65.015625 53.472656 C 65.054688 53.558594 65.117188 53.628906 65.203125 53.683594 C 65.289062 53.734375 65.410156 53.761719 65.570312 53.761719 C 65.691406 53.761719 65.847656 53.746094 66.046875 53.714844 "/>
<path style=" stroke:none;fill-rule:nonzero;fill:rgb(13.729858%,12.159729%,12.548828%);fill-opacity:1;" d="M 67.105469 57.125 L 67.105469 48.308594 L 68.085938 48.308594 L 68.085938 49.136719 C 68.320312 48.8125 68.582031 48.570312 68.875 48.40625 C 69.164062 48.246094 69.519531 48.164062 69.9375 48.164062 C 70.480469 48.164062 70.960938 48.304688 71.375 48.582031 C 71.792969 48.863281 72.109375 49.257812 72.320312 49.769531 C 72.53125 50.28125 72.640625 50.839844 72.640625 51.449219 C 72.640625 52.101562 72.523438 52.6875 72.285156 53.210938 C 72.050781 53.734375 71.710938 54.132812 71.265625 54.410156 C 70.820312 54.6875 70.351562 54.828125 69.859375 54.828125 C 69.496094 54.828125 69.175781 54.75 68.886719 54.601562 C 68.601562 54.449219 68.367188 54.253906 68.183594 54.023438 L 68.183594 57.125 Z M 68.082031 51.53125 C 68.082031 52.351562 68.246094 52.957031 68.578125 53.351562 C 68.910156 53.742188 69.316406 53.941406 69.785156 53.941406 C 70.265625 53.941406 70.675781 53.738281 71.019531 53.328125 C 71.363281 52.921875 71.535156 52.292969 71.535156 51.441406 C 71.535156 50.628906 71.367188 50.023438 71.03125 49.617188 C 70.699219 49.210938 70.296875 49.007812 69.835938 49.007812 C 69.375 49.007812 68.964844 49.226562 68.613281 49.65625 C 68.257812 50.085938 68.082031 50.710938 68.082031 51.53125 "/>
<path style=" stroke:none;fill-rule:nonzero;fill:rgb(13.729858%,12.159729%,12.548828%);fill-opacity:1;" d="M 78.121094 54.683594 L 78.121094 53.746094 C 77.621094 54.46875 76.949219 54.828125 76.097656 54.828125 C 75.722656 54.828125 75.367188 54.753906 75.042969 54.613281 C 74.714844 54.46875 74.472656 54.285156 74.316406 54.070312 C 74.15625 53.851562 74.046875 53.582031 73.984375 53.269531 C 73.941406 53.054688 73.917969 52.71875 73.917969 52.257812 L 73.917969 48.308594 L 74.996094 48.308594 L 74.996094 51.84375 C 74.996094 52.410156 75.019531 52.789062 75.0625 52.984375 C 75.132812 53.269531 75.277344 53.492188 75.496094 53.65625 C 75.714844 53.816406 75.988281 53.898438 76.3125 53.898438 C 76.636719 53.898438 76.941406 53.816406 77.226562 53.648438 C 77.507812 53.484375 77.710938 53.253906 77.828125 52.972656 C 77.945312 52.683594 78.003906 52.269531 78.003906 51.726562 L 78.003906 48.308594 L 79.085938 48.308594 L 79.085938 54.683594 L 78.121094 54.683594 "/>
<path style=" stroke:none;fill-rule:nonzero;fill:rgb(13.729858%,12.159729%,12.548828%);fill-opacity:1;" d="M 83.140625 53.714844 L 83.292969 54.671875 C 82.992188 54.734375 82.71875 54.769531 82.480469 54.769531 C 82.085938 54.769531 81.78125 54.707031 81.566406 54.582031 C 81.351562 54.457031 81.199219 54.292969 81.109375 54.089844 C 81.023438 53.890625 80.976562 53.464844 80.976562 52.816406 L 80.976562 49.148438 L 80.183594 49.148438 L 80.183594 48.308594 L 80.976562 48.308594 L 80.976562 46.730469 L 82.054688 46.082031 L 82.054688 48.308594 L 83.140625 48.308594 L 83.140625 49.148438 L 82.054688 49.148438 L 82.054688 52.875 C 82.054688 53.1875 82.070312 53.382812 82.109375 53.472656 C 82.148438 53.558594 82.207031 53.628906 82.292969 53.683594 C 82.378906 53.734375 82.503906 53.761719 82.664062 53.761719 C 82.785156 53.761719 82.941406 53.746094 83.140625 53.714844 "/>
<path style=" stroke:none;fill-rule:nonzero;fill:rgb(13.729858%,12.159729%,12.548828%);fill-opacity:1;" d="M 83.765625 52.78125 L 84.832031 52.613281 C 84.890625 53.039062 85.058594 53.367188 85.332031 53.597656 C 85.605469 53.824219 85.988281 53.941406 86.484375 53.941406 C 86.980469 53.941406 87.347656 53.835938 87.589844 53.636719 C 87.828125 53.433594 87.949219 53.195312 87.949219 52.925781 C 87.949219 52.679688 87.84375 52.488281 87.628906 52.347656 C 87.480469 52.25 87.113281 52.128906 86.523438 51.984375 C 85.734375 51.78125 85.183594 51.609375 84.875 51.460938 C 84.570312 51.316406 84.335938 51.113281 84.179688 50.855469 C 84.023438 50.597656 83.941406 50.3125 83.941406 50 C 83.941406 49.714844 84.007812 49.453125 84.140625 49.210938 C 84.269531 48.96875 84.445312 48.769531 84.667969 48.609375 C 84.835938 48.484375 85.066406 48.378906 85.355469 48.292969 C 85.648438 48.207031 85.957031 48.164062 86.289062 48.164062 C 86.789062 48.164062 87.230469 48.238281 87.609375 48.378906 C 87.988281 48.523438 88.265625 48.71875 88.445312 48.964844 C 88.625 49.210938 88.75 49.539062 88.816406 49.953125 L 87.761719 50.097656 C 87.714844 49.769531 87.574219 49.511719 87.34375 49.328125 C 87.113281 49.144531 86.789062 49.050781 86.367188 49.050781 C 85.871094 49.050781 85.519531 49.132812 85.308594 49.296875 C 85.09375 49.460938 84.988281 49.65625 84.988281 49.875 C 84.988281 50.015625 85.03125 50.140625 85.121094 50.253906 C 85.207031 50.371094 85.347656 50.464844 85.535156 50.542969 C 85.644531 50.582031 85.960938 50.671875 86.488281 50.816406 C 87.253906 51.023438 87.785156 51.1875 88.089844 51.320312 C 88.390625 51.449219 88.628906 51.640625 88.800781 51.886719 C 88.972656 52.136719 89.058594 52.441406 89.058594 52.8125 C 89.058594 53.171875 88.953125 53.511719 88.742188 53.828125 C 88.53125 54.148438 88.230469 54.394531 87.832031 54.566406 C 87.4375 54.742188 86.988281 54.828125 86.488281 54.828125 C 85.660156 54.828125 85.027344 54.65625 84.59375 54.3125 C 84.160156 53.964844 83.882812 53.457031 83.765625 52.78125 "/>
</g>
</svg>
